<?xml version="1.0" encoding="utf-8"?>
<!-- Generator: Adobe Illustrator 19.0.0, SVG Export Plug-In . SVG Version: 6.00 Build 0)  -->
<!DOCTYPE svg PUBLIC "-//W3C//DTD SVG 1.1//EN" "http://www.w3.org/Graphics/SVG/1.1/DTD/svg11.dtd">
<svg version="1.1" id="Layer_1" xmlns="http://www.w3.org/2000/svg" xmlns:xlink="http://www.w3.org/1999/xlink" x="0px" y="0px"
	 viewBox="0 0 146 326.8" style="enable-background:new 0 0 146 326.8;" xml:space="preserve">
<style type="text/css">
	.st0{fill:#64C8EA;}
	.st1{opacity:0.2;}
	.st2{fill:#069AD1;}
	.st3{opacity:0.5;}
	.st4{fill:url(#XMLID_8_);}
	.st5{fill:url(#XMLID_9_);}
	.st6{fill:#979797;}
	.st7{fill:url(#XMLID_12_);}
	.st8{fill:none;stroke:#037C9D;stroke-width:2.1408;stroke-linecap:round;stroke-miterlimit:10;}
	.st9{fill:none;stroke:#DEDDDD;stroke-miterlimit:10;}
	.st10{fill:none;stroke:#DEDDDD;stroke-width:0.7136;stroke-miterlimit:10;}
	.st11{fill:#E0E0DF;}
	.st12{fill:#BAB9BA;}
	.st13{fill:url(#XMLID_13_);}
	.st14{fill:#67727B;}
	.st15{fill:none;stroke:#C5C4C4;stroke-width:4.9953;stroke-miterlimit:10;stroke-dasharray:0.7136,1.4272;}
	.st16{fill:url(#XMLID_119_);}
	.st17{fill:url(#XMLID_145_);}
	.st18{fill:url(#XMLID_149_);}
	.st19{fill:url(#XMLID_150_);}
	.st20{fill:none;stroke:#BEBDBE;stroke-width:0.6723;stroke-miterlimit:10;}
	.st21{opacity:0.76;fill:url(#XMLID_151_);}
	.st22{fill:none;stroke:#8A8B8B;stroke-width:4.9953;stroke-miterlimit:10;stroke-dasharray:0.7136,1.4272;}
	.st23{opacity:0.76;fill:url(#XMLID_152_);}
	.st24{opacity:0.76;fill:url(#XMLID_153_);}
	.st25{fill:url(#XMLID_154_);}
	.st26{fill:#2080BE;}
	.st27{fill:#009A51;}
	.st28{fill:#C8C8C8;}
	.st29{fill:#626262;}
	.st30{fill:none;stroke:#929297;stroke-width:2.1408;stroke-linecap:round;stroke-miterlimit:10;}
	.st31{fill:url(#XMLID_156_);}
	.st32{fill:none;stroke:#C5C4C4;stroke-width:0.7136;stroke-miterlimit:10;}
	.st33{stroke:#F2F2F2;stroke-width:3.3615;stroke-miterlimit:10;}
	.st34{fill:#E6E6E6;}
	.st35{fill:url(#XMLID_210_);}
	.st36{fill:url(#XMLID_211_);}
	.st37{fill:none;stroke:#D0CFCF;stroke-width:4.9953;stroke-miterlimit:10;stroke-dasharray:0.7136,1.4272;}
	.st38{fill:url(#XMLID_212_);}
	.st39{fill:#D0CFCF;}
	.st40{opacity:0.5;fill:#E6E6E6;}
	.st41{fill:#F2F2F2;}
	.st42{fill:url(#XMLID_213_);}
	.st43{fill:#D8D8D8;}
	.st44{fill:none;stroke:#BAB9BA;stroke-width:9.277;stroke-miterlimit:10;stroke-dasharray:0.7136,1.4272;}
	.st45{fill:#ADADAD;}
	.st46{fill:none;stroke:#C5C4C4;stroke-miterlimit:10;}
	.st47{fill:url(#XMLID_218_);}
</style>
<g id="XMLID_5_">
	<g id="XMLID_7_">
		<g id="XMLID_11_">
			<path id="XMLID_141_" class="st0" d="M73.1,320.3c-6,0-12.4,0.9-12.4,2.7c0,1.9,6.4,2.7,12.4,2.7c6,0,12.4-0.9,12.4-2.7
				C85.6,321.1,79.1,320.3,73.1,320.3z M73.1,324.9c-7.3,0-11.3-1.2-11.3-1.8c0-0.6,4-1.8,11.3-1.8c7.3,0,11.3,1.2,11.3,1.8
				C84.4,323.6,80.4,324.9,73.1,324.9z"/>
			<path id="XMLID_138_" class="st0" d="M73.1,311.1c-8.3,0-17.2,1.2-17.2,3.8c0,2.6,8.9,3.8,17.2,3.8c8.3,0,17.2-1.2,17.2-3.8
				C90.3,312.3,81.4,311.1,73.1,311.1z M73.1,317.4c-10,0-15.5-1.6-15.5-2.5c0-0.8,5.5-2.5,15.5-2.5c10,0,15.5,1.6,15.5,2.5
				C88.6,315.8,83.1,317.4,73.1,317.4z"/>
			<g id="XMLID_125_">
				<g id="XMLID_134_" class="st1">
					<path id="XMLID_135_" class="st2" d="M73.1,325.5c-6,0-12.4-0.9-12.4-2.7s6.4-2.7,12.4-2.7c6,0,12.4,0.9,12.4,2.7
						S79.1,325.5,73.1,325.5z M73.1,320.9c-7.3,0-11.3,1.2-11.3,1.8s4,1.8,11.3,1.8c7.3,0,11.3-1.2,11.3-1.8S80.4,320.9,73.1,320.9z
						"/>
				</g>
				<g id="XMLID_130_" class="st3">
					<path id="XMLID_131_" class="st2" d="M73.1,318.5c-8.3,0-17.2-1.2-17.2-3.8c0-2.6,8.9-3.8,17.2-3.8c8.3,0,17.2,1.2,17.2,3.8
						C90.3,317.3,81.4,318.5,73.1,318.5z M73.1,312.2c-10,0-15.5,1.6-15.5,2.5s5.5,2.5,15.5,2.5c10,0,15.5-1.6,15.5-2.5
						S83.1,312.2,73.1,312.2z"/>
				</g>
				<g id="XMLID_126_">
					<path id="XMLID_127_" class="st2" d="M73.1,309.6c-7.4,0-21.5-1-21.5-4.8s14.1-4.8,21.5-4.8c7.4,0,21.5,1,21.5,4.8
						S80.6,309.6,73.1,309.6z M73.1,301.7c-12.7,0-19.2,2.1-19.2,3s6.5,3,19.2,3s19.2-2.1,19.2-3S85.8,301.7,73.1,301.7z"/>
				</g>
			</g>
			<radialGradient id="XMLID_8_" cx="73.147" cy="243.9521" r="53.5034" gradientUnits="userSpaceOnUse">
				<stop  offset="0" style="stop-color:#CBCBCB"/>
				<stop  offset="0.8697" style="stop-color:#C7C7C7"/>
				<stop  offset="1" style="stop-color:#C6C6C6"/>
			</radialGradient>
			<path id="XMLID_124_" class="st4" d="M110.4,194.1l-29.3-8.9l-8-0.3l-8,0.3l-29.3,8.9c-1.6,0.5-3,2-3.6,4l-5.1,16.8
				c-1.8,5.8-1.8,12.3,0,18.1l15.1,49.7l7.6,9.8v6.3l5.9,1.7c11.4,3.3,23.3,3.3,34.7,0l5.9-1.7v-6.3l7.6-9.8l15.1-49.7
				c1.8-5.8,1.8-12.3,0-18.1l-5.1-16.8C113.4,196.1,112.1,194.6,110.4,194.1z"/>
			<linearGradient id="XMLID_9_" gradientUnits="userSpaceOnUse" x1="73.147" y1="274.2309" x2="73.147" y2="293.4133">
				<stop  offset="0" style="stop-color:#A9A9A9"/>
				<stop  offset="0.1463" style="stop-color:#AFAFAF"/>
				<stop  offset="0.5593" style="stop-color:#BAB9BA"/>
				<stop  offset="1" style="stop-color:#BEBDBE"/>
			</linearGradient>
			<polygon id="XMLID_123_" class="st5" points="72.8,285.9 73.5,285.9 79.7,290.9 74.7,277.1 74.6,277.1 71.7,277.1 71.6,277.1 
				66.6,290.9 			"/>
			<g id="XMLID_96_">
				<g id="XMLID_110_">
					<path id="XMLID_122_" class="st6" d="M120,271l1.5,9.7l3.2,0.2l2,7.5l3.9-0.4l2.5-2.2c2.6-2.4,4.4-5.5,5.1-9l1.1-6L120,271z"/>
					<linearGradient id="XMLID_12_" gradientUnits="userSpaceOnUse" x1="118.2762" y1="234.8147" x2="140.6627" y2="234.8147">
						<stop  offset="0" style="stop-color:#C5C4C4"/>
						<stop  offset="0.1049" style="stop-color:#C9C8C8"/>
						<stop  offset="0.538" style="stop-color:#D3D3D3"/>
						<stop  offset="1" style="stop-color:#D7D7D7"/>
					</linearGradient>
					<path id="XMLID_121_" class="st7" d="M118.3,196.9c-0.1,4.4,0,21.2,0.7,38.7c0.6,14.4-0.9,28.6,0.2,37.7c0,0,16,0.3,21.4-2.9
						c0,0,0.5-19.8-4.1-38.4c-3.9-15.8-9.1-31.5-17.2-35.8C118.9,196,118.3,196.4,118.3,196.9z"/>
					<path id="XMLID_120_" class="st8" d="M139.6,263.3c0,0,5.7-2.8,4.6-10.6c-1.1-7.8-6.6-8.4-6.6-8.4"/>
					<path id="XMLID_4_" class="st9" d="M125,243.5v-11.4l5-4.4c0,0-1.3-8.9-4.2-13.8"/>
					<polyline id="XMLID_118_" class="st10" points="129.6,222.2 125.3,219.7 122.2,212.6 					"/>
					<path id="XMLID_117_" class="st11" d="M118.1,205.5l7.1-3.7l0.1,0c0.6-0.3,1.2-0.1,1.6,0.4c0,0,0,0,0,0c1.4,2.2,4.7,8.2,7,15.8
						c0.2,0.6-0.1,1.3-0.7,1.6l0,0c0,0-5.3-5.9-14.9-5.6C118.1,213.8,118,207.8,118.1,205.5z"/>
					<polygon id="XMLID_116_" class="st12" points="120.1,206 124.2,204 122.9,206.6 					"/>
					<path id="XMLID_115_" class="st11" d="M138.3,236.2c-4.4-7.6-16,6.6-19.5,10.9c-0.3,10.2-1.5,19.7-0.7,26.3
						c0,0,18.3,0.4,23.7-2.8C141.8,270.5,141.2,253.9,138.3,236.2z"/>
					<linearGradient id="XMLID_13_" gradientUnits="userSpaceOnUse" x1="117.7764" y1="264.8496" x2="141.7946" y2="264.8496">
						<stop  offset="0" style="stop-color:#A9A9A9"/>
						<stop  offset="0.1463" style="stop-color:#AFAFAF"/>
						<stop  offset="0.5593" style="stop-color:#BAB9BA"/>
						<stop  offset="1" style="stop-color:#BEBDBE"/>
					</linearGradient>
					<path id="XMLID_114_" class="st13" d="M118.1,273.4c0,0,18.3,0.4,23.7-2.8c0,0-0.2-5.8-1-14.2c-6.7,7.2-18.4,9.3-23,9.8
						C117.7,268.7,117.8,271.3,118.1,273.4z"/>
					<circle id="XMLID_113_" class="st14" cx="135.7" cy="238.4" r="1.2"/>
					<line id="XMLID_112_" class="st15" x1="125.3" y1="250.1" x2="125.3" y2="257.9"/>
					<radialGradient id="XMLID_119_" cx="129.9153" cy="270.334" r="8.7463" gradientUnits="userSpaceOnUse">
						<stop  offset="0" style="stop-color:#D7D7D7"/>
						<stop  offset="0.696" style="stop-color:#D4D3D3"/>
						<stop  offset="1" style="stop-color:#D0CFCF"/>
					</radialGradient>
					<path id="XMLID_111_" class="st16" d="M118,270.9c0,0,17.4,0.1,23.8-3.6l0.2,3.3c0,0-3.7,3.4-23.7,2.8
						C118.2,273.4,117.9,272.3,118,270.9z"/>
				</g>
				<g id="XMLID_97_">
					<path id="XMLID_109_" class="st6" d="M26,271l-1.5,9.7l-3.2,0.2l-2,7.5l-3.9-0.4l-2.5-2.2c-2.6-2.4-4.4-5.5-5.1-9l-1.1-6
						L26,271z"/>
					
						<linearGradient id="XMLID_145_" gradientUnits="userSpaceOnUse" x1="3096.4084" y1="234.8147" x2="3118.7949" y2="234.8147" gradientTransform="matrix(-1 0 0 1 3124.1323 0)">
						<stop  offset="0" style="stop-color:#C5C4C4"/>
						<stop  offset="0.1049" style="stop-color:#C9C8C8"/>
						<stop  offset="0.538" style="stop-color:#D3D3D3"/>
						<stop  offset="1" style="stop-color:#D7D7D7"/>
					</linearGradient>
					<path id="XMLID_108_" class="st17" d="M27.7,196.9c0.1,4.4,0,21.2-0.7,38.7c-0.6,14.4,0.9,28.6-0.2,37.7c0,0-16,0.3-21.4-2.9
						c0,0-0.5-19.8,4.1-38.4c3.9-15.8,9.1-31.5,17.2-35.8C27.1,196,27.7,196.4,27.7,196.9z"/>
					<path id="XMLID_107_" class="st8" d="M6.4,263.3c0,0-5.7-2.8-4.6-10.6s6.6-8.4,6.6-8.4"/>
					<path id="XMLID_3_" class="st9" d="M18,243.5v-11.4l-3.5-4.4c0,0,0.6-8.9,3.4-13.8"/>
					<polyline id="XMLID_105_" class="st10" points="16.4,222.2 20.7,219.7 23.8,212.6 					"/>
					<path id="XMLID_104_" class="st11" d="M27.9,205.5l-7.1-3.7l-0.1,0c-0.6-0.3-1.2-0.1-1.6,0.4c0,0,0,0,0,0
						c-1.4,2.2-4.7,8.2-7,15.8c-0.2,0.6,0.1,1.3,0.7,1.6h0c0,0,5.3-5.9,14.9-5.6C27.9,213.8,28,207.8,27.9,205.5z"/>
					<polygon id="XMLID_103_" class="st12" points="25.9,206 21.8,204 23.1,206.6 					"/>
					<path id="XMLID_102_" class="st11" d="M7.7,236.2c4.4-7.6,16,6.6,19.5,10.9c0.3,10.2,1.5,19.7,0.7,26.3c0,0-18.3,0.4-23.7-2.8
						C4.2,270.5,4.8,253.9,7.7,236.2z"/>
					<linearGradient id="XMLID_149_" gradientUnits="userSpaceOnUse" x1="4.2054" y1="264.8496" x2="28.2236" y2="264.8496">
						<stop  offset="0" style="stop-color:#BEBDBE"/>
						<stop  offset="0.4407" style="stop-color:#BAB9BA"/>
						<stop  offset="0.8537" style="stop-color:#AFAFAF"/>
						<stop  offset="1" style="stop-color:#A9A9A9"/>
					</linearGradient>
					<path id="XMLID_101_" class="st18" d="M27.9,273.4c0,0-18.3,0.4-23.7-2.8c0,0,0.2-5.8,1-14.2c6.7,7.2,18.4,9.3,23,9.8
						C28.3,268.7,28.2,271.3,27.9,273.4z"/>
					<circle id="XMLID_100_" class="st14" cx="10.3" cy="238.4" r="1.2"/>
					<line id="XMLID_99_" class="st15" x1="20.7" y1="250.1" x2="20.7" y2="257.9"/>
					
						<radialGradient id="XMLID_150_" cx="3108.0474" cy="270.334" r="8.7463" gradientTransform="matrix(-1 0 0 1 3124.1323 0)" gradientUnits="userSpaceOnUse">
						<stop  offset="0" style="stop-color:#D7D7D7"/>
						<stop  offset="0.696" style="stop-color:#D4D3D3"/>
						<stop  offset="1" style="stop-color:#D0CFCF"/>
					</radialGradient>
					<path id="XMLID_98_" class="st19" d="M28,270.9c0,0-17.4,0.1-23.8-3.6l-0.2,3.3c0,0,3.7,3.4,23.7,2.8
						C27.8,273.4,28.1,272.3,28,270.9z"/>
				</g>
			</g>
			<g id="XMLID_89_">
				<polyline id="XMLID_95_" class="st20" points="83.2,270.7 83.2,278.6 89.2,284.6 89.2,295.9 				"/>
				<polyline id="XMLID_94_" class="st20" points="63,270.7 63,278.6 57.1,284.6 57.1,295.9 				"/>
				<polyline id="XMLID_93_" class="st20" points="89.2,291.3 96.8,283.7 96.8,255.9 				"/>
				<polyline id="XMLID_92_" class="st20" points="57.1,291.3 49.5,283.7 49.5,255.9 				"/>
				<polyline id="XMLID_91_" class="st20" points="96.8,269.3 103.4,264.1 103.4,256.8 				"/>
				<polyline id="XMLID_90_" class="st20" points="49.5,269.3 42.9,264.1 42.9,256.8 				"/>
			</g>
			<g id="XMLID_54_">
				<linearGradient id="XMLID_151_" gradientUnits="userSpaceOnUse" x1="73.147" y1="215.3995" x2="73.147" y2="274.8538">
					<stop  offset="0" style="stop-color:#8C8D8D"/>
					<stop  offset="0.2675" style="stop-color:#9A9A9A"/>
					<stop  offset="0.6219" style="stop-color:#A5A5A5"/>
					<stop  offset="1" style="stop-color:#A9A9A9"/>
				</linearGradient>
				<polygon id="XMLID_88_" class="st21" points="77.3,244.3 69,244.3 69,267.6 73.1,269.3 77.3,267.6 				"/>
				<line id="XMLID_87_" class="st22" x1="73.1" y1="264.1" x2="73.1" y2="247.2"/>
				<linearGradient id="XMLID_152_" gradientUnits="userSpaceOnUse" x1="85.1539" y1="271.259" x2="85.1539" y2="240.9651">
					<stop  offset="0" style="stop-color:#BEBDBE"/>
					<stop  offset="0.4407" style="stop-color:#BAB9BA"/>
					<stop  offset="0.8537" style="stop-color:#AFAFAF"/>
					<stop  offset="1" style="stop-color:#A9A9A9"/>
				</linearGradient>
				<polygon id="XMLID_86_" class="st23" points="77.3,267.6 83.2,273.6 86.7,264.1 93.1,259.7 81.1,244.3 77.3,244.3 				"/>
				<linearGradient id="XMLID_153_" gradientUnits="userSpaceOnUse" x1="61.1402" y1="271.259" x2="61.1402" y2="240.9651">
					<stop  offset="0" style="stop-color:#BEBDBE"/>
					<stop  offset="0.4407" style="stop-color:#BAB9BA"/>
					<stop  offset="0.8537" style="stop-color:#AFAFAF"/>
					<stop  offset="1" style="stop-color:#A9A9A9"/>
				</linearGradient>
				<polygon id="XMLID_85_" class="st24" points="69,267.6 63.1,273.6 59.6,264.1 53.2,259.7 65.2,244.3 69,244.3 				"/>
				
					<radialGradient id="XMLID_154_" cx="73.4701" cy="198.514" r="42.6087" gradientTransform="matrix(1 0 0 0.4148 0 116.1736)" gradientUnits="userSpaceOnUse">
					<stop  offset="0" style="stop-color:#A9A9A9"/>
					<stop  offset="0.134" style="stop-color:#B5B5B5"/>
					<stop  offset="0.4109" style="stop-color:#C8C8C8"/>
					<stop  offset="0.6961" style="stop-color:#D3D3D3"/>
					<stop  offset="1" style="stop-color:#D7D7D7"/>
				</radialGradient>
				<path id="XMLID_84_" class="st25" d="M119,214.9l-5.1-16.8c-0.6-2-2-3.5-3.6-4l-29.3-8.9l-7.3-0.3v0l-0.6,0l0,0l0,0l-0.6,0v0
					l-7.3,0.3l-29.3,8.9c-1.6,0.5-3,2-3.6,4l-5.1,16.8c-1.8,5.8-1.8,12.3,0,18.1l6.3,20.9l0,0l19.6,5.7l6.2-5.7l5.7-9.7l8-5.4l8,5.4
					l5.7,9.7l6.2,5.7l19.6-5.7l0,0L119,233C120.8,227.2,120.8,220.8,119,214.9z"/>
				<g id="XMLID_81_">
					<circle id="XMLID_83_" class="st26" cx="97.5" cy="213" r="1.2"/>
					<circle id="XMLID_82_" class="st27" cx="103.2" cy="213" r="1.2"/>
				</g>
				<g id="XMLID_74_">
					<path id="XMLID_80_" class="st28" d="M104,242.4c-0.1,0-0.3-0.1-0.4-0.2c-0.2-0.2-0.2-0.6,0-0.8l4.4-4.4c0.2-0.2,0.6-0.2,0.8,0
						c0.2,0.2,0.2,0.6,0,0.8l-4.4,4.4C104.3,242.3,104.1,242.4,104,242.4z"/>
					<path id="XMLID_79_" class="st28" d="M104,234.5c-0.1,0-0.3-0.1-0.4-0.2c-0.2-0.2-0.2-0.6,0-0.8l4.4-4.4c0.2-0.2,0.6-0.2,0.8,0
						c0.2,0.2,0.2,0.6,0,0.8l-4.4,4.4C104.3,234.4,104.1,234.5,104,234.5z"/>
					<path id="XMLID_78_" class="st28" d="M104,238.4c-0.1,0-0.3-0.1-0.4-0.2c-0.2-0.2-0.2-0.6,0-0.8l4.4-4.4c0.2-0.2,0.6-0.2,0.8,0
						c0.2,0.2,0.2,0.6,0,0.8l-4.4,4.4C104.3,238.4,104.1,238.4,104,238.4z"/>
					<path id="XMLID_77_" class="st28" d="M42.3,242.4c-0.1,0-0.3-0.1-0.4-0.2l-4.4-4.4c-0.2-0.2-0.2-0.6,0-0.8
						c0.2-0.2,0.6-0.2,0.8,0l4.4,4.4c0.2,0.2,0.2,0.6,0,0.8C42.6,242.3,42.5,242.4,42.3,242.4z"/>
					<path id="XMLID_76_" class="st28" d="M42.3,234.5c-0.1,0-0.3-0.1-0.4-0.2l-4.4-4.4c-0.2-0.2-0.2-0.6,0-0.8
						c0.2-0.2,0.6-0.2,0.8,0l4.4,4.4c0.2,0.2,0.2,0.6,0,0.8C42.6,234.4,42.5,234.5,42.3,234.5z"/>
					<path id="XMLID_75_" class="st28" d="M42.3,238.4c-0.1,0-0.3-0.1-0.4-0.2l-4.4-4.4c-0.2-0.2-0.2-0.6,0-0.8
						c0.2-0.2,0.6-0.2,0.8,0l4.4,4.4c0.2,0.2,0.2,0.6,0,0.8C42.6,238.4,42.5,238.4,42.3,238.4z"/>
				</g>
				<polygon id="XMLID_73_" class="st11" points="33.5,254 38.7,251 51.2,251 63.7,246.5 59.3,254 53.2,259.7 				"/>
				<polygon id="XMLID_72_" class="st11" points="112.6,254 107.4,251 94.9,251 82.4,246.5 86.8,254 93,259.7 				"/>
				<g id="XMLID_68_">
					<circle id="XMLID_71_" class="st29" cx="81.4" cy="252.3" r="1.9"/>
					<circle id="XMLID_70_" class="st29" cx="88.5" cy="243.3" r="1.9"/>
					<path id="XMLID_69_" class="st30" d="M81.4,252.3c0,0,8.1-1.6,7.1-9"/>
				</g>
				<linearGradient id="XMLID_156_" gradientUnits="userSpaceOnUse" x1="73.1098" y1="244.4802" x2="73.1098" y2="236.1977">
					<stop  offset="0" style="stop-color:#9D9D9D"/>
					<stop  offset="0.2768" style="stop-color:#999999"/>
					<stop  offset="0.5367" style="stop-color:#8E8E8E"/>
					<stop  offset="0.7889" style="stop-color:#7B7B7B"/>
					<stop  offset="1" style="stop-color:#656565"/>
				</linearGradient>
				<polygon id="XMLID_67_" class="st31" points="65.1,244.3 81.1,244.3 73.1,238.9 				"/>
				<g id="XMLID_64_">
					<circle id="XMLID_66_" class="st12" cx="43.1" cy="213" r="1.2"/>
					<circle id="XMLID_65_" class="st12" cx="48.8" cy="213" r="1.2"/>
				</g>
				<polyline id="XMLID_63_" class="st32" points="73.1,217.7 82.5,208.3 103.5,208.3 113.9,198 				"/>
				<polyline id="XMLID_62_" class="st32" points="73,217.7 63.7,208.3 42.6,208.3 32.3,198 				"/>
				<polyline id="XMLID_61_" class="st32" points="81.1,244.3 92.8,232.6 92.8,208.3 				"/>
				<polyline id="XMLID_60_" class="st32" points="65.3,244.3 53.7,232.6 53.7,208.3 				"/>
				<line id="XMLID_59_" class="st32" x1="73.1" y1="238.9" x2="73.1" y2="232.1"/>
				<g id="XMLID_56_">
					<polyline id="XMLID_58_" class="st32" points="92.6,226.9 100.3,219.3 108.9,217.3 108.9,203.2 					"/>
					<polyline id="XMLID_57_" class="st32" points="53.7,226.9 46,219.3 37.4,217.3 37.4,203.2 					"/>
				</g>
				<circle id="XMLID_55_" class="st33" cx="73.1" cy="222.8" r="9.3"/>
			</g>
			<g id="XMLID_17_">
				<path id="XMLID_53_" class="st30" d="M122,147.9c0,0,5.2-18.2-7.6-18.1"/>
				<path id="XMLID_52_" class="st8" d="M21.8,148.9c0,0-4.1-14.3,8.7-16.9"/>
				<path id="XMLID_51_" class="st34" d="M125.3,148.4l-9.7-17.9c-6.5-12-17.8-20.7-31.1-24l0,0c-7.5-1.8-15.4-1.8-22.9,0l0,0
					c-13.3,3.2-24.6,11.9-31.1,24L21,148.4l-8.4,4l6.1,28.7l4.6,3.2l32.5,15l0.6,0.2c10.9,3.6,22.7,3.6,33.7,0l0.6-0.2l32.5-15
					l4.6-3.2l6.1-28.7L125.3,148.4z"/>
				<radialGradient id="XMLID_210_" cx="17.895" cy="166.3474" r="13.2343" gradientUnits="userSpaceOnUse">
					<stop  offset="0" style="stop-color:#D7D7D7"/>
					<stop  offset="0.696" style="stop-color:#D4D3D3"/>
					<stop  offset="1" style="stop-color:#D0CFCF"/>
				</radialGradient>
				<polygon id="XMLID_50_" class="st35" points="21,148.4 23.2,184.3 18.7,181.1 12.5,152.4 				"/>
				<radialGradient id="XMLID_211_" cx="128.399" cy="166.3474" r="13.2343" gradientUnits="userSpaceOnUse">
					<stop  offset="0" style="stop-color:#D7D7D7"/>
					<stop  offset="0.696" style="stop-color:#D4D3D3"/>
					<stop  offset="1" style="stop-color:#D0CFCF"/>
				</radialGradient>
				<polygon id="XMLID_49_" class="st36" points="125.3,148.4 123,184.3 127.6,181.1 133.8,152.4 				"/>
				<line id="XMLID_48_" class="st37" x1="101.5" y1="145.1" x2="101.5" y2="131.8"/>
				<line id="XMLID_47_" class="st37" x1="44.8" y1="145.1" x2="44.8" y2="131.8"/>
				<radialGradient id="XMLID_212_" cx="73.147" cy="149.3771" r="16.6331" gradientUnits="userSpaceOnUse">
					<stop  offset="0" style="stop-color:#D7D7D7"/>
					<stop  offset="0.696" style="stop-color:#D4D3D3"/>
					<stop  offset="1" style="stop-color:#D0CFCF"/>
				</radialGradient>
				<path id="XMLID_46_" class="st38" d="M52.6,138L52.6,138c12.9,6.7,28.3,6.7,41.2,0l0,0v17.2l-20.6,5.6l-20.6-4.3V138z"/>
				<path id="XMLID_45_" class="st39" d="M94.7,110.3c-0.7-0.3-1.3-0.6-2-0.9v45.9h2V110.3z"/>
				<path id="XMLID_44_" class="st39" d="M51.6,110.3v44.9h2v-45.9C52.9,109.6,52.2,109.9,51.6,110.3z"/>
				<polygon id="XMLID_43_" class="st40" points="12.5,152.4 21,148.4 21.1,150.4 12.7,153.3 				"/>
				<polygon id="XMLID_42_" class="st40" points="133.8,152.4 125.3,148.4 125.2,150.4 133.6,153.3 				"/>
				<g id="XMLID_39_">
					<path id="XMLID_41_" class="st11" d="M73.1,101.8L73.1,101.8c-4.4,0-7.9,3.5-7.9,7.9v0c0,8.9,2.7,17.5,7.7,24.8l0.2,0.2
						l0.2-0.2c5-7.3,7.7-16,7.7-24.8v0C81,105.4,77.5,101.8,73.1,101.8z"/>
					<path id="XMLID_40_" class="st41" d="M73.3,134.6c5-7.3,7.7-16,7.7-24.8c0-4.4-3.5-7.9-7.9-7.9v33L73.3,134.6z"/>
				</g>
				<circle id="XMLID_38_" class="st34" cx="73.1" cy="150.6" r="1.7"/>
				<circle id="XMLID_37_" class="st34" cx="67.4" cy="150" r="1.7"/>
				<circle id="XMLID_36_" class="st34" cx="78.9" cy="150" r="1.7"/>
				<path id="XMLID_35_" class="st41" d="M73.1,158.4l-38.3-7.8l3.9,23.5l16.9,20.1l8.4,2.1c6,1.5,12.3,1.5,18.3,0l8.4-2.1
					l16.9-20.1l3.9-23.5L73.1,158.4z"/>
				<g id="XMLID_33_">
					<rect id="XMLID_34_" x="72.3" y="172.3" class="st34" width="1.7" height="9.2"/>
				</g>
				<polygon id="XMLID_32_" class="st34" points="84.1,156.2 84.1,169 85.8,169 85.8,155.8 				"/>
				<polygon id="XMLID_31_" class="st34" points="60.5,155.8 60.5,169 62.2,169 62.2,156.2 				"/>
				<g id="XMLID_25_">
					<path id="XMLID_217_" d="M73.1,173.3c-6.1,0-12.2-0.7-18.1-1.9l-9.9-2.1c-1-0.2-1.7-1-1.9-2c-0.1-0.7,0.1-1.4,0.5-2
						c0.5-0.6,1.1-0.9,1.9-0.9c0.2,0,0.3,0,0.5,0.1l10.3,2.1c5.5,1.1,11.1,1.7,16.6,1.7s11.2-0.6,16.6-1.7l10.3-2.1
						c0.2,0,0.3-0.1,0.5-0.1c0.7,0,1.4,0.3,1.9,0.9c0.5,0.5,0.7,1.3,0.5,2c-0.2,1-0.9,1.8-1.9,2l-9.9,2.1
						C85.3,172.6,79.2,173.3,73.1,173.3z"/>
					<path id="XMLID_214_" class="st34" d="M100.6,165.4c0.8,0,1.5,0.8,1.4,1.6c-0.1,0.6-0.5,1-1.1,1.1l-9.9,2.1
						c-5.9,1.3-11.9,1.9-17.9,1.9c-6,0-12-0.6-17.9-1.9l-9.9-2.1c-0.6-0.1-1-0.6-1.1-1.1c-0.1-0.9,0.5-1.6,1.4-1.6
						c0.1,0,0.2,0,0.3,0l10.3,2.1c5.6,1.1,11.2,1.7,16.8,1.7c5.6,0,11.3-0.6,16.8-1.7l10.3-2.1C100.4,165.4,100.5,165.4,100.6,165.4
						 M100.6,163.4c-0.2,0-0.5,0-0.7,0.1l-10.3,2.1c-5.4,1.1-10.9,1.7-16.4,1.7c-5.5,0-11-0.6-16.4-1.7l-10.3-2.1
						c-0.2,0-0.5-0.1-0.7-0.1c-1,0-2,0.4-2.7,1.2c-0.7,0.8-0.9,1.8-0.8,2.8c0.2,1.4,1.3,2.5,2.7,2.8l9.9,2.1c6,1.3,12.2,2,18.3,2
						c6.1,0,12.3-0.7,18.3-2l9.9-2.1c1.4-0.3,2.5-1.4,2.7-2.8c0.2-1-0.1-2-0.8-2.8C102.6,163.8,101.6,163.4,100.6,163.4L100.6,163.4
						z"/>
				</g>
				<g id="XMLID_18_">
					<radialGradient id="XMLID_213_" cx="73.147" cy="189.1693" r="13.6681" gradientUnits="userSpaceOnUse">
						<stop  offset="0" style="stop-color:#D7D7D7"/>
						<stop  offset="0.4871" style="stop-color:#D3D3D3"/>
						<stop  offset="0.9436" style="stop-color:#C8C8C8"/>
						<stop  offset="1" style="stop-color:#C6C6C6"/>
					</radialGradient>
					<path id="XMLID_24_" class="st42" d="M87.4,185.9l-14.2-5l-14.2,5l-3.3,8.3l4.7,1.5c2.4,0.8,4.9,1.3,7.4,1.4l3.5,0.2
						c1.3,0.1,2.5,0.1,3.8,0l3.5-0.2c2.5-0.2,5-0.6,7.4-1.4l4.7-1.5L87.4,185.9z"/>
					<polygon id="XMLID_23_" class="st43" points="87.4,185.9 107.6,174.1 90.6,194.2 					"/>
					<polygon id="XMLID_22_" class="st43" points="58.9,185.9 38.7,174.1 55.7,194.2 					"/>
					<line id="XMLID_21_" class="st44" x1="73.1" y1="194.2" x2="73.1" y2="186.1"/>
					<circle id="XMLID_20_" class="st12" cx="81.8" cy="190.5" r="0.8"/>
					<circle id="XMLID_19_" class="st12" cx="64.5" cy="190.5" r="0.8"/>
				</g>
			</g>
			<path id="XMLID_16_" class="st45" d="M96.4,293.1v6.3l-5.9,1.7c-11.4,3.3-23.3,3.3-34.7,0l-5.9-1.7v-6.3l12.8,2.9
				c6.9,1.6,14,1.6,20.9,0L96.4,293.1z"/>
		</g>
		<polyline id="XMLID_2_" class="st46" points="91.3,232.9 96,228.6 96,222.5 		"/>
		<polyline id="XMLID_1_" class="st46" points="52.7,232.9 48,228.6 48,222.5 		"/>
	</g>
	<linearGradient id="XMLID_218_" gradientUnits="userSpaceOnUse" x1="72.9583" y1="2.2422" x2="72.9583" y2="77.5756">
		<stop  offset="0" style="stop-color:#CEE755"/>
		<stop  offset="1" style="stop-color:#B1CD2D"/>
	</linearGradient>
	<path id="XMLID_10_" class="st47" d="M136.3,1.2H9.6c-2.4,0-4.3,1.9-4.3,4.3v68c0,2.4,1.9,4.3,4.3,4.3H59L73,91.8l13.9-13.9h49.4
		c2.4,0,4.3-1.9,4.3-4.3v-68C140.6,3.2,138.7,1.2,136.3,1.2z"/>
</g>
</svg>
