<?xml version="1.0" encoding="utf-8"?>
<!-- Generator: Adobe Illustrator 19.0.0, SVG Export Plug-In . SVG Version: 6.00 Build 0)  -->
<!DOCTYPE svg PUBLIC "-//W3C//DTD SVG 1.1//EN" "http://www.w3.org/Graphics/SVG/1.1/DTD/svg11.dtd">
<svg version="1.1" id="Layer_1" xmlns="http://www.w3.org/2000/svg" xmlns:xlink="http://www.w3.org/1999/xlink" x="0px" y="0px"
	 viewBox="0 0 146 326.8" style="enable-background:new 0 0 146 326.8;" xml:space="preserve">
<style type="text/css">
	.st0{fill:url(#XMLID_2_);}
	.st1{fill:#E6E6E6;}
	.st2{fill:url(#XMLID_3_);}
</style>
<g id="XMLID_12_">
	<linearGradient id="XMLID_2_" gradientUnits="userSpaceOnUse" x1="43.2572" y1="168.8428" x2="103.0368" y2="168.8428">
		<stop  offset="0" style="stop-color:#3FBA61"/>
		<stop  offset="7.630640e-02" style="stop-color:#36B572"/>
		<stop  offset="0.2519" style="stop-color:#25AB94"/>
		<stop  offset="0.4312" style="stop-color:#17A4AF"/>
		<stop  offset="0.6135" style="stop-color:#0E9EC2"/>
		<stop  offset="0.8007" style="stop-color:#089BCD"/>
		<stop  offset="1" style="stop-color:#069AD1"/>
	</linearGradient>
	<path id="XMLID_24_" class="st0" d="M73.1,173.3c-6.1,0-12.2-0.7-18.1-1.9l-9.9-2.1c-1-0.2-1.7-1-1.9-2c-0.1-0.7,0.1-1.4,0.5-2
		c0.5-0.6,1.1-0.9,1.9-0.9c0.2,0,0.3,0,0.5,0.1l10.3,2.1c5.5,1.1,11.1,1.7,16.6,1.7s11.2-0.6,16.6-1.7l10.3-2.1
		c0.2,0,0.3-0.1,0.5-0.1c0.7,0,1.4,0.3,1.9,0.9c0.5,0.5,0.7,1.3,0.5,2c-0.2,1-0.9,1.8-1.9,2l-9.9,2.1
		C85.3,172.6,79.2,173.3,73.1,173.3z"/>
	<path id="XMLID_21_" class="st1" d="M100.6,165.4c0.8,0,1.5,0.8,1.4,1.6c-0.1,0.6-0.5,1-1.1,1.1l-9.9,2.1
		c-5.9,1.3-11.9,1.9-17.9,1.9c-6,0-12-0.6-17.9-1.9l-9.9-2.1c-0.6-0.1-1-0.6-1.1-1.1c-0.1-0.9,0.5-1.6,1.4-1.6c0.1,0,0.2,0,0.3,0
		l10.3,2.1c5.6,1.1,11.2,1.7,16.8,1.7c5.6,0,11.3-0.6,16.8-1.7l10.3-2.1C100.4,165.4,100.5,165.4,100.6,165.4 M100.6,163.4
		c-0.2,0-0.5,0-0.7,0.1l-10.3,2.1c-5.4,1.1-10.9,1.7-16.4,1.7c-5.5,0-11-0.6-16.4-1.7l-10.3-2.1c-0.2,0-0.5-0.1-0.7-0.1
		c-1,0-2,0.4-2.7,1.2c-0.7,0.8-0.9,1.8-0.8,2.8c0.2,1.4,1.3,2.5,2.7,2.8l9.9,2.1c6,1.3,12.2,2,18.3,2c6.1,0,12.3-0.7,18.3-2l9.9-2.1
		c1.4-0.3,2.5-1.4,2.7-2.8c0.2-1-0.1-2-0.8-2.8C102.6,163.8,101.6,163.4,100.6,163.4L100.6,163.4z"/>
</g>
<linearGradient id="XMLID_3_" gradientUnits="userSpaceOnUse" x1="65.5625" y1="222.8203" x2="80.7187" y2="222.8203">
	<stop  offset="0" style="stop-color:#3FBA61"/>
	<stop  offset="7.630640e-02" style="stop-color:#36B572"/>
	<stop  offset="0.2519" style="stop-color:#25AB94"/>
	<stop  offset="0.4312" style="stop-color:#17A4AF"/>
	<stop  offset="0.6135" style="stop-color:#0E9EC2"/>
	<stop  offset="0.8007" style="stop-color:#089BCD"/>
	<stop  offset="1" style="stop-color:#069AD1"/>
</linearGradient>
<circle id="XMLID_13_" class="st2" cx="73.1" cy="222.8" r="7.6"/>
</svg>
