<?xml version="1.0" standalone="no"?>
<!DOCTYPE svg PUBLIC "-//W3C//DTD SVG 1.1//EN" "http://www.w3.org/Graphics/SVG/1.1/DTD/svg11.dtd" >
<svg xmlns="http://www.w3.org/2000/svg">
<metadata>Generated by IcoMoon</metadata>
<defs>
<font id="icomoon" horiz-adv-x="1024">
<font-face units-per-em="1024" ascent="960" descent="-64" />
<missing-glyph horiz-adv-x="1024" />
<glyph unicode="&#x20;" horiz-adv-x="512" d="" />
<glyph unicode="&#xe600;" d="M1012.589 449.363c0-271.793-220.331-492.123-492.123-492.123s-492.123 220.331-492.123 492.123c0 271.793 220.331 492.123 492.123 492.123s492.123-220.331 492.123-492.123z" />
<glyph unicode="&#xe601;" d="M720.312 476.841h-172.367v172.367c0 14.989-12.49 27.48-27.48 27.48v0c-14.989 0-27.48-12.49-27.48-27.48v-172.367h-172.367c-14.989 0-27.48-12.49-27.48-27.48v0c0-14.989 12.49-27.48 27.48-27.48h172.367v-172.367c0-14.989 12.49-27.48 27.48-27.48v0c14.989 0 27.48 12.49 27.48 27.48v172.367h172.367c14.989 0 27.48 12.49 27.48 27.48v0c2.501 14.989-12.49 27.48-27.48 27.48z" />
<glyph unicode="&#xe602;" glyph-name="profile" d="M649.004 335.909c-4.158 0-45.67 20.755-20.755 91.336v0c62.274 66.426 112.091 170.219 112.091 269.852 0 157.762-103.794 240.794-228.343 240.794-120.397 0-224.193-83.032-224.193-240.794 0-103.794 49.82-207.581 112.091-274.012 24.911-66.426-20.755-87.183-29.060-91.336-128.701-45.67-278.163-128.701-278.163-211.735 0-20.755 0-8.298 0-29.060 0-112.091 220.037-137.004 423.47-137.004s419.311 24.911 419.311 137.004c0 20.755 0 8.298 0 29.060-4.158 91.336-153.613 174.369-286.462 215.886z" />
<glyph unicode="&#xe603;" glyph-name="user" d="M647.882 338.541c-7.545 3.78-45.294 18.869-18.869 90.587v0c60.391 64.166 109.459 166.075 109.459 267.986 0 154.755-101.908 237.792-222.693 237.792s-222.693-83.038-222.693-237.792c0-101.908 45.294-203.825 109.459-267.986 22.648-64.166-18.869-86.809-26.42-90.587-124.557-45.294-271.764-128.333-271.764-211.369 0-22.648 0-7.545 0-30.195 0-109.459 215.142-135.882 415.189-135.882s411.417 26.42 411.417 135.882c0 22.648 0 7.545 0 30.195-3.78 86.809-150.978 169.851-283.086 211.369zM436.512 10.163c0 94.364 60.391 226.469 60.391 226.469l-41.521 33.97c0 30.195 56.617 64.166 56.617 64.166s52.843-33.97 52.843-64.166l-41.521-33.97c0 0 60.391-128.333 60.391-226.469 3.78-15.095-147.202-11.327-147.202 0z" />
<glyph unicode="&#xe604;" glyph-name="checked-join" d="M296.23 364.267l99.834-106.274c32.207-22.541 77.29-16.1 106.274 16.1l231.873 331.703c9.664 9.664 6.438 25.762-3.226 32.207v0c-6.438 6.438-19.324 3.226-25.762 0l-241.534-241.534c-12.879-9.664-28.983-16.1-48.307-12.879l-99.834 32.207c-9.664 0-22.541-3.226-25.762-12.879v0c-9.664-16.1-6.438-32.207 6.438-38.646zM512 856.997c225.433 0 408.997-183.563 408.997-408.997s-183.563-408.997-408.997-408.997c-225.433 0-408.997 183.563-408.997 408.997s183.563 408.997 408.997 408.997zM512 947.166c-276.961 0-499.166-222.209-499.166-499.166s222.209-499.166 499.166-499.166c276.961 0 499.166 222.209 499.166 499.166s-222.209 499.166-499.166 499.166v0z" />
<glyph unicode="&#xe605;" glyph-name="checked-clip" d="M512 946.201c-274.012 0-498.201-224.193-498.201-498.201s224.193-498.201 498.201-498.201 498.201 224.193 498.201 498.201c0 274.012-224.193 498.201-498.201 498.201zM756.947 618.219l-257.4-365.344c-29.060-33.212-78.887-41.521-116.25-16.604l-112.091 120.397c-12.458 8.298-16.604 29.060-8.298 41.521v0c4.158 12.458 16.604 16.604 29.060 16.604l112.091-41.521c20.755 0 37.365 4.158 53.972 16.604l265.708 265.708c8.298 8.298 20.755 8.298 29.060 0v0c12.458-12.458 12.458-29.060 4.158-37.365z" />
<glyph unicode="&#xe606;" glyph-name="map" d="M610.564 340.858c0 132.853 158.568 321.418 158.568 411.415 0 98.564-81.432 179.994-179.994 179.994s-179.994-81.432-179.994-179.994c0-98.564 158.568-278.557 158.568-411.415h42.86zM507.708 752.275c0 42.86 34.283 81.432 81.432 81.432 42.86 0 81.432-34.283 81.432-81.432s-34.283-81.432-81.432-81.432c-47.143 0-81.432 34.283-81.432 81.432zM807.703 837.99c8.566-25.715 17.14-47.143 17.14-77.142l102.853 51.427v-694.26l-154.282-77.142-47.143 21.425c-29.997 175.71-132.853 205.711-214.277 205.711-21.425 0-34.283-25.715-72.856 0-64.283 38.57-42.86 137.137-149.989 145.71-64.283 64.283-141.423 72.856-188.563 77.142v334.276l158.568-68.569c8.566-4.292 21.425-4.292 29.997-4.292 12.86 0 21.425 4.292 34.283 8.566l29.997 17.14c4.292 34.283 12.86 68.569 34.283 98.564l-98.564-47.143-261.418 111.427v-861.404l261.418-111.427 222.85 111.427 222.85-94.282c0 0 0 0 0 0l38.57-17.14 222.85 111.427v857.115l-188.563-98.564z" />
<glyph unicode="&#xe607;" glyph-name="document2" d="M776.217 938.68h-528.426c-64.166 0-113.237-49.068-113.237-113.237v-754.894c0-64.166 49.068-113.237 113.237-113.237h528.426c64.166 0 113.237 49.068 113.237 113.237v754.894c0 64.166-49.068 113.237-113.237 113.237zM308.175 606.527h264.217v-75.488h-264.217v75.488zM685.626 380.058h-377.451v75.488h377.451v-75.488zM685.626 682.015h-377.451v75.488h377.451v-75.488z" />
<glyph unicode="&#xe608;" glyph-name="calendar" d="M289.74 764.055c22.829 0 36.531 18.264 36.531 36.531v114.166c0 22.829-18.264 36.531-36.531 36.531s-36.531-18.264-36.531-36.531v-114.166c0-22.829 18.264-36.531 36.531-36.531zM897.089 873.655h-77.632v-77.632c0-41.098-31.964-77.632-77.632-77.632-41.098 0-77.632 31.964-77.632 77.632v77.632h-296.819v-77.632c0-41.098-31.964-77.632-77.632-77.632-41.098 0-77.632 31.964-77.632 77.632v77.632h-73.064c-63.932 0-114.166-50.234-114.166-114.166v-680.414c0-63.932 50.234-114.166 114.166-114.166h753.477c63.932 0 114.166 50.234 114.166 114.166v684.975c0 59.365-50.234 109.596-109.596 109.596zM933.623 83.641c0-22.829-18.264-36.531-36.531-36.531h-758.044c-22.829 0-36.531 18.264-36.531 36.531v529.715h831.107v-529.715zM746.395 764.055c22.829 0 36.531 18.264 36.531 36.531v114.166c0 22.829-18.264 36.531-36.531 36.531s-36.531-18.264-36.531-36.531v-114.166c-4.573-22.829 13.703-36.531 36.531-36.531zM198.415 120.178h643.879c9.127 0 18.264 9.127 18.264 18.264v379.020c0 9.127-9.127 18.264-18.264 18.264h-643.879c-9.127 0-18.264-9.127-18.264-18.264v-379.020c0-9.127 4.573-18.264 18.264-18.264zM819.457 289.137h-114.166v82.199h114.166v-82.199zM668.765 289.137h-132.428v82.199h132.428v-82.199zM536.335 252.601h132.428v-95.895h-132.428v95.895zM499.802 156.708h-132.428v95.895h132.428v-95.895zM536.335 412.428v86.771h132.428v-86.771h-132.428zM499.802 412.428h-132.428v86.771h132.428v-86.771zM499.802 371.331v-82.199h-132.428v82.199h132.428zM330.837 289.137h-114.166v82.199h114.166v-82.199zM216.679 252.601h114.166v-95.895h-114.166v95.895zM705.3 156.708v95.895h114.166v-95.895h-114.166zM819.457 412.428h-114.166v86.771h114.166v-86.771zM330.837 499.198v-86.771h-114.166v86.771h114.166z" />
<glyph unicode="&#xe609;" glyph-name="double-arrow-up" d="M898.38 413.507c-20.704 0-34.493 6.908-48.294 20.704l-338.092 331.192-338.092-338.092c-27.596-27.596-69.004-27.596-96.598 0s-27.596 69.004 0 96.598l386.38 386.38c27.596 27.596 69.004 27.596 96.598 0l386.38-386.38c27.596-27.596 27.596-69.004 0-96.598-13.79-6.908-34.493-13.79-48.294-13.79zM898.38-41.88c-20.704 0-34.493 6.908-48.294 20.704l-338.092 338.092-338.092-338.092c-27.596-27.596-69.004-27.596-96.598 0s-27.596 69.004 0 96.598l386.38 386.38c27.596 27.596 69.004 27.596 96.598 0l386.38-386.38c27.596-27.596 27.596-69.004 0-96.598-13.79-13.79-34.493-20.704-48.294-20.704z" />
<glyph unicode="&#xe60a;" glyph-name="arrow-up" d="M512 735.136c21.425 0 42.86-8.566 59.999-25.715l407.126-407.126c34.283-34.283 34.283-85.71 0-120s-85.71-34.283-120 0l-347.131 342.845-347.131-342.845c-34.283-34.283-85.71-34.283-120 0s-34.283 85.71 0 120l407.126 407.126c17.14 17.14 38.57 25.715 59.999 25.715z" />
<glyph unicode="&#xe60b;" glyph-name="rocket" d="M995.131 934.909c0 0-147.202 3.78-290.631-67.942-45.294-22.648-94.364-56.617-135.882-98.138-64.166-64.166-166.075-188.722-249.118-286.86l-158.527 3.78c-3.78 0-11.327 0-15.095-3.78l-90.587-113.237c-3.78-3.78 0-7.545 3.78-7.545l135.882-30.195c0-3.78 0-11.327 3.78-18.869l-26.42-56.617c0 0-11.327-18.869 56.617-83.038 64.166-64.166 83.038-56.617 83.038-56.617l56.617 26.42c7.545-3.78 15.095-3.78 18.869-3.78l30.195-139.658c0-3.78 3.78-7.545 7.545-3.78l113.237 90.587c3.78 3.78 7.545 11.327 3.78 15.095l7.545 158.527c98.138 79.263 218.917 181.178 283.086 245.336 41.521 41.521 71.72 90.587 98.138 135.882 71.72 147.202 64.166 294.41 64.166 294.41zM700.722 561.237c-41.521 0-75.488 33.97-75.488 75.488s33.97 75.488 75.488 75.488c41.521 0 75.488-33.97 75.488-75.488 3.78-41.521-30.195-75.488-75.488-75.488zM93.034 29.034c0 0-7.545 109.459 49.068 184.952-3.78 7.545-7.545 11.327-11.327 18.869-7.545-7.545-18.869-15.095-26.42-22.648-86.809-86.809-75.488-241.568-75.488-241.568s154.755-11.327 241.568 75.488c7.545 7.545 15.095 18.869 22.648 26.42-3.78 3.78-11.327 7.545-18.869 11.327-71.72-64.166-181.178-52.843-181.178-52.843z" />
<glyph unicode="&#xe60c;" glyph-name="edit" d="M469.576 349.012l-61.28 61.28c-14.145 14.145-14.145 37.709 0 51.854l263.972 263.972c14.145 14.145 37.709 14.145 51.854 0l61.28-61.28c14.145-14.145 14.145-37.709 0-51.854l-263.972-263.972c-14.145-14.145-37.709-14.145-51.854 0zM823.116 702.551l-61.28 61.28c-14.145 14.145-14.145 37.709 0 51.854l51.854 51.854c14.145 14.145 37.709 14.145 51.854 0l61.28-61.28c14.145-14.145 14.145-37.709 0-51.854l-51.854-51.854c-14.145-14.145-37.709-14.145-51.854 0zM309.305 259.448l28.285 113.131c0 9.421 14.145 9.421 18.853 4.721l84.851-84.851c4.721-4.721 4.721-14.145-4.721-18.853l-113.131-28.285c-9.421 0-14.145 4.721-14.145 14.145zM865.537-46.954h-707.071c-75.421 0-136.7 61.28-136.7 136.7v711.794c0 75.421 61.28 136.7 136.7 136.7h329.973c28.285 0 51.854-23.565 51.854-51.854s-23.565-51.854-51.854-51.854h-329.973c-18.853 0-32.995-14.145-32.995-32.995v-711.794c0-18.853 14.145-32.995 32.995-32.995h711.794c18.853 0 32.995 14.145 32.995 32.995v358.252c0 28.285 23.565 51.854 51.854 51.854s51.854-23.565 51.854-51.854v-358.252c0-75.421-61.28-136.7-141.418-136.7z" />
<glyph unicode="&#xe60d;" glyph-name="settings" d="M980.652 389.937v116.129l-141.009 24.886c-8.289 33.177-20.734 62.21-37.326 91.24l82.945 116.129-82.945 82.945-116.129-82.945c-29.030 16.587-58.063 29.030-91.24 37.326l-24.886 141.009h-116.129l-24.886-136.861c-33.177-8.289-66.357-20.734-95.384-37.326l-111.974 78.805-82.945-82.945 78.805-116.129c-16.587-29.030-29.030-62.21-37.326-95.384l-136.861-24.886v-116.129l136.861-20.734c8.289-33.177 20.734-66.357 37.326-95.384l-78.805-111.974 82.945-82.945 116.129 78.805c29.030-16.587 58.063-29.030 95.384-37.326l24.886-136.861h116.129l20.734 136.861c33.177 8.289 66.357 20.734 91.24 37.326l116.129-82.945 82.945 82.945-82.945 116.129c16.587 29.030 29.030 58.063 37.326 91.24l141.009 29.030zM512 286.257c-91.24 0-161.743 74.653-161.743 161.743 0 91.24 74.653 161.743 161.743 161.743s161.743-74.653 161.743-161.743c0-91.24-70.506-161.743-161.743-161.743z" />
<glyph unicode="&#xe60e;" glyph-name="badge" d="M912.094 746.181c-7.545 7.545-18.869 15.095-30.195 15.095-86.809 3.78-196.273 94.364-267.986 132.101-45.294 22.648-75.488 37.748-98.138 41.521-3.78 0-3.78 0-7.545 0s-3.78 0-7.545 0c-22.648-3.78-52.843-18.869-98.138-41.521-71.72-37.748-181.178-128.333-267.986-132.101-11.327 0-22.648-3.78-30.195-15.095-7.545-7.545-11.327-18.869-11.327-30.195 18.869-377.451 154.755-611.46 392.546-747.349 7.545-3.78 11.327-3.78 18.869-3.78s15.095 0 18.869 3.78c237.792 135.882 373.671 369.893 392.546 747.349 7.545 11.327 3.78 22.648-3.78 30.195zM704.498 361.191c0-52.843-98.138-64.166-188.722-64.166s-192.498 11.327-192.498 64.166c0 11.327 0 3.78 0 15.095 0 37.748 67.942 75.488 124.557 98.138 3.78 0 22.648 11.327 11.327 41.521-30.195 30.195-49.068 75.488-49.068 124.557 0 71.72 49.068 109.459 101.908 109.459s101.908-37.748 101.908-109.459c0-45.294-22.648-94.364-49.068-124.557v0c-11.327-33.97 7.545-41.521 7.545-41.521 60.391-18.869 128.333-56.617 128.333-98.138 3.78-11.327 3.78-7.545 3.78-15.095z" />
<glyph unicode="&#xe60f;" glyph-name="workman" d="M885.671 112.071c0-18.869 0-7.545 0-26.42 0-101.908-192.498-124.557-373.671-124.557s-373.671 22.648-373.671 124.557c0 18.869 0 7.545 0 26.42 0 75.488 132.101 147.202 245.336 188.722 7.545 3.78 49.068 22.648 26.42 83.038-52.843 49.068-86.809 101.908-86.809 215.142h377.451c0-113.237-33.97-162.302-86.809-215.142v0c-22.648-64.166 11.327-79.263 18.869-83.038 120.781-37.748 252.891-113.237 252.891-188.722zM727.142 715.986c0 79.263-56.617 150.978-135.882 177.402-11.327 3.78-37.748-143.429-37.748-143.429v162.302c0 11.327-11.327 22.648-22.648 22.648h-33.97c-11.327 0-22.648-11.327-22.648-22.648v-162.302c0 0-26.42 150.978-41.521 143.429-83.038-26.42-135.882-94.364-135.882-177.402 0-18.869-49.068 7.545-49.068-83.038h528.426c0 94.364-49.068 64.166-49.068 83.038z" />
<glyph unicode="&#xe610;" glyph-name="dna" d="M67.775 190.6c-20.755 0-37.365 16.604-37.365 37.365 0 8.298-4.158 153.613 91.336 240.794 74.731 70.579 224.193 49.82 386.103 33.212 132.851-16.604 278.163-33.212 323.83 16.604s78.887 107.945 87.183 161.912c4.158 20.755 20.755 33.212 41.521 29.060s33.212-20.755 29.060-41.521c-12.458-70.579-49.82-141.157-107.945-199.283-70.579-70.579-224.193-53.972-386.103-37.365-128.701 16.604-278.163 33.212-327.978-12.458-66.426-62.274-66.426-182.67-66.426-186.824 4.158-24.911-12.458-41.521-33.212-41.521 0 0 0 0 0 0zM441.421-33.59c-12.458 0-24.911 8.298-33.212 20.755-8.298 16.604 0 41.521 16.604 49.82 0 0 95.484 49.82 120.397 132.851 12.458 37.365-4.158 128.701-8.298 161.912-4.158 20.755 8.298 37.365 29.060 41.521s37.365-8.298 41.521-29.060c16.604-99.639 20.755-157.762 8.298-195.13-33.212-112.091-153.613-174.369-157.762-174.369-8.298-8.298-12.458-8.298-16.604-8.298zM491.245 526.887c-8.298 0-20.755 4.158-29.060 12.458-99.639 112.091-62.274 249.099-8.298 303.071 49.82 49.82 107.945 83.032 107.945 83.032 16.604 8.298 41.521 4.158 49.82-12.458s4.158-41.521-12.458-49.82c0 0-49.82-29.060-95.484-70.579-29.060-29.060-58.124-120.397 12.458-199.283 12.458-16.604 12.458-37.365-4.158-53.972 0-8.298-12.458-12.458-20.755-12.458zM547.512 869.749l402.676-232.49-18.683-32.357-402.676 232.49 18.683 32.357zM487.892 819.322l411.494-273.407-20.674-31.123-411.494 273.407 20.674 31.123zM458.959 748.939l363.382-269.71-22.271-30.005-363.382 269.71 22.271 30.005zM88.281 306.767l432.825-229.518-17.505-33.014-432.825 229.518 17.505 33.014zM128.583 405.434l433.958-269.162-19.694-31.753-433.958 269.162 19.694 31.753zM209.432 474.591l380.648-259.724-21.063-30.86-380.648 259.724 21.063 30.86z" />
<glyph unicode="&#xe611;" glyph-name="chat" d="M852.682 849.249h-673.876c-82.36 0-149.753-67.389-149.753-149.753v-374.378c0-82.36 67.389-149.753 149.753-149.753h86.105l63.646-164.725c7.487-14.977 18.72-22.461 33.694-22.461s29.949 7.487 33.694 22.461l63.646 164.725h385.606c82.36 0 149.753 67.389 149.753 149.753v374.378c7.487 82.36-59.901 149.753-142.26 149.753zM927.556 325.125c0-41.181-33.694-74.875-74.875-74.875h-411.813c-14.977 0-29.949-7.487-33.694-22.461l-41.181-101.082-41.181 101.082c-7.487 14.977-18.72 22.461-33.694 22.461h-112.313c-41.181 0-74.875 33.694-74.875 74.875v374.378c0 41.181 33.694 74.875 74.875 74.875h673.876c41.181 0 74.875-33.694 74.875-74.875v-374.378zM740.37 624.627h-449.249c-22.461 0-37.438-14.977-37.438-37.438s14.977-37.438 37.438-37.438h449.249c22.461 0 37.438 14.977 37.438 37.438s-14.977 37.438-37.438 37.438zM665.497 474.875h-374.378c-22.461 0-37.438-14.977-37.438-37.438s14.977-37.438 37.438-37.438h374.378c22.461 0 37.438 14.977 37.438 37.438s-14.977 37.438-37.438 37.438z" />
<glyph unicode="&#xe612;" glyph-name="more-options" d="M601.851 459.731c0-55.828-45.256-101.082-101.082-101.082s-101.082 45.256-101.082 101.082c0 55.828 45.256 101.082 101.082 101.082s101.082-45.256 101.082-101.082zM601.851 834.106c0-55.828-45.256-101.082-101.082-101.082s-101.082 45.256-101.082 101.082c0 55.828 45.256 101.082 101.082 101.082s101.082-45.256 101.082-101.082zM601.851 85.355c0-55.828-45.256-101.082-101.082-101.082s-101.082 45.256-101.082 101.082c0 55.828 45.256 101.082 101.082 101.082s101.082-45.256 101.082-101.082z" />
<glyph unicode="&#xe613;" glyph-name="antena" d="M575.646 53.88c-22.461-3.743-48.671-7.487-74.875-7.487v0c-67.389 0-134.771 18.72-194.675 52.415-63.646-29.949-104.825-82.36-104.825-146.007h438.020c0 37.438-26.206 82.36-63.646 101.082zM643.031 417.023c41.181-71.132 52.415-131.031 26.206-160.98-44.923-44.923-168.471 7.487-277.038 116.055s-160.98 232.114-116.055 277.038c26.206 26.206 86.105 18.72 149.753-18.72 14.977-7.487 59.901 11.231 71.132 26.206-116.055 78.618-228.37 101.082-280.785 44.923-71.132-71.132-172.215-280.785 29.949-482.942 183.444-183.444 411.813-97.336 482.942-29.949 56.157 56.157 29.949 175.957-52.415 292.012-22.461-7.487-41.181-48.671-33.694-63.646zM545.694 349.64c3.743 0 3.743 0 0 0 18.72 0 33.694 11.231 33.694 26.206l11.231 101.082c29.949 11.231 52.415 37.438 52.415 71.132 0 41.181-33.694 74.875-74.875 74.875-33.694 0-59.901-22.461-71.132-52.415l-101.082-11.231c-18.72-3.743-29.949-18.72-26.206-33.694s18.72-29.949 33.694-26.206l101.082 11.231c7.487-11.231 14.977-18.72 26.206-26.206l-11.231-101.082c0-14.977 11.231-29.949 26.206-33.694zM568.157 776.423c-22.461 0-37.438-14.977-37.438-37.438s14.977-37.438 37.438-37.438c108.57 0 149.753-41.181 149.753-149.753 0-22.461 14.977-37.438 37.438-37.438s37.438 14.977 37.438 37.438c0 149.753-71.132 224.627-224.627 224.627zM568.157 926.175c-22.461 0-37.438-14.977-37.438-37.438s14.977-37.438 37.438-37.438c164.725 0 299.499-134.771 299.499-299.499 0-22.461 14.977-37.438 37.438-37.438s37.438 14.977 37.438 37.438c0 205.909-168.471 374.378-374.378 374.378z" />
<glyph unicode="&#xe614;" glyph-name="emoticon-smile" d="M519.212 950.388c-274.381 0-494.659-220.281-494.659-494.659s220.281-494.659 494.659-494.659c274.381 0 494.659 220.281 494.659 494.659 0 270.521-220.281 494.659-494.659 494.659zM519.212 38.359c-231.873 0-417.368 189.362-417.368 417.368s185.497 417.368 417.368 417.368c231.873 0 417.368-189.362 417.368-417.368s-189.362-417.368-417.368-417.368zM720.168 397.759c-57.969-54.106-127.528-81.154-200.955-81.154s-142.985 27.051-200.955 81.154c-15.46 11.593-38.646 11.593-50.241-3.864s-11.593-34.781 3.864-50.241c73.427-65.699 158.449-100.476 247.331-100.476s173.906 34.781 247.331 100.476c15.46 11.593 15.46 34.781 3.864 50.241-15.46 15.46-34.781 15.46-50.241 3.864zM457.378 540.749c0-29.882-24.221-54.106-54.106-54.106s-54.106 24.221-54.106 54.106c0 29.882 24.221 54.106 54.106 54.106s54.106-24.221 54.106-54.106zM689.254 540.749c0-29.882-24.221-54.106-54.106-54.106s-54.106 24.221-54.106 54.106c0 29.882 24.221 54.106 54.106 54.106s54.106-24.221 54.106-54.106z" />
<glyph unicode="&#xe615;" glyph-name="information" d="M512 937.895c-269.852 0-489.895-220.037-489.895-489.895s220.037-489.895 489.895-489.895 489.895 220.037 489.895 489.895-220.037 489.895-489.895 489.895zM615.794 178.148c-24.911-8.298-45.67-16.604-62.274-20.755s-33.212-8.298-53.972-8.298c-29.060 0-53.972 8.298-70.579 20.755-16.604 16.604-24.911 33.212-24.911 58.124 0 8.298 0 16.604 0 29.060 0 8.298 4.158 20.755 4.158 33.212l33.212 112.091c4.158 12.458 4.158 20.755 8.298 29.060 0 8.298 4.158 16.604 4.158 24.911 0 12.458-4.158 24.911-8.298 29.060s-16.604 8.298-33.212 8.298c-8.298 0-16.604 0-24.911-4.158s-16.604-4.158-20.755-8.298l8.298 33.212c20.755 8.298 41.521 16.604 58.124 20.755 20.755 4.158 37.365 8.298 53.972 8.298 29.060 0 53.972-8.298 70.579-20.755 16.604-16.604 24.911-33.212 24.911-58.124 0-4.158 0-12.458 0-24.911s-4.158-24.911-8.298-33.212l-33.212-112.091c-4.158-8.298-4.158-20.755-8.298-29.060 0-12.458-4.158-20.755-4.158-24.911 0-16.604 4.158-24.911 8.298-29.060 8.298-4.158 16.604-8.298 33.212-8.298 8.298 0 16.604 0 24.911 4.158s16.604 4.158 20.755 8.298v-37.365zM607.484 630.67c-16.604-12.458-33.212-20.755-53.972-20.755s-37.365 8.298-53.972 20.755c-16.604 12.458-20.755 29.060-20.755 49.82s8.298 37.365 20.755 49.82c16.604 12.458 33.212 20.755 53.972 20.755s37.365-8.298 53.972-20.755c16.604-12.458 20.755-29.060 20.755-49.82 4.158-20.755-4.158-37.365-20.755-49.82z" />
<glyph unicode="&#xe616;" glyph-name="envelope" d="M886.457 785.921h-748.909c-63.932 0-114.166-50.234-114.166-114.166v-447.513c0-63.932 50.234-114.166 114.166-114.166h748.909c63.932 0 114.166 50.234 114.166 114.166v447.513c-4.573 63.932-54.798 114.166-114.166 114.166zM680.963 452.573l237.46-246.596-292.26 210.061-114.166-73.064-114.166 73.064-292.26-210.061 237.46 246.596-287.691 223.763 456.659-246.596 456.659 246.596-287.691-223.763z" />
<glyph unicode="&#xe617;" glyph-name="arrow-bold-left" d="M707.144-39.861c24.393 0 48.787 9.757 68.3 27.646 37.403 37.403 37.403 99.198 0 136.601l-323.615 323.615 323.615 323.615c37.403 37.403 37.403 99.198 0 136.601s-99.198 37.403-136.601 0l-390.289-391.915c-17.888-17.888-27.646-42.281-27.646-68.3s9.757-50.412 27.646-68.3l391.915-391.915c17.888-17.888 42.281-27.646 66.675-27.646z" />
<glyph unicode="&#xe618;" glyph-name="arrow-slim-left" d="M721.325-35.062c16.1 0 32.207 6.438 45.087 19.324 25.762 25.762 25.762 64.407 0 90.174l-373.569 373.569 373.569 373.569c25.762 25.762 25.762 64.407 0 90.174s-64.407 25.762-90.174 0l-418.655-418.655c-25.762-25.762-25.762-64.407 0-90.174l418.655-418.655c12.879-12.879 28.984-19.324 45.087-19.324z" />
<glyph unicode="&#xe619;" glyph-name="arrow-left-aligned" d="M550.825-35.062c16.1 0 32.207 6.438 45.087 19.324 25.762 25.762 25.762 64.407 0 90.174l-373.569 373.569 373.569 373.569c25.762 25.762 25.762 64.407 0 90.174s-64.407 25.762-90.174 0l-418.655-418.655c-25.762-25.762-25.762-64.407 0-90.174l418.655-418.655c12.879-12.879 28.984-19.324 45.087-19.324z" />
<glyph unicode="&#xe61a;" glyph-name="lock" d="M753.317 553.578v71.646c0 165.902-94.266 275.25-241.317 275.25s-241.317-109.345-241.317-275.25v-71.646c-56.557 0-105.578-45.247-105.578-105.578v-346.89c0-56.557 45.247-105.578 105.578-105.578h486.402c56.557 0 105.578 45.247 105.578 105.578v346.89c-3.776 56.558-49.017 105.578-109.345 105.578zM372.488 625.217c0 52.789 15.080 169.674 139.512 169.674 120.655 0 139.512-105.578 139.512-169.674v-71.646h-279.019v71.646zM545.935 248.162v-79.18c0-18.849-15.080-33.935-33.935-33.935s-33.935 15.080-33.935 33.935v79.18c-18.849 11.315-33.935 33.935-33.935 60.328 0 37.709 30.163 67.871 67.871 67.871s67.871-30.163 67.871-67.871c0-26.393-11.315-45.247-33.935-60.328z" />
<glyph unicode="&#xe61b;" glyph-name="books" d="M605.617 157.952c-3.564 0-7.168 0.532-10.693 1.595l-441.009 135.247c-18.944 4.175-79.99 25.738-79.99 130.265 0 51.161 21.11 79.852 38.814 94.937 25.108 21.307 61.046 30.11 98.363 24.143 19.87-3.21 33.398-21.937 30.208-41.807-3.21-19.889-22.055-33.319-41.807-30.208-16.305 2.639-30.661-0.158-39.444-7.621-8.724-7.483-13.174-20.736-13.174-39.444 0-42.319 13.745-57.009 21.898-58.959 2.343-0.236 2.678-0.414 4.943-1.142l419.033-128.453 278.626 344.064c-3.584 17.093-4.037 41.708 6.558 74.082 6.242 19.121 26.919 29.538 46.021 23.276 19.121-6.262 29.558-26.841 23.296-46.001-8.98-27.431-3.702-39.207-3.682-39.345 10.043-13.351 7.857-29.066-2.639-42.043l-306.983-379.077c-7.050-8.724-17.506-13.509-28.337-13.509zM605.617-24.615c-3.702 0-7.444 0.551-11.106 1.713l-442.585 141.548c-29.381 10.023-77.982 49.467-77.982 135.010 0 65.674 46.434 104.507 51.732 108.721 15.734 12.603 38.695 9.964 51.22-5.849 12.524-15.754 9.925-38.695-5.849-51.22-0.67-0.61-24.182-20.578-24.182-51.653 0-52.362 26.092-64.926 29.066-66.166l417.221-133.376 277.465 337.999c-12.13 35.17-26.526 106.043 8.034 194.639 7.345 18.806 28.554 28.101 47.202 20.736 18.767-7.306 28.022-28.455 20.736-47.222-35.742-91.707-3.348-154.329-1.969-156.928 6.912-12.997 5.514-29.223-3.801-40.625l-307.003-373.996c-7.070-8.625-17.487-13.332-28.199-13.332zM947.22 794.998c-3.722 10.929-12.997 19.023-24.202 21.425l-456.527 103.483c-11.796 2.422-24.084-1.575-32-10.752l-326.085-362.89c-7.463-8.527-34.462-47.006-34.462-105.098 18.196 22.548 39.877 54.528 50.885 51.554l448.433-135.266c2.855-0.788 5.711-1.122 8.586-1.122 9.767 0 19.279 4.372 25.58 12.071l334.159 394.752c7.306 8.901 9.433 21.012 5.632 31.842zM703.311 716.977l-25.127-29.775c-6.971-8.231-23.178-12.308-36.076-9.295l-234.043 57.049c-12.879 3.111-17.743 12.347-10.85 20.519l25.127 29.873c6.951 8.192 23.158 12.288 36.076 9.236l234.043-56.95c12.839-3.111 17.762-12.446 10.85-20.657z" />
<glyph unicode="&#xe61c;" glyph-name="planet2" d="M640.699 822.037c0 0 0 0 0 0l4.028-4.028c0 0 4.028 0 4.028 0l4.028-4.028c0 0 0 0 12.069-4.028v0c0 0 0 0 0 0s0 0 0 0 4.028 0 4.028 0c0 0 0 0 0 4.028h4.028c0 0 0 0 0 0s4.028 0 4.028 4.028c0 0 0 4.028 0 4.028s0 0-4.028 4.028c0 0 0 4.028-4.028 8.039 0 0 0 0 0 0s0 0-8.039 4.028c0 0 0 0 0 0s0 0 0 0h-4.028c0 0 0 0 0 0v0c0 0 0 0 0 0s0 0-4.028 0c0 0 0 0-4.028 0h-4.028c0 0-4.028 0-4.028-4.028 0 0 0 0 0 0-8.039-8.039-8.039-8.039 0-12.069zM729.187 311.254c4.028 0 12.069 4.028 12.069 8.039s0 4.028 0 8.039-4.028 4.028-8.039 4.028c0 0 0 0 0 0-4.028 0-8.039-4.028-12.069-8.039 0-4.028 0-8.039 4.028-8.039 0-4.028 0-4.028 4.028-4.028zM584.396 749.644v0c0 0 0 0 20.106 8.039 4.028 0 4.028 4.028 0 4.028 0 0 0 4.028 0 4.028s0 0 0 0 0 0 0 0l-8.039 8.039c0 0-4.028 0-4.028 0l-16.085-4.028-4.028 4.028c0 0 0 0-4.028 0 0 0-4.028 0-12.069 0 0 0-4.028 0-4.028-4.028 0 0 0-4.028 0-4.028s4.028-4.028 4.028-4.028v-4.028c0 0 0-4.028 0-4.028 8.039 0 8.039 0 28.152-4.028 0 0 0 0 0 0zM512 930.632c-265.449 0-482.632-217.187-482.632-482.632s217.187-482.632 482.632-482.632c265.449 0 482.632 217.187 482.632 482.632s-217.187 482.632-482.632 482.632zM761.356 580.723c0 0 0-4.028 0-4.028s0 0 0-4.028 4.028-4.028 4.028-4.028v0c0 0 0 0 0 0 4.028 0 4.028 0 8.039 8.039 0 0 0 0 0 0s0 0 0 4.028c0 0 0 0 0 4.028 0 0 4.028 4.028 4.028 4.028v8.039c0 0 0 0 4.028 0l4.028 8.039c0 0 0 4.028 0 4.028v0 0c0 0 0 0 4.028 0v0c0 0 0 0 0 0s0 0 0 0 0 0 0 0l4.028-8.039c0 0 0 0 4.028 0 0 0 0 0 0 0s0 0 0 0 0-4.028 4.028-4.028v-4.028c0 0 0 0 0 0v0c0 0 0 0 4.028 0h4.028c0 0 0 0 0 0s0 0 4.028-4.028c0-4.028 0-4.028 16.085-4.028v0c0 0 0 0 0 0 4.028 0 4.028 4.028 4.028 12.069v0c0 0 4.028 0 4.028 0h8.039c0 0 0 0 0 0v0c0 0 0 0 0 0s0-4.028 0-4.028c0 0 0 0 4.028-4.028 0 0 0 0 0 0v0c0 0 4.028 0 4.028 0s0 0 0 0v4.028c0 0 0-4.028 0-4.028v-16.085l-8.039 4.028c0 0-4.028 0-4.028 0l-4.028-4.028-16.085 4.028c0 0 0 0 0 0-4.028 0-4.028 0-4.028 0v0c0 0 0 0-4.028 0s-8.039 0-12.069 0c0 0 0 0 0 0s0 0 0 0l-4.028-4.028c0 0 0 0 0-4.028v-8.039l-16.085 8.039c0 0 0 0 0 0h-16.085c0 0 0 0 0 4.028s0 8.039-4.028 8.039zM697.009 612.9v0 0l4.028 4.028c0 0 0 0 0 0s0 0 0 0l4.028 4.028c0 0 0 0 4.028 4.028v8.039h12.069c0 0 0 0 4.028 0l4.028 4.028c0 0 0 0 0 0s0 0 0 0 0 0 0-4.028c0 0 0-4.028 0-4.028s0 0 0 0 0 0 0 0 0 0 0-4.028v-4.028c0-4.028 0-4.028 0-8.039s4.028-4.028 4.028-4.028c0 0 0 0 0 0s0 0 0 0l4.028 4.028c0 0 4.028 4.028 4.028 4.028s0 0-4.028 8.039c0 0 0 4.028-4.028 4.028 0 0 0 4.028 0 4.028s0 0 0 0l8.039-8.039c0 0 0 0 0 0l12.069-8.039v-4.028h-8.039c0 0-4.028 0-4.028 0s-4.028-4.028-4.028-4.028c0 0 0-4.028 0-4.028s0 0 0 0c4.028-4.028 8.039-4.028 12.069-8.039 0 0 0 0 0 0s0 0 0 0c-4.028 0-4.028-4.028-4.028-4.028s0 4.028 0 4.028c0 0 0 0 0 4.028l-4.028 4.028 12.069-8.039c0 0 0 0-4.028 0 0 0 0 0 0 0h-4.028l-36.197-4.028c0 0 0 0 0 0l-24.133-8.039h-8.039c0 0 0 0 0 0h8.039c0 0 0 0 0 0v0c0 0 0 0 0 0l8.039 8.039c0 0 4.028 4.028 4.028 4.028s0 4.028 0 4.028v12.069zM733.207 721.489v0l4.028 12.069c0 0 0 0 0 0l8.039-4.028c0 0 0 0 4.028 0 0-4.028 0-4.028 4.028-4.028 0 0 0 0 0 0s0 0 0 0 0 0 0-4.028l4.028-8.039c-4.028 0-8.039 0-8.039 0s0 0-4.028 0c0 0 0 0 0 0l-8.039-4.028c0 0 0 0 0 0v0c0 0 0 0 0 0v0c0 0 4.028 4.028 4.028 4.028l-8.039 8.039zM914.196 443.972v-8.039c0 0 0 0 0 0s0 0 0 0v16.085c0 0 0 0 0 0v4.028c-4.028-4.028-4.028-8.039 0-12.069zM821.684 600.832c0 0 0 0 0 0v0c0 0 0 0 0 0 4.028 0 4.028-4.028 0 0l4.028-8.039c-4.028 0-4.028 0-8.039 0v0 0c0 0 0 0 0 4.028 8.039 0 8.039 0 4.028 4.028zM829.729 628.986l-4.028 4.028c0 0 0 0 0 0s0 0 0 4.028v4.028c0 0 0 0 0 4.028 0 0 0 0 0 4.028v4.028c0 0 0 0 0 0 8.039-8.039 8.039-8.039 8.039-8.039s0 0 0 0 0 0 0 0 0 4.028 4.028 4.028c0 0 0 0 0 0l12.069-8.039 4.028-4.028h-4.028c-4.028 4.028-4.028 4.028-8.039 4.028 0 0 0 0 0 0-4.028 0-4.028 0-8.039-4.028 4.028-8.039 0-8.039-4.028-8.039v0zM865.927 226.793c0 0 0 0 0 0s-4.028-4.028-4.028-8.039l-8.039-4.028c0 0 0 0 0 0l8.039 12.069c0 0 0 0 4.028 0 0 0 0 0 0 0v0c0 0 0 0 0 0zM877.997 238.86c0 0 0 0 0 0-4.028 0-4.028 0 0 0-4.028 0-4.028 0-4.028 0s-4.028 0-4.028 0v0c0 0 0 0 0 0s0 0 0 4.028c0 0 0 4.028 0 4.028v4.028c0 0 0 0 0 0v0l4.028 16.085v4.028l4.028 8.039c0 0 0 0 0 0 0 4.028 4.028 8.039 4.028 8.039l4.028 8.039 4.028 4.028c0 0 0 0 0 0l12.069 20.106h4.028c0 0 0 0 0 0 0-20.106-12.069-52.285-28.152-80.437zM930.28 407.777c0 0-4.028-4.028-4.028-4.028s0 0 0 0v0 4.028c0 0 0 0 0 0s0 0 0 0 0 0 0 0l8.039 4.028c-4.028 0-4.028 0-4.028-4.028v0zM335.038 761.71c4.028 0 4.028 0 4.028 0s0 0 0 0h4.028c-4.028-4.028-4.028-4.028-8.039-8.039 0 0-4.028-4.028-4.028-4.028l-8.039-4.028c0 0 0 0 0 0l-8.039-16.085-16.085-8.039c0 0 0 0-4.028 0 0 0 0 0 0 0s0 0 0 0l-8.039 16.085c0 0 0 0-4.028 4.028v0c0 0 0 0 0 4.028v0l12.069 8.039c4.028 0 8.039 4.028 12.069 4.028l12.069 4.028c0 0 0 0 0 0s0 0 0 0 0 0 0 4.028h8.039c4.028-4.028 8.039-4.028 8.039-4.028zM89.698 439.961v0c4.028-4.028 4.028-4.028 8.039-4.028l4.028 4.028 4.028-8.039c0 0 0 0 0 0s0 0 0 0l4.028-4.028c0 0 0 0 0 0l4.028-4.028c0 0 0 0 0 0l8.039-4.028c0 0 0 0 0 0l8.039-28.152c0 0 0 0 0 0l4.028-4.028c0 0 4.028 0 4.028 0v0l4.028-4.028c0 0 0 0 0-4.028 0 0 0 0 0 0s0 0 0 0l4.028-8.039c0 0 4.028 0 4.028 0l4.028 4.028c0 0 0 0 0 0v-4.028c0-12.069 4.028-20.106 4.028-32.174v-8.039l-4.028-8.039-4.028-16.085c0 0 0 0 0 0s0 0 0 0c0-4.028 0-8.039 4.028-12.069v0c0 0 0 0 0 0s0 0 0 0 0 0 0 0v0c0 0 0 0 0-4.028 0 0 0 0 0 0l8.039-16.085c0 0 0 0 0 0l16.085-12.069 8.039-12.069c0 0 0 0 0 0s0 0 0 0c12.069-16.085 28.152-32.174 32.174-36.197l20.106-12.069c0 0 0 0 0 0s4.028-4.028 12.069-8.039l4.028-4.028c8.039-12.069 20.106-28.152 28.152-44.243 20.106-28.152 28.152-36.197 56.308-60.328 0 0 0 0 0 0l8.039-4.028c0 0 4.028-4.028 4.028-4.028v0c0 0 0 0 0 0s4.028 0 4.028 0c0 0 0 0 8.039-8.039 0 0 4.028 0 4.028 0s0 0 0 0l4.028-4.028c0 0 0 0 0 0l4.028-4.028c0 0 0 0 0 0 4.028 0 4.028-4.028 8.039-4.028v0 0c0 0 0-4.028 0-4.028s0 0 0 0 0 0 4.028 0h4.028c0 0 0 0 4.028 0v0c0 0 0 0 0 0v0c0 0 0 0 0 0v0c0 0 0 0 0 0-160.875 28.152-301.644 189.032-305.666 386.103zM141.984 476.152c0-4.028 0-4.028 0 0 4.028-4.028 4.028-4.028 4.028-4.028s0 0 0 0c0-4.028 0-8.039 4.028-12.069 0 0 4.028 0 4.028 0 4.028 0 8.039 4.028 12.069 12.069 0 0 0 4.028 0 4.028v0c0 0 0 0 0-4.028v-4.028c0 0 0-4.028 4.028-4.028 0 0 0 0 0 0s0 0 0 0h12.069c0 0 0 0 0 0s0 0 0 0 0-4.028 0-4.028c0 0 0 0-4.028 0s-4.028 0-8.039 0h-4.028c0 0 0 0 0 0s-4.028 0-4.028-4.028c0 0 0-4.028 0-4.028s0-4.028 0-4.028c0 0 4.028-4.028 8.039-4.028h4.028c0 0 0 0 0 0v0c0 0 0 0 0 0s0 0 0 0l8.039 4.028c0 0 0 0 0 0s4.028 4.028 4.028 4.028c0 0 0 0 0 4.028 0 0 4.028 0 16.085-4.028 0 0 0 0 0 0s0 0 0 0v0c0 0 0 0 0 0h16.085c0 0 0 0 0 0s4.028-4.028 4.028-4.028h12.069c0 0 0 0 0 0s4.028 0 4.028 0c0 0 0 0 0 0s0 0 4.028-4.028c0 0 4.028 0 4.028 0s0 0 0 0h4.028c0 0 0-4.028 4.028-4.028 0 0 0 0 0-4.028s0-4.028 0-8.039v-4.028c0-4.028 4.028-4.028 4.028-4.028v-4.028c0 0 0 0 0 0s0 0 0-4.028c0 0 0-4.028 0-8.039 0 0 0-4.028 0-4.028s0-4.028 0-4.028c0 0 0 0 0 0s0-4.028 0-4.028c0 0 0-4.028 0-4.028v0c0-4.028 0-4.028 4.028-4.028 0 0 0 0 0 0v-4.028l-8.039 8.039c0 0 0 0 0 0l-12.069 4.028c0 0 0 0 0 0v0c0 0 0 0 0 0h-4.028l-16.085 4.028-8.039 12.069c0 0 0 0 0 0v0c0 0-4.028 0-4.028 0l-4.028-4.028h-4.028c0 0-4.028 0-4.028 0s-4.028 0-4.028 0l-16.085-8.039c0 0 0 0 0 0s0 0 0 0l-4.028-12.069-4.028 4.028c0 0 0 0 0 0v0c0 0 0 0 0 0s0 0 0 0h-12.069l-8.039 12.069v32.174c0 0 0 0 0 4.028 0 0 0 0 0 0 0 4.028-4.028 8.039-8.039 8.039v0c0 0 0 0 0 0s0 0 0 0h-8.039c0 0 0 0 0 0v8.039l12.069 28.152c0 0 0 0 0 0v0c-4.028 0-4.028 0-4.028-4.028zM512 25.698c-20.106 0-40.223 0-60.328 4.028 0 0 0 0 0 0s0 4.028 0 4.028c0 0 0 0 0 0s0 0 0 0 0 0 4.028 0c0 0 0 0 0 0s0 0 0 4.028c0 0 0 4.028 0 4.028v4.028c0 0 0 0-4.028 4.028 0 0 0 0 0 0s0 0 0 0 0 0 0 0-4.028-4.028 0-4.028c0 0 0 0 0-4.028h-4.028c0 0 0 0 0 0s0 0 0 0v0c0 0 0 0 0 0l-20.106 4.028-4.028 8.039c0 0 0 0 0 0s0 0-4.028 4.028c0 0 0 0 0 0h-4.028c0 0 0 0 0 4.028-4.028 4.028-8.039 8.039-12.069 12.069 0 0 0 0 0 0v0c0 0 0 4.028 0 4.028s0 0 0 0l4.028 4.028c0 0 0 0 0 4.028 0 0 0 0 0 0v8.039c0 0 0 0 0 4.028 0 0 0 0-4.028 0v0c0 0 0 0 4.028 0 0 0 0 0 0 0v4.028c0 0 0 0 0 0v8.039c0 0 0 0 0 0s0 0 0 0v4.028c0 0 0 4.028 0 4.028l-8.039 20.106c8.039 4.028 20.106 12.069 28.152 16.085 0 0 0 0 0 4.028v4.028c0 8.039 4.028 20.106 4.028 28.152 0 0 0 0 0 0l-4.028 20.106 4.028 4.028h4.028c0 0 0 0 0 0v0c0 0 0 0 0 0l8.039 12.069c0 0 0 0 0 0l8.039 12.069c0 0 0 0 0 4.028 0 0 0 0 0 0l-4.028 20.106c0 0 0 4.028 0 4.028-12.069 4.028-24.133 12.069-36.197 16.085 0 0 0 0 0 0l-28.152 4.028-8.039 4.028-12.069 8.039c0 0 0 0 0 0h-4.028c0 0 0 4.028 0 4.028s0 0 0 0-4.028 0-4.028 0v0l-8.039 8.039-12.069 16.085c0 0 0 0 0 0v0c0 0 0 0 0 0l-16.085 8.039-8.039 28.152c0 0 0 0-4.028 0h-12.069l-12.069 12.069c0 0 0 0 0 0v0c0 0 4.028 0 4.028 4.028s0 4.028 0 8.039l4.028 4.028c0 0 0 0 0 4.028v0c0 0 0 4.028-4.028 4.028s-8.039 0-12.069 0c0 0 0 0 0 0s0 0 0 4.028c0 0 4.028 4.028 4.028 4.028s0 0-4.028 8.039c0 0 0 4.028 0 4.028s0 0 0 0c0 4.028 0 4.028 0 8.039 0 0 0 0 0 0s0 0 0 4.028c0 0 4.028 4.028 4.028 4.028s0 0 0 8.039c0 0-4.028 4.028-4.028 4.028s0 0 0 0 0 4.028 0 4.028c0 0-4.028 0-4.028 0v0c0 0 0 4.028-4.028 4.028s-8.039 0-12.069 4.028c0 0-4.028 0-4.028 0s0 0-4.028 0c0 0-4.028 0-4.028 0s-4.028 4.028-4.028 4.028l-4.028 4.028c0 0-4.028 0-4.028 0s-4.028 0-4.028-4.028v0l-12.069 8.039h-4.028c0 0 0 0-4.028 0 0 0 0 0 0 0s0 0 0 0h-4.028c0 0 0 0 0 0s0 0 0 0v0c0 0 0 0 0 0s0 0 0 0 0 0 0 0h4.028c0 0 0 0 0 0 4.028 0 4.028 4.028 4.028 4.028s0 0-4.028 8.039c0 4.028-4.028 4.028-4.028 4.028s-4.028 0-4.028-4.028c0 0 0-4.028-4.028-4.028v0c-4.028 8.039-8.039 8.039-12.069 12.069-8.039 4.028-12.069 8.039-16.085 12.069 0 0-4.028 0-4.028 0s0 0 0 0h-12.069c0 0 0 0 0 0s-4.028 0-8.039-12.069c0 0 0 0 0 0s0 0 0 0l-20.106-4.028c0 0-4.028 0-4.028-4.028l-4.028-16.085h-4.028l-4.028 12.069 4.028 24.133 4.028 12.069 4.028 4.028c4.028 8.039 8.039 12.069 12.069 20.106h4.028l8.039-8.039c0 0 4.028 0 4.028 0 4.028 0 4.028 4.028 4.028 8.039l12.069-4.028v-28.152c0 0 0-4.028 0-4.028 4.028 0 4.028 0 8.039 0 0 0 0 0 4.028 0v0c0 0 0 0 0 0v-4.028c0 0 0-4.028 4.028-4.028h4.028c0 0 0 0 0 0 4.028 0 4.028 0 4.028 4.028 0 0 0 0 0 12.069 0 4.028-4.028 4.028-4.028 4.028h-4.028l4.028 8.039c0 8.039 0 12.069 4.028 20.106l8.039 16.085c0 0 0 0 0 0l12.069 8.039c8.039 4.028 12.069 8.039 20.106 12.069 0 0 0 0 0 0s0 0 0 4.028 0 8.039 4.028 12.069c0 0 0 0 0 0s4.028 0 4.028 0l16.085 16.085c0 0 0 0 0 0l4.028 4.028h16.085c0 0 0 0 4.028 0l4.028 4.028c0 0 0 4.028 0 4.028v0l4.028 4.028h4.028c0 0 0 0 0 0s0 0 0 0l12.069 4.028v-4.028c0 0 0-4.028 0-4.028v0c0 0 4.028 0 4.028 0 8.039 4.028 12.069 4.028 20.106 8.039l8.039 4.028c0 0 0 0 0 0v0c0 0 0 0 0 0h4.028c0 0 0 0 0 0s4.028 0 8.039 4.028c0 0 0 0 0 0 0 4.028 0 4.028 0 4.028v4.028c0 0 0 4.028 0 4.028s-4.028 0-4.028 0-4.028 0-12.069-12.069l-4.028 4.028c0 0 0 4.028 0 4.028v0c0 0 0 0 4.028 0l4.028 4.028c0 0 0 4.028 0 4.028v0c0 0 0 0 0 4.028h16.085c0 0-4.028 0-4.028-4.028 0 0 0-4.028 0-4.028v-4.028c0 0 0-4.028 0-4.028 0-4.028 0-4.028 12.069-4.028v-4.028c0 0 0-4.028 4.028-4.028h4.028c0 0 0 0 4.028 0 0 0 0 0 4.028 0h4.028c0 0 0 0 0 0s0 0 8.039 4.028c0 0 0 0 0 4.028 0 0 0 0 0 4.028s0 4.028-4.028 4.028v0c0 0 0 4.028 0 4.028s0 0-4.028 4.028l8.039 4.028c0 0 4.028 4.028 0 4.028 0 0 0 0-4.028 4.028l4.028 4.028c0 0 0 0 0 0s0 0 0 4.028c0 0 0 4.028-4.028 4.028h-8.039c0 0 0 0 0 0 0 4.028 0 4.028 4.028 8.039v0c0 0 0 4.028 0 4.028v0c0 0 0 0 0 0v4.028c0 12.069 4.028 16.085 4.028 16.085s0 4.028 0 4.028v0c0 0 0 0 4.028 8.039 0 0 0 0 0 0s0 0 0 0h4.028c4.028 0 4.028 0 12.069 8.039 0 0 0 0 4.028 0 0 0 4.028 0 16.085 8.039 0 0 0 0 0 0s0 0 0 4.028c0 0 0 0-8.039 12.069l4.028 4.028c0 4.028 0 4.028-8.039 16.085 0 0 0 0 0 0s0 0 0 0v0c0 0 4.028 4.028 4.028 4.028s0 0 0 0 0 0 0 0c4.028 0 8.039 4.028 12.069 4.028 0 0 0 0 4.028 0v0c0 0 0 0 0 0h4.028c0 0 0 0 4.028 4.028v0c0 0 0 0 0 0s0 0 0 0 0 0 0-4.028c0 0 0 0 0 0s0 0 0 0v-4.028c0 0 0 0 4.028-4.028 0 0 0 0 0 0 4.028 0 8.039 0 8.039 0h4.028v-4.028l-4.028-8.039c0 0 0 0 0-4.028 0 0 0 0 0-4.028 0 0 0-4.028 0-4.028s0 0 0-4.028v0c0 0 0 0 0 0h-4.028c0 0 0 0-8.039-8.039 0 0 0 0 0-4.028 0 0 0 0 0 0v-8.039c0 0 0 0 0 0s0 0 0-4.028c0 0 0 0 0 0v0c0 0 0 0 0 0s0 0-4.028-4.028c0 0 0 0 0-4.028l4.028-16.085c0 0 0 0 0 0s0 0 0 0 0 0 0 0h4.028l4.028-4.028c0 0 0 0 0 0s4.028 0 4.028 0h8.039c0 0 0 0 0 0l4.028 4.028c4.028 4.028 12.069 12.069 16.085 16.085l12.069 4.028c0 0 0 0 0 0v0 0c0 0 0 0 0 0s4.028 0 8.039 4.028l12.069 8.039h8.039c0 0 0 0 0 0v0c8.039 4.028 16.085 8.039 24.133 8.039 0 0 0 0 0 0s4.028 0 4.028 4.028v4.028c0 0 0 4.028 4.028 4.028 0 0 0 0 0 0s0 0 0 4.028c0 0 0 0 0 4.028v12.069c0 0 0 0 0 4.028 0 0 0 4.028 0 4.028 0 4.028-4.028 4.028-4.028 8.039 0 0 0 0 0 0v0c0 0 4.028 0 4.028 0l4.028 4.028c0 0 0 0 0 4.028 0 0 0 0 0 0s0 0 0 4.028c-4.028 4.028-8.039 4.028-8.039 4.028s0 0-4.028 0c0 0 0 0 0 0s-4.028 0-4.028 0c0 0 0 0 0 0s0 0 0 4.028c0 0 0 4.028-4.028 4.028-4.028 4.028-8.039 4.028-12.069 4.028-8.039 0-12.069 0-20.106 0-4.028 0-4.028 0-8.039 0s-4.028 0-8.039 0c0 0-4.028 0-4.028 0s-4.028 0-4.028 0-8.039-4.028-12.069-8.039c0 0 0 0-4.028-4.028 0 0 0 0 0 0s0 0-4.028 0-4.028 0-4.028 0 0 0 0 0 0 4.028-8.039 8.039c0 0 0 0 0 0s-4.028 0-4.028 0c0 0 0 0 0 0s0 0 0 0 0 4.028-4.028 8.039c0 0 0 0-4.028 0 0 0-4.028 0-8.039 0s-4.028-4.028-4.028-4.028c0 0 0 0 0 0s0 0-4.028 0c0 0-4.028 0-4.028-4.028 0 0-4.028-4.028-4.028-4.028s-4.028 0-4.028 0-4.028-4.028-4.028-4.028c0 0-4.028-4.028-4.028-4.028s0 0-4.028 0v4.028c0 0-4.028 4.028-4.028 4.028s-4.028 0-4.028-4.028l-8.039-4.028c0 0 0 0 0 0l-8.039-8.039c0 0 0-4.028 0-4.028s0 0 0 0 0 0 0 0 0 0-4.028 4.028c0 0 0 0 0 0s0 0 0 0l4.028 4.028c0 0 0 4.028 0 4.028s-4.028 4.028-4.028 4.028c0 0 0 0-8.039-4.028 0 0 0 0 0 0l-4.028-4.028c0 0 0 0 0 0s0 0 0 4.028c0 0 0 4.028-4.028 4.028 0 0 0 0-4.028 0 0 0 0 0-4.028 0v0c-4.028 0-4.028 0-4.028 0s0 0-4.028-4.028c0 0 0 0 0 0s-4.028 4.028-4.028 4.028h-12.069c0 0 0 0 0 0l36.197 24.133c-4.028 0-4.028 0-4.028-4.028 0 0 0 0 0 0s0 0 0 0h-8.039c0 0 0 0 0 0s0 0 0 0l-16.085-4.028c0 0 0 0 0 0l-12.069-12.069c0 0 0 0-4.028-4.028 0 0 0-4.028 0-4.028s0 0 0 0v4.028c0 0 0 0-4.028 4.028 0 0 0 0 0 0s-4.028 0-4.028 0v0 0c0 0 0 0 0 0 64.35 36.197 136.746 60.328 213.161 60.328 80.437 0 156.852-24.133 217.187-60.328 0 0 0 0 0 0s0 0 4.028 0c0-4.028 0-4.028 4.028-4.028 0 0 0 0 0 0s0 0 16.085-8.039c0 0 0 0 0 0s0 0 0 0v0c0 0 0 0 4.028 0 0 0 0 0 0 0v0l-4.028-8.039c0 0-4.028 0-4.028 0s0 0 0-4.028c0 0-4.028 0-4.028 4.028 0 0-4.028 0-4.028 4.028 0 0 0 0 0 0h-8.039c0 0 0 0-4.028 0 0 0 0 0 0 0h-4.028l-4.028 4.028c0 0 0 0 0 0h-8.039c0 0 0 0 0 0h-4.028c0 0 0 0-4.028 0 0 0 0 0 0 0v-4.028h-4.028c0 0 0 0-4.028 0 0 0 0 0 0 0v-4.028c0 0 0 0 0 0v-4.028c0 0 0 0 0-4.028 0 0 0 0 0 0v-20.106c0 0 0 0 0 0s0 0 0 0l-24.133-12.069c0 0 0-4.028 0-4.028l12.069-16.085v-4.028c0 0 0 0 0 0 4.028-4.028 8.039-4.028 8.039-4.028s0 0 0 0v-8.039c0 0 0-4.028 0-4.028l4.028-4.028c0 0 0 0 0 0h-4.028c0 0 0 0 0 0s0 0 0 0l-4.028-4.028c0 0 0 0-4.028 0l-4.028-4.028c0 0 0 0 0 0s0 0 0 0v0c0 0 0 0 0 0s0 0-20.106 20.106v4.028c0 0 0 0 0 0v0c0 0 0 0 0 0s0 0-8.039 4.028v4.028c0 0-4.028 4.028-4.028 4.028h-4.028c-4.028 0-4.028 0-8.039-16.085 0 0 0 0 0 0s0 0 0 0 0 0 0 0v0c0 0 0 0 0 0s0 0 0 0 0 0-4.028 0c0 0 0 0 0 0s0 0 0 0 0 0 0 0v0c-4.028 0-4.028 0-8.039-4.028 0 0 0-4.028 0-4.028v-4.028c0 0 0 0 4.028-4.028 0 0 0 0 0 0s0 0 0 0v-8.039c0 0 0-4.028 0-4.028s4.028-4.028 4.028 0l8.039 4.028c0 0 0 0 0 0l8.039 4.028c0 0 0 0 0 0s0 0 0 0 0 0 0 0v0c0 0 0 0 0 0s0 0 0 0v-4.028c0 0 0-4.028 0-4.028s4.028-4.028 4.028-4.028h4.028c0 0 0 0 0 0v-4.028c0 0 0 0 0 0s0 0 0 0 0-4.028 0-4.028c0 0 0-4.028 0-4.028s0 0 4.028 0 4.028 0 4.028 0l8.039-8.039v-4.028c0 0 0 0 0 0v-4.028c-4.028 0-4.028 0-16.085 4.028 0 0 0 0 0 0s0 0-8.039 0c0 0 0 0 0 0v0c0 0-4.028 0-4.028-4.028 0 0 0 0 0 0h-4.028c0 0 0 0-4.028 0 0 0 0 0 0 0s0 0 0-4.028 0-12.069 4.028-16.085l-4.028-12.069c0 0 0 0 0 0s0 0 0-4.028c0 0 0 0 0-4.028l4.028-4.028 4.028-8.039c0-4.028 4.028-4.028 8.039-4.028h8.039l4.028-4.028-24.133-20.106c0 0 0 0 0 0s0 0 0 0l-4.028-16.085-16.085-12.069-8.039-4.028c0 0 0 0-4.028 0-4.028-8.039-8.039-16.085-12.069-24.133 0-4.028-4.028-8.039-4.028-8.039l-8.039-20.106c0 0 0 0 0 0 0-4.028 0-4.028 0-4.028s0 0 0 0 0 0 0 0l4.028-4.028 4.028-20.106-12.069-24.133c0 0 0-4.028 0-4.028l4.028-4.028c0-4.028 0-4.028 0-8.039 0 0 0 0 0 0v0c0 0 0 0 0 0l4.028-4.028 4.028-8.039 12.069-16.085c0 0 0 0 0 0l8.039-4.028 4.028-8.039c0 0 0 0 0 0v0c0 0 0 0 0 0v0c0 0 0 0 0 0l16.085-8.039 4.028-4.028c0 0 0 0 0 0s0 0 0 0c4.028 0 4.028 0 8.039 4.028l12.069 4.028h20.106c0 0 0 0 0 0h16.085c0 0 0 0 0 0h4.028c0 0 0 0 0 0l8.039 4.028h12.069l4.028-12.069c0 0 4.028-4.028 4.028-4.028h12.069l4.028-8.039v-4.028l-12.069-20.106c0 0 0-4.028 0-4.028l8.039-20.106v-8.039c0 0 0 0 0 0s0 0 0-4.028c0 0 0 0 0 0s0 0 0-4.028v-4.028l-4.028-8.039-4.028-24.133-8.039-8.039-4.028-12.069h-4.028c0 0 0 0 0 0s0 0 0 0c0-4.028-4.028-8.039-4.028-12.069 0 0 0 0 0 0s0 0 0 0l4.028-8.039c-4.028-16.085-8.039-32.174-12.069-44.243 0 0 0 0 0 0v-4.028l-4.028-8.039c0-4.028-4.028-4.028-4.028-8.039l-4.028-4.028c-4.028-4.028-4.028-4.028-4.028-8.039v-4.028c0 0 0-4.028 0-4.028s0 0 4.028-4.028c4.028 0 4.028 0 4.028 0s0 0 0 0 4.028 0 4.028 4.028v0c8.039 0 12.069 4.028 20.106 4.028l12.069 4.028c0 0 0 0 0 0l20.106 12.069c0 0 0 0 0 0v0c4.028 0 8.039 4.028 8.039 8.039l8.039 12.069 4.028 4.028h8.039c0 0 0 0 0 0 4.028 0 4.028 4.028 4.028 4.028l12.069 12.069c0 0 0 0 0 0l8.039 12.069c0 0 0 0 0 0 4.028 0 4.028 4.028 4.028 4.028h4.028c0 0 0 0 0 0 4.028 4.028 12.069 8.039 16.085 12.069v0c0 0 0 0 0 0v0c0 0 0 0-4.028-4.028 0 0 0 0 0 0l12.069-28.152-8.039-8.039c0 0 0 0-12.069-20.106 0 0 0-4.028 0-4.028s0-4.028 0-4.028c-76.422-80.437-185.009-128.699-301.644-128.699zM375.254 765.729v0 0c0-4.028 0-8.039 12.069-16.085 0 0 0 0 0 0l-12.069-8.039 4.028 4.028c0 0 0 4.028 0 4.028l-8.039 8.039c0 0 0 0 0 0h-4.028c0 4.028 0 4.028 8.039 8.039zM375.254 777.798l12.069 12.069c0 0 4.028 0 4.028 0l-4.028-4.028c0 0 0 0 0 0l-4.028-4.028-8.039-4.028zM367.21 773.774c0 0 0 0 0 0l-4.028-4.028c0 0 0-4.028 0-4.028s0 0 0 0l-4.028 4.028c0 0 0 0 0 0v8.039c0 0 0 0 0 0l8.039-4.028c4.028 4.028 4.028 4.028 0 0z" />
<glyph unicode="&#xe61d;" glyph-name="gauge" d="M655.511 862.933v0c-6.237-21.837 3.125-43.678 21.837-53.036 143.511-65.514 240.223-212.146 230.865-383.738-9.362-202.784-177.827-368.138-380.615-374.378-227.745-9.362-414.933 171.59-414.933 396.216 0 74.875 21.837 146.631 59.281 209.027 12.477 18.72 6.237 43.678-9.362 56.157v0c-18.72 15.597-49.917 9.362-62.394-12.477-56.157-90.473-84.232-199.668-68.636-315.096 28.078-218.388 205.909-396.216 427.412-418.049 290.14-31.201 536.604 196.547 536.604 480.447 0 193.425-115.434 361.895-280.785 439.891-24.957 12.477-53.036 0-59.281-24.957zM561.917 878.528c0-27.566-22.348-49.917-49.917-49.917s-49.917 22.348-49.917 49.917c0 27.566 22.348 49.917 49.917 49.917s49.917-22.348 49.917-49.917zM608.714 429.28c0-53.415-43.299-96.714-96.714-96.714s-96.714 43.299-96.714 96.714c0 53.415 43.299 96.714 96.714 96.714s96.714-43.299 96.714-96.714zM558.797 476.078c-21.837 28.078-324.46 302.619-324.46 302.619s202.784-355.658 224.627-383.738c21.837-28.078 62.394-31.201 90.473-9.362 24.957 24.957 31.201 65.514 9.362 90.473z" />
<glyph unicode="&#xe61e;" glyph-name="play" d="M512 935.293c-268.424 0-487.293-218.87-487.293-487.293s218.87-487.293 487.293-487.293 487.293 218.87 487.293 487.293-218.87 487.293-487.293 487.293zM757.711 427.351l-359.274-206.481c-14.455-8.259-35.101 2.067-35.101 20.649v412.961c0 16.517 18.583 28.907 35.101 20.649l359.274-206.481c14.455-10.324 14.455-30.972 0-41.295z" />
<glyph unicode="&#xe61f;" glyph-name="plus" d="M926.815 518.708h-344.109v344.109c0 37.709-32.995 70.708-70.708 70.708s-70.708-32.995-70.708-70.708v-344.109h-344.109c-37.709 0-70.708-32.995-70.708-70.708s32.995-70.708 70.708-70.708h344.109v-344.109c0-37.709 32.995-70.708 70.708-70.708s70.708 32.995 70.708 70.708v344.109h344.109c37.709 0 70.708 32.995 70.708 70.708s-28.285 70.708-70.708 70.708z" />
<glyph unicode="&#xe620;" glyph-name="help" d="M512 933.742c-265.708 0-485.742-215.886-485.742-485.742s220.037-485.742 485.742-485.742 485.742 220.037 485.742 485.742-220.037 485.742-485.742 485.742zM507.842 153.234c-37.365 0-70.579 29.060-70.579 70.579 0 37.365 29.060 70.579 70.579 70.579 37.365 0 70.579-29.060 70.579-70.579s-29.060-70.579-70.579-70.579zM611.639 464.604l-45.67-37.365c-33.212-29.060-29.060-45.67-29.060-62.274h-49.82v16.604c0 87.183 83.032 103.794 83.032 236.641 0 49.82-16.604 74.731-58.124 74.731-37.365 0-53.972-20.755-49.82-62.274 4.158-29.060-24.911-41.521-45.67-41.521s-37.365 20.755-37.365 49.82c0 49.82 49.82 99.639 141.157 99.639 87.183 0 161.912-37.365 161.912-132.851 0-62.274-20.755-95.484-70.579-141.157z" />
<glyph unicode="&#xe621;" glyph-name="required" d="M1003.438 483.606l-384.612-85.469 256.406-299.137-170.935-113.954-192.296 334.754-199.43-341.876-170.935 113.954 270.647 299.137-391.732 85.469 64.101 199.43 370.36-156.691-35.606 391.732h206.546l-42.735-384.612 356.111 156.691 64.101-199.43z" />
<glyph unicode="&#xe622;" glyph-name="arrow-bold-right" d="M332.856-39.861c-24.393 0-48.787 9.757-68.3 27.646-37.403 37.403-37.403 99.198 0 136.601l323.615 323.615-323.615 323.615c-37.403 37.403-37.403 99.198 0 136.601s99.198 37.403 136.601 0l391.915-391.915c17.888-17.888 27.646-42.281 27.646-68.3s-9.757-50.412-27.646-68.3l-391.915-391.915c-19.515-17.888-43.907-27.646-68.3-27.646z" />
<glyph unicode="&#xe623;" glyph-name="arrow-slim-right" d="M302.675-35.062c-16.1 0-32.207 6.438-45.087 19.324-25.762 25.762-25.762 64.407 0 90.174l373.569 373.569-373.569 373.569c-25.762 25.762-25.762 64.407 0 90.174s64.407 25.762 90.174 0l418.655-418.655c25.762-25.762 25.762-64.407 0-90.174l-418.655-418.655c-12.879-12.879-28.984-19.324-45.087-19.324z" />
<glyph unicode="&#xe624;" glyph-name="arrow-right-aligned" d="M473.175-35.062c-16.1 0-32.207 6.438-45.087 19.324-25.762 25.762-25.762 64.407 0 90.174l373.569 373.569-373.569 373.569c-25.762 25.762-25.762 64.407 0 90.174s64.407 25.762 90.174 0l418.655-418.655c25.762-25.762 25.762-64.407 0-90.174l-418.655-418.655c-12.879-12.879-28.984-19.324-45.087-19.324z" />
<glyph unicode="&#xe625;" glyph-name="star" d="M459.208 855.218c30.163 60.328 82.953 60.328 113.113 0l52.792-113.113c30.163-60.328 113.113-120.661 180.986-128.196l120.661-15.081c67.87-7.542 82.953-60.328 30.163-105.576l-90.496-90.496c-45.242-45.242-82.953-143.282-67.87-211.151l22.625-120.661c15.081-67.87-30.163-98.035-90.496-67.87l-113.113 60.328c-60.328 30.163-158.366 30.163-218.695 0l-113.113-60.328c-60.328-30.163-98.035 0-90.496 67.87l22.625 120.661c15.081 67.87-22.625 158.366-67.87 211.151l-90.496 90.496c-45.242 45.242-30.163 98.035 30.163 105.576l120.661 15.081c67.87 7.542 150.822 67.87 180.986 128.196l67.87 113.113z" />
<glyph unicode="&#xe626;" glyph-name="warning" d="M978.54 210.708l-349.909 607.313c-52.285 88.482-176.962 88.482-229.246 0l-349.909-607.313c-52.285-88.482 12.069-197.077 112.617-197.077h703.833c96.525 0 160.875 108.588 112.617 197.077zM512 146.356c-40.223 0-72.396 32.174-72.396 72.396s32.174 72.396 72.396 72.396c40.223 0 72.396-32.174 72.396-72.396s-32.174-72.396-72.396-72.396zM512 323.321c-40.223 0-72.396 257.405-72.396 297.62s32.174 72.396 72.396 72.396c40.223 0 72.396-32.174 72.396-72.396 0-36.197-32.174-297.62-72.396-297.62z" />
<glyph unicode="&#xe627;" glyph-name="wrong-join" d="M512 844.216c218.388 0 396.216-177.827 396.216-396.216s-177.827-396.216-396.216-396.216c-218.388 0-396.216 177.827-396.216 396.216s177.827 396.216 396.216 396.216zM512 931.567c-268.306 0-483.567-215.265-483.567-483.567s215.265-483.567 483.567-483.567c268.306 0 483.567 215.265 483.567 483.567s-215.265 483.567-483.567 483.567v0zM306.091 248.332v0c9.362-6.237 21.837-6.237 34.318 0l124.791 96.714c90.473 68.636 171.59 146.631 240.223 233.986l15.597 18.72c9.362 12.477 9.362 24.957 3.125 34.318v0c-9.362 9.362-24.957 9.362-34.318 0l-53.036-34.318c-74.875-56.157-146.631-118.552-212.146-187.189l-118.552-124.791c-9.362-12.477-12.477-31.201 0-37.438zM674.23 270.173v0c9.362 9.362 12.477 24.957 6.237 34.318l-74.875 106.074c-56.157 74.875-121.671 143.511-196.547 196.547l-21.837 12.477c-9.362 6.237-24.957 6.237-34.318-3.125v0c-12.477-9.362-15.597-24.957-6.237-34.318l28.078-43.678c43.678-65.514 93.596-124.791 152.873-177.827l109.189-96.714c9.362-9.362 24.957-6.237 37.438 6.237z" />
<glyph unicode="&#xe628;" glyph-name="facebook" d="M870.588 924.423h-730.541c-60.526 0-109.578-49.092-109.578-109.578v-730.541c0-60.526 49.057-109.578 109.578-109.578h730.541c60.526 0 109.578 49.057 109.578 109.578v730.541c0 60.486-49.020 109.578-109.578 109.578zM777.952 412.971h-88.871v-328.892h-148.416v328.892h-57.532v110.787h57.567v70.57c0 92.525 38.424 147.464 147.464 147.464h110.497v-110.422h-64.178c-42.445 0-45.223-15.779-45.223-45.369l-0.184-62.206h100.962l-12.087-110.821z" />
<glyph unicode="&#xe629;" glyph-name="home" d="M947.574 373.327c-9.472 0-18.964 3.623-26.191 10.85l-409.954 409.954-408.812-408.793c-14.474-14.474-37.908-14.474-52.382 0-14.474 14.454-14.474 37.908 0 52.401l435.003 434.964c14.454 14.474 37.908 14.474 52.382 0l436.145-436.145c14.454-14.454 14.454-37.908 0-52.382-7.247-7.227-16.699-10.85-26.191-10.85zM733.696 624.246v230.951c0 20.401 16.581 37.041 37.041 37.041h37.061c20.401 0 37.041-16.64 37.041-37.041v-342.095l-111.143 111.143zM511.429 726.134l-407.513-407.493v-203.756c0-61.361 49.782-111.143 111.143-111.143h592.738c61.342 0 111.143 49.762 111.143 111.143v203.756l-407.513 407.493zM622.553 114.885c0-20.401-16.64-37.061-37.041-37.061h-148.185c-20.401 0-37.041 16.66-37.041 37.061v222.267c0 20.401 16.64 37.041 37.041 37.041h148.185c20.401 0 37.041-16.64 37.041-37.041v-222.267z" />
<glyph unicode="&#xe62a;" glyph-name="spaceship" d="M716.308 353.438l56.202 8.034 126.799 63.409v46.119l-126.799 63.39-56.3 8.054 8.153 7.68 188.889 10.181h-197.908l-19.968-14.887-64.079 9.157-28.81 60.514h-30.031l-17.152 20.972 0.118 0.039-5.002 6.164h-0.158l-12.111 14.809h-13.489l-13.115-14.809h-0.177l-5.415-6.164 0.118-0.039-18.57-20.972h-0.295l-168.527 168.645 46.69 6.912 15.242-11.343h197.849l-188.849 10.181-4.391 4.116 99.111 14.651v25.895l-207.439 86.469-155.628-83.574-10.496-63.468 10.496-66.206 34.58-34.58h51.889l43.54 43.559v-0.079l-31.153-31.153-12.386-12.327 0.020-0.039-0.020-0.039 43.835-43.835 0.394-118.508-55.749-62.444 56.162-62.917 0.394-116.815-44.997-45.036h-51.929l-34.58-34.56-10.496-66.206 10.496-63.488 155.628-83.515 207.458 86.449v25.895l-99.033 14.651 4.313 4.037 188.849 10.181h-197.868l-15.143-11.264-46.809 6.912 168.546 168.606 37.455-42.26h13.489l34.58 42.26h29.775l28.81 60.495 64.197 9.157 19.85-14.769h197.888l-188.889 10.142-8.054 7.562zM263.503 728.576l51.279 51.279 0.059-0.039-51.279-51.259-0.059 0.020z" />
<glyph unicode="&#xe62b;" glyph-name="checked" horiz-adv-x="1020" d="M129.075 304.634l187.35-199.698c62.592-41.422 146.28-29.464 194.747 27.827l430.511 616.383c15.498 18.264 11.553 46.054-8.365 59.317l-0.669 0.441c-14.793 9.862-34.29 8.824-47.938-2.554l-446.75-448.175c-24.355-20.27-55.828-29.975-87.37-26.805l-187.262 68.825c-20.148 2.008-39.697-7.908-49.947-25.397l-0.406-0.723c-13.931-23.775-6.868-54.278 16.096-69.442z" />
<glyph unicode="&#xe62c;" glyph-name="wrong" d="M55.532 22.351l0.748-0.65c19.2-16.010 49.9-14.395 73.61 3.958l271.852 210.432c196.096 151.828 375.198 325.356 532.559 516.096l34.048 41.314c19.87 24.044 21.74 55.67 4.49 75.146l-0.63 0.689c-18.097 20.5-51.673 21.346-78.257 2.028l-107.461-78.316c-167.582-122.073-324.037-259.958-466.353-411.116l-261.553-277.819c-24.34-25.817-25.738-62.7-3.052-81.762zM867.584 70.754l0.807 0.866c20.224 22.154 24.222 52.519 9.649 72.862l-167.188 232.586c-120.576 167.818-266.85 314.565-434.885 436.382l-36.411 26.368c-21.248 15.36-53.602 11.402-76.977-9.472l-0.866-0.788c-24.556-21.898-31.685-55.69-16.62-78.572l61.007-92.928c95.173-144.837 208.719-275.574 338.649-389.691l238.809-209.822c22.213-19.554 60.121-14.041 84.027 12.209z" />
<glyph unicode="&#xe62d;" glyph-name="list" d="M375.661 891.077h579.415v-68.16h-579.415v68.16zM375.661 754.739h511.237v-68.16h-511.237v68.16zM238.695 891.077h-135.692c-18.775 0-34.080-15.305-34.080-34.080v-136.339c0-18.775 15.305-34.080 34.080-34.080h135.692c18.775 0 34.080 15.323 34.080 34.080v136.339c0 18.775-15.305 34.080-34.080 34.080zM375.661 550.24h579.415v-68.16h-579.415v68.16zM375.661 413.92h511.237v-68.16h-511.237v68.16zM238.695 550.24h-135.692c-18.775 0-34.080-15.305-34.080-34.080v-136.339c0-18.775 15.305-34.080 34.080-34.080h135.692c18.775 0 34.080 15.305 34.080 34.080v136.339c0 18.775-15.305 34.080-34.080 34.080zM375.661 209.421h579.415v-68.16h-579.415v68.16zM375.661 73.083h511.237v-68.16h-511.237v68.16zM238.695 209.421h-135.692c-18.775 0-34.080-15.305-34.080-34.099v-136.339c0-18.757 15.305-34.061 34.080-34.061h135.692c18.775 0 34.080 15.305 34.080 34.080v136.32c0 18.794-15.305 34.099-34.080 34.099z" />
<glyph unicode="&#xe62e;" glyph-name="quotation-open" d="M923.333 249.994c-104.015 24.537-161.241 96-157.145 193.969 71.483 18.334 142.907 79.636 142.907 167.404v4.096c0 95.862-67.387 167.326-169.413 167.326-114.314 0-181.701-87.769-181.701-228.588v-8.192c0-148.972 44.879-259.21 120.399-334.75 61.282-61.302 153.068-98.068 228.608-98.068 55.217 0 77.607 32.689 77.607 69.455s-26.585 59.234-61.263 67.348zM404.933 249.994c-104.231 24.537-161.339 96-157.243 193.969 71.444 18.334 142.887 79.636 142.887 167.404v4.096c0 95.862-67.348 167.326-169.413 167.326-114.393 0-181.78-87.769-181.78-228.588v-8.192c0-148.972 45.017-259.21 120.478-334.75 61.282-61.302 153.186-98.068 228.706-98.068 55.001 0 77.548 32.689 77.548 69.455s-26.526 59.234-61.184 67.348z" />
<glyph unicode="&#xe62f;" glyph-name="text" d="M203.402 323.426l-51.417-169.393h-112.601l191.508 597.681h139.264l194.206-597.681h-117.051l-54.114 169.393h-189.794zM374.567 405.878l-46.966 147.22c-11.54 36.372-21.287 77.154-30.169 111.734h-1.792c-8.842-34.58-17.723-76.268-28.357-111.734l-46.119-147.22h153.403zM886.193 154.033l-7.050 47.892h-2.698c-26.624-33.694-71.838-57.659-127.705-57.659-86.882 0-135.68 62.996-135.68 128.61 0 109.036 96.65 164.057 256.295 163.17v7.089c0 28.357-11.52 75.362-87.788 75.362-42.594 0-86.922-13.312-116.165-31.902l-21.307 70.932c31.941 19.515 87.847 38.144 156.101 38.144 138.319 0 178.255-87.788 178.255-181.78v-156.081c0-39.030 1.792-77.154 6.183-103.778h-98.442zM871.995 365.076c-77.174 1.812-150.764-15.045-150.764-80.699 0-42.575 27.49-62.031 62.11-62.031 43.461 0 75.343 28.337 85.090 59.392 2.658 7.995 3.564 16.837 3.564 23.966v59.372z" />
<glyph unicode="&#xe630;" glyph-name="attachment" d="M312.97 22.804c-55.69 0-115.338 23.434-177.034 85.13-140.249 140.209-127.173 314.053 35.761 476.987 83.082 83.042 248.812 233.925 255.803 240.325 15.242 13.804 38.774 12.721 52.578-2.481 13.863-15.222 12.721-38.754-2.462-52.598-1.713-1.556-171.441-156.101-253.282-237.883-135.207-135.207-147.239-260.234-35.761-371.712 97.398-97.418 182.351-84.933 313.364 46.021l337.27 337.31c47.596 47.577 71.444 88.025 70.971 120.261-0.492 32.768-27.983 58.585-54.567 83.574-5.75 5.396-11.264 10.634-16.404 15.734-41.905 41.886-74.378 38.144-97.89 30.188-41.433-13.922-86.784-55.788-121.698-90.683l-307.003-307.023c-19.377-19.377-59.589-69.238-15.124-113.723 48.837-48.778 111.065 12.505 113.703 15.124l337.27 337.29c14.553 14.533 38.124 14.533 52.657 0 14.553-14.533 14.553-38.124 0-52.638l-337.29-337.29c-58.171-58.151-152.103-81.999-218.998-15.163-60.948 61.046-54.882 149.031 15.143 219.018l307.042 307.042c43.146 43.166 94.818 89.856 150.567 108.623 62.7 21.071 121.305 4.864 174.297-48.128 4.569-4.588 9.59-9.275 14.75-14.139 32.492-30.562 76.977-72.389 77.982-136.684 0.827-53.858-29.479-110.809-92.731-174.041l-337.329-337.29c-62.878-62.878-146.53-131.131-241.585-131.151z" />
<glyph unicode="&#xe631;" glyph-name="hyperlink" d="M553.846 272.719c-56.871 0-112.423 20.775-154.348 62.74-23.414 23.335-23.414 61.184-0.079 84.519 23.375 23.355 61.223 23.355 84.539 0.039 40.842-40.783 111.695-36.352 157.913 9.925l184.418 184.399c24.635 24.576 38.754 56.694 38.754 88.084 0 18.767-4.982 45.982-28.711 69.73-25.442 25.482-54.607 29.637-74.969 28.633-30.090-1.339-59.55-15.065-82.964-38.498l-105.708-105.669c-24.714 24.714-126.267 42.85-153.797 15.281l174.966 174.907c44.485 44.524 101.927 70.577 161.871 73.472 62.484 2.855 121.127-19.633 165.022-63.527 41.196-41.098 63.862-95.921 63.862-154.348-0.039-62.897-26.9-125.854-73.846-172.662l-184.359-184.359c-48.286-48.305-111.143-72.665-172.564-72.665zM470.193 623.301c56.773 0 112.364-20.756 154.388-62.74 23.394-23.335 23.335-61.164 0-84.5-23.355-23.375-61.184-23.375-84.539 0-40.802 40.724-111.655 36.273-157.932-10.004l-184.399-184.379c-24.655-24.596-38.754-56.694-38.754-88.103 0-18.668 4.982-45.962 28.731-69.75 25.423-25.364 54.607-29.598 74.988-28.672 30.050 1.438 59.53 15.143 82.944 38.597l105.689 105.63c24.714-24.674 126.267-42.831 153.856-15.242l-174.966-174.946c-44.485-44.505-101.986-70.558-161.851-73.452-62.562-2.914-121.167 19.574-165.159 63.527-41.177 41.098-63.803 95.921-63.803 154.329 0.039 62.878 26.919 125.873 73.846 172.662l184.359 184.359c48.266 48.266 111.183 72.684 172.603 72.684z" />
<glyph unicode="&#xe632;" glyph-name="camera" d="M548.352 604.81c-96.67 0-174.986-78.277-174.986-174.986s78.316-174.946 174.986-174.946c96.689 0 174.927 78.238 174.927 174.946s-78.238 174.986-174.927 174.986zM807.385 720.679h-33.615l-47.439 83.633c-8.231 14.513-26.053 25.423-50.727 25.423h-254.484c-25.777 0-42.496-10.91-50.806-25.423l-47.36-83.633h-65.418c0 20.027-16.384 36.352-36.352 36.352h-72.724c-20.066 0-36.352-16.325-36.352-36.352v-6.695c-42.299-15.025-72.724-54.942-72.724-102.38v-368.089c0-97.93 79.281-177.231 177.231-177.231h590.769c97.89 0 177.231 79.301 177.231 177.231v299.934c0 97.91-79.34 177.231-177.231 177.231zM184.812 593.428c-30.149 0-54.548 24.418-54.548 54.548 0 30.090 24.399 54.548 54.548 54.548 30.070 0 54.528-24.438 54.528-54.548 0-30.129-24.458-54.548-54.528-54.548zM548.352 173.194c-141.824 0-256.65 114.865-256.65 256.63 0 141.804 114.826 256.63 256.65 256.63 141.765 0 256.591-114.826 256.591-256.63 0-141.765-114.826-256.63-256.591-256.63z" />
<glyph unicode="&#xe633;" glyph-name="video-file" d="M948.263 884.283h-36.372v-72.724h-109.076v72.724h-581.671v-72.724h-109.076v72.724h-36.332c-20.027 0-36.352-16.364-36.352-36.372v-799.823c0-20.007 16.325-36.352 36.352-36.352h36.352v36.352h109.076v-36.352h581.691v36.352h109.076v-36.352h36.372c20.027 0 36.352 16.345 36.352 36.352v799.823c-0.039 20.007-16.364 36.372-36.391 36.372zM221.145 157.145h-109.076v109.095h109.076v-109.095zM221.145 375.276h-109.076v109.076h109.076v-109.076zM221.145 593.428h-109.076v109.056h109.076v-109.056zM678.794 424.153l-236.426-137.925c-3.86-1.93-8.054-2.816-12.229-2.816-5.022 0-9.905 1.3-14.316 3.958-8.015 4.805-12.898 13.47-12.898 22.725v275.771c0 9.275 4.884 17.92 12.898 22.745 8.034 4.864 18.137 5.337 26.545 1.103l236.426-137.846c9.177-4.529 14.986-13.745 14.986-23.867s-5.809-19.318-14.986-23.847zM911.911 157.145h-109.076v109.095h109.076v-109.095zM911.911 375.276h-109.076v109.076h109.076v-109.076zM911.911 593.428h-109.076v109.056h109.076v-109.056z" />
<glyph unicode="&#xe634;" glyph-name="share" d="M886.823 484.273c-35.643 0-66.481-19.279-83.554-47.754l-108.465 22.686c0 1.241 0.354 2.343 0.354 3.584 0 44.347-17.172 84.342-44.603 114.983l111.616 145.428c9.748-3.23 19.948-5.396 30.759-5.396 53.996 0 97.753 43.756 97.753 97.772 0 53.977-43.756 97.733-97.753 97.733-53.977 0-97.772-43.756-97.772-97.733 0-19.948 6.046-38.4 16.266-53.878l-111.458-145.191c-23.454 11.914-49.664 19.279-77.804 19.279-41.964 0-79.911-15.537-109.844-40.369l-136.606 113.408c4.037 10.713 6.538 22.193 6.538 34.324 0 53.996-43.776 97.753-97.753 97.753s-97.753-43.756-97.753-97.753 43.776-97.753 97.753-97.753c18.55 0 35.702 5.455 50.491 14.415l136.625-113.428c-13.844-24.891-22.43-53.090-22.43-83.594 0-26.191 6.242-50.786 16.699-73.039l-172.386-123.806c-15.931 11.303-35.308 18.078-56.34 18.078-53.996 0-97.772-43.756-97.772-97.733 0-54.036 43.776-97.792 97.753-97.792 54.016 0 97.753 43.756 97.753 97.792 0 9.708-1.851 18.905-4.49 27.746l172.485 123.904c31.055-29.696 72.901-48.148 119.257-48.148 4.293 0 8.33 0.985 12.544 1.28l34.265-129.398c-26.132-17.566-43.323-47.34-43.323-81.191 0-53.977 43.737-97.772 97.772-97.772 53.977 0 97.772 43.796 97.772 97.772 0 51.495-39.975 93.204-90.526 97.024l-34.324 129.615c38.518 18.393 69.317 50.117 85.662 89.698l108.347-22.626c6.144-48.108 46.73-85.406 96.492-85.406 53.996 0 97.792 43.756 97.792 97.733s-43.796 97.753-97.792 97.753zM522.161 386.796c-41.964 0-75.993 34.048-75.993 75.993 0 41.984 34.048 75.993 75.993 75.993s76.012-34.028 76.012-75.993c0-41.964-34.068-75.993-76.012-75.993z" />
<glyph unicode="&#xe635;" glyph-name="medal" d="M661.957 196.234c0-78.762-63.849-142.612-142.612-142.612s-142.612 63.849-142.612 142.612c0 78.762 63.849 142.612 142.612 142.612s142.612-63.849 142.612-142.612zM538.289-23.788c-121.324-10.476-228.549 79.734-239.006 201.078s79.754 228.569 201.078 239.045c121.344 10.437 228.549-79.793 239.025-201.118s-79.734-228.549-201.098-239.006zM503.966 374.705c-98.422-8.487-171.579-95.429-163.092-193.831 8.487-98.422 95.449-171.579 193.851-163.111 98.422 8.507 171.579 95.449 163.092 193.871-8.487 98.402-95.429 171.579-193.851 163.072zM448.788 432.581l54.114-45.529 45.509 54.114c6.892 8.172 0.453 20.559-10.201 19.653l-82.747-7.129c-10.634-0.906-14.848-14.238-6.676-21.11zM419.911 902.258l76.575 6.602 35.21-408.379-76.575-6.602-35.21 408.379zM632.615 920.615l-76.583-6.597 35.21-408.399 66.796 120.044zM360.369 897.142l-76.564-6.597 25.403-294.932 86.351-106.85z" />
<glyph unicode="&#xe636;" glyph-name="earned-stars" d="M403.791 655.143c14.946 50.117 52.322 56.478 83.003 14.119l56.615-78.119c30.72-42.358 98.639-75.973 150.922-74.693l96.453 2.343c52.303 1.28 69.868-32.295 39.089-74.575l-56.832-77.962c-30.779-42.279-41.787-117.248-24.418-166.617l32.039-90.998c17.369-49.369-9.118-76.446-58.841-60.219l-91.707 29.932c-49.723 16.226-124.455 3.525-166.026-28.258l-76.662-58.604c-41.57-31.764-75.52-14.946-75.461 37.356l0.118 96.473c0.059 52.303-35.111 119.394-78.159 149.13l-79.399 54.804c-43.047 29.696-37.573 67.19 12.229 83.298l91.806 29.676c49.782 16.089 102.715 70.302 117.681 120.418l27.55 92.495zM739.584 906.398c8.783 18.708 23.749 18.964 33.241 0.61l17.467-33.89c9.492-18.353 34.048-35.525 54.548-38.124l37.829-4.805c20.5-2.599 25.383-16.758 10.831-31.449l-26.801-27.097c-14.533-14.69-23.257-43.323-19.397-63.626l7.089-37.455c3.879-20.303-8.074-29.322-26.545-20.047l-34.048 17.132c-18.471 9.295-48.404 8.743-66.501-1.201l-33.438-18.353c-18.117-9.945-30.425-1.359-27.254 19.062l5.75 37.691c3.111 20.441-6.636 48.738-21.701 62.897l-27.766 26.132c-15.065 14.139-10.693 28.475 9.689 31.803l37.632 6.164c20.382 3.328 44.308 21.366 53.071 40.074l16.305 34.481zM180.795 680.94c4.135 8.724 11.126 8.862 15.557 0.276l8.153-15.813c4.431-8.586 15.892-16.601 25.442-17.802l17.684-2.245c9.57-1.221 11.855-7.818 5.041-14.69l-12.505-12.642c-6.794-6.873-10.87-20.244-9.058-29.716l3.328-17.506c1.792-9.472-3.781-13.686-12.386-9.354l-15.911 7.995c-8.625 4.352-22.607 4.096-31.074-0.551l-15.616-8.586c-8.468-4.628-14.198-0.63-12.721 8.921l2.678 17.585c1.457 9.551-3.092 22.764-10.122 29.381l-12.977 12.209c-7.030 6.597-4.982 13.292 4.529 14.848l17.566 2.875c9.531 1.575 20.697 9.984 24.812 18.708l7.582 16.108z" />
<glyph unicode="&#xe637;" glyph-name="show-more" d="M984.615 711.877c0-26.092-21.169-47.262-47.281-47.262h-850.668c-26.112 0-47.281 21.169-47.281 47.262v3.938c0 26.092 21.169 47.262 47.281 47.262h850.649c26.132 0 47.301-21.169 47.301-47.262v-3.938zM984.615 455.877c0-26.112-21.169-47.262-47.281-47.262h-850.668c-26.112 0-47.281 21.15-47.281 47.262v3.938c0 26.112 21.169 47.262 47.281 47.262h850.649c26.132 0 47.301-21.15 47.301-47.262v-3.938zM669.538 180.204c0-26.112-21.15-47.281-47.242-47.281h-535.67c-26.092 0-47.242 21.169-47.242 47.281v3.879c0 26.132 21.15 47.301 47.242 47.301h535.65c26.112 0 47.262-21.169 47.262-47.281v-3.899z" />
<glyph unicode="&#xe638;" glyph-name="arrow" d="M512 160.864c-21.425 0-42.86 8.566-59.999 25.715l-407.126 407.126c-34.283 34.283-34.283 85.71 0 120s85.71 34.283 120 0l347.131-342.845 347.131 342.845c34.283 34.283 85.71 34.283 120 0s34.283-85.71 0-120l-407.126-407.126c-17.14-17.14-38.57-25.715-59.999-25.715z" />
<glyph unicode="&#xe639;" glyph-name="cross" d="M959.639 783.947l-783.586-783.586c-30.449-30.471-79.853-30.471-110.257 0l-1.479 1.479c-30.427 30.403-30.427 79.718 0 110.19l783.631 783.631c30.403 30.471 79.808 30.471 110.212 0l1.479-1.479c30.516-30.427 30.516-79.808 0-110.235zM847.947 0.361l-783.653 783.586c-30.427 30.427-30.427 79.808 0 110.235l1.479 1.479c30.403 30.471 79.808 30.471 110.257 0l783.61-783.631c30.494-30.471 30.494-79.786 0-110.19l-1.479-1.479c-30.403-30.494-79.786-30.494-110.212 0z" />
<glyph unicode="&#xe63a;" glyph-name="like" d="M721.231 828.948c-90.033 0-167.010-64.177-209.31-108.465-42.299 44.288-119.079 108.465-209.073 108.465-155.136 0-263.463-108.17-263.463-262.951 0-170.535 134.518-280.832 264.665-387.407 61.42-50.393 125.046-102.498 173.785-160.236 8.231-9.649 20.224-15.301 32.866-15.301h2.462c12.682 0 24.674 5.652 32.807 15.301 48.857 57.698 112.404 109.844 173.844 160.158 130.166 106.614 264.802 216.832 264.802 387.486 0 154.782-108.347 262.951-263.385 262.951z" />
<glyph unicode="&#xe63b;" glyph-name="comment" d="M512 904.566c-261.022 0-472.615-186.782-472.615-417.28 0-116.854 54.548-222.366 142.178-298.122-19.22-111.025-143.222-156.042-134.695-186.624 104.724-43.284 314.644 52.106 365.844 76.839 32.059-6.065 65.221-9.374 99.289-9.374 260.982 0 472.615 186.762 472.615 417.241 0 230.538-211.633 417.319-472.615 417.319z" />
<glyph unicode="&#xe63c;" glyph-name="star-clip" d="M984.615 278.39l-131.033 163.742 128.709 154.447-187.195 32.768 14.021 208.167-194.146-74.85-93.637 175.478-102.932-173.095-187.156 77.154 16.364-201.216-194.186-44.426 142.73-135.68-156.77-159.114 208.226-35.111-32.768-229.238 194.225 112.305 102.932-191.882 102.971 182.508 182.508-93.578-4.706 208.226 191.842 23.394zM519.010 145.034l-107.618 159.074-182.508 63.193 116.992 147.358c0 0-16.384 189.519-9.393 187.175 7.070-2.343 175.518-70.183 175.518-70.183l184.773 72.546-4.608-205.903 114.649-142.71-184.852-51.456-102.951-159.094z" />
<glyph unicode="&#xe63d;" d="M641.418 634.919l-23.887-115.338 92.199-47.793 37.278 27.333 76.524 16.226 11.146 59.372-59.412 52.027-29.637 40.409-92.633 18.767-11.934-56.005z" />
<glyph unicode="&#xe63e;" d="M269.174 228.923l119.355-120.734 0.433 0.197 0.158-0.138v0.236l139.638 67.23 2.796 1.871 24.34 16.226-24.084 74.772-15.498 127.665-65.418 44.308-95.527 40.054-40.645-32.236-56.182-31.311z" />
<glyph unicode="&#xe63f;" d="M146.924 638.306l-0.138-12.8 75.5-61.479 58.762-2.521 51.81 122.112-61.046 27.766-94.366-12.938z" />
<glyph unicode="&#xe640;" d="M648.133 314.801l-0.059-0.059h0.098l32.768-42.772 0.807-0.807 7.266-7.168 23.749 13.489 42.398 14.297 10.457 25.403 6.912 35.367-13.883 11.54-14.631 16.955-63.291-16.916-32.689-49.172z" />
<glyph unicode="&#xe641;" d="M472.34 777.393l42.122-50.235 58.388-8.802 0.059 0.158h0.079l-0.059 0.039 24.911 47.813 3.82 10.673-22.292 15.813-30.858 32.354-27.451-1.241-34.954-8.724-4.628-17.447z" />
<glyph unicode="&#xe642;" d="M271.143 234.89l134.38 42.594 125.617-193.674-106.929-70.951-67.23 10.358-106.949-7.089-46.297 67.682 57.856 89.009z" />
<glyph unicode="&#xe643;" d="M403.476 264.192l-21.484-139.737 79.301-67.663-37.081-43.934 106.929 70.951z" />
<glyph unicode="&#xe644;" d="M381.991 124.455l-120.399 48.364 9.551 62.070 134.38 42.594 87.788-133.612-88.635 102.282z" />
<glyph unicode="&#xe645;" d="M349.184 90.9l10.85-55.237-30.74-3.249z" />
<glyph unicode="&#xe646;" d="M329.295 32.414l-73.767 42.122 93.657 16.364z" />
<glyph unicode="&#xe647;" d="M314.466 789.878l32.63 93.263 107.815-0.591 89.206-79.695-11.166-39.286-3.761-32.709-60.869-24.891-49.29-9.472-64.236 50.334-44.386 22.764z" />
<glyph unicode="&#xe648;" d="M314.053 787.81l33.044 95.33 41.039-43.303 132.785-31.547-29.026-2.658 7.129-53.228-116.992 50.964-18.137-36.943z" />
<glyph unicode="&#xe649;" d="M346.86 882.865l41.275-43.028 51.121-12.426 104.862-24.556-89.206 79.695z" />
<glyph unicode="&#xe64a;" d="M477.854 832.591l-55.079 31.173 11.855 1.772 14.297-7.109-4.332 9.019 51.417-33.004-1.26-7.148z" />
<glyph unicode="&#xe64b;" d="M812.583 599.217l-58.86-53.996 67.505-166.932 85.228 31.941v85.248l-57.62 35.525 95.193 81.684z" />
<glyph unicode="&#xe64c;" d="M956.199 600.241l28.416-87.001-78.159-103.010v85.248l-57.62 35.525 95.193 81.684z" />
<glyph unicode="&#xe64d;" d="M848.837 531.003l-72.606 10.673c0 0 66.304 33.122 62.129 34.324-4.135 1.201-15.321 6.971-15.321 6.971l2.54 7.936-3.269 9.334 121.718 12.465-95.193-81.703z" />
<glyph unicode="&#xe64e;" d="M91.609 546.521l72.842-9.689 15.833-78.572-44.544-77.017-30.287 2.245-24.418-2.245-27.294 40.586-14.356 34.442 26.978 54.41 9.846 35.722z" />
<glyph unicode="&#xe64f;" d="M90.033 546.521l74.417-9.689-25.364-36.411-2.895-101.455-6.341 20.716-37.671-13.194 19.436 92.849-29.637 7.641z" />
<glyph unicode="&#xe650;" d="M164.214 536.99l-25.127-36.569-1.319-39.070-2.028-80.108 44.544 77.017z" />
<glyph unicode="&#xe651;" d="M147.377 434.018l14.375 44.8 3.072-8.369-2.993-11.481 5.908 4.51-16.286-42.398-5.396-0.197z" />
<glyph unicode="&#xe652;" d="M676.628 90.23l-22.055 70.085 64.512 47.596 88.615-7.778 10.811-28.357 12.327-21.209-25.206-41.886-25.127-27.569-60.672 1.398-36.588-6.183z" />
<glyph unicode="&#xe653;" d="M677.317 88.832l-22.745 71.483 43.717-7.542 93.184 40.29-16.108-14.533 27.943-28.554-92.377-21.622 5.593-30.11z" />
<glyph unicode="&#xe654;" d="M654.572 160.059l43.717-7.286 35.998 15.34 73.413 32.020-88.615 7.778z" />
<glyph unicode="&#xe655;" d="M754.983 188.357l-46.671-5.908 6.262 6.321 11.658 2.127-6.577 3.446 45.332 3.19 2.442-4.805z" />
<glyph unicode="&#xe656;" d="M368.030 386.068l-42.26 134.38 123.628 91.215 169.846-14.927 20.756-54.37 23.591-40.625-48.286-80.345-48.167-52.795-116.303 2.678-70.144-11.835z" />
<glyph unicode="&#xe657;" d="M369.31 383.37l-43.54 137.078 83.791-14.513 178.57 77.214-30.878-27.766 53.563-54.764-177.093-41.531 10.772-57.659z" />
<glyph unicode="&#xe658;" d="M325.75 519.897l83.81-13.962 68.982 29.42 140.702 61.381-169.846 14.927z" />
<glyph unicode="&#xe659;" d="M518.223 574.188l-89.502-11.382 12.052 12.13 22.37 4.076-12.623 6.617 86.863 6.124 4.687-9.196z" />
<glyph unicode="&#xe65a;" d="M984.615 448c0-261.018-211.597-472.615-472.615-472.615s-472.615 211.597-472.615 472.615c0 261.018 211.597 472.615 472.615 472.615s472.615-211.597 472.615-472.615z" />
<glyph unicode="&#xe65b;" d="M532.157 724.802c-11.54-29.13-44.157-43.53-72.853-32.162s-42.603 44.198-31.063 73.328c11.54 29.13 44.157 43.53 72.853 32.162s42.603-44.198 31.063-73.328z" />
<glyph unicode="&#xe65c;" d="M406.542 510.518c-22.886-57.755-87.578-86.292-144.494-63.739s-84.503 87.656-61.617 145.411c22.886 57.755 87.578 86.292 144.494 63.739s84.503-87.656 61.617-145.411z" />
<glyph unicode="&#xe65d;" d="M626.866 538.452c-17.577-44.358-67.261-66.276-110.971-48.955s-64.896 67.321-47.319 111.679c17.577 44.358 67.261 66.276 110.971 48.955s64.896-67.321 47.319-111.679z" />
<glyph unicode="&#xe65e;" glyph-name="notes" d="M621.076 666.132h-218.151c-40.113 0-72.704 32.591-72.704 72.704v72.704c0 40.094 32.591 72.704 72.704 72.704h45.489c2.895 5.396 6.695 10.87 11.678 15.911 9.157 9.354 25.639 20.46 51.909 20.46s42.693-11.106 51.909-20.46c4.982-5.041 8.783-10.516 11.638-15.911h45.548c40.074 0 72.684-32.63 72.684-72.704v-72.704c-0.020-40.113-32.63-72.704-72.704-72.704zM621.076 738.855v0zM402.924 811.54v-72.704h218.073l0.079 72.704h-109.627v1.497l-35.801-1.497h-72.724zM330.22 557.076h363.54v-72.704h-363.54v72.704zM330.22 411.648h254.464v-72.724h-254.464v72.724zM330.22 266.24h363.54v-72.704h-363.54v72.704zM766.464 811.54h-109.036v-109.056h109.036v-618.023h-508.948v618.023h109.076v109.056h-109.076c-60.219 0-109.076-48.837-109.076-109.056v-618.023c0-60.219 48.857-109.076 109.076-109.076h508.948c60.239 0 109.076 48.857 109.076 109.076v618.023c0 60.219-48.857 109.056-109.076 109.056z" />
<glyph unicode="&#xe65f;" glyph-name="lifesaver" d="M512 850.511c222.228 0 402.511-180.244 402.511-402.511 0-222.228-180.283-402.511-402.511-402.511-222.287 0-402.511 180.283-402.511 402.511 0 222.287 180.224 402.511 402.511 402.511zM512 185.521c144.738 0 262.439 117.819 262.439 262.479 0 144.699-117.721 262.479-262.439 262.479s-262.439-117.78-262.439-262.479c0-144.66 117.701-262.479 262.439-262.479zM512 920.615c-260.588 0-472.615-212.027-472.615-472.615s212.027-472.615 472.615-472.615 472.615 212.027 472.615 472.615-212.027 472.615-472.615 472.615v0zM512 255.606c-106.082 0-192.394 86.311-192.394 192.394s86.311 192.394 192.394 192.394 192.394-86.311 192.394-192.394-86.311-192.394-192.394-192.394v0zM701.125 520.054h230.026c3.998-23.434 6.538-47.399 6.538-72.054s-2.54-48.62-6.538-72.054h-230.026c6.361 22.981 10.082 47.084 10.082 72.054s-3.722 49.073-10.082 72.054zM304.443 448c0 24.99 3.682 49.073 10.082 72.054h-221.657c-3.998-23.434-6.558-47.399-6.558-72.054s2.54-48.62 6.558-72.054h221.657c-6.42 22.981-10.082 47.065-10.082 72.054zM512 235.874c-24.99 0-49.073 3.682-72.054 10.082v-217.068c23.434-3.998 47.399-6.538 72.054-6.538s48.62 2.54 72.054 6.538v217.049c-22.981-6.4-47.065-10.063-72.054-10.063zM512 659.633c24.99 0 49.073-3.702 72.054-10.082v217.58c-23.434 3.998-47.399 6.558-72.054 6.558s-48.62-2.54-72.054-6.558v-217.58c22.981 6.361 47.065 10.082 72.054 10.082z" />
<glyph unicode="&#xe660;" glyph-name="racing-flag" d="M161.241 794.27c5.593-19.358-5.593-39.641-24.911-45.214l-50.255-14.612c-19.338-5.553-39.621 5.632-45.253 24.95v0c-5.593 19.298 5.593 39.582 24.911 45.174l50.294 14.612c19.318 5.553 39.621-5.593 45.214-24.911v0zM375.926-21.622c-14.927 0-28.967 9.275-34.304 24.182l-274.924 761.876c-6.853 18.964 2.954 39.916 21.918 46.73 19.023 6.873 39.916-2.993 46.73-21.918l274.905-761.915c6.853-19.003-2.954-39.877-21.918-46.73-4.096-1.477-8.31-2.225-12.406-2.225zM385.556 271.38c-2.58 0-5.14 0.276-7.719 0.807-12.327 2.678-22.41 11.52-26.663 23.394l-164.155 458.378c-4.608 12.761-1.674 27.057 7.503 37.061 4.785 5.12 119.060 126.582 316.79 126.582 66.954 0 114.471-22.666 156.377-42.693 34.048-16.246 63.547-30.306 99.249-30.306 65.083 0 136.094 46.69 157.972 64.689 10.85 8.96 26.053 10.831 38.754 4.825 12.82-6.046 20.953-18.885 20.953-32.985v-474.427c0-13.332-7.286-25.62-19.003-32-3.033-1.713-75.894-40.98-163.486-40.98-41.866 0-72.487 8.98-102.105 17.644-31.646 9.275-64.354 18.865-116.874 18.865-70.892 0-147.771-63.35-171.422-87.71-6.932-7.247-16.404-11.146-26.171-11.146zM263.838 755.81l138.063-385.438c41.63 31.921 109.017 72.802 181.268 72.802 62.996 0 102.498-11.579 137.393-21.799 26.9-7.877 50.176-14.69 81.585-14.69 45.154 0 86.469 13.824 109.489 23.316v383.646c-38.026-20.775-90.191-42.023-144.66-42.023-52.244 0-92.14 19.042-130.698 37.415-38.341 18.294-74.555 35.564-124.948 35.564-126.641 0.020-213.583-60.416-247.493-88.793zM221.361 766.267c0 0 54.981 58.191 129.201 82.137l56.694-145.585c0 0-73.236-26.329-133.002-82.53l-50.964 140.583zM407.257 702.818l61.145-156.987c0 0 48.069 17.113 81.191 17.113s65.95-4.844 65.95-4.844l-44.426 166.932c0 0-12.544 1.792-28.002 1.792-74.142-0.020-135.857-24.005-135.857-24.005zM333.765 454.971l51.791-147.121c0 0 71.641 68.667 139.894 88.005l-57.029 149.957c-65.733-25.285-134.656-90.841-134.656-90.841zM530.137 879.124l40.98-154.112c33.162 0 125.342-45.174 125.342-45.174l-36.352 159.134c-20.834 7.818-75.382 37.593-129.969 40.153zM615.542 558.1l42.201-158.641c21.228 0 82.176-25.974 108.702-25.974l-35.643 155.963c-34.343 8.94-89.856 25.068-115.259 28.652zM696.458 679.838l34.324-150.39c0 0 34.343-6.341 57.895-6.341s52.953 5.337 52.953 5.337l-11.146 137.708c0 0-22.725-7.050-50.334-7.050-43.008-0.020-83.692 20.736-83.692 20.736zM818.432 815.34l12.071-149.189c0 0 56.103 14.080 117.662 60.672l-0.039 154.309c-70.715-54.174-129.694-65.792-129.694-65.792zM841.649 528.443c0 0 53.996 10.023 106.457 40.487v-162.225c-55.887-26.782-94.267-31.626-94.267-31.626l-12.19 153.364z" />
<glyph unicode="&#xe661;" glyph-name="document" d="M546.068-24.556c-5.829 0-11.796 0.158-17.92 0.473-20.204 1.103-35.702 18.393-34.639 38.538 1.122 20.204 18.668 35.722 38.558 34.639 97.969-5.474 131.367 31.665 202.457 219.569 68.766 181.74 138.398 394.535 166.105 480.492l-469.878 93.538-165.455-453.888c-6.912-18.983-28.002-28.672-46.966-21.839-19.023 6.951-28.79 27.924-21.839 46.966l176.207 483.387c6.223 16.994 24.162 26.998 41.551 23.355l540.869-107.678c10.201-2.048 19.062-8.29 24.34-17.231 5.317-8.98 6.558-19.732 3.446-29.676-0.906-2.836-91.057-288.551-179.87-523.264-62.464-165.199-111.951-267.382-256.965-267.382zM550.558-24.99c-44.642-3.998-97.063 21.169-97.063 21.169l-305.073 138.496c0 0-144.226 45.174-100.923 232.862l416.689-168.389c0 0-16.049-166.341 114.412-148.027 23.257-23.67 13.726-68.667-28.042-76.111zM743.818 567.65c-3.23 0-6.479 0.414-9.689 1.28l-159.941 43.776c-19.515 5.356-30.996 25.502-25.718 44.997 5.396 19.535 25.758 30.818 45.017 25.679l159.902-43.776c19.535-5.356 31.035-25.502 25.718-44.997-4.45-16.266-19.18-26.959-35.289-26.959zM678.912 408.694c-3.781 0-7.621 0.571-11.402 1.831l-159.33 52.303c-19.239 6.282-29.676 26.998-23.394 46.218 6.321 19.239 27.038 29.755 46.218 23.394l159.33-52.283c19.239-6.282 29.676-26.998 23.394-46.218-5.1-15.478-19.397-25.246-34.816-25.246zM619.047 260.884c-3.781 0-7.621 0.571-11.402 1.831l-159.37 52.283c-19.239 6.282-29.696 26.998-23.394 46.198 6.321 19.259 26.959 29.735 46.218 23.394l159.35-52.283c19.259-6.302 29.696-26.998 23.394-46.218-5.081-15.439-19.377-25.206-34.796-25.206zM468.598 645.396l-5.75 1.221c-19.751 4.254-32.315 23.749-28.042 43.52 4.293 19.771 23.808 32.394 43.52 28.062l3.505-0.748-5.652-36.234-7.582-35.82zM411.431 493.686l-5.73 1.221c-19.771 4.254-32.335 23.749-28.081 43.52 4.293 19.791 23.867 32.374 43.52 28.081l3.525-0.748-5.652-36.234-7.582-35.84zM353.201 353.044l-5.73 1.241c-19.81 4.254-32.335 23.729-28.081 43.52 4.313 19.771 23.867 32.374 43.54 28.081l3.505-0.748-5.652-36.234-7.582-35.86z" />
<glyph unicode="&#xe662;" glyph-name="loop" d="M565.957 712.468l-155.372-152.202c-9.236-4.726-20.322-4.135-29.164 1.241-8.921 5.337-14.316 14.887-14.316 25.127v304.443c0 10.22 5.376 19.81 14.316 25.127 4.746 2.875 10.24 4.411 15.695 4.411 4.608 0 9.236-1.063 13.489-3.17l155.372-152.202c9.236-8.724 16.482-15.222 16.482-26.407-0.020-11.146-6.183-17.211-16.502-26.368zM458.043 183.532l155.372 152.202c9.236 4.726 20.322 4.135 29.164-1.241 8.921-5.337 14.316-14.887 14.316-25.127v-304.443c0-10.24-5.376-19.81-14.316-25.127-4.746-2.895-10.24-4.411-15.695-4.411-4.608 0-9.236 1.063-13.489 3.151l-155.372 152.202c-9.236 8.724-16.482 15.222-16.482 26.407 0.020 11.166 6.183 17.231 16.502 26.388zM584.704 84.441h145.428c140.308 0 254.484 114.196 254.484 254.503v218.112c0 140.308-114.176 254.484-254.484 254.484-40.153 0-72.704-32.551-72.704-72.704s32.551-72.704 72.704-72.704c60.14 0 109.056-48.916 109.056-109.076v-218.112c0-60.16-48.916-109.076-109.056-109.076h-145.428c-40.153 0-72.704-32.551-72.704-72.724s32.551-72.704 72.704-72.704zM293.868 84.441c40.153 0 72.704 32.551 72.704 72.704s-32.551 72.704-72.704 72.704c-60.14 0-109.056 48.916-109.056 109.076v218.132c0 60.16 48.916 109.076 109.056 109.076h109.076c40.153 0 72.704 32.551 72.704 72.704s-32.551 72.704-72.704 72.704h-109.076c-140.308 0-254.484-114.156-254.484-254.484v-218.112c0-140.308 114.176-254.503 254.484-254.503z" />
<glyph unicode="&#xe663;" glyph-name="cup" d="M263.345-19.653c0 19.614 16.128 35.958 35.978 35.958 0 0 215.828 148.185 215.828 251.845 0-103.66 215.847-251.845 215.847-251.845 19.81 0 35.978-16.148 35.978-35.958h-503.631zM515.722 304.108c-145.861 0-283.766 126.956-283.766 261.218 0 192.906 45.253 321.142 47.143 326.518 5.159 14.257 18.688 23.808 33.871 23.808h405.484c15.281 0 28.908-9.669 33.95-24.103 1.89-5.376 45.942-133.455 45.942-326.223 0-117.602-130.402-261.218-282.624-261.218zM339.574 843.717c-12.268-43.874-35.663-145.152-35.663-278.37 0-95.527 104.901-189.302 211.81-189.302 108.524 0 210.668 106.654 210.668 189.302 0 133.12-22.764 234.319-34.757 278.37h-352.059zM323.426 870.518c0 0-42.713-117.858-42.713-313.403 0-116.539 112.384-233.157 234.988-233.157 122.545 0 233.866 127.311 233.866 233.157 0 195.525-41.63 313.403-41.63 313.403h-384.512zM515.151 16.305c-19.889 0-35.958 16.108-35.958 35.998v287.783c0 19.85 16.069 35.958 35.958 35.958 19.85 0 35.978-16.108 35.978-35.958v-287.764c0-19.909-16.128-36.017-35.978-36.017zM730.998 448v71.936c58.151 0 101.12 16.581 131.387 50.767 43.461 49.034 50.255 123.234 50.215 165.081h-145.625v71.956h211.614l3.938-31.508c0.807-6.4 18.511-157.145-66.028-252.908-44.091-49.979-106.516-75.323-185.502-75.323zM296.015 447.98c-218.486 0-251.687 167.404-255.783 239.655-6.558 115.003 26.88 118.567 39.444 119.887l3.781 0.217h179.87v-71.936h-150.41c-3.269-35.761-2.206-105.255 34.737-154.86 30.602-41.058 80.522-61.322 151.355-60.987l0.591-71.956c-1.201-0.020-2.383-0.020-3.584-0.020z" />
<glyph unicode="&#xe664;" glyph-name="community" d="M984.615 408.222c0 40.98-47.872 80.896-112.010 102.164-2.934 0.945-21.386 9.295-9.866 44.386h-0.177c30.11 30.976 53.090 80.896 53.090 129.989 0 75.5-50.196 115.042-108.544 115.042-58.407 0-108.327-39.542-108.327-115.042 0-49.369 22.882-99.367 53.13-130.343 11.835-30.897-9.295-42.417-13.686-44.012-15.262-5.534-29.952-12.17-43.362-19.732 0 13.214 0 24.418 0 28.239 0 40.999-53.228 80.896-117.366 102.164-2.934 0.926-21.386 9.295-9.866 44.386h-0.177c30.11 30.956 53.090 80.896 53.090 129.969 0 75.5-50.196 115.062-108.544 115.062-58.407 0-108.327-39.562-108.327-115.062 0-49.349 22.882-99.348 53.13-130.324 11.835-30.917-9.295-42.437-13.686-44.012-61.105-22.134-112.522-62.405-112.522-102.164 0-3.958 0-15.557 0-29.164-13.844 7.838-29.007 14.907-44.898 20.677-4.391 1.595-25.502 13.115-13.686 44.012 30.267 30.976 53.13 80.975 53.13 130.343 0 75.5-49.94 115.042-108.327 115.042-58.348 0-108.544-39.542-108.544-115.042 0-49.073 22.981-98.993 53.071-129.989h-0.098c11.52-35.092-6.912-43.441-9.866-44.386-64.118-21.287-111.99-61.204-111.99-102.203 0-10.732 0-178.826 0-189.479 0-0.433 0.177-0.689 0.217-1.083-0.039-0.768-0.217-1.497-0.217-2.284 0-102.676 116.027-190.838 282.014-229.829v57.305c0 46.868 59.569 89.442 118.587 110.769 0 0 6.321 2.599 9.393 9.374 2.56 5.612 2.343 12.702-0.532 21.031-33.063 34.658-54.351 87.532-54.351 135.306 0 85.858 59.038 124.278 117.543 124.278 58.624 0 117.74-38.4 117.74-124.278 0-47.262-21.090-99.742-53.918-134.577-6.4-20.834-0.217-29.322 4.569-31.055 57.029-18.885 123.668-59.234 123.668-110.848v-56.911c165.218 39.148 280.517 127.035 280.517 229.435 0 0.788-0.177 1.516-0.217 2.304 0.039 0.374 0.217 0.63 0.217 1.063 0 10.654 0 178.767 0 189.479z" />
<glyph unicode="&#xe665;" glyph-name="headset" d="M899.584 432.108v104.802c0 211.889-171.776 383.705-383.705 383.705h-7.739c-211.909 0-383.705-171.815-383.705-383.724v-104.763c-10.476-9.019-17.25-22.233-17.25-37.12v-1.024c0-14.907 6.794-28.101 17.25-37.14v-48.443c0-29.794 24.162-53.977 53.957-53.977h1.083c29.794 0 53.977 24.202 53.977 53.977v0.65c0 5.986 4.864 10.87 10.87 10.87h12.367v-0.63c0-35.801 29.026-64.866 64.807-64.866h40.468c10.043 0 18.137 8.153 18.137 18.176v234.654c0 10.082-8.094 18.176-18.137 18.176h-40.468c-35.781 0-64.807-29.026-64.807-64.788v-0.67h-12.367c-6.006 0-10.87 4.864-10.87 10.89v64.985c0 152.261 123.451 275.732 275.732 275.732h5.593c152.281 0 275.81-123.471 275.81-275.791v-64.926c0-6.026-4.923-10.89-10.89-10.89h-12.583v0.67c0 35.761-29.007 64.788-64.847 64.788h-40.428c-10.082 0-18.156-8.094-18.156-18.176v-234.654c0-10.023 8.074-18.176 18.117-18.176h40.468c35.84 0 64.847 29.066 64.847 64.866v0.63h12.583c5.967 0 10.89-4.884 10.89-10.87v-0.65c0-0.906 0-1.792 0.039-2.658 1.851-36.785-1.201-73.61-14.198-108.15l-0.551-1.536c-18.353-48.719-62.306-83.22-114.038-89.403l-43.185-5.159c-16.345 29.42-50.688 49.822-90.742 49.822-55.887 0-101.159-39.385-101.159-87.985 0-48.561 45.273-87.946 101.159-87.946 49.782 0 90.939 31.35 99.348 72.566l41.039 4.943c71.778 8.586 132.766 56.399 158.267 124.121l3.623 9.59c11.894 31.527 30.385 60.002 53.957 84.047 9.531 9.728 15.419 23.040 15.419 37.77v48.443c10.457 9.039 17.231 22.233 17.231 37.14v1.024c0.020 14.848-6.754 28.062-17.211 37.081z" />
<glyph unicode="&#xe666;" glyph-name="logout" d="M773.79 208.542l-1.083-124.928c-0.236-19.968-16.62-36.037-36.529-35.86l-506.506 4.51c-19.929 0.217-36.037 16.542-35.86 36.529l6.459 723.614c0.177 19.968 16.581 36.017 36.51 35.84l506.526-4.51c19.929-0.177 36.037-16.542 35.82-36.51l-1.103-124.928 71.798-63.37 1.674 187.668c0.551 59.924-47.636 108.958-107.559 109.509l-506.506 4.51c-59.924 0.532-108.977-47.655-109.509-107.579l-6.479-723.594c-0.551-59.924 47.655-108.977 107.559-109.548l506.545-4.51c59.924-0.532 108.958 47.655 109.529 107.559l1.674 187.687-72.96-62.090zM629.11 211.554c0 0-36.293-9.905-35.86 36.47 0.098 10.516 0.394 45.509 0.807 90.447l-217.088 1.989c-19.968 0.158-36.037 16.542-35.84 36.47l1.28 144.758c0.177 19.929 16.522 36.037 36.49 35.86l217.088-1.95c0.394 43.284 0.67 77.982 0.807 91.569 0.414 48.62 36.51 34.737 36.51 34.737l269.253-237.607-273.447-232.743z" />
<glyph unicode="&#xe667;" glyph-name="privacy" d="M133.179-19.456c-23.847 0.217-46.454 3.23-67.092 8.96-15.911 4.411-26.86 18.983-26.703 35.426 0.354 41.511 32.729 66.993 64.079 91.55 34.225 26.919 66.757 52.519 73.078 98.343-82.412 78.513-127.015 180.185-126.050 288.158 2.048 229.73 213.268 414.779 470.784 412.455 257.516-2.304 465.408-191.074 463.321-420.825-2.048-229.75-213.228-414.74-470.784-412.436-26.663 0.217-53.642 2.599-80.463 7.030-74.732-56.3-196.943-109.588-300.17-108.662zM520.625 842.535c-217.324 1.969-395.52-150.666-397.214-340.204-0.827-92.219 39.936-179.22 114.786-245.071 7.936-7.010 12.446-17.073 12.347-27.687-0.827-90.801-61.735-138.693-102.026-170.378-2.146-1.674-4.628-3.643-7.207-5.691 90.014 2.009 199.739 53.622 259.23 102.636 8.448 6.951 19.495 9.708 30.267 7.66 27.865-5.553 56.005-8.487 83.653-8.684 217.305-1.969 395.52 150.646 397.233 340.185s-173.726 345.305-391.070 347.234zM657.585 592.955l-59.668 0.532c0.374 38.439-20.165 79.695-78.789 80.246-73.807 0.65-80.069-60.16-80.246-78.809l-59.648 0.532c0.748 83.22 57.206 138.673 140.446 137.945 81.9-0.748 138.654-58.486 137.905-140.446zM645.652 556.623l-255.173 2.265c-30.169 0.276-54.863-20.933-55.099-47.34l-1.418-159.488c-0.256-26.427 24.064-48.049 54.233-48.305l255.173-2.324c30.188-0.236 54.863 20.972 55.119 47.38l1.418 159.468c0.256 26.407-24.064 48.069-54.252 48.345zM534.981 414.759l-0.394-42.043c-0.098-10.181-8.31-18.452-18.353-18.373-10.043 0.118-18.156 8.527-18.078 18.688l0.414 42.023c-10.811 6.518-18.078 18.353-17.94 32.020 0.177 20.401 16.62 36.785 36.766 36.608 20.145-0.197 36.293-16.837 36.155-37.297-0.138-13.607-7.601-25.305-18.57-31.626z" />
<glyph unicode="&#xe668;" glyph-name="broadcast" d="M721.487 700.928c4.49-5.041 10.713-7.66 16.955-7.7 5.534-0.059 11.087 1.871 15.537 5.829 22.607 20.185 35.761 49.113 36.037 79.36 0.256 30.346-12.367 59.49-34.56 79.97-9.334 8.625-23.946 8.054-32.571-1.3s-7.975-23.946 1.339-32.551c12.702-11.697 19.87-28.357 19.712-45.706-0.177-17.31-7.7-33.851-20.638-45.391-9.452-8.448-10.299-23.001-1.812-32.512zM821.622 648.094c4.47-4.51 10.319-6.794 16.187-6.853 5.927-0.039 11.874 2.166 16.384 6.636 34.895 34.442 54.351 80.423 54.764 129.477 0.414 49.132-18.156 95.449-52.362 130.462-8.901 9.098-23.454 9.255-32.571 0.374-9.078-8.881-9.255-23.454-0.354-32.571 25.659-26.23 39.562-60.987 39.207-97.831-0.315-36.805-14.907-71.266-41.058-97.103-9.039-8.94-9.098-23.532-0.197-32.591zM301.115 704.788c8.625 9.354 8.015 23.906-1.319 32.532-12.662 11.697-19.85 28.357-19.692 45.706 0.158 17.31 7.68 33.831 20.618 45.391 9.472 8.468 10.319 23.020 1.851 32.512-4.51 5.061-10.732 7.641-16.994 7.7-5.514 0.039-11.087-1.871-15.537-5.849-22.607-20.145-35.742-49.093-36.017-79.36-0.276-30.346 12.308-59.49 34.521-79.99 9.354-8.606 23.946-8.015 32.571 1.359zM199.995 653.647c9.098 8.901 9.255 23.473 0.374 32.571-25.639 26.25-39.582 60.987-39.266 97.871 0.335 36.805 14.907 71.266 41.078 97.103 9.039 8.94 9.137 23.532 0.217 32.571-4.47 4.51-10.319 6.794-16.187 6.853-5.908 0.039-11.855-2.146-16.404-6.636-34.895-34.462-54.331-80.423-54.764-129.457-0.433-49.132 18.156-95.488 52.362-130.462 8.901-9.137 23.473-9.275 32.591-0.414zM698.526 26.9l-32.394 165.927 30.956-0.295c14.060-0.098 26.368 9.413 29.755 23.001l72.507 288.768c4.766 19.102-9.531 37.612-29.204 37.79l-191.606 1.733c-25.364 2.462-54.114 21.74-53.918 43.914l0.788 87.572c29.322-4.411 60.278 4.194 83.023 26.585l-54.39 55.375c3.86 3.19 6.538 7.818 6.538 13.214 0.118 9.669-7.641 17.566-17.329 17.644-5.396 0.059-10.082-2.481-13.332-6.321l-58.526 59.589c-38.518-37.849-39.070-99.742-1.241-138.26 8.034-8.212 17.349-14.316 27.116-19.062l-0.847-96.079c-0.217-22.193-29.322-40.94-54.705-42.969l-191.586 1.713c-19.692 0.177-34.324-18.097-29.893-37.258l67.289-290.028c3.19-13.627 15.301-23.394 29.342-23.513l32.591-0.295-35.387-165.337 384.453-3.407zM558.986 484.155l-1.969-218.978-98.265 0.886 1.969 218.978 98.265-0.886zM722.471 459.244l-53.051-180.5c-2.521-8.546-11.52-14.474-21.878-14.356l-65.241 0.571 1.969 218.978 116.677-1.044c14.454-0.138 24.97-11.737 21.524-23.65zM346.112 281.62l-49.802 181.425c-3.289 11.993 7.463 23.394 21.957 23.276l117.189-1.044-1.969-218.959-65.772 0.551c-10.358 0.098-19.259 6.203-21.602 14.75zM742.242 68.352l-486.538 4.352c-29.873 0.276-54.272-23.71-54.548-53.583l-0.335-38.4 594.649-5.337 0.374 38.439c0.236 29.814-23.769 54.272-53.602 54.528z" />
<glyph unicode="&#xe669;" glyph-name="isosceles-bottom-left" d="M39.385 920.635v-945.27h945.231z" />
<glyph unicode="&#xe66a;" glyph-name="isosceles-bottom-right" d="M984.615 920.635v-945.27h-945.231z" />
<glyph unicode="&#xe66b;" glyph-name="send-arrow" d="M972.19 467.83l-920.95 447.449c-7.503 3.643-15.045-4.903-10.457-11.894l43.678-66.855c154.25-236.052 154.25-541.026 0-777.058l-43.678-66.875c-4.569-6.951 2.954-15.518 10.457-11.894l920.95 447.468c16.561 8.054 16.561 31.606 0 39.66z" />
<glyph unicode="&#xe66c;" glyph-name="compass" d="M512 809.945c199.562 0 361.964-162.363 361.964-361.945 0-199.562-162.402-361.964-361.964-361.964-199.601 0-361.945 162.402-361.945 361.964 0 199.601 162.343 361.945 361.945 361.945zM512 920.615c-261.022 0-472.615-211.594-472.615-472.615s211.594-472.615 472.615-472.615 472.615 211.594 472.615 472.615-211.594 472.615-472.615 472.615v0zM892.948 448c0-27.037-21.918-48.955-48.955-48.955s-48.955 21.918-48.955 48.955c0 27.037 21.918 48.955 48.955 48.955s48.955-21.918 48.955-48.955zM228.962 448c0-27.037-21.918-48.955-48.955-48.955s-48.955 21.918-48.955 48.955c0 27.037 21.918 48.955 48.955 48.955s48.955-21.918 48.955-48.955zM560.955 116.007c0-27.037-21.918-48.955-48.955-48.955s-48.955 21.918-48.955 48.955c0 27.037 21.918 48.955 48.955 48.955s48.955-21.918 48.955-48.955zM560.955 779.993c0-27.037-21.918-48.955-48.955-48.955s-48.955 21.918-48.955 48.955c0 27.037 21.918 48.955 48.955 48.955s48.955-21.918 48.955-48.955zM452.431 507.648l-136.034-255.212 255.252 135.936 135.975 255.252-255.193-135.975zM512 401.605c-25.659 0-46.395 20.756-46.395 46.395s20.756 46.395 46.395 46.395 46.395-20.756 46.395-46.395-20.736-46.395-46.395-46.395z" />
<glyph unicode="&#xe66d;" glyph-name="smartphone" d="M711.936 920.615h-399.892c-60.258 0-109.076-48.857-109.076-109.076v-727.099c0-60.219 48.817-109.056 109.076-109.056h399.892c60.258 0 109.076 48.837 109.076 109.056v727.099c0 60.219-48.817 109.076-109.076 109.076zM439.296 884.263h145.428c10.043 0 18.176-8.133 18.176-18.176s-8.133-18.176-18.176-18.176h-145.428c-10.043 0-18.176 8.133-18.176 18.176s8.133 18.176 18.176 18.176zM748.308 175.34c0-10.063-8.133-18.196-18.176-18.196h-436.263c-10.043 0-18.176 8.133-18.176 18.196v618.043c0 10.043 8.133 18.176 18.176 18.176h436.263c10.043 0 18.176-8.133 18.176-18.176v-618.043zM711.936 66.265c0-10.043-8.113-18.176-18.176-18.176h-72.704c-10.043 0-18.176 8.133-18.176 18.176v0c0 10.063 8.133 18.176 18.176 18.176h72.704c10.063 0 18.176-8.113 18.176-18.176v0zM421.12 66.265c0-10.043-8.133-18.176-18.176-18.176h-72.724c-10.043 0-18.176 8.133-18.176 18.176v0c0 10.063 8.133 18.176 18.176 18.176h72.724c10.043 0 18.176-8.113 18.176-18.176v0zM566.548 29.932c0-10.063-8.133-18.196-18.196-18.196h-72.704c-10.043 0-18.176 8.133-18.176 18.196v36.352c0 10.063 8.133 18.176 18.176 18.176h72.704c10.063 0 18.196-8.113 18.196-18.176v-36.352z" />
<glyph unicode="&#xe66e;" glyph-name="wallet" d="M852.837 686.579c0 0-591.655 0-693.637 0-29.963 0-56.529 5.981-56.529 34.099l750.148 34.061v68.179c0 56.455-45.785 68.141-102.221 68.141l-612.812-102.24c-54.572-12.129-68.861-35.261-68.861-68.141v-613.495c0-56.455 45.803-102.24 102.259-102.24h681.655c56.455 0 102.24 45.785 102.24 102.24v477.139c0 56.455-45.785 102.259-102.24 102.259zM818.739 277.619c-37.643 0-68.123 30.517-68.123 68.123 0 37.661 30.48 68.179 68.123 68.179 37.625 0 68.141-30.517 68.141-68.179 0.019-37.606-30.517-68.123-68.141-68.123z" />
<glyph unicode="&#xe66f;" glyph-name="pinch" d="M984.615-24.458l-311.375 406.154-94.779-94.799zM45.883 675.407l235.5 238.356c12.977 13.154 37.337 6.302 53.76-14.848l173.706-244.185c99.82 28.298 211.594 3.308 290.186-75.323l-418.324-418.265c-79.675 79.596-104.369 193.28-74.26 294.124l-0.788 0.61-244.027 166.321c-21.484 15.97-28.81 40.054-15.754 53.209zM565.701 469.524l65.142 66.718c-76.997 57.383-128.926 48.207-128.926 48.207l-37.573-36.234c-0.020 0 25.954-3.387 101.356-78.69zM392.98 595.397l38.046 36.51-138.614 177.093-64.197-62.661 164.766-150.942z" />
<glyph unicode="&#xe670;" glyph-name="sort-items" d="M566.41 192.906c-3.052 0-6.124 0.414-9.137 1.201l-490.614 126.917c-13.489 3.505-23.769 14.356-26.545 28.002-2.777 13.666 2.462 27.668 13.529 36.155l404.539 310.39c8.034 6.183 18.255 8.743 28.278 7.010l467.85-79.616c13.607-2.304 24.793-12.17 28.77-25.403 3.978-13.273 0.118-27.589-10.004-37.081l-381.775-357.711c-6.814-6.4-15.734-9.866-24.891-9.866zM157.243 372.874l398.887-103.247 313.561 293.849-379.766 64.63-332.682-255.232zM566.41-25.679c-3.052 0-6.124 0.414-9.137 1.182l-490.614 126.937c-13.45 3.486-23.769 14.356-26.545 28.002s2.462 27.668 13.529 36.155l201.689 154.742c16.049 12.268 38.892 9.216 51.062-6.735 12.268-15.951 9.255-38.814-6.735-51.042l-142.415-109.312 398.887-103.227 313.561 293.868-123.353 20.992c-19.81 3.348-33.162 22.174-29.775 42.023 3.348 19.81 22.193 33.103 42.023 29.755l195.702-33.28c13.607-2.304 24.793-12.17 28.77-25.403 3.978-13.273 0.118-27.609-10.004-37.081l-381.755-357.711c-6.814-6.4-15.734-9.866-24.891-9.866zM566.41 447.921l-490.594 126.937 404.539 310.41 467.81-79.636zM566.41 411.49c-3.052 0-6.124 0.394-9.137 1.182l-490.614 126.937c-13.489 3.486-23.769 14.336-26.545 27.983-2.777 13.666 2.462 27.687 13.529 36.155l404.559 310.39c8.034 6.183 18.255 8.724 28.278 7.010l467.85-79.616c13.607-2.324 24.793-12.17 28.77-25.403 3.978-13.273 0.118-27.609-10.004-37.081l-381.794-357.711c-6.814-6.4-15.734-9.846-24.891-9.846zM157.243 591.439l398.887-103.247 313.561 293.849-379.766 64.65-332.682-255.252z" />
<glyph unicode="&#xe671;" glyph-name="more-options-horizontal" d="M269.273 448.020c0-63.482-51.462-114.944-114.944-114.944s-114.944 51.462-114.944 114.944c0 63.482 51.462 114.944 114.944 114.944s114.944-51.462 114.944-114.944zM629.012 448.020c0-63.482-51.462-114.944-114.944-114.944s-114.944 51.462-114.944 114.944c0 63.482 51.462 114.944 114.944 114.944s114.944-51.462 114.944-114.944zM984.615 448.020c0-63.471-51.453-114.924-114.924-114.924s-114.924 51.453-114.924 114.924c0 63.471 51.453 114.924 114.924 114.924s114.924-51.453 114.924-114.924z" />
<glyph unicode="&#xe672;" glyph-name="download" d="M693.76 448c0-60.239-48.837-109.056-109.056-109.056h-145.447c-60.219 0-109.056 48.817-109.056 109.056v363.54c0 60.258 48.837 109.076 109.056 109.076h145.447c60.219 0 109.056-48.817 109.056-109.076v-363.54zM592.305 229.159c-80.148-80.187-79.183-79.97-159.193 0l-238.789 238.809c-43.894 43.973-33.831 52.756 17.487 52.756h602.014c46.356 0 61.164-8.763 17.29-52.756l-238.809-238.809zM911.911 229.888v-145.428c0-20.047-16.325-36.352-36.352-36.352h-727.099c-20.086 0-36.372 16.305-36.372 36.352v145.428h-72.704v-145.428c0-60.199 48.837-109.076 109.076-109.076h727.099c60.18 0 109.056 48.876 109.056 109.076v145.428h-72.704z" />
<glyph unicode="&#xe673;" glyph-name="acknowledgment" d="M512 920.615c-261.002 0-472.615-211.594-472.615-472.615 0-261.002 211.614-472.615 472.615-472.615s472.615 211.614 472.615 472.615c0 261.022-211.594 472.615-472.615 472.615zM322.836 324.175c-104.645 0-92.889 99.781-92.889 99.781s25.127-31.803 86.134-31.803c41.177 0 74.476 16.916 103.306 65.378-28.83 49.999-61.775 65.359-104.054 65.359-54.626 0-85.386-31.764-85.386-31.783 0 0-11.756 99.781 92.889 99.781 118.233 0 165.022-118.942 165.022-133.356 0-13.627-47.911-133.356-165.022-133.356zM638.602 193.083c0 0 24.143 32.492 8.271 91.431-10.693 39.778-35.702 67.505-89.974 82.727-40.763-40.802-47.065-76.623-36.076-117.425 14.218-52.775 52.894-74.201 52.894-74.201s-93.282-37.317-120.517 63.724c-30.74 114.156 71.956 190.267 85.878 194.048 13.194 3.525 141.233-11.579 171.717-124.672 27.215-101.022-72.192-115.633-72.192-115.633zM725.13 540.731c-60.14-101.79-186.368-81.566-198.794-74.24-11.717 6.912-90.427 109.076-30.878 209.92 53.209 90.073 133.159 29.223 133.159 29.223s-40.133-5.455-71.168-57.974c-20.933-35.446-23.335-72.763 3.742-122.21 57.698-0.591 87.71 19.929 109.194 56.34 27.806 47.045 16.049 89.659 16.049 89.659s91.904-40.606 38.695-130.718z" />
</font>
</defs>
</svg>
