<?xml version="1.0" encoding="utf-8"?>
<!-- Generator: Adobe Illustrator 19.0.0, SVG Export Plug-In . SVG Version: 6.00 Build 0)  -->
<!DOCTYPE svg PUBLIC "-//W3C//DTD SVG 1.1//EN" "http://www.w3.org/Graphics/SVG/1.1/DTD/svg11.dtd">
<svg version="1.1" id="Layer_1" xmlns="http://www.w3.org/2000/svg" xmlns:xlink="http://www.w3.org/1999/xlink" x="0px" y="0px"
	 viewBox="0 0 250 250" enable-background="new 0 0 250 250" xml:space="preserve">
<g>
	
		<linearGradient id="XMLID_2_" gradientUnits="userSpaceOnUse" x1="-409.2982" y1="611.3364" x2="-434.3103" y2="768.4046" gradientTransform="matrix(0.9929 0.1186 -0.1186 0.9929 615.0085 -501.9299)">
		<stop  offset="0" style="stop-color:#616769"/>
		<stop  offset="0.1059" style="stop-color:#656B6D"/>
		<stop  offset="0.214" style="stop-color:#707779"/>
		<stop  offset="0.3232" style="stop-color:#828B8E"/>
		<stop  offset="0.4325" style="stop-color:#9CA6AA"/>
		<stop  offset="0.4977" style="stop-color:#AFBABF"/>
		<stop  offset="0.503" style="stop-color:#AEB9BE"/>
		<stop  offset="0.6478" style="stop-color:#8D9699"/>
		<stop  offset="0.7833" style="stop-color:#757D7F"/>
		<stop  offset="0.9047" style="stop-color:#666D70"/>
		<stop  offset="1" style="stop-color:#61686A"/>
	</linearGradient>
	<path id="XMLID_23469_" fill="url(#XMLID_2_)" d="M82.8,85.7l-0.1,0.1c-30-6.2-69.3,16-72.8,73.6l135.9,32.9l74.6-80.8L82.8,85.7z"
		/>
	<g id="XMLID_23459_">
		<defs>
			<path id="XMLID_23460_" d="M82.8,85.7l-0.1,0.1c-30-6.2-69.3,16-72.8,73.6l135.9,32.9l74.6-80.8L82.8,85.7z"/>
		</defs>
		<clipPath id="XMLID_3_">
			<use xlink:href="#XMLID_23460_"  overflow="visible"/>
		</clipPath>
		<g id="XMLID_23467_" clip-path="url(#XMLID_3_)">
			<path id="XMLID_23468_" fill="#BCC7CC" d="M94.8,156.5L94.8,156.5c12.5-43.9,46.6-64.8,73.2-62.7C139.3,84,94,107,82.5,163.2
				l10.2,2.1c0.6-2.8,1.2-5.6,2-8.3L94.8,156.5z"/>
		</g>
		<g id="XMLID_23465_" clip-path="url(#XMLID_3_)">
			<path id="XMLID_23466_" fill="#BCC7CC" d="M67,150.5L67,150.5c12.5-43.9,46.6-64.8,73.2-62.7c-28.8-9.8-74.1,13.2-85.5,69.3
				l10.2,2.1c0.6-2.8,1.2-5.6,2-8.3L67,150.5z"/>
		</g>
		<g id="XMLID_23463_" clip-path="url(#XMLID_3_)">
			<path id="XMLID_23464_" fill="#36393A" d="M96.2,156.9L96.2,156.9c12.5-43.9,46.6-64.8,73.2-62.7c-28.8-9.8-74.1,13.2-85.5,69.3
				l10.2,2.1c0.6-2.8,1.2-5.6,2-8.3L96.2,156.9z"/>
		</g>
		<g id="XMLID_23461_" clip-path="url(#XMLID_3_)">
			<path id="XMLID_23462_" fill="#36393A" d="M68.4,150.9L68.4,150.9C80.9,107,115,86.1,141.6,88.2c-28.8-9.8-74.1,13.2-85.5,69.3
				l10.2,2.1c0.6-2.8,1.2-5.6,2-8.3L68.4,150.9z"/>
		</g>
	</g>
	<g id="XMLID_23455_" opacity="0.3">
		<polygon id="XMLID_23458_" opacity="0.9" fill="#C5D0D5" points="220.4,111.6 146.1,97.6 143.3,99 218.9,113.2 		"/>
		<polygon id="XMLID_23457_" fill="#C5D0D5" points="117.3,92.2 114.2,93.5 131.3,96.7 134.2,95.4 		"/>
		<path id="XMLID_23456_" fill="#C5D0D5" d="M82.8,85.7l-0.1,0.1c-30-6.2-69.3,16-72.8,73.6l0.1,0c4.2-56.2,43-78,72.7-71.8l0.1-0.1
			l19.4,3.7l3-1.3L82.8,85.7z"/>
	</g>
	
		<linearGradient id="XMLID_4_" gradientUnits="userSpaceOnUse" x1="-458.6952" y1="673.4043" x2="-291.9912" y2="715.0803" gradientTransform="matrix(0.9929 0.1186 -0.1186 0.9929 615.0085 -501.9299)">
		<stop  offset="0" style="stop-color:#AFBABF"/>
		<stop  offset="0.2206" style="stop-color:#ABB6BB"/>
		<stop  offset="0.4363" style="stop-color:#A1ABAF"/>
		<stop  offset="0.65" style="stop-color:#8F989C"/>
		<stop  offset="0.8612" style="stop-color:#767E80"/>
		<stop  offset="1" style="stop-color:#61686A"/>
	</linearGradient>
	<path id="XMLID_23453_" fill="url(#XMLID_4_)" d="M145.7,192.4l94.4-69.7C213.9,93.1,150,120.9,145.7,192.4z"/>
	<g id="XMLID_23451_">
		<path id="XMLID_23452_" opacity="0.8" fill="#C5D0D5" d="M216.8,111.2c-29.8-4.5-71.3,23-71,81.2l0.1-2.2
			C150,136.9,187.6,108.6,216.8,111.2z"/>
	</g>
	<g id="XMLID_23430_">
		<defs>
			<path id="XMLID_23431_" d="M82.8,85.7l-0.1,0.1c-30-6.2-69.3,16-72.8,73.6l135.9,32.9l74.6-80.8L82.8,85.7z"/>
		</defs>
		<clipPath id="XMLID_5_">
			<use xlink:href="#XMLID_23431_"  overflow="visible"/>
		</clipPath>
		<g id="XMLID_23432_" clip-path="url(#XMLID_5_)">
			<g id="XMLID_23444_">
				<path id="XMLID_23450_" fill="#D7E2E7" d="M141.5,109l28.7,7.2c2.5-1.7,5.1-3.1,7.6-4.3l-28.7-7.2
					C146.5,105.9,144,107.4,141.5,109z"/>
				<path id="XMLID_23449_" fill="#D7E2E7" d="M130.9,117.9l28.7,7.2c2.1-2.2,4.3-4.1,6.5-5.9l-28.7-7.2
					C135.2,113.7,133,115.7,130.9,117.9z"/>
				<path id="XMLID_23448_" fill="#D7E2E7" d="M123.4,127.1l28.7,7.2c1.5-2.1,3-4.2,4.6-6l-28.7-7.2
					C126.4,123,124.9,125,123.4,127.1z"/>
				<path id="XMLID_23447_" fill="#D7E2E7" d="M117.5,137.1l28.7,7.2c1.1-2.3,2.4-4.5,3.6-6.6l-28.7-7.2
					C119.9,132.6,118.7,134.8,117.5,137.1z"/>
				<path id="XMLID_23446_" fill="#D7E2E7" d="M112.5,149.7l28.7,7.2c1-3.2,2.1-6.2,3.4-9l-28.7-7.2
					C114.7,143.5,113.5,146.5,112.5,149.7z"/>
				<path id="XMLID_23445_" fill="#A6B0B5" d="M160.8,100.2c-2.3,0.4-3.6,1-5.9,1.7l30,6.7c2.3-0.8,4.2-1.9,6.4-2.3L160.8,100.2z"/>
			</g>
			<g id="XMLID_23437_">
				<path id="XMLID_23443_" fill="#F2704E" d="M142.2,109.2l28.7,7.2c2.5-1.7,5.1-3.1,7.6-4.3l-28.7-7.2
					C147.3,106.1,144.7,107.5,142.2,109.2z"/>
				
					<linearGradient id="XMLID_6_" gradientUnits="userSpaceOnUse" x1="-1001.6908" y1="1682.549" x2="-856.1566" y2="1718.9325" gradientTransform="matrix(0.9697 0.2443 -0.2443 0.9697 1449.8185 -1312.0353)">
					<stop  offset="0" style="stop-color:#BFD23A"/>
					<stop  offset="1" style="stop-color:#E8EA7C"/>
				</linearGradient>
				<path id="XMLID_23442_" fill="url(#XMLID_6_)" d="M131.7,118l28.7,7.2c2.1-2.2,4.3-4.1,6.5-5.9l-28.7-7.2
					C136,113.9,133.8,115.9,131.7,118z"/>
				
					<linearGradient id="XMLID_7_" gradientUnits="userSpaceOnUse" x1="-1004.6242" y1="1694.2826" x2="-859.09" y2="1730.6661" gradientTransform="matrix(0.9697 0.2443 -0.2443 0.9697 1449.8185 -1312.0353)">
					<stop  offset="0" style="stop-color:#BFD23A"/>
					<stop  offset="1" style="stop-color:#E8EA7C"/>
				</linearGradient>
				<path id="XMLID_23441_" fill="url(#XMLID_7_)" d="M124.2,127.3l28.7,7.2c1.5-2.1,3-4.2,4.6-6l-28.7-7.2
					C127.2,123.1,125.6,125.1,124.2,127.3z"/>
				
					<linearGradient id="XMLID_8_" gradientUnits="userSpaceOnUse" x1="-1007.4259" y1="1705.4896" x2="-861.8917" y2="1741.8732" gradientTransform="matrix(0.9697 0.2443 -0.2443 0.9697 1449.8185 -1312.0353)">
					<stop  offset="0" style="stop-color:#BFD23A"/>
					<stop  offset="1" style="stop-color:#E8EA7C"/>
				</linearGradient>
				<path id="XMLID_23440_" fill="url(#XMLID_8_)" d="M118.3,137.3l28.7,7.2c1.1-2.3,2.4-4.5,3.6-6.6l-28.7-7.2
					C120.7,132.8,119.5,135,118.3,137.3z"/>
				
					<linearGradient id="XMLID_9_" gradientUnits="userSpaceOnUse" x1="74.7162" y1="238.7139" x2="76.1181" y2="232.4833" gradientTransform="matrix(0.9999 1.415620e-02 -1.415620e-02 0.9999 57.1512 -87.0967)">
					<stop  offset="0" style="stop-color:#BFD23A"/>
					<stop  offset="1" style="stop-color:#E8EA7C"/>
				</linearGradient>
				<path id="XMLID_23439_" fill="url(#XMLID_9_)" d="M113.3,149.8l28.7,7.2c1-3.2,2.1-6.2,3.4-9l-28.7-7.2
					C115.4,143.7,114.3,146.7,113.3,149.8z"/>
				<path id="XMLID_23438_" fill="#F05328" d="M161.6,100.4c-2.3,0.4-3.4,0.8-5.7,1.6l29.6,6.5c2.3-0.8,4.4-1.5,6.6-1.9L161.6,100.4
					z"/>
			</g>
			<polygon id="XMLID_23436_" fill="#787E80" points="121.2,130.5 122.5,131.2 150.5,138.3 150.7,137.9 			"/>
			<polygon id="XMLID_23435_" fill="#787E80" points="128,121 128.3,121.8 157.1,129 157.5,128.5 			"/>
			<polygon id="XMLID_23434_" fill="#686D6F" points="137.4,111.9 137.4,112.7 166.3,119.9 167.1,119.3 			"/>
			<polygon id="XMLID_23433_" fill="#535859" points="149.1,104.6 149.1,105.3 177.4,112.7 178.6,112.1 			"/>
		</g>
	</g>
	<g id="XMLID_23419_">
		
			<linearGradient id="XMLID_10_" gradientUnits="userSpaceOnUse" x1="-94.5705" y1="437.3327" x2="-89.6642" y2="437.3327" gradientTransform="matrix(0.9983 5.863273e-02 -5.863273e-02 0.9983 240.8727 -335.8712)">
			<stop  offset="0" style="stop-color:#3E4243"/>
			<stop  offset="0.1211" style="stop-color:#424647"/>
			<stop  offset="0.2448" style="stop-color:#4D5253"/>
			<stop  offset="0.3697" style="stop-color:#606568"/>
			<stop  offset="0.4948" style="stop-color:#7A8084"/>
			<stop  offset="0.4977" style="stop-color:#7B8185"/>
			<stop  offset="0.6853" style="stop-color:#64696C"/>
			<stop  offset="0.8616" style="stop-color:#565A5D"/>
			<stop  offset="1" style="stop-color:#515557"/>
		</linearGradient>
		<polygon id="XMLID_23429_" fill="url(#XMLID_10_)" points="126.3,109.3 120.8,114.3 123,76.2 128.2,76.5 		"/>
		
			<linearGradient id="XMLID_11_" gradientUnits="userSpaceOnUse" x1="-127.1255" y1="437.6822" x2="-122.2191" y2="437.6822" gradientTransform="matrix(0.9983 5.863273e-02 -5.863273e-02 0.9983 240.8727 -335.8712)">
			<stop  offset="0" style="stop-color:#3E4243"/>
			<stop  offset="0.1211" style="stop-color:#424647"/>
			<stop  offset="0.2448" style="stop-color:#4D5253"/>
			<stop  offset="0.3697" style="stop-color:#606568"/>
			<stop  offset="0.4948" style="stop-color:#7A8084"/>
			<stop  offset="0.4977" style="stop-color:#7B8185"/>
			<stop  offset="0.6853" style="stop-color:#64696C"/>
			<stop  offset="0.8616" style="stop-color:#565A5D"/>
			<stop  offset="1" style="stop-color:#515557"/>
		</linearGradient>
		<polygon id="XMLID_23428_" fill="url(#XMLID_11_)" points="93.8,107.4 88.2,113 90.5,74.3 95.7,74.6 		"/>
		
			<linearGradient id="XMLID_12_" gradientUnits="userSpaceOnUse" x1="130.5658" y1="772.3146" x2="129.2041" y2="783.3588" gradientTransform="matrix(1.0006 2.736110e-03 2.519000e-02 1.2946 -39.4404 -935.9705)">
			<stop  offset="0" style="stop-color:#3E4243"/>
			<stop  offset="0.2527" style="stop-color:#424647"/>
			<stop  offset="0.5107" style="stop-color:#4E5253"/>
			<stop  offset="0.7704" style="stop-color:#626668"/>
			<stop  offset="0.8151" style="stop-color:#666A6C"/>
			<stop  offset="1" style="stop-color:#505254"/>
		</linearGradient>
		<path id="XMLID_23427_" fill="url(#XMLID_12_)" d="M86.5,57.6l-0.1,0.1c-6.8-1-19.9,8.7-20.8,20.1l68.5,10.3l20.2-20.2L86.5,57.6z
			"/>
		<path id="XMLID_23426_" fill="#282A2B" d="M134.2,88.2l24.7-15.4C158.2,60.8,135.3,73,134.2,88.2z"/>
		<g id="XMLID_23422_">
			<path id="XMLID_23425_" fill="#A0A6A9" d="M86.4,58.6l0.1-0.1l67.2,10.2l0.7-0.7L86.5,57.6l-0.1,0.1c-6.8-1-19.9,8.7-20.8,20.1
				l0.1,0C67.1,66.8,79.8,57.6,86.4,58.6z"/>
		</g>
		<g id="XMLID_23420_">
			<path id="XMLID_23421_" fill="#A0A6A9" d="M158.6,72.9l0.2-0.1c-0.7-11.9-23.3,0-24.7,15.1C136.4,73.7,156.9,62.8,158.6,72.9z"/>
		</g>
	</g>
</g>
</svg>
