<?xml version="1.0" encoding="utf-8"?>
<!-- Generator: Adobe Illustrator 19.0.0, SVG Export Plug-In . SVG Version: 6.00 Build 0)  -->
<!DOCTYPE svg PUBLIC "-//W3C//DTD SVG 1.1//EN" "http://www.w3.org/Graphics/SVG/1.1/DTD/svg11.dtd">
<svg version="1.1" id="Layer_1" xmlns="http://www.w3.org/2000/svg" xmlns:xlink="http://www.w3.org/1999/xlink" x="0px" y="0px"
	 viewBox="0 0 71.3 65.5" style="enable-background:new 0 0 71.3 65.5;" xml:space="preserve">
<style type="text/css">
	.st0{fill:url(#XMLID_135_);}
	.st1{fill:url(#XMLID_136_);}
	.st2{fill:url(#XMLID_137_);}
</style>
<linearGradient id="XMLID_135_" gradientUnits="userSpaceOnUse" x1="36.3333" y1="4.75" x2="36.3333" y2="50.0846">
	<stop  offset="0" style="stop-color:#F0F0F0"/>
	<stop  offset="1" style="stop-color:#F0F0F0;stop-opacity:0"/>
</linearGradient>
<path id="XMLID_1_" class="st0" d="M33.2,62.2l-6-48c0-5.8,4.1-10.6,9.2-10.6h0c5.1,0,9.2,4.7,9.2,10.6l-6.7,48"/>
<linearGradient id="XMLID_136_" gradientUnits="userSpaceOnUse" x1="17.75" y1="9.8379" x2="17.75" y2="36.0085">
	<stop  offset="0" style="stop-color:#F0F0F0"/>
	<stop  offset="1" style="stop-color:#F0F0F0;stop-opacity:0"/>
</linearGradient>
<path id="XMLID_4_" class="st1" d="M16.1,41.2L13,16.3c0-3,2.1-5.5,4.7-5.5h0c2.6,0,4.7,2.5,4.7,5.5L19,41.2"/>
<linearGradient id="XMLID_137_" gradientUnits="userSpaceOnUse" x1="55" y1="9.8379" x2="55" y2="36.0085">
	<stop  offset="0" style="stop-color:#F0F0F0"/>
	<stop  offset="1" style="stop-color:#F0F0F0;stop-opacity:0"/>
</linearGradient>
<path id="XMLID_3_" class="st2" d="M53.4,41.2l-3.1-24.8c0-3,2.1-5.5,4.7-5.5h0c2.6,0,4.7,2.5,4.7,5.5l-3.5,24.8"/>
</svg>
