<?xml version="1.0" encoding="utf-8"?>
<!-- Generator: Adobe Illustrator 19.2.1, SVG Export Plug-In . SVG Version: 6.00 Build 0)  -->
<!DOCTYPE svg PUBLIC "-//W3C//DTD SVG 1.1//EN" "http://www.w3.org/Graphics/SVG/1.1/DTD/svg11.dtd">
<svg version="1.1" id="Layer_1" xmlns="http://www.w3.org/2000/svg" xmlns:xlink="http://www.w3.org/1999/xlink" x="0px" y="0px"
	 viewBox="0 0 54 54.1" style="enable-background:new 0 0 54 54.1;" xml:space="preserve">
<style type="text/css">
	.st0{fill:#B1D468;}
</style>
<g>
	<g>
		<g>
			<path class="st0" d="M20.7,17.3c8.8,0,15.9,7.1,15.9,15.9s-7.1,15.9-15.9,15.9S4.8,41.9,4.8,33.2S11.9,17.3,20.7,17.3 M20.7,12.9
				C9.5,12.9,0.4,22,0.4,33.2s9.1,20.3,20.3,20.3S41,44.4,41,33.2S31.9,12.9,20.7,12.9L20.7,12.9z"/>
			<g>
				<path class="st0" d="M20.7,30.2c-1.7,0-3,1.3-3,3c0,1.7,1.3,3,3,3c1.7,0,3-1.3,3-3C23.7,31.5,22.4,30.2,20.7,30.2z"/>
			</g>
			<g>
				<path class="st0" d="M20.7,34.5L20.7,34.5c-1,0-1.7-0.8-1.6-1.6l0.5-8.6c0-0.4,0.3-1.1,1.1-1.1c0.8,0,1.1,0.7,1.1,1.1l0.5,8.6
					C22.3,33.8,21.6,34.5,20.7,34.5z"/>
			</g>
			<g>
				<path class="st0" d="M19.8,32.1C19.8,32.1,19.8,32.1,19.8,32.1c0.9-0.9,2.1-1,2.7-0.3l7.3,8.3c0.3,0.3,0.5,1.1-0.2,1.8
					c-0.7,0.7-1.5,0.5-1.9,0.2l-8.2-7.4C18.8,34.2,18.9,33,19.8,32.1z"/>
			</g>
			<g>
				<path class="st0" d="M20.7,19.6c-0.8,0-1.4-0.6-1.4-1.4v-2.4c0-0.8,0.6-1.4,1.4-1.4s1.4,0.6,1.4,1.4v2.4
					C22.1,18.9,21.5,19.6,20.7,19.6z"/>
			</g>
			<g>
				<path class="st0" d="M20.7,52c-0.8,0-1.4-0.6-1.4-1.4v-2.4c0-0.8,0.6-1.4,1.4-1.4s1.4,0.6,1.4,1.4v2.4
					C22.1,51.3,21.5,52,20.7,52z"/>
			</g>
			<g>
				<path class="st0" d="M38.1,34.6h-2.4c-0.8,0-1.4-0.6-1.4-1.4c0-0.8,0.6-1.4,1.4-1.4h2.4c0.8,0,1.4,0.6,1.4,1.4
					C39.5,34,38.9,34.6,38.1,34.6z"/>
			</g>
			<g>
				<path class="st0" d="M5.7,34.6H3.3c-0.8,0-1.4-0.6-1.4-1.4c0-0.8,0.6-1.4,1.4-1.4h2.4c0.8,0,1.4,0.6,1.4,1.4
					C7.1,34,6.5,34.6,5.7,34.6z"/>
			</g>
		</g>
	</g>
	<g>
		<path class="st0" d="M53.3,12.4L47,1.6c-0.8-1.3-2-1.3-2.8,0l-6.3,10.9c-0.8,1.3-0.1,2.4,1.4,2.4h12.6
			C53.4,14.9,54.1,13.8,53.3,12.4z M44.8,4.7c0.2-0.2,0.5-0.4,0.9-0.4s0.6,0.1,0.9,0.4c0.2,0.2,0.3,0.5,0.3,0.9
			c0,0.3-0.5,2.6-0.6,4.3h-1.1c-0.1-1.7-0.6-4-0.6-4.3C44.4,5.2,44.5,4.9,44.8,4.7z M46.5,12.6c-0.2,0.2-0.5,0.3-0.8,0.3
			s-0.6-0.1-0.8-0.3c-0.2-0.2-0.4-0.5-0.4-0.8c0-0.3,0.1-0.6,0.4-0.8c0.2-0.2,0.5-0.4,0.8-0.4s0.6,0.1,0.8,0.4
			c0.2,0.2,0.4,0.5,0.4,0.8C46.8,12.1,46.7,12.4,46.5,12.6z"/>
	</g>
</g>
</svg>
