<?xml version="1.0" encoding="utf-8"?>
<!-- Generator: Adobe Illustrator 19.2.1, SVG Export Plug-In . SVG Version: 6.00 Build 0)  -->
<!DOCTYPE svg PUBLIC "-//W3C//DTD SVG 1.1//EN" "http://www.w3.org/Graphics/SVG/1.1/DTD/svg11.dtd">
<svg version="1.1" id="Layer_1" xmlns="http://www.w3.org/2000/svg" xmlns:xlink="http://www.w3.org/1999/xlink" x="0px" y="0px"
	 viewBox="0 0 51 81" style="enable-background:new 0 0 51 81;" xml:space="preserve">
<style type="text/css">
	.st0{fill:#BED23A;}
</style>
<g>
	<g>
		<g>
			<g>
				<path class="st0" d="M40.8,20.2c-0.5-0.1-0.9-0.6-0.8-1.1l1-6c0.1-0.5,0.6-0.9,1.1-0.8c0.5,0.1,0.9,0.6,0.8,1.1l-1,6
					C41.8,19.9,41.3,20.3,40.8,20.2z"/>
			</g>
			<g>
				<path class="st0" d="M44.2,23.8c-0.3-0.1-0.6-0.3-0.8-0.6c-0.2-0.5,0-1.1,0.6-1.3l2.9-1.2c0.5-0.2,1.1,0,1.3,0.6
					c0.2,0.5,0,1.1-0.6,1.3l-2.9,1.2C44.6,23.9,44.4,23.9,44.2,23.8z"/>
			</g>
			<g>
				<path class="st0" d="M49.6,30.1l-6-1c-0.5-0.1-0.9-0.6-0.8-1.1c0.1-0.5,0.6-0.9,1.1-0.8l6,1c0.5,0.1,0.9,0.6,0.8,1.1
					C50.6,29.9,50.1,30.2,49.6,30.1z"/>
			</g>
		</g>
	</g>
	<path class="st0" d="M42.4,69.5l-0.8-4l-0.9-0.1c-0.4,0.1-0.7-0.2-0.8-0.6l-1.8-9.3c0-0.1,0-0.1,0-0.2c0-0.4,0.5-0.7,1.1-1l0.2-0.1
		l-0.5-2.7l0.2,0c0.4-0.1,0.6-0.3,0.8-0.6l0,0.2c0,0.1,0,0.2-0.1,0.3c0.2-0.1,0.3-0.2,0.3-0.4L39.6,48c0-0.2-0.3-0.3-0.6-0.3
		l-0.8,0.2l-2.1-11l0.2,0c0.3,0,0.5-0.2,0.6-0.4c0.2-0.1,0.4-0.2,0.3-0.4l-0.8-4.2c-0.1-0.3-0.3-0.5-0.6-0.4L35,31.6l-0.4-2.3l0.2,0
		c0.2,0,0.4-0.1,0.5-0.3c0.2-0.1,0.5-0.2,0.4-0.4L35,24.3c-0.1-0.3-0.3-0.5-0.6-0.4l-0.8,0.2L33,21.4c-0.1-0.5-0.5-0.8-1-0.8l-0.2,0
		l-0.4,0.1l-1.7-8L27.1,1.2c-0.1-0.5-0.4-0.8-0.8-0.9c-0.1,0-0.3,0-0.4,0l-0.3,0.1c-0.1,0-0.1,0-0.2,0.1c0,0,0,0-0.1,0
		c0,0-0.1,0-0.1,0.1c0,0,0,0-0.1,0.1c0,0-0.1,0-0.1,0.1c0,0,0,0-0.1,0.1c0,0,0,0,0,0c0,0,0,0,0,0c-0.2,0.2-0.3,0.6-0.2,0.9l2.6,14.9
		l-17.2,3.3l-5,1l0,0l-0.4,0.1c0,0-0.1,0-0.1,0c0,0,0,0,0,0c0,0-0.1,0-0.1,0l-1.8,0.8c-0.2,0.1-0.3,0.2-0.4,0.4L2,23.1l0,0
		c-0.1,0.2-0.1,0.3,0,0.5l0.4,1.8l0,0.2L1,26.3c-0.2,0.1-0.3,0.2-0.4,0.4l-0.3,1.8c-0.1,0.2-0.1,0.4-0.1,0.6l6.3,32.3
		C6.6,61.7,6.9,62,7.2,62l0.4,0C8,62,8.3,62.2,8.4,62.6l1.8,9.3c0.1,0.4-0.1,0.7-0.4,0.8c0,0-0.1,0-0.1,0.1l-0.5,0.3
		c-0.2,0.1-0.3,0.3-0.2,0.6l0.7,3.6c0.1,0.5,0.5,0.8,1,0.8l3.6-0.7c0.4-0.1,0.8,0.2,0.8,0.6l0.7,2.2c0.1,0.5,0.5,0.8,1,0.8l17.8-3.5
		c0,0,0,0,0.1,0l0,0l2.5-0.5c0.2-0.1,0.4-0.3,0.4-0.6l-0.1-1.4c0-0.1,0-0.3,0-0.4l-0.1-1.7l1.6-0.3l0,0l2.6-0.5
		c0.2,0,0.4-0.2,0.5-0.5l0.3-1.2l0,0c0,0,0-0.1,0.1-0.1c0,0,0,0,0,0c0,0,0-0.1,0.1-0.1c0,0,0,0,0,0c0,0,0-0.1,0-0.1c0,0,0,0,0,0
		c0,0,0-0.1,0-0.2c0,0,0,0,0,0C42.4,69.7,42.4,69.6,42.4,69.5z M38.8,47.9c0.3-0.1,0.5,0.1,0.6,0.3l0,0C39.2,48,39,47.9,38.8,47.9
		L38.8,47.9z M37.1,36.2c0,0.1,0,0.1-0.1,0.2C37,36.3,37,36.3,37.1,36.2L37.1,36.2z M35.6,28.7c0,0.1-0.1,0.1-0.2,0.2
		C35.5,28.8,35.6,28.7,35.6,28.7L35.6,28.7z M36.2,31.8c-0.1-0.1-0.3-0.2-0.4-0.2C35.9,31.6,36.1,31.7,36.2,31.8z M34.7,24.3
		c-0.1-0.1-0.3-0.2-0.4-0.2C34.4,24,34.6,24.1,34.7,24.3z M14.3,71.2c-0.5,0.1-1.1-0.2-1.2-0.8c-0.1-0.5,0.2-1.1,0.8-1.2
		c0.5-0.1,1.1,0.2,1.2,0.8C15.2,70.5,14.9,71.1,14.3,71.2z M16,67.7c-0.1-0.5,0.2-1.1,0.8-1.2c0.5-0.1,1.1,0.2,1.2,0.8
		c0.1,0.5-0.2,1.1-0.8,1.2C16.6,68.6,16.1,68.3,16,67.7z M18,72.6c-0.5,0.1-1.1-0.2-1.2-0.8s0.2-1.1,0.8-1.2
		c0.5-0.1,1.1,0.2,1.2,0.8C18.9,72,18.5,72.5,18,72.6z M16.4,63.8c-2.1,0.4-4.2-1-4.6-3.1c-0.4-2.1,1-4.2,3.1-4.6
		c2.1-0.4,4.2,1,4.6,3.1C19.9,61.3,18.5,63.4,16.4,63.8z M20.8,69.9c-0.5,0.1-1.1-0.2-1.2-0.8c-0.1-0.5,0.2-1.1,0.8-1.2
		c0.5-0.1,1.1,0.2,1.2,0.8C21.7,69.3,21.4,69.8,20.8,69.9z M23.2,67.8l-2.8-14.2c-0.1-0.4-0.5-0.7-0.8-0.6l-9.7,1.9
		c-0.5,0.1-1.1-0.3-1.2-0.8l-5-25.9c-0.1-0.6,0.2-1.1,0.8-1.2l24.4-4.7c0.5-0.1,1.1,0.3,1.2,0.8l5,25.9c0.1,0.6-0.2,1.1-0.8,1.2
		l-9.6,1.9c-0.4,0.1-0.6,0.5-0.6,0.9L26.9,67c0.2,1.1-0.4,2.1-1.5,2.3C24.4,69.6,23.4,68.8,23.2,67.8z M26.3,73.8
		c-1,0.2-2-0.5-2.3-1.5c-0.2-1,0.5-2,1.5-2.3c1-0.2,2,0.5,2.3,1.5C28,72.6,27.4,73.6,26.3,73.8z"/>
</g>
</svg>
