<?xml version="1.0" encoding="utf-8"?>
<!-- Generator: Adobe Illustrator 19.0.0, SVG Export Plug-In . SVG Version: 6.00 Build 0)  -->
<!DOCTYPE svg PUBLIC "-//W3C//DTD SVG 1.1//EN" "http://www.w3.org/Graphics/SVG/1.1/DTD/svg11.dtd">
<svg version="1.1" id="Layer_1" xmlns="http://www.w3.org/2000/svg" xmlns:xlink="http://www.w3.org/1999/xlink" x="0px" y="0px"
	 viewBox="0 0 34 31" enable-background="new 0 0 34 31" xml:space="preserve">
<g>
	<g id="XMLID_324_">
		<g id="XMLID_356_" opacity="0.35">
			<polygon id="XMLID_361_" fill="#8AC84A" points="21.6,8.9 20.7,13 24,14.7 25.3,13.7 28,13.1 28.4,11 26.3,9.2 25.2,7.8 22,7.1 
				21.5,9.1 			"/>
			<polygon id="XMLID_360_" fill="#8AC84A" points="8.5,23.2 12.7,27.5 12.7,27.5 12.7,27.5 12.7,27.4 17.6,25.1 17.7,25 17.7,25 
				17.7,25 18.5,24.4 17.7,21.8 17.2,17.3 14.8,15.8 11.5,14.4 10.1,15.5 8.1,16.6 			"/>
			<polygon id="XMLID_359_" fill="#8AC84A" points="4.2,8.8 4.1,9.3 6.6,11.3 6.6,11.3 6.8,11.4 8.9,11.5 10.7,7.2 8.5,6.2 5.2,6.7 
							"/>
			<polygon id="XMLID_358_" fill="#8AC84A" points="21.8,20.2 21.8,20.2 21.8,20.2 22.9,21.7 23,21.7 23,21.7 23,21.7 23.2,22 
				24.1,21.5 25.6,21 25.9,20.1 26.2,18.9 25.7,18.5 25.2,17.9 22.9,18.5 21.8,20.2 			"/>
			<polygon id="XMLID_357_" fill="#8AC84A" points="15.6,3.9 17.1,5.7 19.1,6 19.1,6 19.1,6 19.1,6 20,4.3 20.2,3.9 19.4,3.4 
				18.3,2.2 17.3,2.3 16.1,2.6 15.9,3.2 			"/>
		</g>
		<g id="XMLID_325_">
			<g id="XMLID_350_">
				<polygon id="XMLID_355_" fill="#8AC84A" points="8.5,23 13.3,21.5 17.7,28.3 13.9,30.8 11.5,30.4 7.8,30.7 6.2,28.3 8.2,25.2 
									"/>
				<polygon id="XMLID_354_" fill="#8AC84A" points="13.2,22 12.4,26.9 15.2,29.3 13.9,30.8 17.7,28.3 				"/>
				<polygon id="XMLID_353_" fill="#8AC84A" points="12.4,26.9 8.2,25.2 8.5,23 13.3,21.5 16.3,26.2 13.2,22.6 				"/>
				<polygon id="XMLID_352_" fill="#8AC84A" points="11.3,28.1 11.7,30 10.6,30.1 				"/>
				<polygon id="XMLID_351_" fill="#8AC84A" points="10.6,30.1 8,28.6 11.3,28.1 				"/>
			</g>
			<g id="XMLID_345_">
				<polygon id="XMLID_349_" fill="#8AC84A" points="10,3.5 11.2,0.2 15,0.2 18.1,3 17.7,4.4 17.6,5.5 15.5,6.4 13.7,6.8 11.5,5 
					9.9,4.2 				"/>
				<polygon id="XMLID_348_" fill="#8AC84A" points="10,3.5 11.2,0.2 12.6,1.7 17.3,2.8 16.3,2.9 16.5,4.8 12.4,3 11.8,4.3 				"/>
				<polygon id="XMLID_347_" fill="#8AC84A" points="11.2,0.2 12.6,1.7 14.4,2.1 18.1,3 15,0.2 				"/>
				<polygon id="XMLID_346_" fill="#8AC84A" points="15.8,2 13.9,0.9 14.3,0.8 14.8,1.1 14.6,0.7 16.4,1.9 16.4,2.2 				"/>
			</g>
			<g id="XMLID_341_">
				<polygon id="XMLID_344_" fill="#8AC84A" points="27.6,10.2 25.5,12.1 27.9,18 30.9,16.8 30.9,13.8 28.9,12.6 32.2,9.7 				"/>
				<polygon id="XMLID_343_" fill="#8AC84A" points="32.6,10.1 33.6,13.2 30.9,16.8 30.9,13.8 28.9,12.6 32.2,9.7 				"/>
				<path id="XMLID_342_" fill="#8AC84A" d="M28.9,12.6l-2.6-0.4c0,0,2.3-1.2,2.2-1.2c-0.1,0-0.5-0.2-0.5-0.2l0.1-0.3l-0.1-0.3
					l4.3-0.4L28.9,12.6z"/>
			</g>
			<g id="XMLID_336_">
				<polygon id="XMLID_340_" fill="#8AC84A" points="2.2,12 4.8,12.4 5.3,15.1 3.8,17.8 2.7,17.8 1.8,17.8 0.9,16.4 0.4,15.2 
					1.3,13.3 1.7,12 				"/>
				<polygon id="XMLID_339_" fill="#8AC84A" points="2.2,12 4.8,12.4 3.9,13.7 3.8,17.2 3.6,16.5 2.2,17 2.9,13.7 1.9,13.4 				"/>
				<polygon id="XMLID_338_" fill="#8AC84A" points="4.8,12.4 3.9,13.7 3.8,15 3.8,17.8 5.3,15.1 				"/>
				<polygon id="XMLID_337_" fill="#8AC84A" points="4.2,16 4.7,14.4 4.8,14.7 4.7,15.1 4.9,15 4.3,16.4 4.1,16.5 				"/>
			</g>
			<g id="XMLID_331_">
				<polygon id="XMLID_335_" fill="#8AC84A" points="22.8,28.1 22,25.6 24.3,23.9 27.4,24.2 27.8,25.2 28.2,26 27.3,27.4 26.4,28.4 
					24.3,28.4 23,28.6 				"/>
				<polygon id="XMLID_334_" fill="#8AC84A" points="22.8,28.1 22,25.6 23.6,25.9 26.8,24.5 26.3,25 27.2,26 24,26.7 24.2,27.8 				
					"/>
				<polygon id="XMLID_333_" fill="#8AC84A" points="22,25.6 23.6,25.9 24.8,25.3 27.4,24.2 24.3,23.9 				"/>
				<polygon id="XMLID_332_" fill="#8AC84A" points="25.6,24.6 23.9,24.8 24.1,24.6 24.5,24.5 24.3,24.4 25.9,24.3 26,24.5 				"/>
			</g>
			<g id="XMLID_326_">
				<polygon id="XMLID_330_" fill="#8AC84A" points="11.9,17.7 10.4,13 14.8,9.7 20.8,10.3 21.5,12.2 22.3,13.6 20.6,16.4 
					18.9,18.3 14.8,18.2 12.4,18.6 				"/>
				<polygon id="XMLID_329_" fill="#8AC84A" points="12,17.8 10.4,13 13.4,13.5 19.7,10.7 18.6,11.7 20.5,13.6 14.2,15.1 14.6,17.1 
									"/>
				<polygon id="XMLID_328_" fill="#8AC84A" points="10.4,13 13.4,13.5 15.8,12.4 20.8,10.3 14.8,9.7 				"/>
				<polygon id="XMLID_327_" fill="#8AC84A" points="17.2,11.1 14.1,11.5 14.5,11 15.3,10.9 14.8,10.7 17.9,10.4 18.1,10.8 				"/>
			</g>
		</g>
	</g>
</g>
</svg>
