<?xml version="1.0" encoding="utf-8"?>
<!-- Generator: Adobe Illustrator 15.1.0, SVG Export Plug-In . SVG Version: 6.00 Build 0)  -->
<!DOCTYPE svg PUBLIC "-//W3C//DTD SVG 1.1//EN" "http://www.w3.org/Graphics/SVG/1.1/DTD/svg11.dtd" [
	<!ENTITY ns_extend "http://ns.adobe.com/Extensibility/1.0/">
	<!ENTITY ns_ai "http://ns.adobe.com/AdobeIllustrator/10.0/">
	<!ENTITY ns_graphs "http://ns.adobe.com/Graphs/1.0/">
	<!ENTITY ns_vars "http://ns.adobe.com/Variables/1.0/">
	<!ENTITY ns_imrep "http://ns.adobe.com/ImageReplacement/1.0/">
	<!ENTITY ns_sfw "http://ns.adobe.com/SaveForWeb/1.0/">
	<!ENTITY ns_custom "http://ns.adobe.com/GenericCustomNamespace/1.0/">
	<!ENTITY ns_adobe_xpath "http://ns.adobe.com/XPath/1.0/">
]>
<svg version="1.1" id="Layer_1" xmlns:x="&ns_extend;" xmlns:i="&ns_ai;" xmlns:graph="&ns_graphs;"
	 xmlns="http://www.w3.org/2000/svg" xmlns:xlink="http://www.w3.org/1999/xlink" x="0px" y="0px" width="200px" height="200.291px"
	 viewBox="0 0 200 200.291" enable-background="new 0 0 200 200.291" xml:space="preserve">
<metadata>
	<sfw  xmlns="&ns_sfw;">
		<slices></slices>
		<sliceSourceBounds  y="-200.291" x="0" width="200" height="200" bottomLeftOrigin="true"></sliceSourceBounds>
	</sfw>
</metadata>
<circle fill="#CDCDCD" cx="100" cy="100.291" r="100"/>
<g id="silouette">
	<path id="body" fill="#FFFFFF" d="M172,160c0,6.627-5.373,12-12,12H39c-6.627,0-12-5.373-12-12v-41c0-6.627,5.373-12,12-12h121
		c6.627,0,12,5.373,12,12V160z"/>
	<circle id="head" fill="#FFFFFF" cx="100" cy="66.146" r="44.667"/>
	<g>
		<path fill="#CDCDCD" d="M145,174c0,2.209-1.791,4-4,4l0,0c-2.209,0-4-1.791-4-4v-33c0-2.209,1.791-4,4-4l0,0c2.209,0,4,1.791,4,4
			V174z"/>
		<path fill="#CDCDCD" d="M62,174c0,2.209-1.791,4-4,4l0,0c-2.209,0-4-1.791-4-4v-33c0-2.209,1.791-4,4-4l0,0c2.209,0,4,1.791,4,4
			V174z"/>
	</g>
</g>
</svg>
