<?xml version="1.0" encoding="utf-8"?>
<!-- Generator: Adobe Illustrator 17.1.0, SVG Export Plug-In . SVG Version: 6.00 Build 0)  -->
<!DOCTYPE svg PUBLIC "-//W3C//DTD SVG 1.1//EN" "http://www.w3.org/Graphics/SVG/1.1/DTD/svg11.dtd">
<svg version="1.1" id="Layer_1" xmlns="http://www.w3.org/2000/svg" xmlns:xlink="http://www.w3.org/1999/xlink" x="0px" y="0px"
	 viewBox="0 0 111 111" enable-background="new 0 0 111 111" xml:space="preserve">
<g>
	<g id="XMLID_15479_">
		<linearGradient id="SVGID_1_" gradientUnits="userSpaceOnUse" x1="55.5" y1="106.841" x2="55.5" y2="65.4503">
			<stop  offset="5.102041e-03" style="stop-color:#9C931A"/>
			<stop  offset="1" style="stop-color:#CEC433"/>
		</linearGradient>
		<path fill="url(#SVGID_1_)" d="M58.3,109.4c-1.6,0.9-4.1,0.9-5.7,0l-7.2-4.1c-1.6-0.9-4.3-1.6-6.1-1.6H31c-1.8,0-4-1.3-4.9-2.8
			L22,93.5C21.1,92,19,89.9,17.5,89l-7.2-4.1C8.7,84,7.4,81.8,7.4,80v-8.3c0-1.8-0.7-4.6-1.6-6.1l-4.1-7.2c-0.9-1.6-0.9-4.1,0-5.7
			l4.1-7.2c0.9-1.6,1.6-4.3,1.6-6.1V31c0-1.8,1.3-4,2.8-4.9l7.2-4.1c1.6-0.9,3.6-2.9,4.5-4.5l4.1-7.2C27,8.7,29.2,7.4,31,7.4h8.3
			c1.8,0,4.6-0.7,6.1-1.6l7.2-4.1c1.6-0.9,4.1-0.9,5.7,0l7.2,4.1c1.6,0.9,4.3,1.6,6.1,1.6H80c1.8,0,4,1.3,4.9,2.8l4.1,7.2
			c0.9,1.6,2.9,3.6,4.5,4.5l7.2,4.1c1.6,0.9,2.8,3.1,2.8,4.9v8.3c0,1.8,0.7,4.6,1.6,6.1l4.1,7.2c0.9,1.6,0.9,4.1,0,5.7l-4.1,7.2
			c-0.9,1.6-1.6,4.3-1.6,6.1V80c0,1.8-1.3,4-2.8,4.9L93.5,89C92,89.9,89.9,92,89,93.5l-4.1,7.2c-0.9,1.6-3.1,2.8-4.9,2.8h-8.3
			c-1.8,0-4.6,0.7-6.1,1.6L58.3,109.4z"/>
	</g>
	<linearGradient id="XMLID_3_" gradientUnits="userSpaceOnUse" x1="55.8097" y1="12.6973" x2="55.8097" y2="98.186">
		<stop  offset="0" style="stop-color:#423F10"/>
		<stop  offset="0.9949" style="stop-color:#615C17"/>
	</linearGradient>
	<circle id="XMLID_15478_" fill="url(#XMLID_3_)" cx="55.8" cy="55.4" r="43.5"/>
	<g id="XMLID_15334_">
		<defs>
			<circle id="XMLID_15335_" cx="55.5" cy="55.5" r="43.5"/>
		</defs>
		<clipPath id="XMLID_4_">
			<use xlink:href="#XMLID_15335_"  overflow="visible"/>
		</clipPath>
		<circle id="XMLID_15477_" clip-path="url(#XMLID_4_)" fill="#B8CD33" cx="11.8" cy="40" r="0.3"/>
		<circle id="XMLID_15476_" clip-path="url(#XMLID_4_)" fill="#B8CD33" cx="39.4" cy="47" r="0.3"/>
		<circle id="XMLID_15475_" clip-path="url(#XMLID_4_)" fill="#B8CD33" cx="33.8" cy="83.3" r="0.3"/>
		<circle id="XMLID_15474_" clip-path="url(#XMLID_4_)" fill="#B8CD33" cx="49.7" cy="94" r="0.3"/>
		<circle id="XMLID_15473_" clip-path="url(#XMLID_4_)" fill="#B8CD33" cx="36.1" cy="58.1" r="0.3"/>
		<circle id="XMLID_15472_" clip-path="url(#XMLID_4_)" fill="#B8CD33" cx="31.2" cy="34.9" r="0.3"/>
		<circle id="XMLID_15471_" clip-path="url(#XMLID_4_)" fill="#B8CD33" cx="39.3" cy="37.3" r="0.3"/>
		<circle id="XMLID_15470_" clip-path="url(#XMLID_4_)" fill="#B8CD33" cx="74.9" cy="43.7" r="0.3"/>
		<circle id="XMLID_15469_" clip-path="url(#XMLID_4_)" fill="#B8CD33" cx="43.3" cy="32" r="0.3"/>
		<circle id="XMLID_15468_" clip-path="url(#XMLID_4_)" fill="#B8CD33" cx="63.3" cy="47" r="0.3"/>
		<circle id="XMLID_15467_" clip-path="url(#XMLID_4_)" fill="#B8CD33" cx="35.4" cy="72.7" r="0.3"/>
		<circle id="XMLID_15466_" clip-path="url(#XMLID_4_)" fill="#B8CD33" cx="12.2" cy="73.2" r="0.3"/>
		<circle id="XMLID_15465_" clip-path="url(#XMLID_4_)" fill="#B8CD33" cx="47.5" cy="42.3" r="0.3"/>
		<circle id="XMLID_15464_" clip-path="url(#XMLID_4_)" fill="#B8CD33" cx="13" cy="36.3" r="0.4"/>
		<circle id="XMLID_15463_" clip-path="url(#XMLID_4_)" fill="#B8CD33" cx="24.4" cy="68.4" r="0.6"/>
		<circle id="XMLID_15462_" clip-path="url(#XMLID_4_)" fill="#B8CD33" cx="53" cy="47.2" r="0.4"/>
		<circle id="XMLID_15461_" clip-path="url(#XMLID_4_)" fill="#B8CD33" cx="49.3" cy="75.8" r="0.4"/>
		<circle id="XMLID_15460_" clip-path="url(#XMLID_4_)" fill="#B8CD33" cx="15.1" cy="70" r="0.3"/>
		<circle id="XMLID_15459_" clip-path="url(#XMLID_4_)" fill="#B8CD33" cx="72.6" cy="45.7" r="0.3"/>
		<circle id="XMLID_15458_" clip-path="url(#XMLID_4_)" fill="#B8CD33" cx="80.9" cy="51.6" r="0.3"/>
		<circle id="XMLID_15457_" clip-path="url(#XMLID_4_)" fill="#B8CD33" cx="57" cy="73.6" r="0.3"/>
		<circle id="XMLID_15456_" clip-path="url(#XMLID_4_)" fill="#B8CD33" cx="52.1" cy="37.6" r="0.3"/>
		<circle id="XMLID_15455_" clip-path="url(#XMLID_4_)" fill="#B8CD33" cx="79.3" cy="46.5" r="0.3"/>
		<circle id="XMLID_15454_" clip-path="url(#XMLID_4_)" fill="#B8CD33" cx="67.2" cy="48.5" r="0.4"/>
		<circle id="XMLID_15453_" clip-path="url(#XMLID_4_)" fill="#B8CD33" cx="66.6" cy="32.9" r="0.3"/>
		<circle id="XMLID_15452_" clip-path="url(#XMLID_4_)" fill="#B8CD33" cx="59.7" cy="39.4" r="0.3"/>
		<circle id="XMLID_15451_" clip-path="url(#XMLID_4_)" fill="#B8CD33" cx="80.5" cy="42.4" r="0.4"/>
		<circle id="XMLID_15450_" clip-path="url(#XMLID_4_)" fill="#B8CD33" cx="13.9" cy="89.4" r="0.3"/>
		<circle id="XMLID_15449_" clip-path="url(#XMLID_4_)" fill="#B8CD33" cx="21.9" cy="54.6" r="0.3"/>
		<circle id="XMLID_15448_" clip-path="url(#XMLID_4_)" fill="#B8CD33" cx="34.9" cy="90.5" r="0.3"/>
		<circle id="XMLID_15447_" clip-path="url(#XMLID_4_)" fill="#B8CD33" cx="23.5" cy="96.1" r="0.3"/>
		<circle id="XMLID_15446_" clip-path="url(#XMLID_4_)" fill="#B8CD33" cx="23.4" cy="76.8" r="0.3"/>
		<circle id="XMLID_15445_" clip-path="url(#XMLID_4_)" fill="#B8CD33" cx="61.6" cy="85.6" r="0.3"/>
		<circle id="XMLID_15444_" clip-path="url(#XMLID_4_)" fill="#B8CD33" cx="47.9" cy="101.6" r="0.3"/>
		<circle id="XMLID_15443_" clip-path="url(#XMLID_4_)" fill="#B8CD33" cx="62.9" cy="97" r="0.3"/>
		<circle id="XMLID_15442_" clip-path="url(#XMLID_4_)" fill="#B8CD33" cx="12.6" cy="59.4" r="0.3"/>
		<circle id="XMLID_15441_" clip-path="url(#XMLID_4_)" fill="#B8CD33" cx="45.3" cy="58.8" r="0.3"/>
		<circle id="XMLID_15440_" clip-path="url(#XMLID_4_)" fill="#B8CD33" cx="53.6" cy="81.7" r="0.3"/>
		<circle id="XMLID_15439_" clip-path="url(#XMLID_4_)" fill="#B8CD33" cx="16" cy="94.7" r="0.4"/>
		<circle id="XMLID_15438_" clip-path="url(#XMLID_4_)" fill="#B8CD33" cx="22.4" cy="64" r="0.4"/>
		<circle id="XMLID_15437_" clip-path="url(#XMLID_4_)" fill="#B8CD33" cx="26.8" cy="29.7" r="0.3"/>
		<circle id="XMLID_15436_" clip-path="url(#XMLID_4_)" fill="#B8CD33" cx="25.1" cy="46.8" r="0.3"/>
		<circle id="XMLID_15435_" clip-path="url(#XMLID_4_)" fill="#B8CD33" cx="19" cy="31.3" r="0.3"/>
		<circle id="XMLID_15434_" clip-path="url(#XMLID_4_)" fill="#B8CD33" cx="15.5" cy="82.3" r="0.3"/>
		<circle id="XMLID_15433_" clip-path="url(#XMLID_4_)" fill="#B8CD33" cx="60.6" cy="72.4" r="0.3"/>
		<circle id="XMLID_15432_" clip-path="url(#XMLID_4_)" fill="#B8CD33" cx="75.7" cy="58.1" r="0.3"/>
		<circle id="XMLID_15431_" clip-path="url(#XMLID_4_)" fill="#B8CD33" cx="56.7" cy="56.1" r="0.3"/>
		<circle id="XMLID_15430_" clip-path="url(#XMLID_4_)" fill="#B8CD33" cx="62.2" cy="58.7" r="0.3"/>
		<circle id="XMLID_15429_" clip-path="url(#XMLID_4_)" fill="#B8CD33" cx="70.8" cy="77.9" r="0.3"/>
		<circle id="XMLID_15428_" clip-path="url(#XMLID_4_)" fill="#B8CD33" cx="41.9" cy="89.8" r="0.3"/>
		<circle id="XMLID_15427_" clip-path="url(#XMLID_4_)" fill="#B8CD33" cx="64.9" cy="61.5" r="0.4"/>
		<circle id="XMLID_15426_" clip-path="url(#XMLID_4_)" fill="#B8CD33" cx="38.9" cy="67.1" r="0.4"/>
		<circle id="XMLID_15425_" clip-path="url(#XMLID_4_)" fill="#B8CD33" cx="80.2" cy="97.6" r="0.3"/>
		<circle id="XMLID_15424_" clip-path="url(#XMLID_4_)" fill="#B8CD33" cx="73.3" cy="91" r="0.3"/>
		<circle id="XMLID_15423_" clip-path="url(#XMLID_4_)" fill="#B8CD33" cx="75.3" cy="82.1" r="0.4"/>
		<circle id="XMLID_15422_" clip-path="url(#XMLID_4_)" fill="#B8CD33" cx="31.2" cy="101.9" r="0.3"/>
		<circle id="XMLID_15421_" clip-path="url(#XMLID_4_)" fill="#B8CD33" cx="43.3" cy="99" r="0.3"/>
		<circle id="XMLID_15420_" clip-path="url(#XMLID_4_)" fill="#B8CD33" cx="80.2" cy="72.3" r="0.6"/>
		<circle id="XMLID_15419_" clip-path="url(#XMLID_4_)" fill="#B8CD33" cx="60" cy="98.2" r="0.3"/>
		<circle id="XMLID_15418_" clip-path="url(#XMLID_4_)" fill="#B8CD33" cx="20.4" cy="34.9" r="0.3"/>
		<circle id="XMLID_15417_" clip-path="url(#XMLID_4_)" fill="#B8CD33" cx="20.2" cy="49.7" r="0.3"/>
		<circle id="XMLID_15416_" clip-path="url(#XMLID_4_)" fill="#B8CD33" cx="25" cy="28.8" r="0.3"/>
		<circle id="XMLID_15415_" clip-path="url(#XMLID_4_)" fill="#B8CD33" cx="38.1" cy="28.1" r="0.3"/>
		<circle id="XMLID_15414_" clip-path="url(#XMLID_4_)" fill="#B8CD33" cx="16" cy="27.1" r="0.4"/>
		<circle id="XMLID_15413_" clip-path="url(#XMLID_4_)" fill="#B8CD33" cx="58.8" cy="27.8" r="0.3"/>
		<circle id="XMLID_15412_" clip-path="url(#XMLID_4_)" fill="#B8CD33" cx="75.3" cy="34.1" r="0.3"/>
		<circle id="XMLID_15411_" clip-path="url(#XMLID_4_)" fill="#B8CD33" cx="79.7" cy="31.3" r="0.3"/>
		<circle id="XMLID_15410_" clip-path="url(#XMLID_4_)" fill="#B8CD33" cx="80.9" cy="35.5" r="0.4"/>
		<circle id="XMLID_15406_" clip-path="url(#XMLID_4_)" fill="#B8CD33" cx="29.3" cy="25.3" r="0.3"/>
		<circle id="XMLID_15405_" clip-path="url(#XMLID_4_)" fill="#B8CD33" cx="56.9" cy="32.3" r="0.3"/>
		<circle id="XMLID_15404_" clip-path="url(#XMLID_4_)" fill="#B8CD33" cx="51.3" cy="68.6" r="0.3"/>
		<circle id="XMLID_15403_" clip-path="url(#XMLID_4_)" fill="#B8CD33" cx="67.2" cy="79.3" r="0.3"/>
		<circle id="XMLID_15402_" clip-path="url(#XMLID_4_)" fill="#B8CD33" cx="53.6" cy="43.4" r="0.3"/>
		<circle id="XMLID_15401_" clip-path="url(#XMLID_4_)" fill="#B8CD33" cx="48.7" cy="20.2" r="0.3"/>
		<circle id="XMLID_15400_" clip-path="url(#XMLID_4_)" fill="#B8CD33" cx="56.8" cy="22.7" r="0.3"/>
		<circle id="XMLID_15399_" clip-path="url(#XMLID_4_)" fill="#B8CD33" cx="92.4" cy="29" r="0.3"/>
		<circle id="XMLID_15398_" clip-path="url(#XMLID_4_)" fill="#B8CD33" cx="60.8" cy="17.3" r="0.3"/>
		<circle id="XMLID_15397_" clip-path="url(#XMLID_4_)" fill="#B8CD33" cx="80.8" cy="32.3" r="0.3"/>
		<circle id="XMLID_15396_" clip-path="url(#XMLID_4_)" fill="#B8CD33" cx="52.9" cy="58" r="0.3"/>
		<circle id="XMLID_15395_" clip-path="url(#XMLID_4_)" fill="#B8CD33" cx="29.7" cy="58.5" r="0.3"/>
		<circle id="XMLID_15394_" clip-path="url(#XMLID_4_)" fill="#B8CD33" cx="65" cy="27.7" r="0.3"/>
		<circle id="XMLID_15393_" clip-path="url(#XMLID_4_)" fill="#B8CD33" cx="30.5" cy="21.6" r="0.4"/>
		<circle id="XMLID_15392_" clip-path="url(#XMLID_4_)" fill="#B8CD33" cx="41.9" cy="53.7" r="0.6"/>
		<circle id="XMLID_15391_" clip-path="url(#XMLID_4_)" fill="#B8CD33" cx="70.5" cy="32.5" r="0.4"/>
		<circle id="XMLID_15390_" clip-path="url(#XMLID_4_)" fill="#B8CD33" cx="66.8" cy="61.1" r="0.4"/>
		<circle id="XMLID_15389_" clip-path="url(#XMLID_4_)" fill="#B8CD33" cx="32.6" cy="55.3" r="0.3"/>
		<circle id="XMLID_15388_" clip-path="url(#XMLID_4_)" fill="#B8CD33" cx="90.1" cy="31" r="0.3"/>
		<circle id="XMLID_15387_" clip-path="url(#XMLID_4_)" fill="#B8CD33" cx="98.4" cy="36.9" r="0.3"/>
		<circle id="XMLID_15386_" clip-path="url(#XMLID_4_)" fill="#B8CD33" cx="74.5" cy="58.9" r="0.3"/>
		<circle id="XMLID_15385_" clip-path="url(#XMLID_4_)" fill="#B8CD33" cx="69.6" cy="22.9" r="0.3"/>
		<circle id="XMLID_15384_" clip-path="url(#XMLID_4_)" fill="#B8CD33" cx="96.8" cy="31.8" r="0.3"/>
		<circle id="XMLID_15383_" clip-path="url(#XMLID_4_)" fill="#B8CD33" cx="84.7" cy="33.8" r="0.4"/>
		<circle id="XMLID_15382_" clip-path="url(#XMLID_4_)" fill="#B8CD33" cx="84.1" cy="18.2" r="0.3"/>
		<circle id="XMLID_15381_" clip-path="url(#XMLID_4_)" fill="#B8CD33" cx="77.2" cy="24.7" r="0.3"/>
		<circle id="XMLID_15380_" clip-path="url(#XMLID_4_)" fill="#B8CD33" cx="98" cy="27.7" r="0.4"/>
		<circle id="XMLID_15379_" clip-path="url(#XMLID_4_)" fill="#B8CD33" cx="31.4" cy="74.7" r="0.3"/>
		<circle id="XMLID_15378_" clip-path="url(#XMLID_4_)" fill="#B8CD33" cx="39.4" cy="39.9" r="0.3"/>
		<circle id="XMLID_15377_" clip-path="url(#XMLID_4_)" fill="#B8CD33" cx="52.4" cy="75.8" r="0.3"/>
		<circle id="XMLID_15376_" clip-path="url(#XMLID_4_)" fill="#B8CD33" cx="41" cy="81.4" r="0.3"/>
		<circle id="XMLID_15375_" clip-path="url(#XMLID_4_)" fill="#B8CD33" cx="40.9" cy="62.1" r="0.3"/>
		<circle id="XMLID_15374_" clip-path="url(#XMLID_4_)" fill="#B8CD33" cx="79" cy="70.9" r="0.3"/>
		<circle id="XMLID_15373_" clip-path="url(#XMLID_4_)" fill="#B8CD33" cx="65.4" cy="86.9" r="0.3"/>
		<circle id="XMLID_15372_" clip-path="url(#XMLID_4_)" fill="#B8CD33" cx="80.4" cy="82.3" r="0.3"/>
		<circle id="XMLID_15371_" clip-path="url(#XMLID_4_)" fill="#B8CD33" cx="30.1" cy="44.7" r="0.3"/>
		<circle id="XMLID_15370_" clip-path="url(#XMLID_4_)" fill="#B8CD33" cx="62.8" cy="44.1" r="0.3"/>
		<circle id="XMLID_15369_" clip-path="url(#XMLID_4_)" fill="#B8CD33" cx="71.1" cy="67" r="0.3"/>
		<circle id="XMLID_15368_" clip-path="url(#XMLID_4_)" fill="#B8CD33" cx="33.5" cy="80.1" r="0.4"/>
		<circle id="XMLID_15367_" clip-path="url(#XMLID_4_)" fill="#B8CD33" cx="39.9" cy="49.3" r="0.4"/>
		<circle id="XMLID_15366_" clip-path="url(#XMLID_4_)" fill="#B8CD33" cx="44.3" cy="15" r="0.3"/>
		<circle id="XMLID_15365_" clip-path="url(#XMLID_4_)" fill="#B8CD33" cx="42.6" cy="32.1" r="0.3"/>
		<circle id="XMLID_15364_" clip-path="url(#XMLID_4_)" fill="#B8CD33" cx="36.5" cy="16.6" r="0.3"/>
		<circle id="XMLID_15363_" clip-path="url(#XMLID_4_)" fill="#B8CD33" cx="33" cy="67.6" r="0.3"/>
		<circle id="XMLID_15362_" clip-path="url(#XMLID_4_)" fill="#B8CD33" cx="78.1" cy="57.7" r="0.3"/>
		<circle id="XMLID_15361_" clip-path="url(#XMLID_4_)" fill="#B8CD33" cx="93.2" cy="43.4" r="0.3"/>
		<circle id="XMLID_15360_" clip-path="url(#XMLID_4_)" fill="#B8CD33" cx="74.2" cy="41.4" r="0.3"/>
		<circle id="XMLID_15359_" clip-path="url(#XMLID_4_)" fill="#B8CD33" cx="79.7" cy="44" r="0.3"/>
		<circle id="XMLID_15358_" clip-path="url(#XMLID_4_)" fill="#B8CD33" cx="88.3" cy="63.2" r="0.3"/>
		<circle id="XMLID_15357_" clip-path="url(#XMLID_4_)" fill="#B8CD33" cx="59.4" cy="75.1" r="0.3"/>
		<circle id="XMLID_15356_" clip-path="url(#XMLID_4_)" fill="#B8CD33" cx="82.4" cy="46.8" r="0.4"/>
		<circle id="XMLID_15355_" clip-path="url(#XMLID_4_)" fill="#B8CD33" cx="56.4" cy="52.4" r="0.4"/>
		<circle id="XMLID_15354_" clip-path="url(#XMLID_4_)" fill="#B8CD33" cx="97.7" cy="82.9" r="0.3"/>
		<circle id="XMLID_15353_" clip-path="url(#XMLID_4_)" fill="#B8CD33" cx="90.8" cy="76.3" r="0.3"/>
		<circle id="XMLID_15352_" clip-path="url(#XMLID_4_)" fill="#B8CD33" cx="92.8" cy="67.4" r="0.4"/>
		<circle id="XMLID_15351_" clip-path="url(#XMLID_4_)" fill="#B8CD33" cx="48.7" cy="87.2" r="0.3"/>
		<circle id="XMLID_15350_" clip-path="url(#XMLID_4_)" fill="#B8CD33" cx="60.8" cy="84.3" r="0.3"/>
		<circle id="XMLID_15349_" clip-path="url(#XMLID_4_)" fill="#B8CD33" cx="97.7" cy="57.6" r="0.6"/>
		<circle id="XMLID_15348_" clip-path="url(#XMLID_4_)" fill="#B8CD33" cx="77.5" cy="83.5" r="0.3"/>
		<circle id="XMLID_15347_" clip-path="url(#XMLID_4_)" fill="#B8CD33" cx="37.9" cy="20.2" r="0.3"/>
		<circle id="XMLID_15346_" clip-path="url(#XMLID_4_)" fill="#B8CD33" cx="37.7" cy="35" r="0.3"/>
		<circle id="XMLID_15345_" clip-path="url(#XMLID_4_)" fill="#B8CD33" cx="42.5" cy="14.1" r="0.3"/>
		<circle id="XMLID_15344_" clip-path="url(#XMLID_4_)" fill="#B8CD33" cx="55.6" cy="13.4" r="0.3"/>
		<circle id="XMLID_15343_" clip-path="url(#XMLID_4_)" fill="#B8CD33" cx="33.5" cy="12.4" r="0.4"/>
		<circle id="XMLID_15342_" clip-path="url(#XMLID_4_)" fill="#B8CD33" cx="76.3" cy="13.1" r="0.3"/>
		<circle id="XMLID_15341_" clip-path="url(#XMLID_4_)" fill="#B8CD33" cx="92.8" cy="19.4" r="0.3"/>
		<circle id="XMLID_15340_" clip-path="url(#XMLID_4_)" fill="#B8CD33" cx="97.2" cy="16.6" r="0.3"/>
		<circle id="XMLID_15339_" clip-path="url(#XMLID_4_)" fill="#B8CD33" cx="98.4" cy="20.8" r="0.4"/>
	</g>
	<path id="XMLID_15332_" fill="#CEC433" d="M63.6,29.6v7.8c0,1.3,1,2.3,2.3,2.3H74c0.3,0,0.6,0.2,0.7,0.4l0.6,1.1
		c0.3,0.5,1.1,0.5,1.4,0l0.6-1.1c0.1-0.2,0.4-0.4,0.7-0.4h1.9c1.3,0,2.3-1,2.3-2.3v-7.8c0-1.3-1-2.3-2.3-2.3H66
		C64.7,27.3,63.6,28.3,63.6,29.6z"/>
	<path id="XMLID_15331_" fill="#9C931A" d="M68.3,32.7h9.3c0.4,0,0.8-0.3,0.8-0.8s-0.3-0.8-0.8-0.8h-9.3c-0.4,0-0.8,0.3-0.8,0.8
		S67.9,32.7,68.3,32.7z"/>
	<path id="XMLID_15329_" fill="#9C931A" d="M68.3,35.8H76c0.4,0,0.8-0.3,0.8-0.8s-0.3-0.8-0.8-0.8h-7.8c-0.4,0-0.8,0.3-0.8,0.8
		S67.9,35.8,68.3,35.8z"/>
	<g id="XMLID_15323_">
		<defs>
			<circle id="SVGID_2_" cx="76.1" cy="52.2" r="7.8"/>
		</defs>
		<clipPath id="SVGID_3_">
			<use xlink:href="#SVGID_2_"  overflow="visible"/>
		</clipPath>
		<path clip-path="url(#SVGID_3_)" fill="#FFF78C" d="M71,58.6c0,0,0-0.8,0-0.8c0-1.1,1.6-2.1,3.4-2.4c0,0,0.5-0.3,0.4-0.8
			c-0.6-0.7-0.7-1.4-0.7-1.4c-0.1,0-0.2-0.1-0.3-0.2c-0.2-0.3-0.4-0.9-0.3-1.3c0-0.4,0.2-0.3,0.2-0.4c-0.4-0.9-0.2-2,0.3-2.9
			c0.9-1.7,2.9-1.2,3.2-0.5c1.9-0.4,1.8,2.6,1.6,3.4c0,0,0.2,0,0.1,0.8c0,0.7-0.6,1.2-0.6,1.2c0,0.2-0.3,0.8-0.7,1.3
			c-0.3,0.7,0.4,0.8,0.4,0.8c1.8,0.3,3.4,1.3,3.4,2.4c0,0.1,0,0.8,0,0.8c0,0.7-2.7,1.4-5.2,1.4C73.7,60,71,59.8,71,58.6z"/>
	</g>
	<path fill="#FFF78C" d="M76.1,60.6c-4.6,0-8.4-3.8-8.4-8.4c0-4.6,3.8-8.4,8.4-8.4s8.4,3.8,8.4,8.4C84.6,56.9,80.8,60.6,76.1,60.6z
		 M76.1,45c-4,0-7.2,3.2-7.2,7.2c0,4,3.2,7.2,7.2,7.2s7.2-3.2,7.2-7.2C83.3,48.3,80.1,45,76.1,45z"/>
	<path id="XMLID_15318_" fill="#CEC433" d="M47.3,58.6v7.7c0,1.3,1,2.3,2.3,2.3h8c0.3,0,0.6,0.2,0.7,0.4l0.6,1
		c0.3,0.5,1.1,0.5,1.4,0l0.6-1c0.1-0.2,0.4-0.4,0.7-0.4h1.9c1.3,0,2.3-1,2.3-2.3v-7.7c0-1.3-1-2.3-2.3-2.3H49.6
		C48.3,56.3,47.3,57.3,47.3,58.6z"/>
	<path id="XMLID_15317_" fill="#9C931A" d="M51.9,61.7h9.3c0.4,0,0.8-0.3,0.8-0.8c0-0.4-0.3-0.8-0.8-0.8h-9.3
		c-0.4,0-0.8,0.3-0.8,0.8C51.1,61.4,51.5,61.7,51.9,61.7z"/>
	<path id="XMLID_15315_" fill="#9C931A" d="M51.9,64.8h7.7c0.4,0,0.8-0.3,0.8-0.8c0-0.4-0.3-0.8-0.8-0.8h-7.7
		c-0.4,0-0.8,0.3-0.8,0.8C51.1,64.4,51.5,64.8,51.9,64.8z"/>
	<g id="XMLID_15309_">
		<defs>
			<circle id="SVGID_4_" cx="59.6" cy="81.1" r="7.8"/>
		</defs>
		<clipPath id="SVGID_5_">
			<use xlink:href="#SVGID_4_"  overflow="visible"/>
		</clipPath>
		<path clip-path="url(#SVGID_5_)" fill="#FFF78C" d="M54.5,87.5c0,0,0-0.8,0-0.8c0-1.1,1.6-2.1,3.4-2.4c0,0,0.5-0.3,0.4-0.8
			c-0.6-0.7-0.7-1.4-0.7-1.4c-0.1,0-0.2-0.1-0.3-0.2c-0.2-0.3-0.4-0.9-0.3-1.3c0-0.4,0.2-0.3,0.2-0.4c-0.4-0.9-0.2-2,0.3-2.9
			c0.9-1.7,2.9-1.2,3.2-0.5c1.9-0.4,1.8,2.6,1.6,3.4c0,0,0.2,0,0.1,0.8c0,0.7-0.6,1.2-0.6,1.2c0,0.2-0.3,0.8-0.7,1.3
			c-0.3,0.7,0.4,0.8,0.4,0.8c1.8,0.3,3.4,1.3,3.4,2.4c0,0.1,0,0.8,0,0.8c0,0.7-2.7,1.4-5.2,1.4C57.2,89,54.5,88.7,54.5,87.5z"/>
	</g>
	<path fill="#FFF78C" d="M59.6,89.6c-4.6,0-8.4-3.8-8.4-8.4c0-4.6,3.8-8.4,8.4-8.4s8.4,3.8,8.4,8.4C68,85.8,64.3,89.6,59.6,89.6z
		 M59.6,74c-4,0-7.2,3.2-7.2,7.2c0,4,3.2,7.2,7.2,7.2s7.2-3.2,7.2-7.2C66.8,77.2,63.6,74,59.6,74z"/>
	<path id="XMLID_15304_" fill="#CEC433" d="M44.3,34.4H30.4c-1.3,0-2.3,1-2.3,2.3v7.7c0,1.3,1,2.3,2.3,2.3h1.9
		c0.3,0,0.6,0.2,0.7,0.4l0.6,1c0.3,0.5,1.1,0.5,1.4,0l0.6-1c0.1-0.2,0.4-0.4,0.7-0.4h8c1.3,0,2.3-1,2.3-2.3v-7.7
		C46.6,35.4,45.5,34.4,44.3,34.4z"/>
	<path id="XMLID_15303_" fill="#9C931A" d="M42,39.8h-9.3c-0.4,0-0.8-0.3-0.8-0.8s0.3-0.8,0.8-0.8H42c0.4,0,0.8,0.3,0.8,0.8
		S42.4,39.8,42,39.8z"/>
	<path id="XMLID_15301_" fill="#9C931A" d="M40.5,42.9h-7.7c-0.4,0-0.8-0.3-0.8-0.8c0-0.4,0.3-0.8,0.8-0.8h7.7
		c0.4,0,0.8,0.3,0.8,0.8C41.2,42.5,40.9,42.9,40.5,42.9z"/>
	<g id="XMLID_15296_">
		<defs>
			<circle id="SVGID_6_" cx="34.3" cy="59.3" r="7.8"/>
		</defs>
		<clipPath id="SVGID_7_">
			<use xlink:href="#SVGID_6_"  overflow="visible"/>
		</clipPath>
		<path clip-path="url(#SVGID_7_)" fill="#FFF78C" d="M36,62.4c0,0-0.7-0.2-0.4-0.8c0.1-0.2,0.2-0.3,0.3-0.5h1.9
			c0.1-0.4,0.1-0.9,0.1-1.3c0-1-0.2-2-0.5-2.9c-0.4-1.4-1.1-2.3-2.3-2.6c-0.3-0.1-0.6-0.2-0.9-0.2c0,0-0.1,0-0.1,0
			c-0.3,0-0.6,0-1,0.2c-1.3,0.3-2,1.3-2.3,3c-0.2,0.7-0.4,1.5-0.4,2.4c0,0.4,0,0.9,0.1,1.3h2c0.1,0.2,0.2,0.3,0.3,0.5
			c0.1,0.5-0.4,0.8-0.4,0.8c-1.8,0.3-3.4,1.3-3.4,2.4c0,0.1,0,0.8,0,0.8c0,1.2,2.7,1.4,5.2,1.4c2.5,0,5.2-0.7,5.2-1.4
			c0,0,0-0.8,0-0.8C39.4,63.8,37.8,62.8,36,62.4z"/>
	</g>
	<path fill="#FFF78C" d="M34.3,67.7c-4.6,0-8.4-3.8-8.4-8.4c0-4.6,3.8-8.4,8.4-8.4s8.4,3.8,8.4,8.4C42.7,63.9,38.9,67.7,34.3,67.7z
		 M34.3,52.1c-4,0-7.2,3.2-7.2,7.2c0,4,3.2,7.2,7.2,7.2s7.2-3.2,7.2-7.2C41.4,55.3,38.2,52.1,34.3,52.1z"/>
	<path id="XMLID_15289_" fill="#EBE267" d="M101.8,26.7l-9.4-5.4c-1-0.6-2.2-1.8-2.7-2.7l-5.4-9.4c-0.6-1-1.9-1.7-3-1.7H70.3
		c-1.1,0-2.8-0.5-3.7-1L57.2,1c-1-0.6-2.5-0.6-3.5,0l-9.4,5.4c-1,0.6-2.6,1-3.7,1H29.7c-1.1,0-2.5,0.8-3,1.7l-5.4,9.4
		c-0.6,1-1.8,2.2-2.7,2.7l-9.4,5.4c-1,0.6-1.7,1.9-1.7,3v0.8c0-1.1,0.8-2.5,1.7-3l9.4-5.4c1-0.6,2.2-1.8,2.7-2.7l5.4-9.4
		c0.6-1,1.9-1.7,3-1.7h10.9c1.1,0,2.8-0.5,3.7-1l9.4-5.4c1-0.6,2.5-0.6,3.5,0l9.4,5.4c1,0.6,2.6,1,3.7,1h10.9c1.1,0,2.5,0.8,3,1.7
		l5.4,9.4c0.6,1,1.8,2.2,2.7,2.7l9.4,5.4c1,0.6,1.7,1.9,1.7,3v-0.8C103.5,28.7,102.7,27.3,101.8,26.7z"/>
</g>
</svg>
