<?xml version="1.0" encoding="utf-8"?>
<!-- Generator: Adobe Illustrator 17.1.0, SVG Export Plug-In . SVG Version: 6.00 Build 0)  -->
<!DOCTYPE svg PUBLIC "-//W3C//DTD SVG 1.1//EN" "http://www.w3.org/Graphics/SVG/1.1/DTD/svg11.dtd">
<svg version="1.1" id="Layer_1" xmlns="http://www.w3.org/2000/svg" xmlns:xlink="http://www.w3.org/1999/xlink" x="0px" y="0px"
	 viewBox="0 0 111 111" enable-background="new 0 0 111 111" xml:space="preserve">
<g id="XMLID_15104_">
	<g id="XMLID_15105_">
		<g id="XMLID_15108_">
			<g id="XMLID_15284_">
				<linearGradient id="SVGID_1_" gradientUnits="userSpaceOnUse" x1="55.5" y1="23.8548" x2="55.5" y2="52.5637">
					<stop  offset="0" style="stop-color:#735FA8"/>
					<stop  offset="0.408" style="stop-color:#6A5AA6"/>
					<stop  offset="1" style="stop-color:#554EA0"/>
				</linearGradient>
				<path fill="url(#SVGID_1_)" d="M52.6,1.7c1.6-0.9,4.1-0.9,5.7,0l7.2,4.1c1.6,0.9,4.3,1.7,6.2,1.7h8.3c1.8,0,4,1.3,5,2.9l4.1,7.2
					c0.9,1.6,2.9,3.6,4.5,4.5l7.2,4.1c1.6,0.9,2.9,3.1,2.9,5v8.3c0,1.8,0.7,4.6,1.7,6.2l4.1,7.2c0.9,1.6,0.9,4.1,0,5.7l-4.1,7.2
					c-0.9,1.6-1.7,4.3-1.7,6.2v8.3c0,1.8-1.3,4-2.9,5L93.5,89C92,89.9,89.9,92,89,93.5l-4.1,7.2c-0.9,1.6-3.1,2.9-5,2.9h-8.3
					c-1.8,0-4.6,0.7-6.2,1.7l-7.2,4.1c-1.6,0.9-4.1,0.9-5.7,0l-7.2-4.1c-1.6-0.9-4.3-1.7-6.2-1.7h-8.3c-1.8,0-4-1.3-5-2.9L22,93.5
					C21.1,92,19,89.9,17.5,89l-7.2-4.1c-1.6-0.9-2.9-3.1-2.9-5v-8.3c0-1.8-0.7-4.6-1.7-6.2l-4.1-7.2c-0.9-1.6-0.9-4.1,0-5.7l4.1-7.2
					c0.9-1.6,1.7-4.3,1.7-6.2v-8.3c0-1.8,1.3-4,2.9-5l7.2-4.1c1.6-0.9,3.6-2.9,4.5-4.5l4.1-7.2c0.9-1.6,3.1-2.9,5-2.9h8.3
					c1.8,0,4.6-0.7,6.2-1.7L52.6,1.7z"/>
			</g>
			<linearGradient id="XMLID_3_" gradientUnits="userSpaceOnUse" x1="55.5" y1="14.0867" x2="55.5" y2="97.8315">
				<stop  offset="0" style="stop-color:#2A264F"/>
				<stop  offset="0.5194" style="stop-color:#39305A"/>
				<stop  offset="1" style="stop-color:#423661"/>
			</linearGradient>
			<circle id="XMLID_15283_" fill="url(#XMLID_3_)" cx="55.5" cy="55.5" r="43.5"/>
			<g id="XMLID_15138_">
				<defs>
					<circle id="XMLID_15139_" cx="55.5" cy="55.5" r="43.5"/>
				</defs>
				<clipPath id="XMLID_4_">
					<use xlink:href="#XMLID_15139_"  overflow="visible"/>
				</clipPath>
				<g id="XMLID_15212_" clip-path="url(#XMLID_4_)">
					<g id="XMLID_15213_">
						<circle id="XMLID_15282_" fill="#E6ECF1" cx="12.2" cy="38.7" r="0.3"/>
						<circle id="XMLID_15281_" fill="#E6ECF1" cx="39.7" cy="45.8" r="0.3"/>
						<circle id="XMLID_15280_" fill="#E6ECF1" cx="34.1" cy="82.1" r="0.3"/>
						<circle id="XMLID_15279_" fill="#E6ECF1" cx="50" cy="92.8" r="0.3"/>
						<circle id="XMLID_15278_" fill="#E6ECF1" cx="36.4" cy="56.9" r="0.3"/>
						<circle id="XMLID_15277_" fill="#E6ECF1" cx="31.6" cy="33.7" r="0.3"/>
						<circle id="XMLID_15276_" fill="#E6ECF1" cx="39.6" cy="36.1" r="0.3"/>
						<circle id="XMLID_15275_" fill="#E6ECF1" cx="75.3" cy="42.5" r="0.3"/>
						<circle id="XMLID_15274_" fill="#E6ECF1" cx="43.7" cy="30.8" r="0.3"/>
						<circle id="XMLID_15273_" fill="#E6ECF1" cx="63.6" cy="45.8" r="0.3"/>
						<circle id="XMLID_15272_" fill="#E6ECF1" cx="35.7" cy="71.5" r="0.3"/>
						<circle id="XMLID_15271_" fill="#E6ECF1" cx="12.5" cy="72" r="0.3"/>
						<circle id="XMLID_15270_" fill="#E6ECF1" cx="47.8" cy="41.1" r="0.3"/>
						<circle id="XMLID_15269_" fill="#E6ECF1" cx="13.3" cy="35.1" r="0.4"/>
						<circle id="XMLID_15268_" fill="#E6ECF1" cx="24.7" cy="67.2" r="0.6"/>
						<circle id="XMLID_15267_" fill="#E6ECF1" cx="53.3" cy="46" r="0.4"/>
						<circle id="XMLID_15266_" fill="#E6ECF1" cx="49.6" cy="74.6" r="0.4"/>
						<circle id="XMLID_15265_" fill="#E6ECF1" cx="15.5" cy="68.8" r="0.3"/>
						<circle id="XMLID_15264_" fill="#E6ECF1" cx="73" cy="44.5" r="0.3"/>
						<circle id="XMLID_15263_" fill="#E6ECF1" cx="81.2" cy="50.4" r="0.3"/>
						<circle id="XMLID_15262_" fill="#E6ECF1" cx="57.4" cy="72.4" r="0.3"/>
						<circle id="XMLID_15261_" fill="#E6ECF1" cx="52.5" cy="36.4" r="0.3"/>
						<circle id="XMLID_15260_" fill="#E6ECF1" cx="79.7" cy="45.3" r="0.3"/>
						<circle id="XMLID_15259_" fill="#E6ECF1" cx="67.5" cy="47.3" r="0.4"/>
						<circle id="XMLID_15258_" fill="#E6ECF1" cx="66.9" cy="31.7" r="0.3"/>
						<circle id="XMLID_15257_" fill="#E6ECF1" cx="60" cy="38.2" r="0.3"/>
						<circle id="XMLID_15256_" fill="#E6ECF1" cx="80.9" cy="41.2" r="0.4"/>
						<circle id="XMLID_15255_" fill="#E6ECF1" cx="14.2" cy="88.2" r="0.3"/>
						<circle id="XMLID_15254_" fill="#E6ECF1" cx="22.2" cy="53.4" r="0.3"/>
						<circle id="XMLID_15253_" fill="#E6ECF1" cx="35.3" cy="89.3" r="0.3"/>
						<circle id="XMLID_15252_" fill="#E6ECF1" cx="23.8" cy="94.9" r="0.3"/>
						<circle id="XMLID_15251_" fill="#E6ECF1" cx="23.7" cy="75.6" r="0.3"/>
						<circle id="XMLID_15250_" fill="#E6ECF1" cx="61.9" cy="84.4" r="0.3"/>
						<circle id="XMLID_15249_" fill="#E6ECF1" cx="48.2" cy="100.4" r="0.3"/>
						<circle id="XMLID_15248_" fill="#E6ECF1" cx="63.3" cy="95.8" r="0.3"/>
						<circle id="XMLID_15247_" fill="#E6ECF1" cx="12.9" cy="58.2" r="0.3"/>
						<circle id="XMLID_15246_" fill="#E6ECF1" cx="45.6" cy="57.6" r="0.3"/>
						<circle id="XMLID_15245_" fill="#E6ECF1" cx="54" cy="80.5" r="0.3"/>
						<circle id="XMLID_15244_" fill="#E6ECF1" cx="16.3" cy="93.5" r="0.4"/>
						<circle id="XMLID_15243_" fill="#E6ECF1" cx="22.7" cy="62.8" r="0.4"/>
						<circle id="XMLID_15242_" fill="#E6ECF1" cx="27.1" cy="28.5" r="0.3"/>
						<circle id="XMLID_15241_" fill="#E6ECF1" cx="25.4" cy="45.6" r="0.3"/>
						<circle id="XMLID_15240_" fill="#E6ECF1" cx="19.3" cy="30.1" r="0.3"/>
						<circle id="XMLID_15239_" fill="#E6ECF1" cx="15.9" cy="81.1" r="0.3"/>
						<circle id="XMLID_15238_" fill="#E6ECF1" cx="60.9" cy="71.2" r="0.3"/>
						<circle id="XMLID_15237_" fill="#E6ECF1" cx="76" cy="56.9" r="0.3"/>
						<circle id="XMLID_15236_" fill="#E6ECF1" cx="57" cy="54.9" r="0.3"/>
						<circle id="XMLID_15235_" fill="#E6ECF1" cx="62.6" cy="57.5" r="0.3"/>
						<circle id="XMLID_15234_" fill="#E6ECF1" cx="71.2" cy="76.7" r="0.3"/>
						<circle id="XMLID_15233_" fill="#E6ECF1" cx="42.2" cy="88.6" r="0.3"/>
						<circle id="XMLID_15232_" fill="#E6ECF1" cx="65.2" cy="60.3" r="0.4"/>
						<circle id="XMLID_15231_" fill="#E6ECF1" cx="39.3" cy="65.9" r="0.4"/>
						<circle id="XMLID_15230_" fill="#E6ECF1" cx="80.5" cy="96.4" r="0.3"/>
						<circle id="XMLID_15229_" fill="#E6ECF1" cx="73.6" cy="89.8" r="0.3"/>
						<circle id="XMLID_15228_" fill="#E6ECF1" cx="75.6" cy="80.9" r="0.4"/>
						<circle id="XMLID_15227_" fill="#E6ECF1" cx="31.6" cy="100.7" r="0.3"/>
						<circle id="XMLID_15226_" fill="#E6ECF1" cx="43.7" cy="97.8" r="0.3"/>
						<circle id="XMLID_15225_" fill="#E6ECF1" cx="80.5" cy="71.1" r="0.6"/>
						<circle id="XMLID_15224_" fill="#E6ECF1" cx="60.4" cy="97" r="0.3"/>
						<circle id="XMLID_15223_" fill="#E6ECF1" cx="20.7" cy="33.7" r="0.3"/>
						<circle id="XMLID_15222_" fill="#E6ECF1" cx="20.5" cy="48.5" r="0.3"/>
						<circle id="XMLID_15221_" fill="#E6ECF1" cx="25.3" cy="27.6" r="0.3"/>
						<circle id="XMLID_15220_" fill="#E6ECF1" cx="38.4" cy="26.9" r="0.3"/>
						<circle id="XMLID_15219_" fill="#E6ECF1" cx="16.3" cy="25.9" r="0.4"/>
						<circle id="XMLID_15218_" fill="#E6ECF1" cx="59.2" cy="26.6" r="0.3"/>
						<g id="XMLID_15214_">
							<circle id="XMLID_15217_" fill="#E6ECF1" cx="75.6" cy="32.9" r="0.3"/>
							<circle id="XMLID_15216_" fill="#E6ECF1" cx="80" cy="30.1" r="0.3"/>
							<circle id="XMLID_15215_" fill="#E6ECF1" cx="81.2" cy="34.3" r="0.4"/>
						</g>
					</g>
				</g>
				<g id="XMLID_15140_" clip-path="url(#XMLID_4_)">
					<g id="XMLID_15141_">
						<circle id="XMLID_15211_" fill="#E6ECF1" cx="29.7" cy="24.1" r="0.3"/>
						<circle id="XMLID_15210_" fill="#E6ECF1" cx="57.2" cy="31.1" r="0.3"/>
						<circle id="XMLID_15209_" fill="#E6ECF1" cx="51.6" cy="67.4" r="0.3"/>
						<circle id="XMLID_15208_" fill="#E6ECF1" cx="67.5" cy="78.1" r="0.3"/>
						<circle id="XMLID_15207_" fill="#E6ECF1" cx="53.9" cy="42.2" r="0.3"/>
						<circle id="XMLID_15206_" fill="#E6ECF1" cx="49.1" cy="19" r="0.3"/>
						<circle id="XMLID_15204_" fill="#E6ECF1" cx="57.1" cy="21.5" r="0.3"/>
						<circle id="XMLID_15203_" fill="#E6ECF1" cx="92.7" cy="27.8" r="0.3"/>
						<circle id="XMLID_15202_" fill="#E6ECF1" cx="61.1" cy="16.1" r="0.3"/>
						<circle id="XMLID_15201_" fill="#E6ECF1" cx="81.1" cy="31.1" r="0.3"/>
						<circle id="XMLID_15200_" fill="#E6ECF1" cx="53.2" cy="56.8" r="0.3"/>
						<circle id="XMLID_15199_" fill="#E6ECF1" cx="30" cy="57.3" r="0.3"/>
						<circle id="XMLID_15198_" fill="#E6ECF1" cx="65.3" cy="26.5" r="0.3"/>
						<circle id="XMLID_15197_" fill="#E6ECF1" cx="30.8" cy="20.4" r="0.4"/>
						<circle id="XMLID_15196_" fill="#E6ECF1" cx="42.2" cy="52.5" r="0.6"/>
						<circle id="XMLID_15195_" fill="#E6ECF1" cx="70.8" cy="31.3" r="0.4"/>
						<circle id="XMLID_15194_" fill="#E6ECF1" cx="67.1" cy="59.9" r="0.4"/>
						<circle id="XMLID_15193_" fill="#E6ECF1" cx="33" cy="54.1" r="0.3"/>
						<circle id="XMLID_15192_" fill="#E6ECF1" cx="90.5" cy="29.8" r="0.3"/>
						<circle id="XMLID_15191_" fill="#E6ECF1" cx="98.7" cy="35.7" r="0.3"/>
						<circle id="XMLID_15190_" fill="#E6ECF1" cx="74.9" cy="57.7" r="0.3"/>
						<circle id="XMLID_15189_" fill="#E6ECF1" cx="70" cy="21.7" r="0.3"/>
						<circle id="XMLID_15188_" fill="#E6ECF1" cx="97.2" cy="30.6" r="0.3"/>
						<circle id="XMLID_15187_" fill="#E6ECF1" cx="85" cy="32.6" r="0.4"/>
						<circle id="XMLID_15186_" fill="#E6ECF1" cx="84.4" cy="17" r="0.3"/>
						<circle id="XMLID_15185_" fill="#E6ECF1" cx="77.5" cy="23.5" r="0.3"/>
						<circle id="XMLID_15184_" fill="#E6ECF1" cx="98.4" cy="26.5" r="0.4"/>
						<circle id="XMLID_15183_" fill="#E6ECF1" cx="31.7" cy="73.5" r="0.3"/>
						<circle id="XMLID_15182_" fill="#E6ECF1" cx="39.7" cy="38.7" r="0.3"/>
						<circle id="XMLID_15181_" fill="#E6ECF1" cx="52.8" cy="74.6" r="0.3"/>
						<circle id="XMLID_15180_" fill="#E6ECF1" cx="41.3" cy="80.2" r="0.3"/>
						<circle id="XMLID_15179_" fill="#E6ECF1" cx="41.2" cy="60.9" r="0.3"/>
						<circle id="XMLID_15178_" fill="#E6ECF1" cx="79.4" cy="69.7" r="0.3"/>
						<circle id="XMLID_15177_" fill="#E6ECF1" cx="65.7" cy="85.7" r="0.3"/>
						<circle id="XMLID_15176_" fill="#E6ECF1" cx="80.8" cy="81.1" r="0.3"/>
						<circle id="XMLID_15175_" fill="#E6ECF1" cx="30.4" cy="43.5" r="0.3"/>
						<circle id="XMLID_15174_" fill="#E6ECF1" cx="63.1" cy="42.9" r="0.3"/>
						<circle id="XMLID_15173_" fill="#E6ECF1" cx="71.5" cy="65.8" r="0.3"/>
						<circle id="XMLID_15172_" fill="#E6ECF1" cx="33.8" cy="78.9" r="0.4"/>
						<circle id="XMLID_15171_" fill="#E6ECF1" cx="40.2" cy="48.1" r="0.4"/>
						<circle id="XMLID_15170_" fill="#E6ECF1" cx="44.6" cy="13.8" r="0.3"/>
						<circle id="XMLID_15169_" fill="#E6ECF1" cx="42.9" cy="30.9" r="0.3"/>
						<circle id="XMLID_15168_" fill="#E6ECF1" cx="36.8" cy="15.4" r="0.3"/>
						<circle id="XMLID_15167_" fill="#E6ECF1" cx="33.4" cy="66.4" r="0.3"/>
						<circle id="XMLID_15166_" fill="#E6ECF1" cx="78.4" cy="56.5" r="0.3"/>
						<circle id="XMLID_15165_" fill="#E6ECF1" cx="93.5" cy="42.2" r="0.3"/>
						<circle id="XMLID_15164_" fill="#E6ECF1" cx="74.5" cy="40.2" r="0.3"/>
						<circle id="XMLID_15163_" fill="#E6ECF1" cx="80.1" cy="42.8" r="0.3"/>
						<circle id="XMLID_15162_" fill="#E6ECF1" cx="88.7" cy="62" r="0.3"/>
						<circle id="XMLID_15161_" fill="#E6ECF1" cx="59.7" cy="73.9" r="0.3"/>
						<circle id="XMLID_15160_" fill="#E6ECF1" cx="82.7" cy="45.6" r="0.4"/>
						<circle id="XMLID_15159_" fill="#E6ECF1" cx="56.8" cy="51.2" r="0.4"/>
						<circle id="XMLID_15158_" fill="#E6ECF1" cx="98" cy="81.7" r="0.3"/>
						<circle id="XMLID_15157_" fill="#E6ECF1" cx="91.1" cy="75.1" r="0.3"/>
						<circle id="XMLID_15156_" fill="#E6ECF1" cx="93.1" cy="66.2" r="0.4"/>
						<circle id="XMLID_15155_" fill="#E6ECF1" cx="49.1" cy="86" r="0.3"/>
						<circle id="XMLID_15154_" fill="#E6ECF1" cx="61.1" cy="83.1" r="0.3"/>
						<circle id="XMLID_15153_" fill="#E6ECF1" cx="98" cy="56.4" r="0.6"/>
						<circle id="XMLID_15152_" fill="#E6ECF1" cx="77.9" cy="82.3" r="0.3"/>
						<circle id="XMLID_15151_" fill="#E6ECF1" cx="38.2" cy="19" r="0.3"/>
						<circle id="XMLID_15150_" fill="#E6ECF1" cx="38" cy="33.8" r="0.3"/>
						<circle id="XMLID_15149_" fill="#E6ECF1" cx="42.8" cy="12.9" r="0.3"/>
						<circle id="XMLID_15148_" fill="#E6ECF1" cx="55.9" cy="12.2" r="0.3"/>
						<circle id="XMLID_15147_" fill="#E6ECF1" cx="33.8" cy="11.2" r="0.4"/>
						<circle id="XMLID_15146_" fill="#E6ECF1" cx="76.7" cy="11.9" r="0.3"/>
						<g id="XMLID_15142_">
							<circle id="XMLID_15145_" fill="#E6ECF1" cx="93.1" cy="18.2" r="0.3"/>
							<circle id="XMLID_15144_" fill="#E6ECF1" cx="97.5" cy="15.4" r="0.3"/>
							<circle id="XMLID_15143_" fill="#E6ECF1" cx="98.7" cy="19.6" r="0.4"/>
						</g>
					</g>
				</g>
			</g>
			<g id="XMLID_15109_">
				<g id="XMLID_15136_">
					<linearGradient id="XMLID_5_" gradientUnits="userSpaceOnUse" x1="56.3932" y1="33.3854" x2="56.3932" y2="78.6663">
						<stop  offset="0" style="stop-color:#8875BD"/>
						<stop  offset="0.5118" style="stop-color:#806CB5"/>
						<stop  offset="1" style="stop-color:#735FA8"/>
					</linearGradient>
					<path id="XMLID_15137_" fill="url(#XMLID_5_)" d="M80.9,34.7h-3.1c-1,0-1.8,0.8-1.8,1.8v0c0,1-0.8,1.8-1.8,1.8h-7.8
						c-1,0-1.8-0.8-1.8-1.8v0c0-1-0.8-1.8-1.8-1.8H50.1c-1,0-1.8,0.8-1.8,1.8v0c0,1-0.8,1.8-1.8,1.8h-7.8c-1,0-1.8-0.8-1.8-1.8v0
						c0-1-0.8-1.8-1.8-1.8h-3.1c-3,0-5.4,2.4-5.4,5.4v30.2c0,3,2.4,5.4,5.4,5.4h49c3,0,5.4-2.4,5.4-5.4V40.1
						C86.3,37.1,83.9,34.7,80.9,34.7z"/>
				</g>
				<circle id="XMLID_15135_" fill="#BCB5D9" cx="43.1" cy="56" r="12.1"/>
				<g id="XMLID_15123_">
					<path id="XMLID_15134_" fill="#BCB5D9" d="M78,68.6H60.9c-0.7,0-1.3-0.6-1.3-1.3V59c0-0.7,0.6-1.3,1.3-1.3H78
						c0.7,0,1.3,0.6,1.3,1.3v8.3C79.3,68,78.8,68.6,78,68.6z"/>
					<g id="XMLID_15124_">
						<rect id="XMLID_15133_" x="61.3" y="58.9" fill="#3A366E" width="0.4" height="8.6"/>
						<rect id="XMLID_15132_" x="67.3" y="58.9" fill="#3A366E" width="0.4" height="8.6"/>
						<rect id="XMLID_15131_" x="71.2" y="58.9" fill="#3A366E" width="0.4" height="8.6"/>
						<rect id="XMLID_15130_" x="77.2" y="58.9" fill="#3A366E" width="0.4" height="8.6"/>
						<rect id="XMLID_15129_" x="63.1" y="58.9" fill="#3A366E" width="0.8" height="8.6"/>
						<rect id="XMLID_15128_" x="65.2" y="58.9" fill="#3A366E" width="0.8" height="8.6"/>
						<rect id="XMLID_15127_" x="69" y="58.9" fill="#3A366E" width="0.8" height="8.6"/>
						<rect id="XMLID_15126_" x="72.9" y="58.9" fill="#3A366E" width="0.8" height="8.6"/>
						<rect id="XMLID_15125_" x="75" y="58.9" fill="#3A366E" width="0.8" height="8.6"/>
					</g>
				</g>
				<g id="XMLID_15120_">
					<path id="XMLID_15122_" fill="#BCB5D9" d="M78,47.5H60.9c-0.8,0-1.4-0.6-1.4-1.4v0c0-0.8,0.6-1.4,1.4-1.4H78
						c0.8,0,1.4,0.6,1.4,1.4v0C79.4,46.9,78.8,47.5,78,47.5z"/>
					<path id="XMLID_15121_" fill="#BCB5D9" d="M68.6,53.5h-7.7c-0.8,0-1.4-0.6-1.4-1.4v0c0-0.8,0.6-1.4,1.4-1.4h7.7
						c0.8,0,1.4,0.6,1.4,1.4v0C70,52.9,69.3,53.5,68.6,53.5z"/>
				</g>
				<g id="XMLID_15116_">
					<defs>
						<circle id="XMLID_15117_" cx="43.1" cy="56" r="12.1"/>
					</defs>
					<clipPath id="XMLID_6_">
						<use xlink:href="#XMLID_15117_"  overflow="visible"/>
					</clipPath>
					<g id="XMLID_15118_" clip-path="url(#XMLID_6_)">
						<path id="XMLID_15119_" fill="#3A366E" d="M45.9,60.2c-0.1,0-0.9-0.4-0.4-1.9l0,0c1.2-1.3,2.2-3.4,2.2-5.5
							c0-3.2-2.1-4.8-4.6-4.8c-2.4,0-4.5,1.7-4.5,4.9c0,2.1,1,4.2,2.3,5.4c0.5,1.3-0.4,1.8-0.6,1.8c-2.6,0.9-5.5,2.7-5.5,4.3
							c0,0.4,0,0.2,0,0.6c0,2.3,4.4,3.4,8.5,3.4c4.1,0,8.4-1.2,8.4-3.5c0-0.4,0-0.2,0-0.6C51.6,62.8,48.6,61.1,45.9,60.2z"/>
					</g>
				</g>
			</g>
		</g>
		<g id="XMLID_15106_">
			<path id="XMLID_15107_" fill="#9279D6" d="M101.7,26.6l-9.4-5.4c-1-0.6-2.2-1.8-2.7-2.7l-5.4-9.4c-0.6-1-1.9-1.7-3-1.7H70.3
				c-1.1,0-2.8-0.5-3.7-1L57.2,1c-1-0.6-2.5-0.6-3.5,0l-9.4,5.4c-1,0.6-2.6,1-3.7,1H29.8c-1.1,0-2.5,0.8-3,1.7l-5.4,9.4
				c-0.6,1-1.8,2.2-2.7,2.7l-9.4,5.4c-1,0.6-1.7,1.9-1.7,3v0.8c0-1.1,0.8-2.5,1.7-3l9.4-5.4c1-0.6,2.2-1.8,2.7-2.7l5.4-9.4
				c0.6-1,1.9-1.7,3-1.7h10.8c1.1,0,2.8-0.5,3.7-1l9.4-5.4c1-0.6,2.5-0.6,3.5,0l9.4,5.4c1,0.6,2.6,1,3.7,1h10.8c1.1,0,2.5,0.8,3,1.7
				l5.4,9.4c0.6,1,1.8,2.2,2.7,2.7l9.4,5.4c1,0.6,1.7,1.9,1.7,3v-0.8C103.4,28.5,102.6,27.2,101.7,26.6z"/>
		</g>
	</g>
</g>
</svg>
