<?xml version="1.0" encoding="utf-8"?>
<!-- Generator: Adobe Illustrator 16.0.0, SVG Export Plug-In . SVG Version: 6.00 Build 0)  -->
<!DOCTYPE svg PUBLIC "-//W3C//DTD SVG 1.1//EN" "http://www.w3.org/Graphics/SVG/1.1/DTD/svg11.dtd">
<svg version="1.1" id="Layer_1" xmlns="http://www.w3.org/2000/svg" xmlns:xlink="http://www.w3.org/1999/xlink" x="0px" y="0px"
	 width="100px" height="100px" viewBox="0 0 100 100" enable-background="new 0 0 100 100" xml:space="preserve">
<g>
	<g>
		<path fill="#FFFFFF" d="M50,5.522c24.525,0,44.478,19.953,44.478,44.478c0,24.525-19.952,44.478-44.478,44.478
			C25.475,94.478,5.522,74.525,5.522,50C5.522,25.475,25.475,5.522,50,5.522 M50,0C22.386,0,0,22.386,0,50c0,27.615,22.386,50,50,50
			s50-22.385,50-50C100,22.386,77.614,0,50,0L50,0z"/>
	</g>
	<g>
		<path fill="#FFFFFF" d="M35.457,54.776l-2.423,7.981h-5.306l9.025-28.165h6.563l9.15,28.165h-5.516l-2.55-7.981H35.457z
			 M43.524,50.891l-2.215-6.938c-0.544-1.714-1.002-3.636-1.421-5.265h-0.085c-0.416,1.629-0.835,3.593-1.335,5.265l-2.174,6.938
			H43.524z"/>
		<path fill="#FFFFFF" d="M67.633,62.758L67.3,60.502h-0.125c-1.256,1.589-3.385,2.716-6.02,2.716c-4.094,0-6.393-2.966-6.393-6.059
			c0-5.14,4.554-7.731,12.077-7.69v-0.334c0-1.337-0.543-3.552-4.137-3.552c-2.006,0-4.097,0.626-5.475,1.503l-1.005-3.342
			c1.506-0.92,4.141-1.798,7.356-1.798c6.519,0,8.399,4.138,8.399,8.566v7.356c0,1.839,0.085,3.636,0.293,4.889H67.633z
			 M66.966,52.813c-3.638-0.085-7.106,0.71-7.106,3.803c0,2.008,1.296,2.926,2.926,2.926c2.049,0,3.552-1.338,4.012-2.8
			c0.126-0.377,0.169-0.794,0.169-1.128V52.813z"/>
	</g>
</g>
</svg>
