<?xml version="1.0" encoding="utf-8"?>
<!-- Generator: Adobe Illustrator 16.0.0, SVG Export Plug-In . SVG Version: 6.00 Build 0)  -->
<!DOCTYPE svg PUBLIC "-//W3C//DTD SVG 1.1//EN" "http://www.w3.org/Graphics/SVG/1.1/DTD/svg11.dtd">
<svg version="1.1" id="Layer_1" xmlns="http://www.w3.org/2000/svg" xmlns:xlink="http://www.w3.org/1999/xlink" x="0px" y="0px"
	 width="100px" height="100px" viewBox="0 0 100 100" enable-background="new 0 0 100 100" xml:space="preserve">
<g>
	<g>
		<g>
			<g>
				<path opacity="0.6" fill="#FFFFFF" d="M80.973,37.484c4.867,11.283,0.922,24.625-2.213,30.355
					C85.219,59.342,87.766,47.904,80.973,37.484z"/>
				<circle fill="none" cx="50" cy="50" r="50"/>
			</g>
			<g>
				<defs>
					<circle id="SVGID_1_" cx="50" cy="50" r="50"/>
				</defs>
				<use xlink:href="#SVGID_1_"  overflow="visible" fill="#F16344"/>
				<clipPath id="SVGID_2_">
					<use xlink:href="#SVGID_1_"  overflow="visible"/>
				</clipPath>
				<g clip-path="url(#SVGID_2_)">
					<g opacity="0.2">
						<path fill="#FFFFFF" d="M87.213,50c0-21.104-16.662-38.211-37.213-38.211c-20.553,0-37.213,17.107-37.213,38.211
							c0,13.375,6.697,24.969,16.83,31.672c0.289-0.125,0.609-0.203,0.957-0.203h39.117c0.283,0,0.551,0.047,0.797,0.133
							C80.563,74.889,87.213,63.328,87.213,50z"/>
					</g>
					<g>
						<path fill-rule="evenodd" clip-rule="evenodd" fill="#FCDCCA" d="M71.457,53.496c-1.549-0.703-3.736,1.023-4.887,3.857
							c-1.148,2.834-0.826,5.703,0.723,6.408c1.547,0.703,3.734-1.023,4.885-3.857C73.326,57.068,73.004,54.201,71.457,53.496z"/>
						<path fill="#4B2211" d="M78.506,66.59c-4.496-2.492-6.521-4.836-2.844-10.096c2.779-3.977,1.582-13.508-2.082-15.621
							c-3.666-2.111-5.896-2.035-8.361-9.682c-2.326-7.217-15.176-13.17-20.893-5.371c-3.996-4.725-11.461,0.795-13.191,8.027
							c-0.994,4.158-0.291,4.775-4.955,5.822c-4.664,1.049-6.955,9.051-3.9,13.775s1.947,7.516-2.383,10.988
							c-1.314,1.055-2.15,2.371-2.574,3.75c2.943,5.477,7.182,10.105,12.295,13.488c0.289-0.125,0.609-0.203,0.957-0.203h39.117
							c0.283,0,0.551,0.047,0.797,0.133c4.314-2.875,7.996-6.641,10.801-11.051C80.945,68.918,80.059,67.451,78.506,66.59z"/>
						<path fill-rule="evenodd" clip-rule="evenodd" fill="#FCDCCA" d="M57.322,64.227v19.172c-4.064,5.656-10.717,5.461-14.781,0
							V64.227C42.541,53.871,57.322,53.871,57.322,64.227z"/>
						<path fill-rule="evenodd" clip-rule="evenodd" fill="#F5C3A8" d="M57.322,64.227v12.836c-2.797,2.316-5.492,3.613-7.391,3.613
							s-4.596-1.297-7.391-3.613V64.227C42.541,53.871,57.322,53.871,57.322,64.227z"/>
						<path fill-rule="evenodd" clip-rule="evenodd" fill="#FCDCCA" d="M49.932,77.486c-4.813,0-14.979-8.01-18.121-19.484
							c-3.174-11.584,2.803-28.199,18.121-28.199s21.295,16.615,18.121,28.199C64.91,69.477,54.744,77.486,49.932,77.486z"/>
						<path fill-rule="evenodd" clip-rule="evenodd" fill="#F4929E" d="M44.398,66.021c2.34-2.4,4.166-0.6,5.533-0.6
							s3.191-1.801,5.533,0.6C54.207,72.35,46.066,72.543,44.398,66.021z"/>
						<path fill-rule="evenodd" clip-rule="evenodd" fill="#FFFFFF" d="M45.117,66.348c1.279-0.344,7.797-0.414,9.629-0.074
							C53.232,69.223,46.398,69.053,45.117,66.348z"/>
						<path fill-rule="evenodd" clip-rule="evenodd" fill="#F4929E" d="M44.398,66.021c2.34-2.4,4.166-0.6,5.533-0.6
							s3.193-1.801,5.533,0.6C51.887,67.889,46.807,67.016,44.398,66.021z"/>
						<path fill-rule="evenodd" clip-rule="evenodd" fill="#4B2211" d="M64.43,71.543c-3.691,7.34,15.955-20.764-0.014-37.939
							c-9.535-10.254-25.336-9.537-31.512,1.85c3.021,4.846,6.168,10.281,13.746,10.113c12.881-0.285,0.932,10.471,9.732,11.684
							c4.326,0.596,9.234,1.715,5.498,6.141C59.266,66.486,58.898,70.52,64.43,71.543z"/>
						<path fill-rule="evenodd" clip-rule="evenodd" fill="#FCDCCA" d="M28.74,53.496c1.549-0.703,3.736,1.023,4.885,3.857
							c1.15,2.834,0.826,5.703-0.721,6.408c-1.549,0.703-3.736-1.023-4.885-3.857C26.871,57.068,27.193,54.201,28.74,53.496z"/>
						<path fill-rule="evenodd" clip-rule="evenodd" fill="#4B2211" d="M40.066,35.684c-1.436,6.254,0.953,11.121-3.918,11.732
							c-6.338,0.795-3.322,5.012-3.813,10.189C28.84,52.988,27.711,32.473,40.066,35.684z"/>
					</g>
					<g>
						<g>
							<ellipse fill="#FFFFFF" cx="50" cy="101.771" rx="41.15" ry="19.203"/>
							<rect x="60.619" y="88.762" fill="#DB2628" width="9.561" height="2.082"/>
							<rect x="49.535" y="84.922" fill="#969592" width="0.486" height="7.418"/>
							<path fill="#787878" d="M69.381,84.922c1.152,0,2.086-0.773,2.086-1.727c0-0.719-0.533-1.336-1.287-1.594
								c-1.941,1.293-4.006,2.41-6.178,3.32H69.381z"/>
							<path fill="#787878" d="M28.18,83.195c0,0.953,0.934,1.727,2.084,1.727h5.115c-2.133-0.895-4.162-1.988-6.07-3.25
								C28.641,81.957,28.18,82.531,28.18,83.195z"/>
							<path fill="#787878" d="M30.264,81.469c-0.346,0-0.668,0.078-0.955,0.203c1.908,1.262,3.938,2.355,6.07,3.25h28.623
								c2.172-0.91,4.236-2.027,6.178-3.32c-0.246-0.086-0.516-0.133-0.799-0.133H30.264z"/>
						</g>
						<rect x="48.451" y="85.797" fill="#969592" width="2.654" height="0.93"/>
						<rect x="48.451" y="87.832" fill="#969592" width="2.654" height="0.93"/>
						<rect x="48.451" y="89.914" fill="#969592" width="2.654" height="0.93"/>
					</g>
					<g>
						<g>
							<g>
								<path fill="#CD9F76" d="M38.145,53.309c0,0,2.533-2.229,6.273,0"/>
							</g>
							<g>
								<g>
									<circle fill="#333C2C" cx="41.281" cy="54.441" r="1.758"/>
									<circle fill="#1E1610" cx="41.281" cy="54.441" r="0.758"/>
									<circle fill="#FFFFFF" cx="42.016" cy="53.707" r="0.463"/>
								</g>
							</g>
						</g>
						<path fill="none" stroke="#434244" stroke-width="1.1387" stroke-linecap="round" stroke-miterlimit="10" d="M45.609,49.912
							c0,0-5.258-1.938-8.656-0.646"/>
					</g>
					<path fill="#F5C3A8" d="M48.254,61.23h3.877c0.293,0,0.406,0.383,0.158,0.541l-0.713,0.459c-0.842,0.543-1.924,0.543-2.768,0
						l-0.713-0.459C47.848,61.613,47.961,61.23,48.254,61.23z"/>
				</g>
			</g>
		</g>
	</g>
</g>
</svg>
