<?xml version="1.0" encoding="utf-8"?>
<!-- Generator: Adobe Illustrator 16.0.0, SVG Export Plug-In . SVG Version: 6.00 Build 0)  -->
<!DOCTYPE svg PUBLIC "-//W3C//DTD SVG 1.1//EN" "http://www.w3.org/Graphics/SVG/1.1/DTD/svg11.dtd">
<svg version="1.1" id="Layer_1" xmlns="http://www.w3.org/2000/svg" xmlns:xlink="http://www.w3.org/1999/xlink" x="0px" y="0px"
	 width="100px" height="100px" viewBox="0 0 100 100" enable-background="new 0 0 100 100" xml:space="preserve">
<g>
	<g>
		<path fill="#FFFFFF" d="M50,5.522c24.525,0,44.478,19.953,44.478,44.478c0,24.525-19.952,44.478-44.478,44.478
			C25.475,94.478,5.522,74.525,5.522,50C5.522,25.475,25.475,5.522,50,5.522 M50,0C22.387,0,0,22.386,0,50c0,27.615,22.387,50,50,50
			c27.614,0,50-22.385,50-50C100,22.386,77.614,0,50,0L50,0z"/>
	</g>
	<g>
		<g>
			<g>
				<path fill="#FFFFFF" d="M41.866,67.667c-2.276,0.001-4.715-0.957-7.236-3.479c-5.731-5.729-5.198-12.836,1.462-19.495
					c3.396-3.394,10.169-9.562,10.456-9.823c0.623-0.564,1.584-0.52,2.149,0.102c0.566,0.622,0.521,1.584-0.101,2.149
					c-0.07,0.064-7.007,6.381-10.353,9.724c-5.526,5.526-6.018,10.636-1.462,15.192c3.98,3.981,7.453,3.473,12.808-1.881
					L63.375,46.37c1.944-1.945,2.92-3.598,2.899-4.915c-0.021-1.34-1.144-2.395-2.229-3.416c-0.235-0.221-0.461-0.434-0.67-0.643
					c-1.715-1.713-3.041-1.559-4.002-1.234c-1.693,0.57-3.547,2.28-4.973,3.706l-12.55,12.55c-0.792,0.792-2.435,2.828-0.618,4.648
					c1.997,1.993,4.54-0.512,4.647-0.619l13.785-13.785c0.595-0.594,1.558-0.594,2.152,0c0.595,0.594,0.595,1.558,0,2.151
					L48.032,58.599c-2.378,2.377-6.217,3.351-8.952,0.619c-2.491-2.494-2.244-6.092,0.619-8.952l12.549-12.55
					c1.764-1.764,3.876-3.672,6.154-4.439c2.563-0.861,4.957-0.199,7.123,1.967c0.187,0.187,0.392,0.379,0.603,0.578
					c1.328,1.248,3.146,2.958,3.188,5.586c0.034,2.202-1.205,4.529-3.79,7.113L51.741,62.306
					C49.169,64.878,45.75,67.667,41.866,67.667z"/>
			</g>
		</g>
	</g>
</g>
</svg>
