<?xml version="1.0" encoding="utf-8"?>
<!-- Generator: Adobe Illustrator 15.1.0, SVG Export Plug-In . SVG Version: 6.00 Build 0)  -->
<!DOCTYPE svg PUBLIC "-//W3C//DTD SVG 1.1//EN" "http://www.w3.org/Graphics/SVG/1.1/DTD/svg11.dtd" [
	<!ENTITY ns_extend "http://ns.adobe.com/Extensibility/1.0/">
	<!ENTITY ns_ai "http://ns.adobe.com/AdobeIllustrator/10.0/">
	<!ENTITY ns_graphs "http://ns.adobe.com/Graphs/1.0/">
	<!ENTITY ns_vars "http://ns.adobe.com/Variables/1.0/">
	<!ENTITY ns_imrep "http://ns.adobe.com/ImageReplacement/1.0/">
	<!ENTITY ns_sfw "http://ns.adobe.com/SaveForWeb/1.0/">
	<!ENTITY ns_custom "http://ns.adobe.com/GenericCustomNamespace/1.0/">
	<!ENTITY ns_adobe_xpath "http://ns.adobe.com/XPath/1.0/">
]>
<svg version="1.1" xmlns:x="&ns_extend;" xmlns:i="&ns_ai;" xmlns:graph="&ns_graphs;"
	 xmlns="http://www.w3.org/2000/svg" xmlns:xlink="http://www.w3.org/1999/xlink" x="0px" y="0px" width="49px" height="73px"
	 viewBox="0 0 49 73" enable-background="new 0 0 49 73" xml:space="preserve">
<metadata>
	<sfw  xmlns="&ns_sfw;">
		<slices></slices>
		<sliceSourceBounds  height="305.184" width="480.035" x="0.289" y="-306.589" bottomLeftOrigin="true"></sliceSourceBounds>
	</sfw>
</metadata>
<g id="sm">
	<g>
		<g>
			<g>
				<path fill="#64C8EA" d="M24.221,70.854c-1.892,0-3.928,0.271-3.928,0.867s2.036,0.869,3.928,0.869
					c1.891,0,3.926-0.273,3.926-0.869S26.111,70.854,24.221,70.854z M24.221,72.305c-2.307,0-3.564-0.385-3.564-0.584
					c0-0.197,1.258-0.582,3.564-0.582c2.306,0,3.563,0.385,3.563,0.582C27.784,71.92,26.526,72.305,24.221,72.305z"/>
				<path fill="#64C8EA" d="M24.221,67.945c-2.614,0-5.427,0.381-5.427,1.213c0,0.834,2.813,1.213,5.427,1.213
					c2.613,0,5.426-0.379,5.426-1.213C29.646,68.326,26.834,67.945,24.221,67.945z M24.221,69.943c-3.16,0-4.883-0.518-4.883-0.785
					c0-0.266,1.723-0.785,4.883-0.785c3.158,0,4.882,0.52,4.882,0.785C29.103,69.426,27.379,69.943,24.221,69.943z"/>
				<g>
					<g opacity="0.2">
						<path fill="#069AD1" d="M24.324,72.59c-1.892,0-3.928-0.273-3.928-0.869s2.036-0.867,3.928-0.867
							c1.891,0,3.926,0.271,3.926,0.867S26.215,72.59,24.324,72.59z M24.324,71.139c-2.307,0-3.564,0.385-3.564,0.582
							c0,0.199,1.258,0.584,3.564,0.584c2.306,0,3.563-0.385,3.563-0.584C27.888,71.523,26.63,71.139,24.324,71.139z"/>
					</g>
					<g opacity="0.5">
						<path fill="#069AD1" d="M24.324,70.371c-2.614,0-5.427-0.379-5.427-1.213c0-0.832,2.813-1.213,5.427-1.213
							c2.613,0,5.426,0.381,5.426,1.213C29.75,69.992,26.938,70.371,24.324,70.371z M24.324,68.373c-3.16,0-4.883,0.52-4.883,0.785
							c0,0.268,1.723,0.785,4.883,0.785c3.158,0,4.882-0.518,4.882-0.785C29.206,68.893,27.482,68.373,24.324,68.373z"/>
					</g>
					<g>
						<path fill="#069AD1" d="M24.324,67.557c-2.352,0-6.797-0.318-6.797-1.531c0-1.211,4.445-1.531,6.797-1.531
							c2.35,0,6.795,0.32,6.795,1.531C31.119,67.238,26.674,67.557,24.324,67.557z M24.324,65.064c-4.006,0-6.072,0.674-6.072,0.961
							c0,0.289,2.066,0.963,6.072,0.963c4.005,0,6.07-0.674,6.07-0.963C30.395,65.738,28.329,65.064,24.324,65.064z"/>
					</g>
				</g>
				<radialGradient id="SVGID_1_" cx="24.2617" cy="46.8164" r="16.8809" gradientUnits="userSpaceOnUse">
					<stop  offset="0" style="stop-color:#CBCBCB"/>
					<stop  offset="0.8697" style="stop-color:#C7C7C7"/>
					<stop  offset="1" style="stop-color:#C6C6C6"/>
				</radialGradient>
				<path fill="url(#SVGID_1_)" d="M36.098,31.051l-9.246-2.809l-2.527-0.098l-2.528,0.098l-9.246,2.809
					c-0.521,0.158-0.946,0.635-1.14,1.273l-1.605,5.318c-0.557,1.844-0.556,3.887,0.002,5.729l4.274,15.719L16,62.18v2l2.346,0.533
					c3.616,1.035,7.273,1.035,10.889,0L31,64.18v-2l2.744-3.09l4.929-15.719c0.558-1.842,0.643-3.885,0.086-5.729l-1.563-5.318
					C37.002,31.686,36.617,31.209,36.098,31.051z"/>
				<linearGradient id="SVGID_2_" gradientUnits="userSpaceOnUse" x1="24.3232" y1="57.1699" x2="24.3232" y2="62.6846">
					<stop  offset="0" style="stop-color:#A9A9A9"/>
					<stop  offset="0.1463" style="stop-color:#AFAFAF"/>
					<stop  offset="0.5593" style="stop-color:#BAB9BA"/>
					<stop  offset="1" style="stop-color:#BEBDBE"/>
				</linearGradient>
				<polygon fill="url(#SVGID_2_)" points="24.203,60 24.444,60 26.396,61.975 24.807,58 24.777,58 23.871,58 23.841,58 
					22.25,61.975 				"/>
				<g>
					<g>
						<path fill="#979797" d="M39.141,55.367l0.471,3.064l0.999,0.072l0.62,2.355l1.224-0.117l0.783-0.701
							c0.832-0.744,1.396-1.74,1.607-2.836l0.362-1.885L39.141,55.367z"/>
						<linearGradient id="SVGID_3_" gradientUnits="userSpaceOnUse" x1="38.5845" y1="43.9297" x2="45.6592" y2="43.9297">
							<stop  offset="0" style="stop-color:#C5C4C4"/>
							<stop  offset="0.1049" style="stop-color:#C9C8C8"/>
							<stop  offset="0.538" style="stop-color:#D3D3D3"/>
							<stop  offset="1" style="stop-color:#D7D7D7"/>
						</linearGradient>
						<path fill="url(#SVGID_3_)" d="M38.596,31.957c-0.029,1.387-0.015,6.693,0.216,12.246c0.188,4.555-0.272,9.035,0.072,11.922
							c0,0,5.044,0.104,6.771-0.92c0,0,0.152-6.244-1.288-12.135c-1.22-4.99-2.863-9.969-5.438-11.313
							C38.779,31.68,38.6,31.789,38.596,31.957z"/>
						<path fill="none" stroke="#037C9D" stroke-width="2.1408" stroke-linecap="round" stroke-miterlimit="10" d="M45.332,52.936
							c0,0,1.813-0.879,1.463-3.35s-2.097-2.67-2.097-2.67"/>
						<path fill="none" stroke="#DEDDDD" stroke-miterlimit="10" d="M41.5,47v-4.02l1.13-1.389c0,0-0.192-2.599-1.089-4.167"/>
						<polyline fill="none" stroke="#DEDDDD" stroke-width="0.7136" stroke-miterlimit="10" points="42.07,39.865 40.713,39.08 
							39.709,36.834 						"/>
						<path fill="#E0E0DF" d="M38.519,34.652l2.231-1.184l0.021-0.01c0.174-0.094,0.39-0.035,0.492,0.133
							c0.002,0.002,0.002,0.004,0.004,0.006c0.43,0.703,1.492,2.578,2.2,4.979c0.059,0.199-0.038,0.412-0.224,0.504l0,0
							c0,0-1.68-1.873-4.707-1.781C38.537,37.299,38.51,35.385,38.519,34.652z"/>
						<polygon fill="#BAB9BA" points="39.171,34.836 40.455,34.186 40.062,35.002 						"/>
						<path fill="#E0E0DF" d="M44.916,44.375c-1.387-2.402-5.041,2.078-6.178,3.434c-0.11,3.213-0.464,6.24-0.217,8.305
							c0,0,5.768,0.125,7.496-0.898C46.018,55.215,45.816,49.973,44.916,44.375z"/>
						<linearGradient id="SVGID_4_" gradientUnits="userSpaceOnUse" x1="38.4268" y1="53.4199" x2="46.0176" y2="53.4199">
							<stop  offset="0" style="stop-color:#A9A9A9"/>
							<stop  offset="0.1463" style="stop-color:#AFAFAF"/>
							<stop  offset="0.5593" style="stop-color:#BAB9BA"/>
							<stop  offset="1" style="stop-color:#BEBDBE"/>
						</linearGradient>
						<path fill="url(#SVGID_4_)" d="M38.521,56.113c0,0,5.768,0.125,7.496-0.898c0,0-0.07-1.834-0.314-4.492
							c-2.104,2.262-5.822,2.93-7.262,3.109C38.404,54.629,38.441,55.447,38.521,56.113z"/>
						<circle fill="#67727B" cx="44.095" cy="45.068" r="0.393"/>
						
							<line fill="none" stroke="#C5C4C4" stroke-width="5" stroke-miterlimit="10" stroke-dasharray="1,1" x1="40.5" y1="49" x2="40.5" y2="51"/>
						<radialGradient id="SVGID_5_" cx="42.2627" cy="55.1543" r="2.7637" gradientUnits="userSpaceOnUse">
							<stop  offset="0" style="stop-color:#D7D7D7"/>
							<stop  offset="0.696" style="stop-color:#D4D3D3"/>
							<stop  offset="1" style="stop-color:#D0CFCF"/>
						</radialGradient>
						<path fill="url(#SVGID_5_)" d="M38.482,55.32c0,0,5.507,0.033,7.512-1.145l0.053,1.039c0,0-1.174,1.068-7.495,0.898
							C38.552,56.113,38.459,55.762,38.482,55.32z"/>
					</g>
					<g>
						<path fill="#979797" d="M9.413,55.367l-0.47,3.064l-0.999,0.072l-0.62,2.355l-1.224-0.117l-0.784-0.701
							c-0.831-0.744-1.396-1.74-1.606-2.836L3.348,55.32L9.413,55.367z"/>
						
							<linearGradient id="SVGID_6_" gradientUnits="userSpaceOnUse" x1="857.1631" y1="43.9297" x2="864.2373" y2="43.9297" gradientTransform="matrix(-1 0 0 1 867.1328 0)">
							<stop  offset="0" style="stop-color:#C5C4C4"/>
							<stop  offset="0.1049" style="stop-color:#C9C8C8"/>
							<stop  offset="0.538" style="stop-color:#D3D3D3"/>
							<stop  offset="1" style="stop-color:#D7D7D7"/>
						</linearGradient>
						<path fill="url(#SVGID_6_)" d="M9.958,31.957c0.029,1.387,0.016,6.693-0.215,12.246c-0.189,4.555,0.272,9.035-0.072,11.922
							c0,0-5.044,0.104-6.771-0.92c0,0-0.152-6.244,1.288-12.135c1.22-4.99,2.862-9.969,5.438-11.313
							C9.775,31.68,9.955,31.789,9.958,31.957z"/>
						<path fill="none" stroke="#037C9D" stroke-width="2.1408" stroke-linecap="round" stroke-miterlimit="10" d="M3.222,52.936
							c0,0-1.813-0.879-1.462-3.35c0.35-2.471,2.097-2.67,2.097-2.67"/>
						<path fill="none" stroke="#DEDDDD" stroke-miterlimit="10" d="M7.5,47v-4.02l-1.456-1.389c0,0,0.355-2.599,1.251-4.167"/>
						<polyline fill="none" stroke="#DEDDDD" stroke-width="0.7136" stroke-miterlimit="10" points="6.276,39.865 7.634,39.08 
							8.639,36.834 						"/>
						<path fill="#E0E0DF" d="M10.036,34.652l-2.231-1.184l-0.021-0.01c-0.174-0.094-0.39-0.035-0.492,0.133
							c-0.002,0.002-0.003,0.004-0.004,0.006c-0.43,0.703-1.492,2.578-2.2,4.979c-0.059,0.199,0.037,0.412,0.224,0.504l0,0
							c0,0,1.68-1.873,4.707-1.781C10.018,37.299,10.045,35.385,10.036,34.652z"/>
						<polygon fill="#BAB9BA" points="9.384,34.836 8.1,34.186 8.492,35.002 						"/>
						<path fill="#E0E0DF" d="M3.639,44.375c1.387-2.402,5.041,2.078,6.178,3.434c0.11,3.213,0.463,6.24,0.217,8.305
							c0,0-5.769,0.125-7.496-0.898C2.537,55.215,2.738,49.973,3.639,44.375z"/>
						<linearGradient id="SVGID_7_" gradientUnits="userSpaceOnUse" x1="2.5371" y1="53.4199" x2="10.1279" y2="53.4199">
							<stop  offset="0" style="stop-color:#BEBDBE"/>
							<stop  offset="0.4407" style="stop-color:#BAB9BA"/>
							<stop  offset="0.8537" style="stop-color:#AFAFAF"/>
							<stop  offset="1" style="stop-color:#A9A9A9"/>
						</linearGradient>
						<path fill="url(#SVGID_7_)" d="M10.033,56.113c0,0-5.769,0.125-7.496-0.898c0,0,0.07-1.834,0.314-4.492
							c2.103,2.262,5.822,2.93,7.262,3.109C10.15,54.629,10.113,55.447,10.033,56.113z"/>
						<circle fill="#67727B" cx="4.46" cy="45.068" r="0.393"/>
						
							<line fill="none" stroke="#C5C4C4" stroke-width="5" stroke-miterlimit="10" stroke-dasharray="1,1" x1="7.5" y1="49" x2="7.5" y2="51"/>
						
							<radialGradient id="SVGID_8_" cx="860.8418" cy="55.1543" r="2.7637" gradientTransform="matrix(-1 0 0 1 867.1328 0)" gradientUnits="userSpaceOnUse">
							<stop  offset="0" style="stop-color:#D7D7D7"/>
							<stop  offset="0.696" style="stop-color:#D4D3D3"/>
							<stop  offset="1" style="stop-color:#D0CFCF"/>
						</radialGradient>
						<path fill="url(#SVGID_8_)" d="M10.072,55.32c0,0-5.508,0.033-7.512-1.145l-0.054,1.039c0,0,1.175,1.068,7.495,0.898
							C10.002,56.113,10.096,55.762,10.072,55.32z"/>
					</g>
				</g>
				<g>
					<polyline fill="none" stroke="#BEBDBE" stroke-miterlimit="10" points="26.5,55 26.5,57.779 28.5,59.662 28.5,63 					"/>
					<polyline fill="none" stroke="#BEBDBE" stroke-miterlimit="10" points="20.5,55 20.5,57.779 18.5,59.662 18.5,63 					"/>
					<polyline fill="none" stroke="#BEBDBE" stroke-miterlimit="10" points="29.104,61.964 31.5,59.369 31.5,51 					"/>
					<polyline fill="none" stroke="#BEBDBE" stroke-miterlimit="10" points="18.896,61.964 16.5,59.369 16.5,51 					"/>
					<polyline fill="none" stroke="#BEBDBE" stroke-miterlimit="10" points="31.408,54.901 33.5,53.176 33.5,51 					"/>
					<polyline fill="none" stroke="#BEBDBE" stroke-miterlimit="10" points="16.592,54.901 14.5,53.176 14.5,51 					"/>
				</g>
				<g>
					<linearGradient id="SVGID_9_" gradientUnits="userSpaceOnUse" x1="23.5" y1="37.9736" x2="23.5" y2="56.5635">
						<stop  offset="0" style="stop-color:#8C8D8D"/>
						<stop  offset="0.2675" style="stop-color:#9A9A9A"/>
						<stop  offset="0.6219" style="stop-color:#A5A5A5"/>
						<stop  offset="1" style="stop-color:#A9A9A9"/>
					</linearGradient>
					<polygon opacity="0.76" fill="url(#SVGID_9_)" points="25,47 22,47 22,54.297 23.5,54.84 25,54.297 					"/>
					
						<line fill="none" stroke="#8A8B8B" stroke-width="5" stroke-miterlimit="10" stroke-dasharray="1,1" x1="23.5" y1="53" x2="23.5" y2="48"/>
					<linearGradient id="SVGID_10_" gradientUnits="userSpaceOnUse" x1="27.7681" y1="55.4531" x2="27.7681" y2="45.9654">
						<stop  offset="0" style="stop-color:#BEBDBE"/>
						<stop  offset="0.4407" style="stop-color:#BAB9BA"/>
						<stop  offset="0.8537" style="stop-color:#AFAFAF"/>
						<stop  offset="1" style="stop-color:#A9A9A9"/>
					</linearGradient>
					<polygon opacity="0.76" fill="url(#SVGID_10_)" points="25,54.297 27.194,56.18 28.446,53.176 30.536,51.839 26.85,47 25,47 
											"/>
					<linearGradient id="SVGID_11_" gradientUnits="userSpaceOnUse" x1="19.9526" y1="55.4531" x2="19.9526" y2="45.9654">
						<stop  offset="0" style="stop-color:#BEBDBE"/>
						<stop  offset="0.4407" style="stop-color:#BAB9BA"/>
						<stop  offset="0.8537" style="stop-color:#AFAFAF"/>
						<stop  offset="1" style="stop-color:#A9A9A9"/>
					</linearGradient>
					<polygon opacity="0.76" fill="url(#SVGID_11_)" points="22,54.297 20.63,56.18 19.79,53.176 17.905,51.839 21.797,47 22,47 
											"/>
					
						<radialGradient id="SVGID_12_" cx="24.4004" cy="32.458" r="13.473" gradientTransform="matrix(1 0 0 0.4148 0 18.9949)" gradientUnits="userSpaceOnUse">
						<stop  offset="0" style="stop-color:#A9A9A9"/>
						<stop  offset="0.134" style="stop-color:#B5B5B5"/>
						<stop  offset="0.4109" style="stop-color:#C8C8C8"/>
						<stop  offset="0.6961" style="stop-color:#D3D3D3"/>
						<stop  offset="1" style="stop-color:#D7D7D7"/>
					</radialGradient>
					<path fill="url(#SVGID_12_)" d="M38.819,37.643l-1.606-5.318c-0.192-0.639-0.619-1.115-1.139-1.273l-9.504-2.809L24,28.154
						v-0.002l0.066-0.008l0.117,0.002l-0.501-0.002L23,28.152v0.002l-1.758,0.088l-8.969,2.809
						c-0.521,0.158-0.808,0.635-1.001,1.273l-1.536,5.318c-0.557,1.844-0.521,3.887,0.037,5.729l2.021,6.613l0,0l6.208,1.813
						l1.956-1.813l1.814-3.068l2.54-1.709l2.539,1.709l1.813,3.068l1.951,1.813l6.2-1.813l0,0l2.004-6.613
						C39.375,41.529,39.376,39.486,38.819,37.643z"/>
					<g>
						<circle fill="#2080BE" cx="32.012" cy="37.025" r="0.393"/>
						<circle fill="#009A51" cx="33.824" cy="37.025" r="0.393"/>
					</g>
					<g>
						<path fill="#C8C8C8" d="M34.063,46.324c-0.047,0-0.093-0.018-0.128-0.053c-0.071-0.07-0.071-0.186,0-0.256l1.382-1.383
							c0.071-0.07,0.186-0.07,0.257,0c0.07,0.07,0.07,0.186,0,0.256l-1.383,1.383C34.156,46.307,34.109,46.324,34.063,46.324z"/>
						<path fill="#C8C8C8" d="M34.063,43.83c-0.047,0-0.093-0.02-0.128-0.053c-0.071-0.072-0.071-0.186,0-0.258l1.382-1.381
							c0.071-0.072,0.186-0.072,0.257,0c0.07,0.07,0.07,0.184,0,0.256l-1.383,1.383C34.156,43.811,34.109,43.83,34.063,43.83z"/>
						<path fill="#C8C8C8" d="M34.063,45.078c-0.047,0-0.093-0.02-0.128-0.055c-0.071-0.07-0.071-0.186,0-0.256l1.382-1.383
							c0.071-0.07,0.186-0.07,0.257,0c0.07,0.072,0.07,0.186,0,0.258l-1.383,1.381C34.156,45.059,34.109,45.078,34.063,45.078z"/>
						<path fill="#C8C8C8" d="M14.584,46.324c-0.047,0-0.093-0.018-0.128-0.053l-1.383-1.383c-0.07-0.07-0.07-0.186,0-0.256
							c0.071-0.07,0.186-0.07,0.257,0l1.383,1.383c0.07,0.07,0.07,0.186,0,0.256C14.677,46.307,14.631,46.324,14.584,46.324z"/>
						<path fill="#C8C8C8" d="M14.584,43.83c-0.047,0-0.093-0.02-0.128-0.053l-1.383-1.383c-0.07-0.072-0.07-0.186,0-0.256
							c0.071-0.072,0.186-0.072,0.257,0l1.383,1.381c0.07,0.072,0.07,0.186,0,0.258C14.677,43.811,14.631,43.83,14.584,43.83z"/>
						<path fill="#C8C8C8" d="M14.584,45.078c-0.047,0-0.093-0.02-0.128-0.055l-1.383-1.381c-0.07-0.072-0.07-0.186,0-0.258
							c0.071-0.07,0.186-0.07,0.257,0l1.383,1.383c0.07,0.07,0.07,0.186,0,0.256C14.677,45.059,14.631,45.078,14.584,45.078z"/>
					</g>
					<polygon fill="#E0E0DF" points="11.811,49.968 13.449,49 17.391,49 21.351,47.616 19.961,49.977 18.01,51.785 					"/>
					<polygon fill="#E0E0DF" points="36.782,49.968 35.143,49 31.201,49 27.241,47.616 28.631,49.977 30.582,51.785 					"/>
					<g>
						<circle fill="#626262" cx="26.933" cy="49.467" r="0.614"/>
						<circle fill="#626262" cx="29.175" cy="46.626" r="0.613"/>
						<path fill="none" stroke="#929297" stroke-width="2.1408" stroke-linecap="round" stroke-miterlimit="10" d="M26.934,49.467
							c0,0,2.562-0.52,2.241-2.842"/>
					</g>
					<linearGradient id="SVGID_13_" gradientUnits="userSpaceOnUse" x1="24.3115" y1="47.0674" x2="24.3115" y2="44.4521">
						<stop  offset="0" style="stop-color:#9D9D9D"/>
						<stop  offset="0.2768" style="stop-color:#999999"/>
						<stop  offset="0.5367" style="stop-color:#8E8E8E"/>
						<stop  offset="0.7889" style="stop-color:#7B7B7B"/>
						<stop  offset="1" style="stop-color:#656565"/>
					</linearGradient>
					<polygon fill="url(#SVGID_13_)" points="21.773,47 26.85,47 24.313,45.291 					"/>
					<g>
						<circle fill="#BAB9BA" cx="14.823" cy="37.025" r="0.393"/>
						<circle fill="#BAB9BA" cx="16.636" cy="37.025" r="0.393"/>
					</g>
					<polyline fill="none" stroke="#C5C4C4" stroke-miterlimit="10" points="24.324,38.491 27.283,35.5 33.93,35.5 37.191,32.255 
											"/>
					<polyline fill="none" stroke="#C5C4C4" stroke-miterlimit="10" points="24.286,38.491 21.327,35.5 14.68,35.5 11.419,32.255 
											"/>
					<polyline fill="none" stroke="#C5C4C4" stroke-miterlimit="10" points="25.825,47.136 29.5,43.242 29.5,36 					"/>
					<polyline fill="none" stroke="#C5C4C4" stroke-miterlimit="10" points="21.176,47.136 17.5,43.242 17.5,36 					"/>
					<line fill="none" stroke="#C5C4C4" stroke-miterlimit="10" x1="23.5" y1="45" x2="23.5" y2="43"/>
					<g>
						<polyline fill="none" stroke="#C5C4C4" stroke-miterlimit="10" points="29.928,41.452 32.058,39.053 34.5,38.393 34.5,34 
													"/>
						<polyline fill="none" stroke="#C5C4C4" stroke-miterlimit="10" points="17.896,41.452 15.353,39.053 12.5,38.393 12.5,34 
													"/>
					</g>
					<linearGradient id="SVGID_14_" gradientUnits="userSpaceOnUse" x1="24.3237" y1="35.4893" x2="24.3237" y2="44.5919">
						<stop  offset="0" style="stop-color:#3FBA61"/>
						<stop  offset="0.0763" style="stop-color:#36B572"/>
						<stop  offset="0.2519" style="stop-color:#25AB94"/>
						<stop  offset="0.4312" style="stop-color:#17A4AF"/>
						<stop  offset="0.6135" style="stop-color:#0E9EC2"/>
						<stop  offset="0.8007" style="stop-color:#089BCD"/>
						<stop  offset="1" style="stop-color:#069AD1"/>
					</linearGradient>
					
						<circle fill="url(#SVGID_14_)" stroke="#F2F2F2" stroke-width="3.3615" stroke-miterlimit="10" cx="24.324" cy="40.137" r="2.93"/>
				</g>
				<g>
					<path fill="none" stroke="#929297" stroke-width="2.1408" stroke-linecap="round" stroke-miterlimit="10" d="M39.761,16.449
						c0,0,1.646-5.738-2.396-5.719"/>
					<path fill="none" stroke="#037C9D" stroke-width="2.1408" stroke-linecap="round" stroke-miterlimit="10" d="M8.1,16.771
						c0,0-1.281-4.535,2.758-5.346"/>
					<path fill="#E6E6E6" d="M40.817,16.627l-3.059-5.66c-2.054-3.799-5.618-6.551-9.813-7.576l0,0c-2.38-0.58-4.863-0.58-7.243,0
						l0,0c-4.194,1.025-7.761,3.777-9.813,7.576l-3.059,5.66l-2.658,1.258l1.934,9.063l1.449,1.014l10.271,4.725l0.175,0.057
						c3.457,1.141,7.188,1.141,10.646,0l0.175-0.057l10.271-4.725l1.45-1.014l1.934-9.063L40.817,16.627z"/>
					<radialGradient id="SVGID_15_" cx="6.8633" cy="22.2939" r="4.1818" gradientUnits="userSpaceOnUse">
						<stop  offset="0" style="stop-color:#D7D7D7"/>
						<stop  offset="0.696" style="stop-color:#D4D3D3"/>
						<stop  offset="1" style="stop-color:#D0CFCF"/>
					</radialGradient>
					<polygon fill="url(#SVGID_15_)" points="7.83,16.627 8.555,27.961 7.105,26.947 5.172,17.885 					"/>
					<radialGradient id="SVGID_16_" cx="41.7837" cy="22.2939" r="4.1819" gradientUnits="userSpaceOnUse">
						<stop  offset="0" style="stop-color:#D7D7D7"/>
						<stop  offset="0.696" style="stop-color:#D4D3D3"/>
						<stop  offset="1" style="stop-color:#D0CFCF"/>
					</radialGradient>
					<polygon fill="url(#SVGID_16_)" points="40.817,16.627 40.092,27.961 41.542,26.947 43.476,17.885 					"/>
					
						<line fill="none" stroke="#D0CFCF" stroke-width="5" stroke-miterlimit="10" stroke-dasharray="1,1" x1="32.5" y1="16" x2="32.5" y2="12"/>
					
						<line fill="none" stroke="#D0CFCF" stroke-width="5" stroke-miterlimit="10" stroke-dasharray="1,1" x1="14.5" y1="16" x2="14.5" y2="12"/>
					<radialGradient id="SVGID_17_" cx="23.5" cy="16.9307" r="5.2549" gradientUnits="userSpaceOnUse">
						<stop  offset="0" style="stop-color:#D7D7D7"/>
						<stop  offset="0.696" style="stop-color:#D4D3D3"/>
						<stop  offset="1" style="stop-color:#D0CFCF"/>
					</radialGradient>
					<path fill="url(#SVGID_17_)" d="M17,13.328L17,13.328c0,2.129,9,2.129,13,0l0,0v5.438l-6.5,1.768L17,19.174V13.328z"/>
					<path fill="#D0CFCF" d="M30,4.568c0-0.105,0-0.203,0-0.299v14.525l0,0V4.568z"/>
					<path fill="#D0CFCF" d="M17,4.568v14.227l0,0V4.27C17,4.365,17,4.463,17,4.568z"/>
					<polygon opacity="0.5" fill="#E6E6E6" points="5.172,17.885 7.83,16.627 7.871,17.256 5.23,18.158 					"/>
					<polygon opacity="0.5" fill="#E6E6E6" points="43.476,17.885 40.817,16.627 40.777,17.256 43.418,18.158 					"/>
					<g>
						<path fill="#E0E0DF" d="M24.324,1.91L24.324,1.91c-1.377,0-2.492,1.115-2.492,2.492l0,0c0,2.803,0.85,5.541,2.438,7.852
							l0.054,0.078l0.053-0.078c1.589-2.311,2.439-5.049,2.439-7.852l0,0C26.816,3.025,25.7,1.91,24.324,1.91z"/>
						<path fill="#F2F2F2" d="M24.215,12.254c1.589-2.311,2.358-5.049,2.358-7.852C26.573,3.025,25,1.91,24,1.91v10.422
							L24.215,12.254z"/>
					</g>
					<circle fill="#E6E6E6" cx="24.323" cy="17.316" r="0.544"/>
					<circle fill="#E6E6E6" cx="22.511" cy="17.135" r="0.544"/>
					<circle fill="#E6E6E6" cx="26.136" cy="17.135" r="0.544"/>
					<path fill="#F2F2F2" d="M24.324,19.777l-12.099-2.461l1.224,7.416l5.347,6.357l2.64,0.672c1.895,0.48,3.881,0.48,5.777,0
						l2.639-0.672l5.347-6.357l1.224-7.416L24.324,19.777z"/>
					<g>
						<rect x="23" y="24" fill="#E6E6E6" width="1" height="3"/>
					</g>
					<polygon fill="#E6E6E6" points="27,19.074 27,23 28,23 28,18.963 					"/>
					<polygon fill="#E6E6E6" points="20,18.963 20,22.795 20,22.795 20,19.074 					"/>
					<g>
						<linearGradient id="SVGID_18_" gradientUnits="userSpaceOnUse" x1="14.1694" y1="23.082" x2="34.4775" y2="23.082">
							<stop  offset="0" style="stop-color:#3FBA61"/>
							<stop  offset="0.0763" style="stop-color:#36B572"/>
							<stop  offset="0.2519" style="stop-color:#25AB94"/>
							<stop  offset="0.4312" style="stop-color:#17A4AF"/>
							<stop  offset="0.6135" style="stop-color:#0E9EC2"/>
							<stop  offset="0.8007" style="stop-color:#089BCD"/>
							<stop  offset="1" style="stop-color:#069AD1"/>
						</linearGradient>
						<path fill="url(#SVGID_18_)" d="M24.324,25.199c-1.968,0-3.942-0.212-5.865-0.629l-3.121-0.676
							c-0.599-0.131-1.048-0.604-1.148-1.205c-0.071-0.432,0.05-0.852,0.332-1.184C14.804,21.174,15.215,21,15.649,21h0.105
							l0.193,0.013l3.261,0.655c1.68,0.342,3.401,0.512,5.115,0.512s3.435-0.177,5.115-0.519l3.364-0.686l0.195-0.01
							c0.435,0,0.846,0.189,1.128,0.522c0.282,0.332,0.403,0.77,0.332,1.199c-0.097,0.602-0.548,1.077-1.148,1.207l-3.12,0.676
							C28.266,24.987,26.292,25.199,24.324,25.199z"/>
						<path fill="#E6E6E6" d="M32.997,22.001c0.267,0,0.484,0.241,0.438,0.519c-0.029,0.182-0.166,0.324-0.346,0.363l-3.119,0.676
							c-1.861,0.403-3.754,0.605-5.647,0.605c-1.893,0-3.786-0.202-5.646-0.605l-3.121-0.676c-0.178-0.039-0.315-0.182-0.346-0.363
							c-0.046-0.277,0.172-0.519,0.438-0.519c0.03,0,0.06,0.003,0.091,0.009l3.262,0.664c1.756,0.357,3.539,0.536,5.321,0.536
							s3.565-0.179,5.321-0.536l3.262-0.664C32.937,22.004,32.967,22.001,32.997,22.001 M32.997,19.93
							c-0.169,0-0.338,0.017-0.504,0.051l-3.261,0.664c-1.612,0.328-3.263,0.494-4.908,0.494s-3.296-0.166-4.908-0.494l-3.262-0.664
							c-0.164-0.034-0.334-0.051-0.503-0.051c-0.74,0-1.439,0.323-1.918,0.889c-0.479,0.564-0.685,1.307-0.564,2.037
							c0.17,1.025,0.934,1.828,1.945,2.05l3.127,0.678c1.995,0.433,4.042,0.651,6.084,0.651s4.09-0.219,6.085-0.651l3.119-0.676
							c1.021-0.222,1.786-1.029,1.952-2.058c0.119-0.725-0.086-1.468-0.565-2.031C34.436,20.253,33.736,19.93,32.997,19.93
							L32.997,19.93z"/>
					</g>
					<g>
						<radialGradient id="SVGID_19_" cx="24.3237" cy="29.5049" r="4.3191" gradientUnits="userSpaceOnUse">
							<stop  offset="0" style="stop-color:#D7D7D7"/>
							<stop  offset="0.4871" style="stop-color:#D3D3D3"/>
							<stop  offset="0.9436" style="stop-color:#C8C8C8"/>
							<stop  offset="1" style="stop-color:#C6C6C6"/>
						</radialGradient>
						<path fill="url(#SVGID_19_)" d="M28.824,28.479l-4.5-1.572l-4.502,1.572l-1.026,2.611l1.493,0.482
							c0.761,0.246,1.55,0.395,2.348,0.445l1.091,0.068c0.397,0.023,0.795,0.023,1.192,0l1.09-0.068
							c0.799-0.051,1.588-0.199,2.349-0.445l1.493-0.482L28.824,28.479z"/>
						<polygon fill="#D8D8D8" points="28.824,28.479 35.198,24.732 29.852,31.09 						"/>
						<polygon fill="#D8D8D8" points="19.822,28.479 13.449,24.732 18.796,31.09 						"/>
						
							<line fill="none" stroke="#BAB9BA" stroke-width="9" stroke-miterlimit="10" stroke-dasharray="1,1" x1="23.5" y1="31" x2="23.5" y2="29"/>
						<circle fill="#BAB9BA" cx="27.042" cy="29.941" r="0.254"/>
						<circle fill="#BAB9BA" cx="21.605" cy="29.941" r="0.254"/>
					</g>
				</g>
				<path fill="#ADADAD" d="M31,62.361v2l-1.521,0.531c-3.616,1.037-7.685,1.037-11.301,0L16,64.361v-2l4.536,0.91
					c2.184,0.492,4.325,0.492,6.508,0L31,62.361z"/>
			</g>
			<polyline fill="none" stroke="#C5C4C4" stroke-miterlimit="10" points="31.013,42.427 32.5,41.227 32.5,39 			"/>
			<polyline fill="none" stroke="#C5C4C4" stroke-miterlimit="10" points="18.987,42.427 17.5,41.227 17.5,39 			"/>
		</g>
	</g>
</g>
<g id="lg">
	<g>
		<g>
			<path fill="#64C8EA" d="M240.453-14.425c-5.984,0-12.425,0.86-12.425,2.748c0,1.887,6.441,2.746,12.425,2.746
				s12.426-0.859,12.426-2.746C252.879-13.564,246.438-14.425,240.453-14.425z M240.453-9.831c-7.297,0-11.277-1.221-11.277-1.846
				c0-0.627,3.98-1.846,11.277-1.846c7.299,0,11.279,1.219,11.279,1.846C251.732-11.052,247.752-9.831,240.453-9.831z"/>
			<path fill="#64C8EA" d="M240.453-23.623c-8.27,0-17.17,1.2-17.17,3.836s8.901,3.837,17.17,3.837
				c8.271,0,17.172-1.201,17.172-3.837S248.725-23.623,240.453-23.623z M240.453-17.302c-9.996,0-15.45-1.642-15.45-2.485
				c0-0.843,5.454-2.484,15.45-2.484c9.998,0,15.451,1.642,15.451,2.484C255.904-18.943,250.451-17.302,240.453-17.302z"/>
			<g>
				<g opacity="0.2">
					<path fill="#069AD1" d="M240.453-8.931c-5.984,0-12.425-0.859-12.425-2.746c0-1.888,6.441-2.748,12.425-2.748
						s12.426,0.86,12.426,2.748C252.879-9.79,246.438-8.931,240.453-8.931z M240.453-13.522c-7.297,0-11.277,1.219-11.277,1.846
						c0,0.625,3.98,1.846,11.277,1.846c7.299,0,11.279-1.221,11.279-1.846C251.732-12.304,247.752-13.522,240.453-13.522z"/>
				</g>
				<g opacity="0.5">
					<path fill="#069AD1" d="M240.453-15.95c-8.27,0-17.17-1.201-17.17-3.837s8.901-3.836,17.17-3.836
						c8.271,0,17.172,1.2,17.172,3.836S248.725-15.95,240.453-15.95z M240.453-22.271c-9.996,0-15.45,1.642-15.45,2.484
						c0,0.844,5.454,2.485,15.45,2.485c9.998,0,15.451-1.642,15.451-2.485C255.904-20.63,250.451-22.271,240.453-22.271z"/>
				</g>
				<g>
					<path fill="#069AD1" d="M240.453-24.853c-7.438,0-21.505-1.014-21.505-4.846c0-3.833,14.068-4.846,21.505-4.846
						c7.439,0,21.506,1.013,21.506,4.846C261.959-25.866,247.893-24.853,240.453-24.853z M240.453-32.742
						c-12.674,0-19.21,2.134-19.21,3.044s6.536,3.043,19.21,3.043c12.676,0,19.213-2.133,19.213-3.043
						S253.129-32.742,240.453-32.742z"/>
				</g>
			</g>
			<radialGradient id="SVGID_20_" cx="240.4541" cy="-90.4863" r="53.5039" gradientUnits="userSpaceOnUse">
				<stop  offset="0" style="stop-color:#CBCBCB"/>
				<stop  offset="0.8697" style="stop-color:#C7C7C7"/>
				<stop  offset="1" style="stop-color:#C6C6C6"/>
			</radialGradient>
			<path fill="url(#SVGID_20_)" d="M277.711-140.38l-29.258-8.885l-8-0.308l-7.998,0.308l-29.259,8.885
				c-1.646,0.5-2.994,2.008-3.605,4.032l-5.082,16.831c-1.762,5.831-1.759,12.298,0.008,18.128l15.065,49.74l7.618,9.777v6.329
				l5.88,1.685c11.442,3.279,23.307,3.279,34.749,0l5.879-1.685v-6.329l7.619-9.777l15.066-49.74
				c1.766-5.83,1.768-12.297,0.006-18.128l-5.08-16.831C280.707-138.373,279.357-139.88,277.711-140.38z"/>
			<linearGradient id="SVGID_21_" gradientUnits="userSpaceOnUse" x1="240.4526" y1="-60.207" x2="240.4526" y2="-41.025">
				<stop  offset="0" style="stop-color:#A9A9A9"/>
				<stop  offset="0.1463" style="stop-color:#AFAFAF"/>
				<stop  offset="0.5593" style="stop-color:#BAB9BA"/>
				<stop  offset="1" style="stop-color:#BEBDBE"/>
			</linearGradient>
			<polygon fill="url(#SVGID_21_)" points="240.072,-48.497 240.836,-48.497 247.014,-43.496 241.982,-57.321 241.887,-57.321 
				239.02,-57.321 238.926,-57.321 233.893,-43.496 			"/>
			<g>
				<g>
					<path fill="#979797" d="M287.344-63.432l1.486,9.697l3.162,0.234l1.961,7.454l3.873-0.377l2.479-2.217
						c2.633-2.352,4.42-5.504,5.086-8.972l1.146-5.966L287.344-63.432z"/>
					<linearGradient id="SVGID_22_" gradientUnits="userSpaceOnUse" x1="285.583" y1="-99.623" x2="307.9697" y2="-99.623">
						<stop  offset="0" style="stop-color:#C5C4C4"/>
						<stop  offset="0.1049" style="stop-color:#C9C8C8"/>
						<stop  offset="0.538" style="stop-color:#D3D3D3"/>
						<stop  offset="1" style="stop-color:#D7D7D7"/>
					</linearGradient>
					<path fill="url(#SVGID_22_)" d="M285.619-137.508c-0.094,4.385-0.049,21.182,0.68,38.747c0.6,14.42-0.863,28.593,0.229,37.727
						c0,0,15.961,0.329,21.428-2.908c0,0,0.48-19.762-4.078-38.402c-3.861-15.787-9.061-31.545-17.209-35.797
						C286.195-138.388,285.629-138.04,285.619-137.508z"/>
					<path fill="none" stroke="#037C9D" stroke-width="2.1408" stroke-linecap="round" stroke-miterlimit="10" d="M306.936-71.126
						c0,0,5.734-2.779,4.627-10.597s-6.635-8.448-6.635-8.448"/>
					<path fill="none" stroke="#DEDDDD" stroke-miterlimit="10" d="M292.262-91.507v-11.117l5.014-4.396
						c0,0-1.328-9.025-4.164-13.99"/>
					<polyline fill="none" stroke="#DEDDDD" stroke-width="0.7136" stroke-miterlimit="10" points="296.941,-112.487 
						292.646,-114.968 289.467,-122.077 					"/>
					<path fill="#E0E0DF" d="M285.371-128.979l7.063-3.745l0.066-0.035c0.551-0.292,1.234-0.108,1.561,0.423
						c0.004,0.006,0.008,0.013,0.012,0.019c1.359,2.226,4.721,8.154,6.961,15.754c0.186,0.631-0.117,1.305-0.709,1.594l0,0
						c0,0-5.313-5.926-14.895-5.635C285.43-120.603,285.344-126.665,285.371-128.979z"/>
					<polygon fill="#BAB9BA" points="287.436,-128.399 291.498,-130.455 290.256,-127.874 					"/>
					<path fill="#E0E0DF" d="M305.615-98.216c-4.385-7.6-15.951,6.576-19.549,10.867c-0.348,10.167-1.467,19.746-0.686,26.281
						c0,0,18.254,0.396,23.721-2.842C309.102-63.909,308.467-80.499,305.615-98.216z"/>
					<linearGradient id="SVGID_23_" gradientUnits="userSpaceOnUse" x1="285.082" y1="-69.5879" x2="309.1016" y2="-69.5879">
						<stop  offset="0" style="stop-color:#A9A9A9"/>
						<stop  offset="0.1463" style="stop-color:#AFAFAF"/>
						<stop  offset="0.5593" style="stop-color:#BAB9BA"/>
						<stop  offset="1" style="stop-color:#BEBDBE"/>
					</linearGradient>
					<path fill="url(#SVGID_23_)" d="M285.381-61.067c0,0,18.254,0.396,23.721-2.842c0,0-0.223-5.807-0.994-14.216
						c-6.654,7.155-18.426,9.27-22.979,9.84C285.01-65.767,285.129-63.178,285.381-61.067z"/>
					<circle fill="#67727B" cx="303.018" cy="-96.018" r="1.243"/>
					
						<line fill="none" stroke="#C5C4C4" stroke-width="4.9953" stroke-miterlimit="10" stroke-dasharray="0.7136,1.4272" x1="292.646" y1="-84.38" x2="292.646" y2="-76.54"/>
					<radialGradient id="SVGID_24_" cx="297.2217" cy="-64.1035" r="8.746" gradientUnits="userSpaceOnUse">
						<stop  offset="0" style="stop-color:#D7D7D7"/>
						<stop  offset="0.696" style="stop-color:#D4D3D3"/>
						<stop  offset="1" style="stop-color:#D0CFCF"/>
					</radialGradient>
					<path fill="url(#SVGID_24_)" d="M285.258-63.577c0,0,17.428,0.104,23.771-3.621l0.168,3.289c0,0-3.717,3.379-23.719,2.842
						C285.479-61.067,285.184-62.18,285.258-63.577z"/>
				</g>
				<g>
					<path fill="#979797" d="M193.27-63.432l-1.488,9.697l-3.16,0.234l-1.962,7.454l-3.872-0.377l-2.479-2.217
						c-2.632-2.352-4.419-5.504-5.086-8.972l-1.147-5.966L193.27-63.432z"/>
					
						<linearGradient id="SVGID_25_" gradientUnits="userSpaceOnUse" x1="672.1025" y1="-99.623" x2="694.4893" y2="-99.623" gradientTransform="matrix(-1 0 0 1 867.1328 0)">
						<stop  offset="0" style="stop-color:#C5C4C4"/>
						<stop  offset="0.1049" style="stop-color:#C9C8C8"/>
						<stop  offset="0.538" style="stop-color:#D3D3D3"/>
						<stop  offset="1" style="stop-color:#D7D7D7"/>
					</linearGradient>
					<path fill="url(#SVGID_25_)" d="M194.995-137.508c0.094,4.385,0.049,21.182-0.681,38.747
						c-0.599,14.42,0.863,28.593-0.229,37.727c0,0-15.961,0.329-21.427-2.908c0,0-0.481-19.762,4.077-38.402
						c3.861-15.787,9.061-31.545,17.21-35.797C194.417-138.388,194.984-138.04,194.995-137.508z"/>
					<path fill="none" stroke="#037C9D" stroke-width="2.1408" stroke-linecap="round" stroke-miterlimit="10" d="M173.678-71.126
						c0,0-5.735-2.779-4.628-10.597s6.636-8.448,6.636-8.448"/>
					<path fill="none" stroke="#DEDDDD" stroke-miterlimit="10" d="M185.262-91.507v-11.117l-3.468-4.396
						c0,0,0.555-9.025,3.392-13.99"/>
					<polyline fill="none" stroke="#DEDDDD" stroke-width="0.7136" stroke-miterlimit="10" points="183.672,-112.487 
						187.967,-114.968 191.146,-122.077 					"/>
					<path fill="#E0E0DF" d="M195.242-128.979l-7.062-3.745l-0.067-0.035c-0.551-0.292-1.234-0.108-1.56,0.423
						c-0.004,0.006-0.008,0.013-0.012,0.019c-1.36,2.226-4.721,8.154-6.962,15.754c-0.186,0.631,0.118,1.305,0.708,1.594l0,0
						c0,0,5.313-5.926,14.896-5.635C195.184-120.603,195.27-126.665,195.242-128.979z"/>
					<polygon fill="#BAB9BA" points="193.177,-128.399 189.115,-130.455 190.358,-127.874 					"/>
					<path fill="#E0E0DF" d="M174.998-98.216c4.386-7.6,15.952,6.576,19.55,10.867c0.348,10.167,1.465,19.746,0.685,26.281
						c0,0-18.254,0.396-23.72-2.842C171.512-63.909,172.147-80.499,174.998-98.216z"/>
					<linearGradient id="SVGID_26_" gradientUnits="userSpaceOnUse" x1="171.5122" y1="-69.5879" x2="195.5303" y2="-69.5879">
						<stop  offset="0" style="stop-color:#BEBDBE"/>
						<stop  offset="0.4407" style="stop-color:#BAB9BA"/>
						<stop  offset="0.8537" style="stop-color:#AFAFAF"/>
						<stop  offset="1" style="stop-color:#A9A9A9"/>
					</linearGradient>
					<path fill="url(#SVGID_26_)" d="M195.232-61.067c0,0-18.254,0.396-23.72-2.842c0,0,0.223-5.807,0.994-14.216
						c6.653,7.155,18.425,9.27,22.978,9.84C195.603-65.767,195.484-63.178,195.232-61.067z"/>
					<circle fill="#67727B" cx="177.596" cy="-96.018" r="1.243"/>
					
						<line fill="none" stroke="#C5C4C4" stroke-width="4.9953" stroke-miterlimit="10" stroke-dasharray="0.7136,1.4272" x1="187.967" y1="-84.38" x2="187.967" y2="-76.54"/>
					
						<radialGradient id="SVGID_27_" cx="683.7412" cy="-64.1035" r="8.746" gradientTransform="matrix(-1 0 0 1 867.1328 0)" gradientUnits="userSpaceOnUse">
						<stop  offset="0" style="stop-color:#D7D7D7"/>
						<stop  offset="0.696" style="stop-color:#D4D3D3"/>
						<stop  offset="1" style="stop-color:#D0CFCF"/>
					</radialGradient>
					<path fill="url(#SVGID_27_)" d="M195.355-63.577c0,0-17.427,0.104-23.771-3.621l-0.168,3.289c0,0,3.717,3.379,23.72,2.842
						C195.135-61.067,195.43-62.18,195.355-63.577z"/>
				</g>
			</g>
			<g>
				<polyline fill="none" stroke="#BEBDBE" stroke-width="0.6723" stroke-miterlimit="10" points="250.52,-63.729 250.52,-55.798 
					256.48,-49.838 256.48,-38.511 				"/>
				<polyline fill="none" stroke="#BEBDBE" stroke-width="0.6723" stroke-miterlimit="10" points="230.354,-63.729 230.354,-55.798 
					224.393,-49.838 224.393,-38.511 				"/>
				<polyline fill="none" stroke="#BEBDBE" stroke-width="0.6723" stroke-miterlimit="10" points="256.48,-43.179 264.064,-50.764 
					264.064,-78.495 				"/>
				<polyline fill="none" stroke="#BEBDBE" stroke-width="0.6723" stroke-miterlimit="10" points="224.393,-43.179 216.809,-50.764 
					216.809,-78.495 				"/>
				<polyline fill="none" stroke="#BEBDBE" stroke-width="0.6723" stroke-miterlimit="10" points="264.064,-65.098 270.686,-70.363 
					270.686,-77.634 				"/>
				<polyline fill="none" stroke="#BEBDBE" stroke-width="0.6723" stroke-miterlimit="10" points="216.809,-65.098 210.188,-70.363 
					210.188,-77.634 				"/>
			</g>
			<g>
				<linearGradient id="SVGID_28_" gradientUnits="userSpaceOnUse" x1="240.4526" y1="-119.0381" x2="240.4526" y2="-59.5842">
					<stop  offset="0" style="stop-color:#8C8D8D"/>
					<stop  offset="0.2675" style="stop-color:#9A9A9A"/>
					<stop  offset="0.6219" style="stop-color:#A5A5A5"/>
					<stop  offset="1" style="stop-color:#A9A9A9"/>
				</linearGradient>
				<polygon opacity="0.76" fill="url(#SVGID_28_)" points="244.563,-90.171 236.344,-90.171 236.344,-66.818 240.453,-65.098 
					244.563,-66.818 				"/>
				
					<line fill="none" stroke="#8A8B8B" stroke-width="4.9953" stroke-miterlimit="10" stroke-dasharray="0.7136,1.4272" x1="240.453" y1="-70.363" x2="240.453" y2="-87.199"/>
				<linearGradient id="SVGID_29_" gradientUnits="userSpaceOnUse" x1="252.46" y1="-63.1797" x2="252.46" y2="-93.4729">
					<stop  offset="0" style="stop-color:#BEBDBE"/>
					<stop  offset="0.4407" style="stop-color:#BAB9BA"/>
					<stop  offset="0.8537" style="stop-color:#AFAFAF"/>
					<stop  offset="1" style="stop-color:#A9A9A9"/>
				</linearGradient>
				<polygon opacity="0.76" fill="url(#SVGID_29_)" points="244.563,-66.818 250.52,-60.861 253.99,-70.363 260.357,-74.725 
					248.449,-90.171 244.563,-90.171 				"/>
				<linearGradient id="SVGID_30_" gradientUnits="userSpaceOnUse" x1="228.4468" y1="-63.1797" x2="228.4468" y2="-93.4729">
					<stop  offset="0" style="stop-color:#BEBDBE"/>
					<stop  offset="0.4407" style="stop-color:#BAB9BA"/>
					<stop  offset="0.8537" style="stop-color:#AFAFAF"/>
					<stop  offset="1" style="stop-color:#A9A9A9"/>
				</linearGradient>
				<polygon opacity="0.76" fill="url(#SVGID_30_)" points="236.344,-66.818 230.387,-60.861 226.917,-70.363 220.549,-74.725 
					232.459,-90.171 236.344,-90.171 				"/>
				
					<radialGradient id="SVGID_31_" cx="240.7773" cy="-135.9238" r="42.6085" gradientTransform="matrix(1 0 0 0.4148 0 -79.5448)" gradientUnits="userSpaceOnUse">
					<stop  offset="0" style="stop-color:#A9A9A9"/>
					<stop  offset="0.134" style="stop-color:#B5B5B5"/>
					<stop  offset="0.4109" style="stop-color:#C8C8C8"/>
					<stop  offset="0.6961" style="stop-color:#D3D3D3"/>
					<stop  offset="1" style="stop-color:#D7D7D7"/>
				</radialGradient>
				<path fill="url(#SVGID_31_)" d="M286.324-119.518l-5.082-16.831c-0.609-2.024-1.959-3.532-3.605-4.032l-29.258-8.885
					l-7.318-0.282v-0.003l-0.607-0.023l-0.037,0.001l-0.037-0.001l-0.607,0.023v0.003l-7.316,0.282l-29.259,8.885
					c-1.646,0.5-2.994,2.008-3.605,4.032l-5.082,16.831c-1.762,5.831-1.759,12.298,0.008,18.128l6.339,20.93l0,0l19.62,5.735
					l6.174-5.735l5.736-9.711l8.031-5.412l8.033,5.412l5.734,9.711l6.174,5.735l19.621-5.735l0,0l6.34-20.93
					C288.084-107.22,288.086-113.687,286.324-119.518z"/>
				<g>
					<circle fill="#2080BE" cx="264.781" cy="-121.469" r="1.243"/>
					<circle fill="#009A51" cx="270.518" cy="-121.469" r="1.243"/>
				</g>
				<g>
					<path fill="#C8C8C8" d="M271.273-92.042c-0.146,0-0.293-0.057-0.404-0.169c-0.225-0.224-0.225-0.587,0-0.812l4.373-4.374
						c0.225-0.224,0.588-0.224,0.813,0c0.223,0.224,0.223,0.587,0,0.812l-4.375,4.374C271.568-92.099,271.42-92.042,271.273-92.042z
						"/>
					<path fill="#C8C8C8" d="M271.273-99.939c-0.146,0-0.293-0.056-0.404-0.168c-0.225-0.224-0.225-0.587,0-0.812l4.373-4.374
						c0.225-0.224,0.588-0.224,0.813,0c0.223,0.224,0.223,0.587,0,0.812l-4.375,4.374C271.568-99.995,271.42-99.939,271.273-99.939z
						"/>
					<path fill="#C8C8C8" d="M271.273-95.991c-0.146,0-0.293-0.056-0.404-0.168c-0.225-0.225-0.225-0.587,0-0.811l4.373-4.375
						c0.225-0.225,0.588-0.225,0.813,0c0.223,0.224,0.223,0.588,0,0.811l-4.375,4.375C271.568-96.047,271.42-95.991,271.273-95.991z
						"/>
					<path fill="#C8C8C8" d="M209.633-92.042c-0.146,0-0.294-0.057-0.406-0.169l-4.373-4.374c-0.225-0.225-0.225-0.588,0-0.812
						s0.586-0.224,0.811,0l4.374,4.374c0.224,0.225,0.224,0.588,0,0.812C209.926-92.099,209.78-92.042,209.633-92.042z"/>
					<path fill="#C8C8C8" d="M209.633-99.939c-0.146,0-0.294-0.056-0.406-0.168l-4.373-4.374c-0.225-0.225-0.225-0.588,0-0.812
						s0.586-0.224,0.811,0l4.374,4.374c0.224,0.225,0.224,0.588,0,0.812C209.926-99.995,209.78-99.939,209.633-99.939z"/>
					<path fill="#C8C8C8" d="M209.633-95.991c-0.146,0-0.294-0.056-0.406-0.168l-4.373-4.375c-0.225-0.223-0.225-0.587,0-0.811
						c0.225-0.225,0.586-0.225,0.811,0l4.374,4.375c0.224,0.224,0.224,0.586,0,0.811C209.926-96.047,209.78-95.991,209.633-95.991z"
						/>
				</g>
				<polygon fill="#E0E0DF" points="200.855,-80.46 206.041,-83.472 218.516,-83.472 231.047,-87.905 226.649,-80.46 
					220.475,-74.725 				"/>
				<polygon fill="#E0E0DF" points="279.877,-80.46 274.691,-83.472 262.217,-83.472 249.686,-87.905 254.084,-80.46 
					260.258,-74.725 				"/>
				<g>
					<circle fill="#626262" cx="248.712" cy="-82.102" r="1.94"/>
					<circle fill="#626262" cx="255.806" cy="-91.09" r="1.94"/>
					<path fill="none" stroke="#929297" stroke-width="2.1408" stroke-linecap="round" stroke-miterlimit="10" d="M248.711-82.101
						c0,0,8.107-1.641,7.094-8.99"/>
				</g>
				<linearGradient id="SVGID_32_" gradientUnits="userSpaceOnUse" x1="240.4175" y1="-89.958" x2="240.4175" y2="-98.2403">
					<stop  offset="0" style="stop-color:#9D9D9D"/>
					<stop  offset="0.2768" style="stop-color:#999999"/>
					<stop  offset="0.5367" style="stop-color:#8E8E8E"/>
					<stop  offset="0.7889" style="stop-color:#7B7B7B"/>
					<stop  offset="1" style="stop-color:#656565"/>
				</linearGradient>
				<polygon fill="url(#SVGID_32_)" points="232.385,-90.171 248.449,-90.171 240.416,-95.583 				"/>
				<g>
					<circle fill="#BAB9BA" cx="210.39" cy="-121.469" r="1.243"/>
					<circle fill="#BAB9BA" cx="216.125" cy="-121.469" r="1.243"/>
				</g>
				<polyline fill="none" stroke="#C5C4C4" stroke-width="0.7136" stroke-miterlimit="10" points="240.453,-116.737 
					249.818,-126.101 270.852,-126.101 281.172,-136.42 				"/>
				<polyline fill="none" stroke="#C5C4C4" stroke-width="0.7136" stroke-miterlimit="10" points="240.334,-116.737 
					230.971,-126.101 209.936,-126.101 199.618,-136.42 				"/>
				<polyline fill="none" stroke="#C5C4C4" stroke-width="0.7136" stroke-miterlimit="10" points="248.449,-90.171 260.076,-101.8 
					260.076,-126.101 				"/>
				<polyline fill="none" stroke="#C5C4C4" stroke-width="0.7136" stroke-miterlimit="10" points="232.598,-90.171 220.97,-101.8 
					220.97,-126.101 				"/>
				
					<line fill="none" stroke="#C5C4C4" stroke-width="0.7136" stroke-miterlimit="10" x1="240.416" y1="-95.55" x2="240.416" y2="-102.351"/>
				<g>
					<polyline fill="none" stroke="#C5C4C4" stroke-width="0.7136" stroke-miterlimit="10" points="259.945,-107.561 
						267.564,-115.103 276.17,-117.142 276.17,-131.229 					"/>
					<polyline fill="none" stroke="#C5C4C4" stroke-width="0.7136" stroke-miterlimit="10" points="220.961,-107.561 
						213.343,-115.103 204.737,-117.142 204.737,-131.229 					"/>
				</g>
				<linearGradient id="SVGID_33_" gradientUnits="userSpaceOnUse" x1="240.4536" y1="-126.3311" x2="240.4536" y2="-97.5211">
					<stop  offset="0" style="stop-color:#3FBA61"/>
					<stop  offset="0.0763" style="stop-color:#36B572"/>
					<stop  offset="0.2519" style="stop-color:#25AB94"/>
					<stop  offset="0.4312" style="stop-color:#17A4AF"/>
					<stop  offset="0.6135" style="stop-color:#0E9EC2"/>
					<stop  offset="0.8007" style="stop-color:#089BCD"/>
					<stop  offset="1" style="stop-color:#069AD1"/>
				</linearGradient>
				
					<circle fill="url(#SVGID_33_)" stroke="#F2F2F2" stroke-width="3.3615" stroke-miterlimit="10" cx="240.454" cy="-111.623" r="9.272"/>
			</g>
			<g>
				<path fill="none" stroke="#929297" stroke-width="2.1408" stroke-linecap="round" stroke-miterlimit="10" d="M289.305-186.584
					c0,0,5.205-18.16-7.584-18.098"/>
				<path fill="none" stroke="#037C9D" stroke-width="2.1408" stroke-linecap="round" stroke-miterlimit="10" d="M189.116-185.564
					c0,0-4.057-14.35,8.725-16.919"/>
				<path fill="#E6E6E6" d="M292.646-186.025l-9.678-17.909c-6.498-12.022-17.781-20.731-31.057-23.971l0,0
					c-7.527-1.838-15.389-1.838-22.917,0l0,0c-13.275,3.24-24.559,11.949-31.055,23.971l-9.68,17.909l-8.412,3.984l6.118,28.678
					l4.589,3.206l32.501,14.952l0.554,0.183c10.939,3.606,22.748,3.606,33.687,0l0.555-0.183l32.502-14.952l4.588-3.206
					l6.117-28.678L292.646-186.025z"/>
				<radialGradient id="SVGID_34_" cx="185.2017" cy="-168.0913" r="13.2343" gradientUnits="userSpaceOnUse">
					<stop  offset="0" style="stop-color:#D7D7D7"/>
					<stop  offset="0.696" style="stop-color:#D4D3D3"/>
					<stop  offset="1" style="stop-color:#D0CFCF"/>
				</radialGradient>
				<polygon fill="url(#SVGID_34_)" points="188.26,-186.025 190.555,-150.157 185.966,-153.363 179.848,-182.041 				"/>
				<radialGradient id="SVGID_35_" cx="295.7061" cy="-168.0913" r="13.2341" gradientUnits="userSpaceOnUse">
					<stop  offset="0" style="stop-color:#D7D7D7"/>
					<stop  offset="0.696" style="stop-color:#D4D3D3"/>
					<stop  offset="1" style="stop-color:#D0CFCF"/>
				</radialGradient>
				<polygon fill="url(#SVGID_35_)" points="292.646,-186.025 290.354,-150.157 294.941,-153.363 301.059,-182.041 				"/>
				
					<line fill="none" stroke="#D0CFCF" stroke-width="4.9953" stroke-miterlimit="10" stroke-dasharray="0.7136,1.4272" x1="268.836" y1="-189.357" x2="268.836" y2="-202.679"/>
				
					<line fill="none" stroke="#D0CFCF" stroke-width="4.9953" stroke-miterlimit="10" stroke-dasharray="0.7136,1.4272" x1="212.071" y1="-189.357" x2="212.071" y2="-202.679"/>
				<radialGradient id="SVGID_36_" cx="240.4531" cy="-185.0615" r="16.6332" gradientUnits="userSpaceOnUse">
					<stop  offset="0" style="stop-color:#D7D7D7"/>
					<stop  offset="0.696" style="stop-color:#D4D3D3"/>
					<stop  offset="1" style="stop-color:#D0CFCF"/>
				</radialGradient>
				<path fill="url(#SVGID_36_)" d="M219.877-196.46L219.877-196.46c12.89,6.737,28.261,6.737,41.152,0l0,0v17.207l-20.576,5.592
					l-20.576-4.301V-196.46z"/>
				<path fill="#D0CFCF" d="M262.033-224.184c-0.66-0.33-1.33-0.642-2.008-0.942v45.872h2.008V-224.184z"/>
				<path fill="#D0CFCF" d="M218.874-224.184v44.93h2.008v-45.872C220.205-224.826,219.535-224.514,218.874-224.184z"/>
				<polygon opacity="0.5" fill="#E6E6E6" points="179.848,-182.041 188.26,-186.025 188.388,-184.033 180.033,-181.178 				"/>
				<polygon opacity="0.5" fill="#E6E6E6" points="301.059,-182.041 292.646,-186.025 292.52,-184.033 300.875,-181.178 				"/>
				<g>
					<path fill="#E0E0DF" d="M240.453-232.594L240.453-232.594c-4.355,0-7.885,3.531-7.885,7.886l0,0
						c0,8.872,2.689,17.536,7.717,24.847l0.168,0.246l0.17-0.246c5.025-7.311,7.717-15.975,7.717-24.847l0,0
						C248.34-229.063,244.809-232.594,240.453-232.594z"/>
					<path fill="#F2F2F2" d="M240.623-199.861c5.025-7.311,7.717-15.975,7.717-24.847c0-4.355-3.531-7.886-7.887-7.886v32.979
						L240.623-199.861z"/>
				</g>
				<circle fill="#E6E6E6" cx="240.453" cy="-183.842" r="1.721"/>
				<circle fill="#E6E6E6" cx="234.719" cy="-184.416" r="1.721"/>
				<circle fill="#E6E6E6" cx="246.189" cy="-184.416" r="1.721"/>
				<path fill="#F2F2F2" d="M240.453-176.052l-38.284-7.791l3.871,23.467l16.92,20.122l8.352,2.123
					c5.998,1.524,12.283,1.524,18.281,0l8.354-2.123l16.92-20.122l3.871-23.467L240.453-176.052z"/>
				<g>
					<rect x="239.594" y="-162.184" fill="#E6E6E6" width="1.721" height="9.231"/>
				</g>
				<polygon fill="#E6E6E6" points="251.398,-178.279 251.398,-165.394 253.119,-165.394 253.119,-178.629 				"/>
				<polygon fill="#E6E6E6" points="227.788,-178.629 227.788,-165.394 229.508,-165.394 229.508,-178.279 				"/>
				<g>
					<linearGradient id="SVGID_37_" gradientUnits="userSpaceOnUse" x1="210.564" y1="-165.5957" x2="270.3438" y2="-165.5957">
						<stop  offset="0" style="stop-color:#3FBA61"/>
						<stop  offset="0.0763" style="stop-color:#36B572"/>
						<stop  offset="0.2519" style="stop-color:#25AB94"/>
						<stop  offset="0.4312" style="stop-color:#17A4AF"/>
						<stop  offset="0.6135" style="stop-color:#0E9EC2"/>
						<stop  offset="0.8007" style="stop-color:#089BCD"/>
						<stop  offset="1" style="stop-color:#069AD1"/>
					</linearGradient>
					<path fill="url(#SVGID_37_)" d="M240.454-161.139c-6.07,0-12.155-0.651-18.088-1.936l-9.873-2.138
						c-0.987-0.214-1.731-0.996-1.896-1.992c-0.118-0.711,0.082-1.433,0.547-1.981c0.467-0.551,1.146-0.866,1.862-0.866
						c0.162,0,0.326,0.016,0.492,0.05l10.322,2.101c5.462,1.111,11.059,1.675,16.634,1.675c5.574,0,11.171-0.563,16.633-1.675
						l10.321-2.101c0.167-0.034,0.332-0.05,0.493-0.05c0.716,0,1.395,0.315,1.861,0.865c0.465,0.548,0.665,1.27,0.548,1.98
						c-0.163,0.998-0.907,1.78-1.896,1.994l-9.873,2.138C252.609-161.791,246.523-161.139,240.454-161.139z"/>
					<path fill="#E6E6E6" d="M267.901-169.016c0.845,0,1.532,0.763,1.388,1.642c-0.094,0.571-0.527,1.027-1.094,1.149l-9.873,2.138
						c-5.888,1.274-11.878,1.912-17.868,1.912s-11.98-0.638-17.869-1.912l-9.873-2.138c-0.565-0.123-0.999-0.578-1.094-1.149
						c-0.145-0.879,0.542-1.642,1.388-1.642c0.093,0,0.189,0.009,0.286,0.029l10.321,2.101c5.556,1.13,11.198,1.696,16.84,1.696
						c5.642,0,11.283-0.565,16.839-1.696l10.322-2.101C267.712-169.007,267.808-169.016,267.901-169.016 M267.901-171.087
						c-0.233,0-0.469,0.023-0.698,0.07l-10.323,2.101c-5.394,1.098-10.921,1.654-16.426,1.654c-5.506,0-11.033-0.557-16.427-1.654
						l-10.321-2.101c-0.231-0.047-0.466-0.071-0.699-0.071c-1.021,0-1.988,0.449-2.652,1.231c-0.662,0.781-0.946,1.808-0.779,2.819
						c0.235,1.419,1.294,2.532,2.699,2.836l9.873,2.138c6.004,1.3,12.164,1.959,18.307,1.959s12.303-0.659,18.307-1.959l9.873-2.138
						c1.406-0.305,2.466-1.418,2.699-2.838c0.166-1.011-0.119-2.039-0.781-2.819C269.888-170.639,268.922-171.087,267.901-171.087
						L267.901-171.087z"/>
				</g>
				<g>
					<radialGradient id="SVGID_38_" cx="240.4541" cy="-145.269" r="13.668" gradientUnits="userSpaceOnUse">
						<stop  offset="0" style="stop-color:#D7D7D7"/>
						<stop  offset="0.4871" style="stop-color:#D3D3D3"/>
						<stop  offset="0.9436" style="stop-color:#C8C8C8"/>
						<stop  offset="1" style="stop-color:#C6C6C6"/>
					</radialGradient>
					<path fill="url(#SVGID_38_)" d="M254.697-148.521l-14.244-4.971l-14.243,4.971l-3.25,8.269l4.726,1.526
						c2.408,0.777,4.904,1.25,7.429,1.407l3.453,0.215c1.256,0.079,2.516,0.079,3.771,0l3.451-0.215
						c2.525-0.157,5.021-0.63,7.43-1.407l4.727-1.526L254.697-148.521z"/>
					<polygon fill="#D8D8D8" points="254.697,-148.521 274.867,-160.375 257.947,-140.253 					"/>
					<polygon fill="#D8D8D8" points="226.21,-148.521 206.041,-160.375 222.96,-140.253 					"/>
					
						<line fill="none" stroke="#BAB9BA" stroke-width="9.277" stroke-miterlimit="10" stroke-dasharray="0.7136,1.4272" x1="240.453" y1="-140.253" x2="240.453" y2="-148.354"/>
					<circle fill="#BAB9BA" cx="249.057" cy="-143.891" r="0.805"/>
					<circle fill="#BAB9BA" cx="231.851" cy="-143.891" r="0.804"/>
				</g>
			</g>
			<path fill="#ADADAD" d="M263.707-41.3v6.33l-5.879,1.686c-11.441,3.277-23.307,3.277-34.749,0l-5.88-1.686v-6.33l12.81,2.886
				c6.91,1.556,13.979,1.556,20.887,0L263.707-41.3z"/>
		</g>
		<polyline fill="none" stroke="#C5C4C4" stroke-miterlimit="10" points="258.557,-101.978 263.262,-106.087 263.262,-112.507 		"/>
		<polyline fill="none" stroke="#C5C4C4" stroke-miterlimit="10" points="219.968,-101.978 215.262,-106.087 215.262,-112.507 		"/>
	</g>
	
		<linearGradient id="SVGID_39_" gradientUnits="userSpaceOnUse" x1="1247.8262" y1="767.3994" x2="1247.8262" y2="890.189" gradientTransform="matrix(-1 0 0 1 1488.1328 -930.3169)">
		<stop  offset="0" style="stop-color:#46A4BA"/>
		<stop  offset="1" style="stop-color:#257788;stop-opacity:0"/>
	</linearGradient>
	<polygon opacity="0.6" fill="url(#SVGID_39_)" points="0.289,-38.966 240.627,-163.045 480.324,-38.966 	"/>
</g>
</svg>
