<?xml version="1.0" encoding="utf-8"?>
<!-- Generator: Adobe Illustrator 17.1.0, SVG Export Plug-In . SVG Version: 6.00 Build 0)  -->
<!DOCTYPE svg PUBLIC "-//W3C//DTD SVG 1.1//EN" "http://www.w3.org/Graphics/SVG/1.1/DTD/svg11.dtd">
<svg version="1.1" id="Layer_1" xmlns="http://www.w3.org/2000/svg" xmlns:xlink="http://www.w3.org/1999/xlink" x="0px" y="0px"
	 viewBox="0 0 370.5 220.7" enable-background="new 0 0 370.5 220.7" xml:space="preserve">
<g>
	<g>
		<defs>
			<path id="SVGID_1_" d="M370.5,213.3v7.3c0,0-370.5,0-365.5,0c0,0-5,0-5,0V7.3C0,7.3,0,0,0,0l370.5,0l0,7.3V213.3z"/>
		</defs>
		<clipPath id="SVGID_2_">
			<use xlink:href="#SVGID_1_"  overflow="visible"/>
		</clipPath>
		<radialGradient id="SVGID_3_" cx="182.9874" cy="111.7788" r="168.5375" gradientUnits="userSpaceOnUse">
			<stop  offset="0" style="stop-color:#143054"/>
			<stop  offset="1" style="stop-color:#0F2845"/>
		</radialGradient>
		<rect x="-19.4" y="-14" clip-path="url(#SVGID_2_)" fill="url(#SVGID_3_)" width="404.9" height="251.6"/>
		<g id="XMLID_14488_" opacity="0.5" clip-path="url(#SVGID_2_)">
			
				<line id="XMLID_14496_" opacity="0.1" fill="#BED23A" stroke="#FFFFFF" stroke-miterlimit="10" x1="26.9" y1="245" x2="26.9" y2="-23.4"/>
			
				<line id="XMLID_14495_" opacity="0.1" fill="#BED23A" stroke="#FFFFFF" stroke-miterlimit="10" x1="71.9" y1="245" x2="71.9" y2="-23.4"/>
			
				<line id="XMLID_14494_" opacity="0.1" fill="#BED23A" stroke="#FFFFFF" stroke-miterlimit="10" x1="116.9" y1="245" x2="116.9" y2="-23.4"/>
			
				<line id="XMLID_14493_" opacity="0.1" fill="#BED23A" stroke="#FFFFFF" stroke-miterlimit="10" x1="161.9" y1="245" x2="161.9" y2="-23.4"/>
			
				<line id="XMLID_14492_" opacity="0.1" fill="#BED23A" stroke="#FFFFFF" stroke-miterlimit="10" x1="206.9" y1="245" x2="206.9" y2="-23.4"/>
			
				<line id="XMLID_14491_" opacity="0.1" fill="#BED23A" stroke="#FFFFFF" stroke-miterlimit="10" x1="251.9" y1="245" x2="251.9" y2="-23.4"/>
			
				<line id="XMLID_14490_" opacity="0.1" fill="#BED23A" stroke="#FFFFFF" stroke-miterlimit="10" x1="296.9" y1="245" x2="296.9" y2="-23.4"/>
			
				<line id="XMLID_14489_" opacity="0.1" fill="#BED23A" stroke="#FFFFFF" stroke-miterlimit="10" x1="341.9" y1="245" x2="341.9" y2="-23.4"/>
		</g>
		
			<rect id="XMLID_14536_" x="291.8" y="20" opacity="0.6" clip-path="url(#SVGID_2_)" fill="none" stroke="#1C5D9D" stroke-width="1.7857" stroke-miterlimit="10" width="57.8" height="14.3"/>
		<rect id="XMLID_14535_" x="309.8" y="23.9" opacity="0.4" clip-path="url(#SVGID_2_)" fill="#BED23A" width="36.7" height="2"/>
		<rect id="XMLID_14534_" x="309.8" y="28.1" opacity="0.4" clip-path="url(#SVGID_2_)" fill="#BED23A" width="36.7" height="2"/>
		<rect id="XMLID_14487_" x="17" y="23.9" opacity="0.6" clip-path="url(#SVGID_2_)" fill="#1C5D9D" width="36.7" height="2"/>
		<rect id="XMLID_14486_" x="17" y="28.1" opacity="0.6" clip-path="url(#SVGID_2_)" fill="#1C5D9D" width="20.3" height="2"/>
		<g opacity="0.65" clip-path="url(#SVGID_2_)">
			<g>
				
					<radialGradient id="SVGID_4_" cx="272.4288" cy="110.3067" r="80.2776" gradientTransform="matrix(1.0194 0 0 1 -93.3165 0)" gradientUnits="userSpaceOnUse">
					<stop  offset="0" style="stop-color:#1F2733"/>
					<stop  offset="1" style="stop-color:#141921"/>
				</radialGradient>
				<path fill="url(#SVGID_4_)" d="M262.9,33.3h-6.5v12.8h-19.6V33.3H132.1v12.8h-19.6V33.3h-6.5c-3.6,0-6.5,2.9-6.5,6.4v141.2
					c0,3.5,2.9,6.4,6.5,6.4h6.5v-6.4h19.6v6.4h104.7v-6.4h19.6v6.4h6.5c3.6,0,6.5-2.9,6.5-6.4V39.7
					C269.4,36.2,266.5,33.3,262.9,33.3z M132.1,161.6h-19.6v-19.3h19.6V161.6z M132.1,123.1h-19.6v-19.3h19.6V123.1z M132.1,84.6
					h-19.6V65.4h19.6V84.6z M256.4,161.6h-19.6v-19.3h19.6V161.6z M256.4,123.1h-19.6v-19.3h19.6V123.1z M256.4,84.6h-19.6V65.4
					h19.6V84.6z"/>
			</g>
		</g>
	</g>
</g>
</svg>
