<?xml version="1.0" encoding="utf-8"?>
<!-- Generator: Adobe Illustrator 19.0.0, SVG Export Plug-In . SVG Version: 6.00 Build 0)  -->
<!DOCTYPE svg PUBLIC "-//W3C//DTD SVG 1.1//EN" "http://www.w3.org/Graphics/SVG/1.1/DTD/svg11.dtd">
<svg version="1.1" id="Layer_1" xmlns="http://www.w3.org/2000/svg" xmlns:xlink="http://www.w3.org/1999/xlink" x="0px" y="0px"
	 viewBox="0 0 53 53.1" enable-background="new 0 0 53 53.1" xml:space="preserve">
<g>
	<g>
		<path id="XMLID_29_" fill="#B1D468" d="M19.7,39c-1.8,0-3.6-0.4-5.1-1.3c-2.4-1.3-4.1-3.3-5-5.8C4.1,31.3,0,26.8,0,21.3
			c0-4.9,3.3-9.1,7.9-10.3C8.8,4.8,14.2,0,20.7,0c4,0,7.8,1.9,10.2,5C32.2,4.4,33.7,4,35.2,4c4.3,0,8.2,2.7,9.7,6.7
			c4.5,1.1,7.8,5.1,7.8,9.8c0,2.7-1,5.2-2.9,7.1c-0.8,0.8-2.1,0.8-2.9,0s-0.8-2.1,0-2.9c1.1-1.1,1.7-2.6,1.7-4.2
			c0-3.1-2.3-5.7-5.5-6c-0.9-0.1-1.6-0.7-1.8-1.6c-0.6-2.8-3.2-4.8-6.1-4.8c-1.4,0-2.6,0.4-3.7,1.2c-0.5,0.4-1.1,0.5-1.7,0.4
			c-0.6-0.1-1.1-0.5-1.4-1c-1.5-2.8-4.5-4.6-7.8-4.6c-4.8,0-8.7,3.9-8.8,8.6c0,1-0.8,1.9-1.8,2c-3.4,0.4-5.9,3.2-5.9,6.6
			c0,3.6,3,6.6,6.7,6.6c0.1,0,0.2,0,0.2,0c1,0,1.8,0.7,2,1.7c0.4,1.9,1.6,3.6,3.4,4.5c2.3,1.2,5.3,1,7.4-0.7
			c0.9-0.7,2.2-0.6,2.9,0.3c0.7,0.9,0.6,2.2-0.3,2.9C24.5,38.2,22.1,39,19.7,39z"/>
	</g>
	<g>
		<polygon id="XMLID_28_" fill="#B1D468" points="40.7,34.9 35.4,34.9 40.5,26.7 34,26.7 28.7,39 33.2,39 30.6,49 		"/>
	</g>
	<g>
		<polygon id="XMLID_27_" fill="#B1D468" points="53,39 47.7,39 52.8,30.8 46.3,30.8 41,43.1 45.6,43.1 43,53.1 		"/>
	</g>
</g>
</svg>
