<?xml version="1.0" encoding="utf-8"?>
<!-- Generator: Adobe Illustrator 17.1.0, SVG Export Plug-In . SVG Version: 6.00 Build 0)  -->
<!DOCTYPE svg PUBLIC "-//W3C//DTD SVG 1.1//EN" "http://www.w3.org/Graphics/SVG/1.1/DTD/svg11.dtd">
<svg version="1.1" id="Layer_1" xmlns="http://www.w3.org/2000/svg" xmlns:xlink="http://www.w3.org/1999/xlink" x="0px" y="0px"
	 viewBox="0 0 800 262.3" enable-background="new 0 0 800 262.3" xml:space="preserve">
<g>
	<g>
		<g id="XMLID_11980_">
			<radialGradient id="XMLID_2_" cx="162.457" cy="112.878" r="106.8547" gradientUnits="userSpaceOnUse">
				<stop  offset="0" style="stop-color:#153154"/>
				<stop  offset="0.2808" style="stop-color:#204980"/>
				<stop  offset="1" style="stop-color:#112845"/>
			</radialGradient>
			<circle id="XMLID_11991_" fill="url(#XMLID_2_)" cx="147.3" cy="150" r="106.9"/>
			<g id="XMLID_11981_">
				<path id="XMLID_11982_" fill="#F5FBFD" d="M102.3,179c-24.2,0-21.5-23-21.5-23s5.8,7.3,19.9,7.3c9.5,0,17.2-3.9,23.9-15.1
					c-6.7-11.6-14.3-15.1-24-15.1c-12.6,0-19.7,7.3-19.7,7.3s-2.7-23.1,21.5-23.1c27.3,0,38.1,27.5,38.1,30.8
					C140.4,151.4,129.4,179,102.3,179z M175.3,209.3c0,0,5.6-7.5,1.9-21.1c-2.5-9.2-8.2-15.6-20.8-19.1c-9.4,9.4-10.9,17.7-8.3,27.1
					c3.3,12.2,12.2,17.1,12.2,17.1s-21.6,8.6-27.8-14.7c-7.1-26.4,16.6-44,19.8-44.8c3-0.8,32.6,2.7,39.7,28.8
					C198.2,205.9,175.3,209.3,175.3,209.3z M195.3,129c-13.9,23.5-43.1,18.8-45.9,17.2c-2.7-1.6-20.9-25.2-7.1-48.5
					c12.3-20.8,30.8-6.8,30.8-6.8s-9.3,1.3-16.4,13.4c-4.8,8.2-5.4,16.8,0.9,28.2c13.3,0.1,20.3-4.6,25.2-13
					c6.4-10.9,3.7-20.7,3.7-20.7S207.6,108.2,195.3,129z"/>
			</g>
		</g>
		<linearGradient id="XMLID_3_" gradientUnits="userSpaceOnUse" x1="205.7411" y1="100.8234" x2="63.084" y2="160.2639">
			<stop  offset="0" style="stop-color:#B9D131"/>
			<stop  offset="1" style="stop-color:#DFE355;stop-opacity:0.3"/>
		</linearGradient>
		<path id="XMLID_11979_" fill="url(#XMLID_3_)" d="M260.9,33.7c-91.2,37.8-239.5,84.5-246.5,152C9.9,229.2,65.2,224,65.2,224
			c-70.3,5.9-67.9-45-48-74.1C67.4,76.2,266.6,15.9,255,19.1L260.9,33.7z"/>
		<g id="XMLID_11974_">
			<polygon id="XMLID_11978_" fill="#BBD231" points="262.2,38.1 263.3,34.9 258.3,36.8 261.4,38.5 			"/>
			<path id="XMLID_11975_" fill="#BBD231" d="M265.4,30L265.4,30L265.4,30L265.4,30l3.6-2l1.5,0.4l11.6-4.4l-11.3,3.6l-0.6-0.3
				l3.1-1.7l6-6.6l-1-2.7l-8.9-0.9l-3.5,0.8l0.3-0.6l10.9-4.8l-11.6,4.4l-0.8,1.3l-4,0.9l-3-2.9l-1.8,0.7l-1.5-0.8l0,0l-0.4-0.3l0,0
				l-1-0.6l-0.8,0.3l-0.4,1.2l0,0l-0.2,0.5h0l-0.6,1.6l0,0l-12.4-5.6l-1.3-0.6l2.6-1.5l1.1,0.3l11.6-4.4l-11.3,3.6L240.8,9l5.5-3.1
				l-0.6-1.5l-14.1-0.4l-7.3,8.4l0.8,4l2.1,3.7l2.8,1.3l3-1.2l1.6-3.5l0,0l-1.3,2.8l-0.3,0.7h0l0,0l3.6,1.6l2.7,7l-1.9,4.9h0l0,0
				l0,0l0.5,0.3h0l4.2,2.2l2.6,6.9l-1.6,3.7l-3,1.2l-1.3,2.8l0.9,4.1l2,3.5l11,1.4l10.3-9.7l-0.6-1.5l-6.1,1.4l0.2-0.3l10.9-4.8
				l-11.6,4.4l-0.6,1l-2.9,0.6l6.1-13.7l6.8-2.6L265.4,30z M235.1,15.5l1.9-4.2h0L235.1,15.5L235.1,15.5z"/>
		</g>
	</g>
	<g>
		<g id="XMLID_11961_">
			<linearGradient id="XMLID_4_" gradientUnits="userSpaceOnUse" x1="308.7733" y1="135.5352" x2="308.7733" y2="269.7551">
				<stop  offset="5.642140e-02" style="stop-color:#7A7A7A"/>
				<stop  offset="0.306" style="stop-color:#DDDFE0"/>
				<stop  offset="0.4676" style="stop-color:#999B9D"/>
				<stop  offset="0.7264" style="stop-color:#DEDEDE"/>
				<stop  offset="1" style="stop-color:#000000"/>
			</linearGradient>
			<linearGradient id="XMLID_5_" gradientUnits="userSpaceOnUse" x1="296.3527" y1="187.7433" x2="321.194" y2="187.7433">
				<stop  offset="5.642140e-02" style="stop-color:#7A7A7A"/>
				<stop  offset="0.306" style="stop-color:#C8CACB"/>
				<stop  offset="0.4676" style="stop-color:#999B9D"/>
				<stop  offset="0.7264" style="stop-color:#C7C7C7"/>
				<stop  offset="0.9743" style="stop-color:#757575"/>
			</linearGradient>
			<path id="XMLID_11972_" fill="url(#XMLID_4_)" stroke="url(#XMLID_5_)" stroke-miterlimit="10" d="M320.7,243.2h-23.8v-100
				c0,0-0.2-4,3.5-7.7c3.8-3.8,8.9-3.2,8.9-3.2h11.4V243.2z"/>
			<linearGradient id="XMLID_6_" gradientUnits="userSpaceOnUse" x1="370.725" y1="135.5345" x2="370.725" y2="269.7553">
				<stop  offset="5.642140e-02" style="stop-color:#7A7A7A"/>
				<stop  offset="0.306" style="stop-color:#DDDFE0"/>
				<stop  offset="0.4676" style="stop-color:#999B9D"/>
				<stop  offset="0.7264" style="stop-color:#DEDEDE"/>
				<stop  offset="1" style="stop-color:#000000"/>
			</linearGradient>
			<linearGradient id="XMLID_7_" gradientUnits="userSpaceOnUse" x1="332.722" y1="199.6422" x2="408.7279" y2="199.6422">
				<stop  offset="5.642140e-02" style="stop-color:#7A7A7A"/>
				<stop  offset="0.306" style="stop-color:#C8CACB"/>
				<stop  offset="0.4676" style="stop-color:#999B9D"/>
				<stop  offset="0.7264" style="stop-color:#C7C7C7"/>
				<stop  offset="0.9743" style="stop-color:#757575"/>
			</linearGradient>
			<path id="XMLID_11971_" fill="url(#XMLID_6_)" stroke="url(#XMLID_7_)" stroke-miterlimit="10" d="M370.7,156.1
				c33.1,0,37.5,22.8,37.5,30.4v56.7H397c0,0-5.3,0.2-7.8-2.2c-3.2-3.2-3.2-7.9-3.2-7.9v-43.3c0-4.7-0.3-15.9-14.8-15.9
				c-11.5,0-15.8,7.9-15.8,12.6v56.7h-22.2v-53.4C333.2,181.5,336.1,156.1,370.7,156.1z"/>
			<linearGradient id="XMLID_8_" gradientUnits="userSpaceOnUse" x1="581.7791" y1="135.5352" x2="581.7791" y2="269.7556">
				<stop  offset="5.642140e-02" style="stop-color:#7A7A7A"/>
				<stop  offset="0.306" style="stop-color:#DDDFE0"/>
				<stop  offset="0.4676" style="stop-color:#999B9D"/>
				<stop  offset="0.7264" style="stop-color:#DEDEDE"/>
				<stop  offset="1" style="stop-color:#000000"/>
			</linearGradient>
			<linearGradient id="XMLID_9_" gradientUnits="userSpaceOnUse" x1="543.7766" y1="201.9564" x2="619.7816" y2="201.9564">
				<stop  offset="5.642140e-02" style="stop-color:#7A7A7A"/>
				<stop  offset="0.306" style="stop-color:#C8CACB"/>
				<stop  offset="0.4676" style="stop-color:#999B9D"/>
				<stop  offset="0.7264" style="stop-color:#C7C7C7"/>
				<stop  offset="0.9743" style="stop-color:#757575"/>
			</linearGradient>
			<path id="XMLID_11970_" fill="url(#XMLID_8_)" stroke="url(#XMLID_9_)" stroke-miterlimit="10" d="M544.3,211.8v-53.4h22.2v56.7
				c0,4.7,4.3,12.6,15.8,12.6c14.5,0,14.8-11.2,14.8-15.9v-43.3c0,0,0-4.7,3.2-7.9c2.4-2.4,7.8-2.2,7.8-2.2h11.3v56.7
				c0,7.6-4.4,30.4-37.5,30.4C547.2,245.5,544.3,220.1,544.3,211.8z"/>
			<linearGradient id="XMLID_10_" gradientUnits="userSpaceOnUse" x1="520.3464" y1="135.5346" x2="520.3464" y2="269.756">
				<stop  offset="5.642140e-02" style="stop-color:#7A7A7A"/>
				<stop  offset="0.306" style="stop-color:#DDDFE0"/>
				<stop  offset="0.4676" style="stop-color:#999B9D"/>
				<stop  offset="0.7264" style="stop-color:#DEDEDE"/>
				<stop  offset="1" style="stop-color:#000000"/>
			</linearGradient>
			<linearGradient id="XMLID_11_" gradientUnits="userSpaceOnUse" x1="508.7436" y1="187.7922" x2="531.9493" y2="187.7922">
				<stop  offset="5.642140e-02" style="stop-color:#7A7A7A"/>
				<stop  offset="0.306" style="stop-color:#C8CACB"/>
				<stop  offset="0.4676" style="stop-color:#999B9D"/>
				<stop  offset="0.7264" style="stop-color:#C7C7C7"/>
				<stop  offset="0.9743" style="stop-color:#757575"/>
			</linearGradient>
			<path id="XMLID_11968_" fill="url(#XMLID_10_)" stroke="url(#XMLID_11_)" stroke-miterlimit="10" d="M531.4,243.2h-22.2V132.4
				h12.2c0,0,4.3,0,7.4,3.1c2.6,2.6,2.6,8.5,2.6,8.5V243.2z"/>
			<linearGradient id="XMLID_12_" gradientUnits="userSpaceOnUse" x1="667.2268" y1="135.5345" x2="667.2268" y2="269.7557">
				<stop  offset="5.642140e-02" style="stop-color:#7A7A7A"/>
				<stop  offset="0.306" style="stop-color:#DDDFE0"/>
				<stop  offset="0.4676" style="stop-color:#999B9D"/>
				<stop  offset="0.7264" style="stop-color:#DEDEDE"/>
				<stop  offset="1" style="stop-color:#000000"/>
			</linearGradient>
			<linearGradient id="XMLID_13_" gradientUnits="userSpaceOnUse" x1="628.405" y1="200.9801" x2="706.0486" y2="200.9801">
				<stop  offset="5.642140e-02" style="stop-color:#7A7A7A"/>
				<stop  offset="0.306" style="stop-color:#C8CACB"/>
				<stop  offset="0.4676" style="stop-color:#999B9D"/>
				<stop  offset="0.7264" style="stop-color:#C7C7C7"/>
				<stop  offset="0.9743" style="stop-color:#757575"/>
			</linearGradient>
			<path id="XMLID_11966_" fill="url(#XMLID_12_)" stroke="url(#XMLID_13_)" stroke-miterlimit="10" d="M651.1,216.1
				c0.5,3.9,1.5,6.7,3,8.4c2.7,3,7.8,4.4,15.1,4.4c4.3,0,7.8-0.6,10.3-1.9c2.5-1.3,3.8-3.2,3.8-5.8c0-2.5-1-4.4-3.1-5.7
				c-2.1-1.3-9.7-3.5-22.9-6.7c-9.5-2.4-16.2-5.4-20.1-9c-3.9-3.5-5.8-8.6-5.8-15.3c0-7.8,3-14.6,9.1-20.2
				c6.1-5.6,14.7-8.5,25.7-8.5c10.5,0,19,2.1,25.6,6.4c6.6,4.2,10.4,11.5,11.4,21.9h-21.9c-0.3-2.9-1.1-5.1-2.4-6.8
				c-2.4-3-6.5-4.5-12.3-4.5c-4.8,0-8.2,0.8-10.2,2.3c-2,1.5-3,3.3-3,5.3c0,2.5,1.1,4.4,3.2,5.5c2.2,1.2,9.8,3.2,22.9,6.2
				c8.7,2.1,15.3,5.2,19.6,9.4c4.3,4.3,6.5,9.6,6.5,16c0,8.4-3.1,15.3-9.3,20.6c-6.2,5.3-15.7,8-28.7,8c-13.2,0-22.9-2.8-29.2-8.4
				c-6.3-5.6-9.4-12.8-9.4-21.5H651.1z"/>
			<linearGradient id="XMLID_14_" gradientUnits="userSpaceOnUse" x1="755.1077" y1="135.5346" x2="755.1077" y2="269.7562">
				<stop  offset="5.642140e-02" style="stop-color:#7A7A7A"/>
				<stop  offset="0.306" style="stop-color:#DDDFE0"/>
				<stop  offset="0.4676" style="stop-color:#999B9D"/>
				<stop  offset="0.7264" style="stop-color:#DEDEDE"/>
				<stop  offset="1" style="stop-color:#000000"/>
			</linearGradient>
			<linearGradient id="XMLID_15_" gradientUnits="userSpaceOnUse" x1="714.8705" y1="200.8239" x2="795.3448" y2="200.8239">
				<stop  offset="5.642140e-02" style="stop-color:#7A7A7A"/>
				<stop  offset="0.306" style="stop-color:#C8CACB"/>
				<stop  offset="0.4676" style="stop-color:#999B9D"/>
				<stop  offset="0.7264" style="stop-color:#C7C7C7"/>
				<stop  offset="0.9743" style="stop-color:#757575"/>
			</linearGradient>
			<path id="XMLID_11963_" fill="url(#XMLID_14_)" stroke="url(#XMLID_15_)" stroke-miterlimit="10" d="M785,232.8
				c-6.6,8.8-16.5,13.3-29.9,13.3c-13.4,0-23.3-4.4-29.9-13.3c-6.6-8.8-9.8-19.5-9.8-32c0-12.2,3.3-22.9,9.8-31.8
				c6.6-9,16.5-13.5,29.9-13.5c13.4,0,23.3,4.5,29.9,13.5c6.6,9,9.8,19.6,9.8,31.8C794.8,213.3,791.6,224,785,232.8z M768.3,220.5
				c3.1-4.6,4.6-11.2,4.6-19.7c0-8.5-1.5-15.1-4.6-19.6c-3.1-4.6-7.5-6.9-13.2-6.9c-5.7,0-10.2,2.3-13.3,6.9
				c-3.1,4.6-4.7,11.1-4.7,19.6c0,8.5,1.6,15.1,4.7,19.7c3.1,4.6,7.5,6.9,13.3,6.9C760.8,227.5,765.2,225.2,768.3,220.5z"/>
			<linearGradient id="XMLID_16_" gradientUnits="userSpaceOnUse" x1="457.0741" y1="135.5344" x2="457.0741" y2="269.7559">
				<stop  offset="5.642140e-02" style="stop-color:#7A7A7A"/>
				<stop  offset="0.306" style="stop-color:#DDDFE0"/>
				<stop  offset="0.4676" style="stop-color:#999B9D"/>
				<stop  offset="0.7264" style="stop-color:#DEDEDE"/>
				<stop  offset="1" style="stop-color:#000000"/>
			</linearGradient>
			<linearGradient id="XMLID_17_" gradientUnits="userSpaceOnUse" x1="417.7454" y1="200.8923" x2="496.5635" y2="200.8923">
				<stop  offset="5.642140e-02" style="stop-color:#7A7A7A"/>
				<stop  offset="0.306" style="stop-color:#C8CACB"/>
				<stop  offset="0.4676" style="stop-color:#999B9D"/>
				<stop  offset="0.7264" style="stop-color:#C7C7C7"/>
				<stop  offset="0.9743" style="stop-color:#757575"/>
			</linearGradient>
			<path id="XMLID_11962_" fill="url(#XMLID_16_)" stroke="url(#XMLID_17_)" stroke-miterlimit="10" d="M481.6,216.5h14.1
				c-1.1,5-3.3,9.8-6.6,14.4c-7,9.7-17.3,14.6-31,14.6c-13.7,0-23.7-4.6-30.2-12.7c-6.4-8.1-9.7-20.4-9.7-30.4
				c0-14.6,3.6-25.9,10.7-34c7.1-8.1,16.9-12.2,29.5-12.2c10.7,0,17.9,2.4,24.7,7.2c5.8,4.1,10.1,10.6,12.8,20.4h-23.3
				c-0.5-1.3-1.1-2.5-1.9-3.6c-2.5-3.4-7.4-5.1-12.7-5.1c-7.5,0-12.6,3.7-15.4,11.1c-1.5,3.9-2.2,9.2-2.2,15.7
				c0,6.2,0.7,10.7,2.2,14.4c2.7,7.1,7.7,10.6,15,10.6c3.9,0,7.6-0.8,10-2.4c1.6-1,2.3-1.8,3.2-2.4
				C472.8,220.8,475.1,216.5,481.6,216.5z"/>
		</g>
		<g>
			<g id="XMLID_11943_">
				<linearGradient id="XMLID_18_" gradientUnits="userSpaceOnUse" x1="322.4772" y1="49.2972" x2="322.4772" y2="115.9254">
					<stop  offset="5.642140e-02" style="stop-color:#7A7A7A"/>
					<stop  offset="0.306" style="stop-color:#C8CACB"/>
					<stop  offset="0.4676" style="stop-color:#999B9D"/>
					<stop  offset="0.7264" style="stop-color:#C7C7C7"/>
					<stop  offset="1" style="stop-color:#000000"/>
				</linearGradient>
				<linearGradient id="XMLID_19_" gradientUnits="userSpaceOnUse" x1="296.686" y1="82.8916" x2="348.2685" y2="82.8916">
					<stop  offset="5.642140e-02" style="stop-color:#7A7A7A"/>
					<stop  offset="0.306" style="stop-color:#C8CACB"/>
					<stop  offset="0.4676" style="stop-color:#999B9D"/>
					<stop  offset="0.7264" style="stop-color:#C7C7C7"/>
					<stop  offset="0.9743" style="stop-color:#757575"/>
				</linearGradient>
				<path id="XMLID_11959_" fill="url(#XMLID_18_)" stroke="url(#XMLID_19_)" stroke-width="0.25" stroke-miterlimit="10" d="
					M348.1,105.1h-9.7V72.2h-0.2L327,105.1h-8.6l-11.6-32.9h-0.3v32.9h-9.8V60.7H312l11,31.8l10.8-31.8h14.3V105.1z"/>
				<linearGradient id="XMLID_20_" gradientUnits="userSpaceOnUse" x1="369.4934" y1="49.2972" x2="369.4934" y2="115.9254">
					<stop  offset="5.642140e-02" style="stop-color:#7A7A7A"/>
					<stop  offset="0.306" style="stop-color:#C8CACB"/>
					<stop  offset="0.4676" style="stop-color:#999B9D"/>
					<stop  offset="0.7264" style="stop-color:#C7C7C7"/>
					<stop  offset="1" style="stop-color:#000000"/>
				</linearGradient>
				<linearGradient id="XMLID_21_" gradientUnits="userSpaceOnUse" x1="364.0226" y1="82.8916" x2="374.9642" y2="82.8916">
					<stop  offset="5.642140e-02" style="stop-color:#7A7A7A"/>
					<stop  offset="0.306" style="stop-color:#C8CACB"/>
					<stop  offset="0.4676" style="stop-color:#999B9D"/>
					<stop  offset="0.7264" style="stop-color:#C7C7C7"/>
					<stop  offset="0.9743" style="stop-color:#757575"/>
				</linearGradient>
				<path id="XMLID_11957_" fill="url(#XMLID_20_)" stroke="url(#XMLID_21_)" stroke-width="0.25" stroke-miterlimit="10" d="
					M374.8,105.1h-10.7V60.7h10.7V105.1z"/>
				<linearGradient id="XMLID_22_" gradientUnits="userSpaceOnUse" x1="406.7788" y1="49.297" x2="406.7788" y2="115.9255">
					<stop  offset="5.642140e-02" style="stop-color:#7A7A7A"/>
					<stop  offset="0.306" style="stop-color:#C8CACB"/>
					<stop  offset="0.4676" style="stop-color:#999B9D"/>
					<stop  offset="0.7264" style="stop-color:#C7C7C7"/>
					<stop  offset="1" style="stop-color:#000000"/>
				</linearGradient>
				<linearGradient id="XMLID_23_" gradientUnits="userSpaceOnUse" x1="388.4582" y1="82.8916" x2="425.0994" y2="82.8916">
					<stop  offset="5.642140e-02" style="stop-color:#7A7A7A"/>
					<stop  offset="0.306" style="stop-color:#C8CACB"/>
					<stop  offset="0.4676" style="stop-color:#999B9D"/>
					<stop  offset="0.7264" style="stop-color:#C7C7C7"/>
					<stop  offset="0.9743" style="stop-color:#757575"/>
				</linearGradient>
				<path id="XMLID_11955_" fill="url(#XMLID_22_)" stroke="url(#XMLID_23_)" stroke-width="0.25" stroke-miterlimit="10" d="
					M425,89.5v2.9c0,2.7-0.5,4.9-1.4,6.7c-1,1.8-2.4,3.2-4.2,4.1c-1.9,0.9-3.9,1.6-6.1,2c-2.2,0.4-4.9,0.6-7.9,0.6
					c-4.2,0-9.5-0.4-15.8-1.2v-8.2c7.6,1.2,12.9,1.8,15.9,1.8c5.9,0,8.9-1.5,8.9-4.6v-2.9c0-1.3-0.4-2.4-1.2-3.3
					c-0.8-0.8-2.3-1.3-4.7-1.3h-5.2c-9.8,0-14.7-3.9-14.7-11.6v-3.3c0-3.8,1.6-6.7,4.8-8.5c3.2-1.8,8.4-2.8,15.5-2.8
					c3.4,0,8.1,0.3,13.9,0.9v8c-6.9-0.8-11.7-1.2-14.3-1.2c-3.5,0-5.9,0.3-7.3,0.9c-1.3,0.6-2,1.6-2,3v3.1c0,2.3,2,3.5,5.9,3.5h5.3
					c5.2,0,8.9,1,11.1,2.9C423.9,82.9,425,85.8,425,89.5z"/>
				<linearGradient id="XMLID_24_" gradientUnits="userSpaceOnUse" x1="444.1304" y1="49.2972" x2="444.1304" y2="115.9254">
					<stop  offset="5.642140e-02" style="stop-color:#7A7A7A"/>
					<stop  offset="0.306" style="stop-color:#C8CACB"/>
					<stop  offset="0.4676" style="stop-color:#999B9D"/>
					<stop  offset="0.7264" style="stop-color:#C7C7C7"/>
					<stop  offset="1" style="stop-color:#000000"/>
				</linearGradient>
				<linearGradient id="XMLID_25_" gradientUnits="userSpaceOnUse" x1="438.6596" y1="82.8916" x2="449.6013" y2="82.8916">
					<stop  offset="5.642140e-02" style="stop-color:#7A7A7A"/>
					<stop  offset="0.306" style="stop-color:#C8CACB"/>
					<stop  offset="0.4676" style="stop-color:#999B9D"/>
					<stop  offset="0.7264" style="stop-color:#C7C7C7"/>
					<stop  offset="0.9743" style="stop-color:#757575"/>
				</linearGradient>
				<path id="XMLID_11953_" fill="url(#XMLID_24_)" stroke="url(#XMLID_25_)" stroke-width="0.25" stroke-miterlimit="10" d="
					M449.5,105.1h-10.7V60.7h10.7V105.1z"/>
				<linearGradient id="XMLID_26_" gradientUnits="userSpaceOnUse" x1="485.6313" y1="49.297" x2="485.6313" y2="115.9255">
					<stop  offset="5.642140e-02" style="stop-color:#7A7A7A"/>
					<stop  offset="0.306" style="stop-color:#C8CACB"/>
					<stop  offset="0.4676" style="stop-color:#999B9D"/>
					<stop  offset="0.7264" style="stop-color:#C7C7C7"/>
					<stop  offset="1" style="stop-color:#000000"/>
				</linearGradient>
				<linearGradient id="XMLID_27_" gradientUnits="userSpaceOnUse" x1="464.3978" y1="82.8916" x2="506.8648" y2="82.8916">
					<stop  offset="5.642140e-02" style="stop-color:#7A7A7A"/>
					<stop  offset="0.306" style="stop-color:#C8CACB"/>
					<stop  offset="0.4676" style="stop-color:#999B9D"/>
					<stop  offset="0.7264" style="stop-color:#C7C7C7"/>
					<stop  offset="0.9743" style="stop-color:#757575"/>
				</linearGradient>
				<path id="XMLID_11950_" fill="url(#XMLID_26_)" stroke="url(#XMLID_27_)" stroke-width="0.25" stroke-miterlimit="10" d="
					M506.7,73.5v19.5c0,2.5-0.7,4.7-2,6.4c-1.3,1.8-3.1,3.1-5.3,4c-2.2,0.9-4.5,1.5-6.7,1.9c-2.2,0.4-4.6,0.6-7.1,0.6
					c-2.4,0-4.6-0.1-6.7-0.4c-2.1-0.3-4.3-0.9-6.6-1.7c-2.4-0.8-4.2-2.1-5.6-4c-1.4-1.8-2.1-4.1-2.1-6.8V73.5c0-2.3,0.5-4.3,1.5-6
					c1-1.7,2.3-3.1,3.7-4c1.4-0.9,3.2-1.7,5.2-2.2c2.1-0.6,3.9-0.9,5.5-1.1c1.6-0.1,3.3-0.2,5.1-0.2c1.8,0,3.6,0.1,5.2,0.2
					c1.6,0.1,3.5,0.5,5.5,1.1c2.1,0.6,3.8,1.3,5.3,2.2c1.5,0.9,2.7,2.2,3.7,3.9C506.2,69.1,506.7,71.1,506.7,73.5z M496,92.9V73.4
					c0-2.1-0.9-3.7-2.6-4.5c-1.8-0.9-4.4-1.3-7.8-1.3c-3.5,0-6.1,0.4-7.8,1.3c-1.7,0.8-2.6,2.4-2.6,4.6v19.5c0,1.1,0.3,2.1,0.9,2.8
					c0.6,0.8,1.4,1.3,2.6,1.6c1.1,0.3,2.2,0.5,3.2,0.7c1,0.1,2.3,0.2,3.8,0.2c1.5,0,2.8-0.1,3.8-0.2c1-0.1,2.1-0.3,3.2-0.7
					c1.1-0.3,1.9-0.9,2.5-1.6C495.8,95,496,94.1,496,92.9z"/>
				<linearGradient id="XMLID_28_" gradientUnits="userSpaceOnUse" x1="542.7211" y1="49.2972" x2="542.7211" y2="115.9254">
					<stop  offset="5.642140e-02" style="stop-color:#7A7A7A"/>
					<stop  offset="0.306" style="stop-color:#C8CACB"/>
					<stop  offset="0.4676" style="stop-color:#999B9D"/>
					<stop  offset="0.7264" style="stop-color:#C7C7C7"/>
					<stop  offset="1" style="stop-color:#000000"/>
				</linearGradient>
				<linearGradient id="XMLID_29_" gradientUnits="userSpaceOnUse" x1="521.6589" y1="82.8916" x2="563.7833" y2="82.8916">
					<stop  offset="5.642140e-02" style="stop-color:#7A7A7A"/>
					<stop  offset="0.306" style="stop-color:#C8CACB"/>
					<stop  offset="0.4676" style="stop-color:#999B9D"/>
					<stop  offset="0.7264" style="stop-color:#C7C7C7"/>
					<stop  offset="0.9743" style="stop-color:#757575"/>
				</linearGradient>
				<path id="XMLID_11946_" fill="url(#XMLID_28_)" stroke="url(#XMLID_29_)" stroke-width="0.25" stroke-miterlimit="10" d="
					M563.7,105.1h-10.8l-21.5-30.8v30.8h-9.5V60.7h10.8L554.1,91V60.7h9.5V105.1z"/>
			</g>
			<linearGradient id="XMLID_30_" gradientUnits="userSpaceOnUse" x1="504.0259" y1="38.1568" x2="484.8216" y2="64.201">
				<stop  offset="5.642140e-02" style="stop-color:#7A7A7A"/>
				<stop  offset="0.306" style="stop-color:#C8CACB"/>
				<stop  offset="0.4676" style="stop-color:#999B9D"/>
				<stop  offset="0.7264" style="stop-color:#C7C7C7"/>
				<stop  offset="1" style="stop-color:#000000"/>
			</linearGradient>
			<linearGradient id="XMLID_31_" gradientUnits="userSpaceOnUse" x1="486.1892" y1="51.6539" x2="501.9214" y2="51.6539">
				<stop  offset="5.642140e-02" style="stop-color:#7A7A7A"/>
				<stop  offset="0.306" style="stop-color:#C8CACB"/>
				<stop  offset="0.4676" style="stop-color:#999B9D"/>
				<stop  offset="0.7264" style="stop-color:#C7C7C7"/>
				<stop  offset="0.9743" style="stop-color:#757575"/>
			</linearGradient>
			
				<polygon id="XMLID_11942_" fill="url(#XMLID_30_)" stroke="url(#XMLID_31_)" stroke-width="0.368" stroke-miterlimit="10" points="
				494.3,55.3 486.7,55.3 494.7,48 501.5,48 			"/>
		</g>
	</g>
</g>
</svg>
