<?xml version="1.0" encoding="utf-8"?>
<!-- Generator: Adobe Illustrator 16.0.0, SVG Export Plug-In . SVG Version: 6.00 Build 0)  -->
<!DOCTYPE svg PUBLIC "-//W3C//DTD SVG 1.1//EN" "http://www.w3.org/Graphics/SVG/1.1/DTD/svg11.dtd">
<svg version="1.1" id="Layer_1" xmlns="http://www.w3.org/2000/svg" xmlns:xlink="http://www.w3.org/1999/xlink" x="0px" y="0px"
	 width="100px" height="100px" viewBox="0 0 100 100" enable-background="new 0 0 100 100" xml:space="preserve">
<g>
	<g>
		<g>
			<path fill="#FFFFFF" d="M50.001,5.522c24.524,0,44.477,19.953,44.477,44.478c0,24.525-19.952,44.478-44.477,44.478
				C25.476,94.478,5.522,74.525,5.522,50C5.522,25.475,25.476,5.522,50.001,5.522 M50.001,0C22.386,0,0,22.386,0,50
				c0,27.615,22.386,50,50.001,50C77.614,100,100,77.615,100,50C100,22.386,77.614,0,50.001,0L50.001,0z"/>
		</g>
	</g>
	<g>
		<g>
			<g>
				<path fill="#FFFFFF" d="M51.585,56.644c-2.153,0-4.259-0.787-5.849-2.376c-0.888-0.886-0.888-2.319-0.002-3.204
					c0.885-0.885,2.319-0.885,3.203-0.001c1.549,1.546,4.233,1.377,5.985-0.377l6.988-6.988c0.936-0.932,1.469-2.148,1.469-3.339
					c0-0.71-0.189-1.742-1.088-2.642c-0.963-0.965-2.069-1.124-2.842-1.085c-1.139,0.052-2.255,0.572-3.143,1.459L52.3,42.096
					c-0.937-0.937-4.785-1.624-5.828-0.579l6.63-6.629c1.688-1.687,3.864-2.675,6.134-2.785c2.37-0.109,4.592,0.744,6.256,2.407
					c1.561,1.558,2.42,3.636,2.42,5.849c-0.001,2.384-1.021,4.769-2.8,6.543l-6.986,6.987
					C56.296,55.722,53.914,56.644,51.585,56.644z"/>
			</g>
			<g>
				<path fill="#FFFFFF" d="M48.416,43.356c2.151,0,4.259,0.787,5.85,2.377c0.887,0.885,0.885,2.318,0,3.203
					c-0.884,0.885-2.318,0.885-3.203,0c-1.547-1.544-4.231-1.375-5.985,0.378l-6.988,6.988c-0.934,0.931-1.469,2.148-1.469,3.338
					c0,0.708,0.189,1.742,1.088,2.643c0.964,0.963,2.07,1.123,2.842,1.088c1.14-0.054,2.256-0.575,3.144-1.463l4.005-4.003
					c0.937,0.936,4.786,1.623,5.83,0.578l-6.63,6.629c-1.686,1.687-3.863,2.675-6.132,2.784c-2.37,0.111-4.593-0.742-6.259-2.407
					c-1.56-1.558-2.417-3.634-2.417-5.849c0.001-2.383,1.02-4.77,2.798-6.543l6.986-6.986
					C43.705,44.282,46.088,43.356,48.416,43.356z"/>
			</g>
		</g>
	</g>
</g>
</svg>
