<?xml version="1.0" encoding="utf-8"?>
<!-- Generator: Adobe Illustrator 16.0.0, SVG Export Plug-In . SVG Version: 6.00 Build 0)  -->
<!DOCTYPE svg PUBLIC "-//W3C//DTD SVG 1.1//EN" "http://www.w3.org/Graphics/SVG/1.1/DTD/svg11.dtd">
<svg version="1.1" id="Layer_1" xmlns="http://www.w3.org/2000/svg" xmlns:xlink="http://www.w3.org/1999/xlink" x="0px" y="0px"
	 width="100px" height="100px" viewBox="0 0 100 100" enable-background="new 0 0 100 100" xml:space="preserve">
<g>
	<g>
		<path fill="#FFFFFF" d="M49.999,5.522c24.525,0,44.479,19.953,44.479,44.478c0,24.525-19.953,44.478-44.479,44.478
			C25.475,94.478,5.522,74.525,5.522,50C5.522,25.475,25.475,5.522,49.999,5.522 M49.999,0C22.385,0,0,22.386,0,50
			c0,27.615,22.385,50,49.999,50S100,77.615,100,50C100,22.386,77.613,0,49.999,0L49.999,0z"/>
	</g>
	<g>
		<g>
			<path fill="#FFFFFF" d="M66.729,33.271h-1.395v2.789h-4.183v-2.789H38.846v2.789h-4.182v-2.789h-1.394
				c-0.769,0-1.394,0.626-1.394,1.394v30.67c0,0.768,0.625,1.394,1.394,1.394h1.394v-1.394h4.182v1.394h22.305v-1.394h4.183v1.394
				h1.395c0.768,0,1.395-0.626,1.395-1.394v-30.67C68.123,33.898,67.496,33.271,66.729,33.271z M38.846,61.153h-4.182v-4.182h4.182
				V61.153z M38.846,52.788h-4.182v-4.182h4.182V52.788z M38.846,44.424h-4.182v-4.182h4.182V44.424z M56.396,50.915l-9.066,5.289
				c-0.148,0.073-0.309,0.107-0.469,0.107c-0.192,0-0.38-0.051-0.549-0.152c-0.308-0.186-0.494-0.518-0.494-0.871V44.714
				c0-0.355,0.186-0.688,0.494-0.873c0.309-0.187,0.695-0.204,1.018-0.042l9.066,5.286C56.746,49.26,56.97,49.613,56.97,50
				C56.97,50.389,56.746,50.741,56.396,50.915z M65.334,61.153h-4.183v-4.182h4.183V61.153z M65.334,52.788h-4.183v-4.182h4.183
				V52.788z M65.334,44.424h-4.183v-4.182h4.183V44.424z"/>
		</g>
	</g>
</g>
</svg>
