<?xml version="1.0" encoding="utf-8"?>
<!-- Generator: Adobe Illustrator 19.0.0, SVG Export Plug-In . SVG Version: 6.00 Build 0)  -->
<!DOCTYPE svg PUBLIC "-//W3C//DTD SVG 1.1//EN" "http://www.w3.org/Graphics/SVG/1.1/DTD/svg11.dtd">
<svg version="1.1" id="Layer_1" xmlns="http://www.w3.org/2000/svg" xmlns:xlink="http://www.w3.org/1999/xlink" x="0px" y="0px"
	 viewBox="0 0 145.7 91.8" style="enable-background:new 0 0 145.7 91.8;" xml:space="preserve">
<style type="text/css">
	.st0{fill:#C0D538;}
	.st1{fill:#9DAF2D;}
</style>
<g id="XMLID_53_">
	<g id="XMLID_30_">
		<path id="XMLID_37_" class="st0" d="M128.6,26.6l-0.9,0.4c0.1,0.2,0.2,0.4,0.3,0.6c3.9,9.6-18.4,27.6-49.7,40.3
			C48.1,80,20.4,82.7,15.1,74.2l-0.9,0.4c2.2,3.7,8.1,5.5,16.4,5.5c12.2,0,29.5-3.9,48.1-11.4c32.3-13,54.4-31.3,50.2-41.6
			C128.9,27,128.8,26.8,128.6,26.6z"/>
		<path id="XMLID_29_" class="st1" d="M78.3,67.8c-11,4.4-21.6,7.6-31,9.4c0.4,0.3,0.7,0.6,1.1,0.8c9.2-1.9,19.5-5,30.3-9.3
			c12.3-5,23.1-10.7,31.6-16.4c0.1-0.5,0.1-0.9,0.2-1.4C102,56.8,90.9,62.8,78.3,67.8z"/>
	</g>
</g>
</svg>
