<?xml version="1.0" encoding="utf-8"?>
<!-- Generator: Adobe Illustrator 19.0.0, SVG Export Plug-In . SVG Version: 6.00 Build 0)  -->
<!DOCTYPE svg PUBLIC "-//W3C//DTD SVG 1.1//EN" "http://www.w3.org/Graphics/SVG/1.1/DTD/svg11.dtd">
<svg version="1.1" id="Layer_1" xmlns="http://www.w3.org/2000/svg" xmlns:xlink="http://www.w3.org/1999/xlink" x="0px" y="0px"
	 viewBox="-694 979.2 145.7 91.8" style="enable-background:new -694 979.2 145.7 91.8;" xml:space="preserve">
<style type="text/css">
	.st0{fill:#FF6D52;}
	.st1{fill:#9E4028;}
</style>
<g id="XMLID_3_">
	<path id="XMLID_19_" class="st0" d="M-597.4,1038.5c-0.4,0.2-0.7,0.4-1.1,0.6C-598.2,1038.9-597.8,1038.7-597.4,1038.5z"/>
	<path id="XMLID_24_" class="st0" d="M-619.3,1048.4c-0.3,0.1-0.6,0.2-0.9,0.4C-620,1048.6-619.6,1048.5-619.3,1048.4z"/>
	<path id="XMLID_25_" class="st0" d="M-623.7,1051.1c-0.5,0.2-1,0.3-1.5,0.5C-624.7,1051.4-624.2,1051.3-623.7,1051.1z"/>
	<path id="XMLID_26_" class="st0" d="M-610.4,1044.8c-0.6,0.2-1.1,0.5-1.7,0.7C-611.5,1045.2-611,1045-610.4,1044.8z"/>
	<path id="XMLID_27_" class="st0" d="M-627.5,1051.3c-0.3,0.1-0.5,0.2-0.8,0.3C-628.1,1051.5-627.8,1051.4-627.5,1051.3z"/>
	<path id="XMLID_28_" class="st0" d="M-620,1049.7c-0.8,0.3-1.5,0.6-2.3,0.8C-621.5,1050.3-620.8,1050-620,1049.7z"/>
	<path id="XMLID_5_" class="st0" d="M-623.4,1049.9c-0.2,0.1-0.3,0.1-0.5,0.2C-623.8,1050-623.6,1050-623.4,1049.9z"/>
	<path id="XMLID_4_" class="st0" d="M-613,1045.9c-0.8,0.4-1.7,0.7-2.5,1C-614.7,1046.6-613.9,1046.2-613,1045.9z"/>
	<path id="XMLID_31_" class="st0" d="M-604.9,1042.3c-0.6,0.3-1.2,0.6-1.9,0.9C-606.2,1042.9-605.6,1042.6-604.9,1042.3z"/>
	<path id="XMLID_32_" class="st0" d="M-599.7,1039.7c-0.4,0.2-0.8,0.4-1.2,0.6C-600.5,1040.1-600.1,1039.9-599.7,1039.7z"/>
	<path id="XMLID_33_" class="st0" d="M-590.1,1034.4c-0.2,0.1-0.4,0.3-0.7,0.4C-590.6,1034.6-590.4,1034.5-590.1,1034.4z"/>
	<path id="XMLID_34_" class="st0" d="M-602,1040.9c-0.6,0.3-1.2,0.6-1.8,0.9C-603.3,1041.5-602.6,1041.2-602,1040.9z"/>
	<path id="XMLID_35_" class="st0" d="M-629.4,1053c0,0-0.1,0-0.1,0C-629.5,1053-629.5,1053-629.4,1053z"/>
	<path id="XMLID_36_" class="st0" d="M-607.8,1043.6c-0.5,0.2-1.1,0.5-1.6,0.7C-608.9,1044.1-608.3,1043.8-607.8,1043.6z"/>
	<path id="XMLID_2_" class="st0" d="M-592.2,1035.6c-0.2,0.1-0.4,0.2-0.6,0.3C-592.5,1035.8-592.4,1035.7-592.2,1035.6z"/>
	<path id="XMLID_38_" class="st0" d="M-641.5,1055.3c-5.9,1.4-11.4,2.3-16.5,2.7c-11,0.9-18.5-0.8-20.9-4.7l-0.8,0.6
		c2.2,3.5,7.8,5.4,16.3,5.4c1.7,0,3.6-0.1,5.5-0.2c3.9-0.3,8-0.9,12.4-1.8c-0.4-0.3-0.7-0.5-1.1-0.8
		C-645,1056.1-643.3,1055.7-641.5,1055.3z"/>
	<path id="XMLID_39_" class="st0" d="M-618.8,1049.3c1.2-0.5,2.4-0.9,3.6-1.4c1.4-0.6,2.8-1.1,4.1-1.7c-1.3,0.6-2.7,1.2-4.1,1.7
		C-616.5,1048.4-617.7,1048.8-618.8,1049.3z"/>
	<path id="XMLID_40_" class="st0" d="M-594.4,1038c-2.4,1.3-4.9,2.6-7.4,3.9C-599.2,1040.6-596.8,1039.3-594.4,1038z"/>
	<path id="XMLID_41_" class="st0" d="M-587.1,1033.7c-2.2,1.4-4.5,2.8-6.9,4.1C-591.6,1036.4-589.3,1035-587.1,1033.7z"/>
	<path id="XMLID_42_" class="st0" d="M-586.6,1032.1c-0.1,0.1-0.2,0.1-0.3,0.2C-586.8,1032.3-586.7,1032.2-586.6,1032.1z"/>
	<path id="XMLID_43_" class="st0" d="M-602.5,1042.2c-1.3,0.6-2.5,1.2-3.9,1.8C-605,1043.4-603.7,1042.8-602.5,1042.2z"/>
	<path id="XMLID_44_" class="st0" d="M-566,1006.7c2.3,5.7-4.8,14.5-17.5,23.4c-0.1,0.5-0.1,0.9-0.2,1.4c-1,0.7-2.1,1.4-3.2,2.1
		c15.8-10,24.6-20.4,21.9-27.2c-0.1-0.2-0.2-0.4-0.3-0.6l-0.9,0.4C-566.2,1006.3-566.1,1006.5-566,1006.7z"/>
	<path id="XMLID_45_" class="st0" d="M-606.3,1044c-1.3,0.6-2.6,1.2-4,1.8C-609,1045.2-607.7,1044.6-606.3,1044z"/>
	<path id="XMLID_46_" class="st0" d="M-635.4,1053.7c-0.3,0.1-0.6,0.2-1,0.3C-636.1,1053.9-635.8,1053.8-635.4,1053.7z"/>
	<path id="XMLID_47_" class="st0" d="M-631.2,1052.5c-0.3,0.1-0.6,0.2-0.9,0.3C-631.8,1052.7-631.5,1052.6-631.2,1052.5z"/>
	<path id="XMLID_48_" class="st0" d="M-588.2,1033.2c-0.2,0.1-0.4,0.2-0.6,0.4C-588.6,1033.4-588.4,1033.3-588.2,1033.2z"/>
	<path id="XMLID_49_" class="st0" d="M-638.6,1054.6c-0.5,0.1-1.1,0.3-1.6,0.4C-639.7,1054.8-639.2,1054.7-638.6,1054.6z"/>
	<path id="XMLID_52_" class="st0" d="M-595.3,1037.3c-0.3,0.2-0.6,0.3-0.9,0.5C-595.9,1037.7-595.6,1037.5-595.3,1037.3z"/>
	<path id="XMLID_1_" class="st1" d="M-586.9,1032.3c-0.4,0.3-0.9,0.6-1.4,0.9C-587.8,1032.9-587.3,1032.6-586.9,1032.3z"/>
	<path id="XMLID_54_" class="st1" d="M-588.8,1033.5c-0.4,0.3-0.9,0.5-1.3,0.8C-589.7,1034.1-589.3,1033.8-588.8,1033.5z"/>
	<path id="XMLID_55_" class="st1" d="M-625.3,1051.6c-1.4,0.5-2.8,0.9-4.2,1.4C-628,1052.5-626.6,1052.1-625.3,1051.6z"/>
	<path id="XMLID_56_" class="st1" d="M-601.8,1041.9c-0.2,0.1-0.4,0.2-0.6,0.3C-602.3,1042.1-602,1042-601.8,1041.9z"/>
	<path id="XMLID_57_" class="st1" d="M-606.3,1044C-606.3,1044-606.3,1044-606.3,1044C-606.3,1044-606.3,1044-606.3,1044z"/>
	<path id="XMLID_59_" class="st1" d="M-594,1037.8c-0.1,0.1-0.3,0.1-0.4,0.2C-594.3,1037.9-594.1,1037.8-594,1037.8z"/>
	<path id="XMLID_60_" class="st1" d="M-618.8,1049.3c-0.4,0.1-0.8,0.3-1.1,0.4C-619.6,1049.6-619.2,1049.4-618.8,1049.3z"/>
	<path id="XMLID_62_" class="st1" d="M-622.3,1050.6c-0.5,0.2-1,0.4-1.4,0.5C-623.3,1050.9-622.8,1050.7-622.3,1050.6z"/>
	<path id="XMLID_64_" class="st1" d="M-610.3,1045.8c-0.3,0.1-0.6,0.2-0.9,0.4C-610.9,1046.1-610.6,1045.9-610.3,1045.8z"/>
	<path id="XMLID_67_" class="st1" d="M-645.5,1057.2c5-1,10.4-2.4,16-4.2C-635.1,1054.8-640.5,1056.2-645.5,1057.2
		C-645.6,1057.2-645.6,1057.2-645.5,1057.2z"/>
	<path id="XMLID_68_" class="st1" d="M-586.9,1033.6c-0.1,0-0.1,0.1-0.2,0.1C-587,1033.6-587,1033.6-586.9,1033.6z"/>
	<path id="XMLID_69_" class="st1" d="M-628.3,1051.6c-1,0.3-1.9,0.6-2.9,0.9C-630.3,1052.2-629.3,1051.9-628.3,1051.6z"/>
	<path id="XMLID_72_" class="st1" d="M-632.1,1052.7c-1.1,0.3-2.2,0.7-3.4,1C-634.3,1053.4-633.2,1053.1-632.1,1052.7z"/>
	<path id="XMLID_73_" class="st1" d="M-620.3,1048.8c-1.1,0.4-2.1,0.8-3.2,1.2C-622.4,1049.5-621.3,1049.1-620.3,1048.8z"/>
	<path id="XMLID_74_" class="st1" d="M-636.4,1054c-0.8,0.2-1.5,0.4-2.2,0.6C-637.9,1054.4-637.1,1054.2-636.4,1054z"/>
	<path id="XMLID_75_" class="st1" d="M-623.9,1050.1c-1.2,0.4-2.4,0.8-3.6,1.2C-626.3,1050.9-625.1,1050.5-623.9,1050.1z"/>
	<path id="XMLID_76_" class="st1" d="M-586.6,1032.1c1.1-0.7,2.1-1.4,3.1-2.1c0,0,0,0,0,0C-584.5,1030.8-585.5,1031.4-586.6,1032.1z
		"/>
	<path id="XMLID_77_" class="st1" d="M-640.2,1055c-0.4,0.1-0.9,0.2-1.3,0.3C-641.1,1055.2-640.7,1055.1-640.2,1055z"/>
	<path id="XMLID_78_" class="st1" d="M-619.3,1048.4c1.2-0.5,2.4-0.9,3.7-1.4c0,0,0.1,0,0.1,0c0,0-0.1,0-0.1,0
		C-616.9,1047.5-618.1,1047.9-619.3,1048.4z"/>
	<path id="XMLID_79_" class="st1" d="M-606.8,1043.1c-0.3,0.1-0.6,0.3-1,0.4C-607.5,1043.4-607.1,1043.3-606.8,1043.1z"/>
	<path id="XMLID_80_" class="st1" d="M-600.9,1040.3c-0.4,0.2-0.7,0.4-1.1,0.6C-601.7,1040.7-601.3,1040.5-600.9,1040.3z"/>
	<path id="XMLID_81_" class="st1" d="M-592.7,1035.9c-0.9,0.5-1.7,1-2.6,1.5C-594.4,1036.9-593.6,1036.4-592.7,1035.9z"/>
	<path id="XMLID_82_" class="st1" d="M-596.2,1037.8c-0.4,0.2-0.8,0.4-1.2,0.7C-597,1038.3-596.6,1038.1-596.2,1037.8z"/>
	<path id="XMLID_83_" class="st1" d="M-612.1,1045.5c-0.3,0.1-0.6,0.3-0.9,0.4C-612.7,1045.7-612.4,1045.6-612.1,1045.5z"/>
	<path id="XMLID_84_" class="st1" d="M-598.5,1039.1c-0.4,0.2-0.8,0.4-1.2,0.6C-599.3,1039.5-598.9,1039.3-598.5,1039.1z"/>
	<path id="XMLID_85_" class="st1" d="M-590.8,1034.8c-0.4,0.3-0.9,0.5-1.4,0.8C-591.7,1035.3-591.3,1035-590.8,1034.8z"/>
	<path id="XMLID_86_" class="st1" d="M-609.4,1044.3c-0.3,0.1-0.7,0.3-1,0.4C-610.1,1044.6-609.7,1044.5-609.4,1044.3z"/>
	<path id="XMLID_87_" class="st1" d="M-603.9,1041.8c-0.4,0.2-0.7,0.3-1.1,0.5C-604.6,1042.1-604.2,1041.9-603.9,1041.8z"/>
	<path id="XMLID_88_" class="st1" d="M-583.5,1030.1c-1,0.7-2,1.4-3.1,2.1c-0.1,0.1-0.2,0.1-0.3,0.2c-0.4,0.3-0.9,0.6-1.4,0.9
		c-0.2,0.1-0.4,0.2-0.6,0.4c-0.4,0.3-0.9,0.5-1.3,0.8c-0.2,0.1-0.4,0.3-0.7,0.4c-0.4,0.3-0.9,0.5-1.4,0.8c-0.2,0.1-0.4,0.2-0.6,0.3
		c-0.9,0.5-1.7,1-2.6,1.5c-0.3,0.2-0.6,0.3-0.9,0.5c-0.4,0.2-0.8,0.4-1.2,0.7c-0.4,0.2-0.7,0.4-1.1,0.6c-0.4,0.2-0.8,0.4-1.2,0.6
		c-0.4,0.2-0.8,0.4-1.2,0.6c-0.4,0.2-0.7,0.4-1.1,0.6c-0.6,0.3-1.2,0.6-1.8,0.9c-0.4,0.2-0.7,0.3-1.1,0.5c-0.6,0.3-1.2,0.6-1.9,0.9
		c-0.3,0.1-0.6,0.3-1,0.4c-0.5,0.2-1.1,0.5-1.6,0.7c-0.3,0.1-0.7,0.3-1,0.4c-0.6,0.2-1.1,0.5-1.7,0.7c-0.3,0.1-0.6,0.3-0.9,0.4
		c-0.8,0.4-1.7,0.7-2.5,1c0,0-0.1,0-0.1,0c-1.2,0.5-2.5,1-3.7,1.4c-0.3,0.1-0.6,0.2-0.9,0.4c-1.1,0.4-2.1,0.8-3.2,1.2
		c-0.2,0.1-0.3,0.1-0.5,0.2c-1.2,0.4-2.4,0.8-3.6,1.2c-0.3,0.1-0.5,0.2-0.8,0.3c-1,0.3-1.9,0.6-2.9,0.9c-0.3,0.1-0.6,0.2-0.9,0.3
		c-1.1,0.3-2.2,0.7-3.4,1c-0.3,0.1-0.6,0.2-1,0.3c-0.8,0.2-1.5,0.4-2.2,0.6c-0.5,0.1-1.1,0.3-1.6,0.4c-0.4,0.1-0.9,0.2-1.3,0.3
		c-1.7,0.4-3.5,0.8-5.1,1.1c0.4,0.3,0.7,0.5,1.1,0.8c5.1-1,10.5-2.4,16-4.2c0,0,0.1,0,0.1,0c1.4-0.4,2.8-0.9,4.2-1.4
		c0.5-0.2,1-0.3,1.5-0.5c0.5-0.2,1-0.3,1.4-0.5c0.8-0.3,1.5-0.6,2.3-0.8c0.4-0.1,0.8-0.3,1.1-0.4c1.2-0.5,2.4-0.9,3.6-1.4
		c1.4-0.6,2.8-1.1,4.1-1.7c0.3-0.1,0.6-0.2,0.9-0.4c1.3-0.6,2.7-1.2,4-1.8c0,0,0,0,0,0c1.3-0.6,2.6-1.2,3.9-1.8
		c0.2-0.1,0.4-0.2,0.6-0.3c2.6-1.3,5.1-2.6,7.4-3.9c0.1-0.1,0.3-0.1,0.4-0.2c2.4-1.4,4.7-2.7,6.9-4.1c0.1,0,0.1-0.1,0.2-0.1
		c1.1-0.7,2.2-1.4,3.2-2.1C-583.6,1031-583.6,1030.5-583.5,1030.1z"/>
</g>
</svg>
