<?xml version="1.0" encoding="utf-8"?>
<!-- Generator: Adobe Illustrator 19.0.0, SVG Export Plug-In . SVG Version: 6.00 Build 0)  -->
<!DOCTYPE svg PUBLIC "-//W3C//DTD SVG 1.1//EN" "http://www.w3.org/Graphics/SVG/1.1/DTD/svg11.dtd">
<svg version="1.1" id="Layer_1" xmlns="http://www.w3.org/2000/svg" xmlns:xlink="http://www.w3.org/1999/xlink" x="0px" y="0px"
	 viewBox="0 0 145.7 91.8" style="enable-background:new 0 0 145.7 91.8;" xml:space="preserve">
<style type="text/css">
	.st0{fill:#C0D538;}
	.st1{fill:#9DAF2D;}
</style>
<g id="XMLID_53_">
	<g id="XMLID_33_">
		<circle id="XMLID_43_" class="st0" cx="71.5" cy="45.9" r="39.5"/>
		<g id="XMLID_40_">
			<path id="XMLID_42_" class="st1" d="M60.8,18.1c1.2,2,2,4.4,2,6.9c0,7.3-5.9,13.3-13.2,13.3c-2.3,0-4.4-0.6-6.3-1.6
				c2.3,3.8,6.5,6.3,11.3,6.3c7.3,0,13.2-5.9,13.2-13.3C67.8,24.8,64.9,20.4,60.8,18.1z"/>
		</g>
		<g id="XMLID_36_">
			<path id="XMLID_38_" class="st1" d="M85.1,19.4c0.9,1.5,1.4,3.2,1.4,5c0,5.3-4.3,9.6-9.6,9.6c-1.6,0-3.2-0.4-4.5-1.1
				c1.7,2.7,4.7,4.6,8.1,4.6c5.3,0,9.6-4.3,9.6-9.6C90.1,24.2,88.1,21,85.1,19.4z"/>
		</g>
		<g id="XMLID_34_">
			<path id="XMLID_35_" class="st1" d="M59.6,48.4c0.8,1.4,1.3,2.9,1.3,4.7c0,4.9-4,8.9-8.9,8.9c-1.5,0-3-0.4-4.2-1.1
				c1.6,2.6,4.4,4.3,7.6,4.3c4.9,0,8.9-4,8.9-8.9C64.3,52.9,62.4,49.9,59.6,48.4z"/>
		</g>
	</g>
</g>
</svg>
