<?xml version="1.0" encoding="utf-8"?>
<!-- Generator: Adobe Illustrator 19.0.0, SVG Export Plug-In . SVG Version: 6.00 Build 0)  -->
<!DOCTYPE svg PUBLIC "-//W3C//DTD SVG 1.1//EN" "http://www.w3.org/Graphics/SVG/1.1/DTD/svg11.dtd">
<svg version="1.1" id="Layer_1" xmlns="http://www.w3.org/2000/svg" xmlns:xlink="http://www.w3.org/1999/xlink" x="0px" y="0px"
	 viewBox="-694 979.2 145.7 91.8" style="enable-background:new -694 979.2 145.7 91.8;" xml:space="preserve">
<style type="text/css">
	.st0{fill:#FF6D52;}
</style>
<path id="XMLID_19_" class="st0" d="M-679.4,1052.4c-3.9-9.6,18.4-27.6,49.7-40.3c15.2-6.1,30.3-10.1,42.4-11
	c1.9-0.2,3.7-0.2,5.4-0.2c8.3,0,13.9,1.8,15.7,5.2l0.9-0.4c-2.4-4.6-10.1-6.6-22.1-5.6c-12.2,1-27.4,4.9-42.7,11.1
	c-32.3,13-54.4,31.3-50.2,41.6c0.1,0.4,0.3,0.7,0.5,1l0.8-0.6C-679.1,1053-679.2,1052.7-679.4,1052.4z"/>
</svg>
