<?xml version="1.0" encoding="utf-8"?>
<!-- Generator: Adobe Illustrator 19.0.0, SVG Export Plug-In . SVG Version: 6.00 Build 0)  -->
<!DOCTYPE svg PUBLIC "-//W3C//DTD SVG 1.1//EN" "http://www.w3.org/Graphics/SVG/1.1/DTD/svg11.dtd">
<svg version="1.1" id="Layer_1" xmlns="http://www.w3.org/2000/svg" xmlns:xlink="http://www.w3.org/1999/xlink" x="0px" y="0px"
	 viewBox="-717 1005.8 101 32.2" style="enable-background:new -717 1005.8 101 32.2;" xml:space="preserve">
<style type="text/css">
	.st0{fill:none;stroke:#7B8A8E;stroke-width:0.6162;stroke-linecap:round;stroke-miterlimit:10;}
	.st1{fill:#738389;}
	.st2{fill:#808E96;}
	.st3{fill:#91A5AD;}
	.st4{fill:none;stroke:#91A5AD;stroke-width:0.6162;stroke-miterlimit:10;}
	.st5{fill:#C0D638;}
	.st6{fill:#7B8A8E;}
	.st7{fill:#86959D;}
	.st8{fill:#515D63;}
	.st9{fill:#2C3437;}
	.st10{fill:#8A9CA4;}
	.st11{fill:url(#XMLID_3_);}
	.st12{fill:url(#XMLID_4_);}
	.st13{fill:none;stroke:#7B8A8E;stroke-width:0.6162;stroke-miterlimit:10;}
	.st14{fill:none;stroke:#738389;stroke-width:0.6162;stroke-miterlimit:10;}
	.st15{fill:url(#XMLID_5_);}
	.st16{fill:url(#XMLID_6_);}
	.st17{fill:url(#XMLID_7_);}
	.st18{fill:#6F7E83;}
	.st19{fill:none;stroke:#91A5AD;stroke-width:0.6162;stroke-linecap:round;stroke-miterlimit:10;}
	.st20{fill:#F2F2F2;}
</style>
<g id="XMLID_149_">
	<g id="XMLID_248_">
		<line id="XMLID_147_" class="st0" x1="-1416.2" y1="2025.6" x2="-1416.2" y2="2020.6"/>
		<line id="XMLID_146_" class="st0" x1="-1350.9" y1="2025.6" x2="-1350.9" y2="2020.6"/>
	</g>
	<g id="XMLID_154_">
		<g id="XMLID_159_">
			<g id="XMLID_242_">
				<polygon id="XMLID_145_" class="st1" points="-1345.7,2023.2 -1348,2020 -1348,1998.9 -1346.9,2019.1 -1345.6,2020.5 				"/>
				<polygon id="XMLID_144_" class="st1" points="-1421.2,2023.2 -1418.9,2020 -1418.9,1998.9 -1420,2019.1 -1421.4,2020.5 				"/>
				<g id="XMLID_243_">
					<polygon id="XMLID_143_" class="st1" points="-1373.8,1987.4 -1371.5,1984.2 -1371.5,1963.1 -1372.5,1983.3 -1373.9,1984.7 
											"/>
					<polygon id="XMLID_142_" class="st1" points="-1393.1,1987.4 -1395.5,1984.2 -1395.5,1963.1 -1394.4,1983.3 -1393,1984.7 					
						"/>
				</g>
			</g>
			<polygon id="XMLID_141_" class="st2" points="-1365.6,2008.6 -1365.6,1996.3 -1372.1,1993.2 -1374.2,1978.1 -1381,1964.6 
				-1383.5,1964.6 -1385.9,1964.6 -1392.7,1978.1 -1394.9,1993.2 -1401.3,1996.3 -1401.3,2008.6 -1419.4,2026.6 -1407.5,2038.5 
				-1401,2032 -1392.1,2032 -1383.5,2039.7 -1374.8,2032 -1365.9,2032 -1359.4,2038.5 -1347.6,2026.6 			"/>
			<polygon id="XMLID_140_" class="st3" points="-1365.6,1999.5 -1361.1,2003.2 -1361.1,2004.6 -1365.6,2008.6 			"/>
			<polygon id="XMLID_139_" class="st3" points="-1401.3,1999.5 -1405.8,2003.2 -1405.8,2004.6 -1401.3,2008.6 			"/>
			<polyline id="XMLID_138_" class="st4" points="-1414.8,2033.9 -1383.5,2002.6 -1352.4,2033.7 			"/>
			<polygon id="XMLID_137_" class="st5" points="-1385.9,1964.6 -1385,1966.3 -1381.9,1966.3 -1381,1964.6 			"/>
			<polygon id="XMLID_136_" class="st6" points="-1407.5,2038.5 -1401,2032 -1392.1,2032 -1391.5,2030.1 -1401.8,2030.1 
				-1408.8,2037.2 			"/>
			<polygon id="XMLID_135_" class="st6" points="-1359.4,2038.5 -1365.9,2032 -1374.8,2032 -1375.4,2030.1 -1365.1,2030.1 
				-1358.1,2037.2 			"/>
			<polygon id="XMLID_134_" class="st7" points="-1392.1,1995.2 -1391.4,1979.4 -1385,1966.3 -1385.9,1964.6 -1392.7,1978.1 
				-1394.9,1993.2 			"/>
			<polygon id="XMLID_133_" class="st7" points="-1374.8,1995.2 -1375.5,1979.4 -1381.9,1966.3 -1381,1964.6 -1374.2,1978.1 
				-1372.1,1993.2 			"/>
			<polygon id="XMLID_132_" class="st8" points="-1372.1,1993.2 -1371.3,1996.1 -1368.7,1997.2 -1365.6,1996.3 			"/>
			<polygon id="XMLID_131_" class="st8" points="-1394.9,1993.2 -1395.6,1996.1 -1398.3,1997.2 -1401.3,1996.3 			"/>
			<polygon id="XMLID_130_" class="st9" points="-1399.5,1996.8 -1397.8,1995.8 -1395.3,1994.9 -1395.6,1996.1 -1398.3,1997.2 			
				"/>
			<polygon id="XMLID_129_" class="st9" points="-1367.5,1996.8 -1369.1,1995.8 -1371.6,1994.9 -1371.3,1996.1 -1368.7,1997.2 			
				"/>
			<polygon id="XMLID_128_" class="st1" points="-1368.7,1997.2 -1365.6,2008.6 -1365.6,1996.3 			"/>
			<polygon id="XMLID_127_" class="st1" points="-1398.3,1997.2 -1401.3,2008.6 -1401.3,1996.3 			"/>
			<polygon id="XMLID_126_" class="st10" points="-1359.4,2038.5 -1359.4,2044.1 -1355.7,2047.8 -1341.9,2047.8 -1332.9,2031.1 
				-1342.2,2008.9 -1344.9,2008.9 -1347.6,2026.6 			"/>
			<polygon id="XMLID_125_" class="st2" points="-1342.2,2008.9 -1342.2,2030.7 -1355.7,2047.8 -1348.7,2048.9 -1341.9,2047.8 
				-1332.9,2031.1 			"/>
			<polygon id="XMLID_124_" class="st1" points="-1348.7,2048.9 -1336.8,2031.1 -1342.2,2008.9 -1332.9,2031.1 -1341.9,2047.8 			
				"/>
			<polygon id="XMLID_123_" class="st5" points="-1339.2,2038.5 -1341.9,2044.8 -1341.9,2047.8 -1336.9,2038.5 			"/>
			
				<linearGradient id="XMLID_3_" gradientUnits="userSpaceOnUse" x1="-1347.9828" y1="22.15" x2="-1332.9329" y2="22.15" gradientTransform="matrix(1 0 0 -1 0 2052)">
				<stop  offset="0" style="stop-color:#256780"/>
				<stop  offset="1" style="stop-color:#508091"/>
			</linearGradient>
			<polygon id="XMLID_122_" class="st11" points="-1332.9,2031.1 -1342.2,2030.7 -1347.6,2026.6 -1348,2027.1 -1343,2031.7 
				-1334,2033.1 			"/>
			<polygon id="XMLID_121_" class="st10" points="-1407.5,2038.5 -1407.5,2044.1 -1411.2,2047.8 -1425.1,2047.8 -1434,2031.1 
				-1424.8,2008.9 -1422,2008.9 -1419.4,2026.6 			"/>
			<polygon id="XMLID_120_" class="st2" points="-1424.8,2008.9 -1424.8,2030.7 -1411.2,2047.8 -1418.3,2048.9 -1425.1,2047.8 
				-1434,2031.1 			"/>
			<polygon id="XMLID_119_" class="st1" points="-1418.3,2048.9 -1430.1,2031.1 -1424.8,2008.9 -1434,2031.1 -1425.1,2047.8 			"/>
			<polygon id="XMLID_118_" class="st5" points="-1430,2038.5 -1425.1,2047.8 -1425.1,2044.8 -1427.7,2038.5 			"/>
			
				<linearGradient id="XMLID_4_" gradientUnits="userSpaceOnUse" x1="-1434" y1="22.15" x2="-1418.95" y2="22.15" gradientTransform="matrix(1 0 0 -1 0 2052)">
				<stop  offset="0" style="stop-color:#256780"/>
				<stop  offset="1" style="stop-color:#508091"/>
			</linearGradient>
			<polygon id="XMLID_117_" class="st12" points="-1434,2031.1 -1424.8,2030.7 -1419.4,2026.6 -1419,2027.1 -1423.9,2031.7 
				-1432.9,2033.1 			"/>
			<polygon id="XMLID_116_" class="st6" points="-1419,2027.1 -1401.3,2008.6 -1419.4,2026.6 			"/>
			<g id="XMLID_213_">
				<polyline id="XMLID_115_" class="st13" points="-1415,2030.8 -1408.1,2024.2 -1408.1,2021 -1397.2,2010.8 				"/>
				<polyline id="XMLID_114_" class="st13" points="-1352,2030.8 -1358.9,2024.2 -1358.9,2021 -1369.8,2010.8 				"/>
			</g>
			<g id="XMLID_210_">
				<polyline id="XMLID_113_" class="st13" points="-1393,2019.4 -1395.6,2022.3 -1395.6,2030.8 				"/>
				<polyline id="XMLID_112_" class="st13" points="-1373.9,2019.4 -1371.3,2022.3 -1371.3,2030.8 				"/>
			</g>
			<g id="XMLID_207_">
				<polyline id="XMLID_111_" class="st14" points="-1389.4,1992.4 -1389.4,1982.4 -1383.3,1976.3 				"/>
				<polyline id="XMLID_110_" class="st14" points="-1377.5,1992.4 -1377.5,1982.4 -1383.6,1976.3 				"/>
			</g>
			<polygon id="XMLID_83_" class="st3" points="-1383.5,1987.3 -1383.5,1966.3 -1381.9,1966.3 -1380.5,1969.1 -1380.5,1989.8 			"/>
			<polygon id="XMLID_82_" class="st3" points="-1383.5,1987.3 -1383.5,1966.3 -1385,1966.3 -1386.4,1969.1 -1386.4,1989.8 			"/>
			<g id="XMLID_201_">
				
					<linearGradient id="XMLID_5_" gradientUnits="userSpaceOnUse" x1="-1383.4501" y1="66.364" x2="-1383.4501" y2="79.3728" gradientTransform="matrix(1 0 0 -1 0 2052)">
					<stop  offset="0" style="stop-color:#256780"/>
					<stop  offset="1" style="stop-color:#508091"/>
				</linearGradient>
				<rect id="XMLID_1_" x="-1385" y="1970.7" class="st15" width="3.1" height="2.5"/>
				
					<linearGradient id="XMLID_6_" gradientUnits="userSpaceOnUse" x1="-1383.4501" y1="66.364" x2="-1383.45" y2="79.3728" gradientTransform="matrix(1 0 0 -1 0 2052)">
					<stop  offset="0" style="stop-color:#256780"/>
					<stop  offset="1" style="stop-color:#508091"/>
				</linearGradient>
				<rect id="XMLID_79_" x="-1385" y="1974.5" class="st16" width="3.1" height="2.5"/>
				
					<linearGradient id="XMLID_7_" gradientUnits="userSpaceOnUse" x1="-1383.4501" y1="66.364" x2="-1383.45" y2="79.3728" gradientTransform="matrix(1 0 0 -1 0 2052)">
					<stop  offset="0" style="stop-color:#256780"/>
					<stop  offset="1" style="stop-color:#508091"/>
				</linearGradient>
				<polygon id="XMLID_75_" class="st17" points="-1381.9,1985.3 -1383.5,1984.1 -1385,1985.3 -1385,1978.2 -1381.9,1978.2 				"/>
			</g>
			<g id="XMLID_181_">
				<g id="XMLID_109_">
					<polygon class="st7" points="-1387.6,2026.3 -1397.9,2013 -1391.8,1995.4 -1383.5,1988.6 -1375.1,1995.4 -1369,2013 
						-1379.3,2026.3 					"/>
					<path class="st6" d="M-1383.5,1989l8.1,6.6l6,17.4l-10.1,13.1h-4h-4l-10.1-13.1l6-17.4L-1383.5,1989 M-1383.5,1988.2l-8.6,7
						l-6.2,17.9l10.5,13.6h4.3h4.3l10.5-13.6l-6.2-17.9L-1383.5,1988.2L-1383.5,1988.2z"/>
				</g>
				<polygon id="XMLID_108_" class="st1" points="-1390.3,2006.2 -1383.5,1996.1 -1376.6,2006.2 -1376.6,2014.1 -1383.5,2026.1 
					-1390.3,2014.1 				"/>
				<g id="XMLID_191_">
					<polygon id="XMLID_107_" class="st18" points="-1389,2016.5 -1386.4,2008.9 -1383.5,2006.2 -1383.5,2020 -1388.2,2017.9 					
						"/>
					<polygon id="XMLID_106_" class="st18" points="-1377.9,2016.5 -1380.5,2008.9 -1383.5,2006.2 -1383.5,2020 -1378.8,2017.9 
											"/>
				</g>
				<polygon id="XMLID_105_" class="st6" points="-1381.2,2009.4 -1383.5,2007.1 -1385.8,2009.4 -1392.1,2032 -1383.5,2039.7 
					-1374.8,2032 				"/>
				<polygon id="XMLID_104_" class="st5" points="-1376.6,2014.1 -1376.6,2006.2 -1374.5,2008.2 				"/>
				<polygon id="XMLID_103_" class="st5" points="-1390.3,2014.1 -1390.3,2006.2 -1392.5,2008.2 				"/>
				<g id="XMLID_185_">
					<polygon id="XMLID_102_" class="st10" points="-1383.5,2039.7 -1383.5,2007.1 -1381.2,2009.4 -1382.7,2039 					"/>
					<polygon id="XMLID_101_" class="st10" points="-1383.5,2039.7 -1383.5,2007.1 -1385.8,2009.4 -1384.2,2039 					"/>
				</g>
				<polygon id="XMLID_100_" class="st10" points="-1383.5,1988.2 -1374.8,1995.2 -1376.6,2006.2 -1383.5,1996.1 -1390.3,2006.2 
					-1392.1,1995.2 				"/>
				<polygon id="XMLID_99_" class="st7" points="-1381.3,1995.5 -1383.5,1993.3 -1385.6,1995.5 -1383.5,1990.9 				"/>
				<polygon id="XMLID_98_" class="st1" points="-1392.1,1995.2 -1383.5,1988.2 -1374.8,1995.2 -1374.9,1994 -1383.5,1987 
					-1392,1993.9 				"/>
			</g>
			<g id="XMLID_166_">
				<g id="XMLID_174_">
					<line id="XMLID_97_" class="st13" x1="-1418.3" y1="2036.8" x2="-1414.9" y2="2033.5"/>
					<line id="XMLID_96_" class="st13" x1="-1413.9" y1="2041.2" x2="-1410.6" y2="2037.8"/>
					<line id="XMLID_95_" class="st13" x1="-1414.8" y1="2040.3" x2="-1411.5" y2="2036.9"/>
					<line id="XMLID_94_" class="st13" x1="-1415.7" y1="2039.4" x2="-1412.3" y2="2036.1"/>
					<line id="XMLID_93_" class="st13" x1="-1416.5" y1="2038.5" x2="-1413.2" y2="2035.2"/>
					<line id="XMLID_92_" class="st13" x1="-1417.4" y1="2037.7" x2="-1414.1" y2="2034.3"/>
				</g>
				<g id="XMLID_167_">
					<line id="XMLID_91_" class="st13" x1="-1348.6" y1="2036.8" x2="-1351.9" y2="2033.5"/>
					<line id="XMLID_90_" class="st13" x1="-1353" y1="2041.2" x2="-1356.3" y2="2037.8"/>
					<line id="XMLID_89_" class="st13" x1="-1352.1" y1="2040.3" x2="-1355.4" y2="2036.9"/>
					<line id="XMLID_84_" class="st13" x1="-1351.2" y1="2039.4" x2="-1354.6" y2="2036.1"/>
					<line id="XMLID_78_" class="st13" x1="-1350.3" y1="2038.5" x2="-1353.7" y2="2035.2"/>
					<line id="XMLID_77_" class="st13" x1="-1349.5" y1="2037.7" x2="-1352.8" y2="2034.3"/>
				</g>
			</g>
			<polygon id="XMLID_76_" class="st2" points="-1363.3,2001.3 -1363.9,2004.1 -1363.3,2006.6 -1362.7,2006 -1362.7,2001.9 			"/>
			<polygon id="XMLID_74_" class="st2" points="-1403.6,2001.3 -1403,2004.1 -1403.6,2006.6 -1404.2,2006 -1404.2,2001.9 			"/>
		</g>
		<g id="XMLID_155_">
			<polygon id="XMLID_73_" class="st1" points="-1380.5,2034.4 -1377,2031.6 -1380.5,2019.1 			"/>
			<polygon id="XMLID_72_" class="st1" points="-1386.4,2034.4 -1389.9,2031.6 -1386.4,2019.1 			"/>
		</g>
	</g>
	<line id="XMLID_69_" class="st19" x1="-1383.5" y1="2004.6" x2="-1383.5" y2="2000.7"/>
	<circle id="XMLID_68_" class="st3" cx="-1383.5" cy="2002.6" r="0.7"/>
	<polygon id="XMLID_67_" class="st3" points="-1397.6,2012.9 -1395.3,2012.9 -1390.7,2021.8 	"/>
	<polygon id="XMLID_64_" class="st3" points="-1369.4,2012.9 -1371.7,2012.9 -1376.2,2021.8 	"/>
</g>
<g>
	<path id="XMLID_150_" class="st20" d="M-708.7,1036l-4.3-22.7c0-3,1.8-5.5,4.1-5.5l0,0c2.3,0,4.1,2.5,4.1,5.5L-708.7,1036"/>
	<path id="XMLID_151_" class="st20" d="M-623.8,1036l-4.3-22.7c0-3,1.8-5.5,4.1-5.5l0,0c2.3,0,4.1,2.5,4.1,5.5L-623.8,1036"/>
</g>
</svg>
