<?xml version="1.0" encoding="utf-8"?>
<!-- Generator: Adobe Illustrator 19.0.0, SVG Export Plug-In . SVG Version: 6.00 Build 0)  -->
<!DOCTYPE svg PUBLIC "-//W3C//DTD SVG 1.1//EN" "http://www.w3.org/Graphics/SVG/1.1/DTD/svg11.dtd">
<svg version="1.1" id="Layer_1" xmlns="http://www.w3.org/2000/svg" xmlns:xlink="http://www.w3.org/1999/xlink" x="0px" y="0px"
	 viewBox="0 0 101 88" style="enable-background:new 0 0 101 88;" xml:space="preserve">
<style type="text/css">
	.st0{fill:#C0D638;}
</style>
<g id="XMLID_2_">
	<path id="XMLID_80_" class="st0" d="M91.5,46.8h-2.8l-1.6,10.6l-0.4-0.5l-1.1-20.2v21.1l1.2,1.6l-0.7,5l-18-18l2.3-2v0l0.7-0.6l0,0
		l1.6-1.4V41L71,39.7l0,0l-0.7-0.5v0l-2.3-1.8v-3.2l-6.5-3.1l0,0l0,0l0,0l-1-6.8l1.6-2.1V1l-1.1,20.2L60.3,22l-0.9-6L52.7,2.5l0,0
		l0,0h-2.5h-2.5L41,16l-0.9,6l-0.8-0.9L38.3,1v21.1l1.6,2.1l-1,6.8l-6.5,3.1v3.2l-2.2,1.8l0,0l-0.7,0.5v0L27.9,41v1.4l1.6,1.4v0
		l0.7,0.6l0,0l2.2,2v0L18.2,60.7l-3.7,3.7l-0.7-5l1.2-1.6V36.7l-1.1,20.2l-0.4,0.5l-1.6-10.6H9l-9.2,22.1l1.1,2l0,0l7.9,14.6
		l6.8,1.1l7.1-1.1l3.7-3.7v-5.5l-4.6-4.6h0L25,75l1.3,1.3l0,0l0,0l4.7-4.7l12.6,0l6.7,5.9l0,0l0,0v0l6.7-6l12.5,0l4.8,4.8v5.5
		l3.7,3.7l7.1,1.1l6.8-1.1l8.9-16.6L91.5,46.8z M20.3,70.3l-5.5-5.5l0,0l0,0L20.3,70.3L20.3,70.3z"/>
</g>
</svg>
